  0
SECTION
  2
BLOCKS
  0
ENDSEC
  0
SECTION
  2
ENTITIES
  0
LINE
  8
0
 10
15.6034
 20
-248.01
 11
31.1453
 21
-246.54
  0
LINE
  8
0
 10
31.1453
 20
-246.54
 11
46.5643
 21
-244.098
  0
LINE
  8
0
 10
46.5643
 20
-244.098
 11
61.7994
 21
-240.693
  0
LINE
  8
0
 10
61.7994
 20
-240.693
 11
76.7907
 21
-236.338
  0
LINE
  8
0
 10
76.7907
 20
-236.338
 11
91.4789
 21
-231.049
  0
LINE
  8
0
 10
91.4789
 20
-231.049
 11
105.806
 21
-224.85
  0
LINE
  8
0
 10
105.806
 20
-224.85
 11
119.716
 21
-217.762
  0
LINE
  8
0
 10
119.716
 20
-217.762
 11
133.153
 21
-209.815
  0
LINE
  8
0
 10
133.153
 20
-209.815
 11
146.065
 21
-201.041
  0
LINE
  8
0
 10
146.065
 20
-201.041
 11
158.4
 21
-191.473
  0
LINE
  8
0
 10
158.4
 20
-191.473
 11
170.11
 21
-181.149
  0
LINE
  8
0
 10
170.11
 20
-181.149
 11
181.149
 21
-170.11
  0
LINE
  8
0
 10
181.149
 20
-170.11
 11
191.473
 21
-158.4
  0
LINE
  8
0
 10
191.473
 20
-158.4
 11
201.041
 21
-146.065
  0
LINE
  8
0
 10
201.041
 20
-146.065
 11
209.815
 21
-133.153
  0
LINE
  8
0
 10
209.815
 20
-133.153
 11
217.762
 21
-119.716
  0
LINE
  8
0
 10
217.762
 20
-119.716
 11
224.85
 21
-105.806
  0
LINE
  8
0
 10
224.85
 20
-105.806
 11
231.049
 21
-91.4789
  0
LINE
  8
0
 10
231.049
 20
-91.4789
 11
236.338
 21
-76.7907
  0
LINE
  8
0
 10
236.338
 20
-76.7907
 11
240.693
 21
-61.7994
  0
LINE
  8
0
 10
240.693
 20
-61.7994
 11
244.098
 21
-46.5643
  0
LINE
  8
0
 10
244.098
 20
-46.5643
 11
246.54
 21
-31.1453
  0
LINE
  8
0
 10
246.54
 20
-31.1453
 11
248.01
 21
-15.6034
  0
LINE
  8
0
 10
248.01
 20
-15.6034
 11
248.5
 21
0
  0
LINE
  8
0
 10
248.5
 20
0
 11
248.01
 21
15.6034
  0
LINE
  8
0
 10
248.01
 20
15.6034
 11
246.54
 21
31.1453
  0
LINE
  8
0
 10
246.54
 20
31.1453
 11
244.098
 21
46.5643
  0
LINE
  8
0
 10
244.098
 20
46.5643
 11
240.693
 21
61.7994
  0
LINE
  8
0
 10
240.693
 20
61.7994
 11
236.338
 21
76.7907
  0
LINE
  8
0
 10
236.338
 20
76.7907
 11
231.049
 21
91.4789
  0
LINE
  8
0
 10
231.049
 20
91.4789
 11
224.85
 21
105.806
  0
LINE
  8
0
 10
224.85
 20
105.806
 11
217.762
 21
119.716
  0
LINE
  8
0
 10
217.762
 20
119.716
 11
209.815
 21
133.153
  0
LINE
  8
0
 10
209.815
 20
133.153
 11
201.041
 21
146.065
  0
LINE
  8
0
 10
201.041
 20
146.065
 11
191.473
 21
158.4
  0
LINE
  8
0
 10
191.473
 20
158.4
 11
181.149
 21
170.11
  0
LINE
  8
0
 10
181.149
 20
170.11
 11
170.11
 21
181.149
  0
LINE
  8
0
 10
170.11
 20
181.149
 11
158.4
 21
191.473
  0
LINE
  8
0
 10
158.4
 20
191.473
 11
146.065
 21
201.041
  0
LINE
  8
0
 10
146.065
 20
201.041
 11
133.153
 21
209.815
  0
LINE
  8
0
 10
133.153
 20
209.815
 11
119.716
 21
217.762
  0
LINE
  8
0
 10
119.716
 20
217.762
 11
105.806
 21
224.85
  0
LINE
  8
0
 10
105.806
 20
224.85
 11
91.4789
 21
231.049
  0
LINE
  8
0
 10
91.4789
 20
231.049
 11
76.7907
 21
236.338
  0
LINE
  8
0
 10
76.7907
 20
236.338
 11
61.7994
 21
240.693
  0
LINE
  8
0
 10
61.7994
 20
240.693
 11
46.5643
 21
244.098
  0
LINE
  8
0
 10
46.5643
 20
244.098
 11
31.1453
 21
246.54
  0
LINE
  8
0
 10
31.1453
 20
246.54
 11
15.6034
 21
248.01
  0
LINE
  8
0
 10
15.6034
 20
248.01
 11
0
 21
248.5
  0
LINE
  8
0
 10
0
 20
248.5
 11
-15.6034
 21
248.01
  0
LINE
  8
0
 10
-15.6034
 20
248.01
 11
-31.1453
 21
246.54
  0
LINE
  8
0
 10
-31.1453
 20
246.54
 11
-46.5643
 21
244.098
  0
LINE
  8
0
 10
-46.5643
 20
244.098
 11
-61.7994
 21
240.693
  0
LINE
  8
0
 10
-61.7994
 20
240.693
 11
-76.7907
 21
236.338
  0
LINE
  8
0
 10
-76.7907
 20
236.338
 11
-91.4789
 21
231.049
  0
LINE
  8
0
 10
-91.4789
 20
231.049
 11
-105.806
 21
224.85
  0
LINE
  8
0
 10
-105.806
 20
224.85
 11
-119.716
 21
217.762
  0
LINE
  8
0
 10
-119.716
 20
217.762
 11
-133.153
 21
209.815
  0
LINE
  8
0
 10
-133.153
 20
209.815
 11
-146.065
 21
201.041
  0
LINE
  8
0
 10
-146.065
 20
201.041
 11
-158.4
 21
191.473
  0
LINE
  8
0
 10
-158.4
 20
191.473
 11
-170.11
 21
181.149
  0
LINE
  8
0
 10
-170.11
 20
181.149
 11
-181.149
 21
170.11
  0
LINE
  8
0
 10
-181.149
 20
170.11
 11
-191.473
 21
158.4
  0
LINE
  8
0
 10
-191.473
 20
158.4
 11
-201.041
 21
146.065
  0
LINE
  8
0
 10
-201.041
 20
146.065
 11
-209.815
 21
133.153
  0
LINE
  8
0
 10
-209.815
 20
133.153
 11
-217.762
 21
119.716
  0
LINE
  8
0
 10
-217.762
 20
119.716
 11
-224.85
 21
105.806
  0
LINE
  8
0
 10
-224.85
 20
105.806
 11
-231.049
 21
91.4789
  0
LINE
  8
0
 10
-231.049
 20
91.4789
 11
-236.338
 21
76.7907
  0
LINE
  8
0
 10
-236.338
 20
76.7907
 11
-240.693
 21
61.7994
  0
LINE
  8
0
 10
-240.693
 20
61.7994
 11
-244.098
 21
46.5643
  0
LINE
  8
0
 10
-244.098
 20
46.5643
 11
-246.54
 21
31.1453
  0
LINE
  8
0
 10
-246.54
 20
31.1453
 11
-248.01
 21
15.6034
  0
LINE
  8
0
 10
-248.01
 20
15.6034
 11
-248.5
 21
0
  0
LINE
  8
0
 10
-248.5
 20
0
 11
-248.01
 21
-15.6034
  0
LINE
  8
0
 10
-248.01
 20
-15.6034
 11
-246.54
 21
-31.1453
  0
LINE
  8
0
 10
-246.54
 20
-31.1453
 11
-244.098
 21
-46.5643
  0
LINE
  8
0
 10
-244.098
 20
-46.5643
 11
-240.693
 21
-61.7994
  0
LINE
  8
0
 10
-240.693
 20
-61.7994
 11
-236.338
 21
-76.7907
  0
LINE
  8
0
 10
-236.338
 20
-76.7907
 11
-231.049
 21
-91.4789
  0
LINE
  8
0
 10
-231.049
 20
-91.4789
 11
-224.85
 21
-105.806
  0
LINE
  8
0
 10
-224.85
 20
-105.806
 11
-217.762
 21
-119.716
  0
LINE
  8
0
 10
-217.762
 20
-119.716
 11
-209.815
 21
-133.153
  0
LINE
  8
0
 10
-209.815
 20
-133.153
 11
-201.041
 21
-146.065
  0
LINE
  8
0
 10
-201.041
 20
-146.065
 11
-191.473
 21
-158.4
  0
LINE
  8
0
 10
-191.473
 20
-158.4
 11
-181.149
 21
-170.11
  0
LINE
  8
0
 10
-181.149
 20
-170.11
 11
-170.11
 21
-181.149
  0
LINE
  8
0
 10
-170.11
 20
-181.149
 11
-158.4
 21
-191.473
  0
LINE
  8
0
 10
-158.4
 20
-191.473
 11
-146.065
 21
-201.041
  0
LINE
  8
0
 10
-146.065
 20
-201.041
 11
-133.153
 21
-209.815
  0
LINE
  8
0
 10
-133.153
 20
-209.815
 11
-119.716
 21
-217.762
  0
LINE
  8
0
 10
-119.716
 20
-217.762
 11
-105.806
 21
-224.85
  0
LINE
  8
0
 10
-105.806
 20
-224.85
 11
-91.4789
 21
-231.049
  0
LINE
  8
0
 10
-91.4789
 20
-231.049
 11
-76.7907
 21
-236.338
  0
LINE
  8
0
 10
-76.7907
 20
-236.338
 11
-61.7994
 21
-240.693
  0
LINE
  8
0
 10
-61.7994
 20
-240.693
 11
-46.5643
 21
-244.098
  0
LINE
  8
0
 10
-46.5643
 20
-244.098
 11
-31.1453
 21
-246.54
  0
LINE
  8
0
 10
-31.1453
 20
-246.54
 11
-15.6034
 21
-248.01
  0
LINE
  8
0
 10
-15.6034
 20
-248.01
 11
0
 21
-248.5
  0
LINE
  8
0
 10
0
 20
-248.5
 11
15.6034
 21
-248.01
  0
LINE
  8
0
 10
-0.172668
 20
172.971
 11
-0.344666
 21
172.988
  0
LINE
  8
0
 10
-0.344666
 20
172.988
 11
-0.515289
 21
173.015
  0
LINE
  8
0
 10
-0.515289
 20
173.015
 11
-0.683884
 21
173.052
  0
LINE
  8
0
 10
-0.683884
 20
173.052
 11
-0.849792
 21
173.101
  0
LINE
  8
0
 10
-0.849792
 20
173.101
 11
-1.01233
 21
173.159
  0
LINE
  8
0
 10
-1.01233
 20
173.159
 11
-1.17088
 21
173.228
  0
LINE
  8
0
 10
-1.17088
 20
173.228
 11
-1.32481
 21
173.306
  0
LINE
  8
0
 10
-1.32481
 20
173.306
 11
-1.47351
 21
173.394
  0
LINE
  8
0
 10
-1.47351
 20
173.394
 11
-1.61641
 21
173.491
  0
LINE
  8
0
 10
-1.61641
 20
173.491
 11
-1.75291
 21
173.597
  0
LINE
  8
0
 10
-1.75291
 20
173.597
 11
-1.88249
 21
173.711
  0
LINE
  8
0
 10
-1.88249
 20
173.711
 11
-2.00465
 21
173.834
  0
LINE
  8
0
 10
-2.00465
 20
173.834
 11
-2.1189
 21
173.963
  0
LINE
  8
0
 10
-2.1189
 20
173.963
 11
-2.22479
 21
174.1
  0
LINE
  8
0
 10
-2.22479
 20
174.1
 11
-2.3219
 21
174.243
  0
LINE
  8
0
 10
-2.3219
 20
174.243
 11
-2.40984
 21
174.391
  0
LINE
  8
0
 10
-2.40984
 20
174.391
 11
-2.48827
 21
174.545
  0
LINE
  8
0
 10
-2.48827
 20
174.545
 11
-2.55688
 21
174.704
  0
LINE
  8
0
 10
-2.55688
 20
174.704
 11
-2.6154
 21
174.866
  0
LINE
  8
0
 10
-2.6154
 20
174.866
 11
-2.66359
 21
175.032
  0
LINE
  8
0
 10
-2.66359
 20
175.032
 11
-2.70128
 21
175.201
  0
LINE
  8
0
 10
-2.70128
 20
175.201
 11
-2.7283
 21
175.371
  0
LINE
  8
0
 10
-2.7283
 20
175.371
 11
-2.74457
 21
175.543
  0
LINE
  8
0
 10
-2.74457
 20
175.543
 11
-2.75
 21
175.716
  0
LINE
  8
0
 10
-2.75
 20
175.716
 11
-2.74457
 21
175.889
  0
LINE
  8
0
 10
-2.74457
 20
175.889
 11
-2.7283
 21
176.061
  0
LINE
  8
0
 10
-2.7283
 20
176.061
 11
-2.70128
 21
176.231
  0
LINE
  8
0
 10
-2.70128
 20
176.231
 11
-2.66359
 21
176.4
  0
LINE
  8
0
 10
-2.66359
 20
176.4
 11
-2.6154
 21
176.566
  0
LINE
  8
0
 10
-2.6154
 20
176.566
 11
-2.55688
 21
176.728
  0
LINE
  8
0
 10
-2.55688
 20
176.728
 11
-2.48827
 21
176.887
  0
LINE
  8
0
 10
-2.48827
 20
176.887
 11
-2.40984
 21
177.041
  0
LINE
  8
0
 10
-2.40984
 20
177.041
 11
-2.3219
 21
177.19
  0
LINE
  8
0
 10
-2.3219
 20
177.19
 11
-2.22479
 21
177.332
  0
LINE
  8
0
 10
-2.22479
 20
177.332
 11
-2.1189
 21
177.469
  0
LINE
  8
0
 10
-2.1189
 20
177.469
 11
-2.00465
 21
177.599
  0
LINE
  8
0
 10
-2.00465
 20
177.599
 11
-1.88249
 21
177.721
  0
LINE
  8
0
 10
-1.88249
 20
177.721
 11
-1.75291
 21
177.835
  0
LINE
  8
0
 10
-1.75291
 20
177.835
 11
-1.61641
 21
177.941
  0
LINE
  8
0
 10
-1.61641
 20
177.941
 11
-1.47351
 21
178.038
  0
LINE
  8
0
 10
-1.47351
 20
178.038
 11
-1.32481
 21
178.126
  0
LINE
  8
0
 10
-1.32481
 20
178.126
 11
-1.17088
 21
178.204
  0
LINE
  8
0
 10
-1.17088
 20
178.204
 11
-1.01233
 21
178.273
  0
LINE
  8
0
 10
-1.01233
 20
178.273
 11
-0.849792
 21
178.331
  0
LINE
  8
0
 10
-0.849792
 20
178.331
 11
-0.683884
 21
178.38
  0
LINE
  8
0
 10
-0.683884
 20
178.38
 11
-0.515289
 21
178.417
  0
LINE
  8
0
 10
-0.515289
 20
178.417
 11
-0.344666
 21
178.444
  0
LINE
  8
0
 10
-0.344666
 20
178.444
 11
-0.172668
 21
178.461
  0
LINE
  8
0
 10
-0.172668
 20
178.461
 11
0
 21
178.466
  0
LINE
  8
0
 10
0
 20
178.466
 11
0.172668
 21
178.461
  0
LINE
  8
0
 10
0.172668
 20
178.461
 11
0.344666
 21
178.444
  0
LINE
  8
0
 10
0.344666
 20
178.444
 11
0.515289
 21
178.417
  0
LINE
  8
0
 10
0.515289
 20
178.417
 11
0.683884
 21
178.38
  0
LINE
  8
0
 10
0.683884
 20
178.38
 11
0.849792
 21
178.331
  0
LINE
  8
0
 10
0.849792
 20
178.331
 11
1.01233
 21
178.273
  0
LINE
  8
0
 10
1.01233
 20
178.273
 11
1.17088
 21
178.204
  0
LINE
  8
0
 10
1.17088
 20
178.204
 11
1.32481
 21
178.126
  0
LINE
  8
0
 10
1.32481
 20
178.126
 11
1.47351
 21
178.038
  0
LINE
  8
0
 10
1.47351
 20
178.038
 11
1.61641
 21
177.941
  0
LINE
  8
0
 10
1.61641
 20
177.941
 11
1.75291
 21
177.835
  0
LINE
  8
0
 10
1.75291
 20
177.835
 11
1.88249
 21
177.721
  0
LINE
  8
0
 10
1.88249
 20
177.721
 11
2.00465
 21
177.599
  0
LINE
  8
0
 10
2.00465
 20
177.599
 11
2.1189
 21
177.469
  0
LINE
  8
0
 10
2.1189
 20
177.469
 11
2.22479
 21
177.332
  0
LINE
  8
0
 10
2.22479
 20
177.332
 11
2.3219
 21
177.19
  0
LINE
  8
0
 10
2.3219
 20
177.19
 11
2.40984
 21
177.041
  0
LINE
  8
0
 10
2.40984
 20
177.041
 11
2.48827
 21
176.887
  0
LINE
  8
0
 10
2.48827
 20
176.887
 11
2.55688
 21
176.728
  0
LINE
  8
0
 10
2.55688
 20
176.728
 11
2.6154
 21
176.566
  0
LINE
  8
0
 10
2.6154
 20
176.566
 11
2.66359
 21
176.4
  0
LINE
  8
0
 10
2.66359
 20
176.4
 11
2.70128
 21
176.231
  0
LINE
  8
0
 10
2.70128
 20
176.231
 11
2.7283
 21
176.061
  0
LINE
  8
0
 10
2.7283
 20
176.061
 11
2.74457
 21
175.889
  0
LINE
  8
0
 10
2.74457
 20
175.889
 11
2.75
 21
175.716
  0
LINE
  8
0
 10
2.75
 20
175.716
 11
2.74457
 21
175.543
  0
LINE
  8
0
 10
2.74457
 20
175.543
 11
2.7283
 21
175.371
  0
LINE
  8
0
 10
2.7283
 20
175.371
 11
2.70128
 21
175.201
  0
LINE
  8
0
 10
2.70128
 20
175.201
 11
2.66359
 21
175.032
  0
LINE
  8
0
 10
2.66359
 20
175.032
 11
2.6154
 21
174.866
  0
LINE
  8
0
 10
2.6154
 20
174.866
 11
2.55688
 21
174.704
  0
LINE
  8
0
 10
2.55688
 20
174.704
 11
2.48827
 21
174.545
  0
LINE
  8
0
 10
2.48827
 20
174.545
 11
2.40984
 21
174.391
  0
LINE
  8
0
 10
2.40984
 20
174.391
 11
2.3219
 21
174.243
  0
LINE
  8
0
 10
2.3219
 20
174.243
 11
2.22479
 21
174.1
  0
LINE
  8
0
 10
2.22479
 20
174.1
 11
2.1189
 21
173.963
  0
LINE
  8
0
 10
2.1189
 20
173.963
 11
2.00465
 21
173.834
  0
LINE
  8
0
 10
2.00465
 20
173.834
 11
1.88249
 21
173.711
  0
LINE
  8
0
 10
1.88249
 20
173.711
 11
1.75291
 21
173.597
  0
LINE
  8
0
 10
1.75291
 20
173.597
 11
1.61641
 21
173.491
  0
LINE
  8
0
 10
1.61641
 20
173.491
 11
1.47351
 21
173.394
  0
LINE
  8
0
 10
1.47351
 20
173.394
 11
1.32481
 21
173.306
  0
LINE
  8
0
 10
1.32481
 20
173.306
 11
1.17088
 21
173.228
  0
LINE
  8
0
 10
1.17088
 20
173.228
 11
1.01233
 21
173.159
  0
LINE
  8
0
 10
1.01233
 20
173.159
 11
0.849792
 21
173.101
  0
LINE
  8
0
 10
0.849792
 20
173.101
 11
0.683884
 21
173.052
  0
LINE
  8
0
 10
0.683884
 20
173.052
 11
0.515289
 21
173.015
  0
LINE
  8
0
 10
0.515289
 20
173.015
 11
0.344666
 21
172.988
  0
LINE
  8
0
 10
0.344666
 20
172.988
 11
0.172668
 21
172.971
  0
LINE
  8
0
 10
0.172668
 20
172.971
 11
0
 21
172.966
  0
LINE
  8
0
 10
0
 20
172.966
 11
-0.172668
 21
172.971
  0
LINE
  8
0
 10
-149.716
 20
167.484
 11
-149.716
 21
168.784
  0
LINE
  8
0
 10
-149.716
 20
168.784
 11
-109.716
 21
168.784
  0
LINE
  8
0
 10
-109.716
 20
168.784
 11
-109.716
 21
167.484
  0
LINE
  8
0
 10
-109.716
 20
167.484
 11
-149.716
 21
167.484
  0
LINE
  8
0
 10
-97.716
 20
167.484
 11
-97.716
 21
168.784
  0
LINE
  8
0
 10
-97.716
 20
168.784
 11
-57.716
 21
168.784
  0
LINE
  8
0
 10
-57.716
 20
168.784
 11
-57.716
 21
167.484
  0
LINE
  8
0
 10
-57.716
 20
167.484
 11
-97.716
 21
167.484
  0
LINE
  8
0
 10
-45.716
 20
167.484
 11
-45.716
 21
168.784
  0
LINE
  8
0
 10
-45.716
 20
168.784
 11
-5.71603
 21
168.784
  0
LINE
  8
0
 10
-5.71603
 20
168.784
 11
-5.71603
 21
167.484
  0
LINE
  8
0
 10
-5.71603
 20
167.484
 11
-45.716
 21
167.484
  0
LINE
  8
0
 10
110.284
 20
167.484
 11
110.284
 21
168.784
  0
LINE
  8
0
 10
110.284
 20
168.784
 11
150.284
 21
168.784
  0
LINE
  8
0
 10
150.284
 20
168.784
 11
150.284
 21
167.484
  0
LINE
  8
0
 10
150.284
 20
167.484
 11
110.284
 21
167.484
  0
LINE
  8
0
 10
58.284
 20
167.484
 11
58.284
 21
168.784
  0
LINE
  8
0
 10
58.284
 20
168.784
 11
98.284
 21
168.784
  0
LINE
  8
0
 10
98.284
 20
168.784
 11
98.284
 21
167.484
  0
LINE
  8
0
 10
98.284
 20
167.484
 11
58.284
 21
167.484
  0
LINE
  8
0
 10
6.28395
 20
167.484
 11
6.28395
 21
168.784
  0
LINE
  8
0
 10
6.28395
 20
168.784
 11
46.284
 21
168.784
  0
LINE
  8
0
 10
46.284
 20
168.784
 11
46.284
 21
167.484
  0
LINE
  8
0
 10
46.284
 20
167.484
 11
6.28395
 21
167.484
  0
LINE
  8
0
 10
-45.716
 20
162.284
 11
-45.716
 21
163.584
  0
LINE
  8
0
 10
-45.716
 20
163.584
 11
-5.71603
 21
163.584
  0
LINE
  8
0
 10
-5.71603
 20
163.584
 11
-5.71603
 21
162.284
  0
LINE
  8
0
 10
-5.71603
 20
162.284
 11
-45.716
 21
162.284
  0
LINE
  8
0
 10
-97.716
 20
162.284
 11
-97.716
 21
163.584
  0
LINE
  8
0
 10
-97.716
 20
163.584
 11
-57.716
 21
163.584
  0
LINE
  8
0
 10
-57.716
 20
163.584
 11
-57.716
 21
162.284
  0
LINE
  8
0
 10
-57.716
 20
162.284
 11
-97.716
 21
162.284
  0
LINE
  8
0
 10
6.28395
 20
162.284
 11
6.28395
 21
163.584
  0
LINE
  8
0
 10
6.28395
 20
163.584
 11
46.284
 21
163.584
  0
LINE
  8
0
 10
46.284
 20
163.584
 11
46.284
 21
162.284
  0
LINE
  8
0
 10
46.284
 20
162.284
 11
6.28395
 21
162.284
  0
LINE
  8
0
 10
58.284
 20
162.284
 11
58.284
 21
163.584
  0
LINE
  8
0
 10
58.284
 20
163.584
 11
98.284
 21
163.584
  0
LINE
  8
0
 10
98.284
 20
163.584
 11
98.284
 21
162.284
  0
LINE
  8
0
 10
98.284
 20
162.284
 11
58.284
 21
162.284
  0
LINE
  8
0
 10
-149.716
 20
162.284
 11
-149.716
 21
163.584
  0
LINE
  8
0
 10
-149.716
 20
163.584
 11
-109.716
 21
163.584
  0
LINE
  8
0
 10
-109.716
 20
163.584
 11
-109.716
 21
162.284
  0
LINE
  8
0
 10
-109.716
 20
162.284
 11
-149.716
 21
162.284
  0
LINE
  8
0
 10
110.284
 20
162.284
 11
110.284
 21
163.584
  0
LINE
  8
0
 10
110.284
 20
163.584
 11
150.284
 21
163.584
  0
LINE
  8
0
 10
150.284
 20
163.584
 11
150.284
 21
162.284
  0
LINE
  8
0
 10
150.284
 20
162.284
 11
110.284
 21
162.284
  0
LINE
  8
0
 10
-149.716
 20
157.084
 11
-149.716
 21
158.384
  0
LINE
  8
0
 10
-149.716
 20
158.384
 11
-109.716
 21
158.384
  0
LINE
  8
0
 10
-109.716
 20
158.384
 11
-109.716
 21
157.084
  0
LINE
  8
0
 10
-109.716
 20
157.084
 11
-149.716
 21
157.084
  0
LINE
  8
0
 10
6.28395
 20
157.084
 11
6.28395
 21
158.384
  0
LINE
  8
0
 10
6.28395
 20
158.384
 11
46.284
 21
158.384
  0
LINE
  8
0
 10
46.284
 20
158.384
 11
46.284
 21
157.084
  0
LINE
  8
0
 10
46.284
 20
157.084
 11
6.28395
 21
157.084
  0
LINE
  8
0
 10
58.284
 20
157.084
 11
58.284
 21
158.384
  0
LINE
  8
0
 10
58.284
 20
158.384
 11
98.284
 21
158.384
  0
LINE
  8
0
 10
98.284
 20
158.384
 11
98.284
 21
157.084
  0
LINE
  8
0
 10
98.284
 20
157.084
 11
58.284
 21
157.084
  0
LINE
  8
0
 10
110.284
 20
157.084
 11
110.284
 21
158.384
  0
LINE
  8
0
 10
110.284
 20
158.384
 11
150.284
 21
158.384
  0
LINE
  8
0
 10
150.284
 20
158.384
 11
150.284
 21
157.084
  0
LINE
  8
0
 10
150.284
 20
157.084
 11
110.284
 21
157.084
  0
LINE
  8
0
 10
-97.716
 20
157.084
 11
-97.716
 21
158.384
  0
LINE
  8
0
 10
-97.716
 20
158.384
 11
-57.716
 21
158.384
  0
LINE
  8
0
 10
-57.716
 20
158.384
 11
-57.716
 21
157.084
  0
LINE
  8
0
 10
-57.716
 20
157.084
 11
-97.716
 21
157.084
  0
LINE
  8
0
 10
-5.71603
 20
157.084
 11
-45.716
 21
157.084
  0
LINE
  8
0
 10
-45.716
 20
157.084
 11
-45.716
 21
158.384
  0
LINE
  8
0
 10
-45.716
 20
158.384
 11
-5.71603
 21
158.384
  0
LINE
  8
0
 10
-5.71603
 20
158.384
 11
-5.71603
 21
157.084
  0
LINE
  8
0
 10
-45.716
 20
151.884
 11
-45.716
 21
153.184
  0
LINE
  8
0
 10
-45.716
 20
153.184
 11
-5.71603
 21
153.184
  0
LINE
  8
0
 10
-5.71603
 20
153.184
 11
-5.71603
 21
151.884
  0
LINE
  8
0
 10
-5.71603
 20
151.884
 11
-45.716
 21
151.884
  0
LINE
  8
0
 10
-97.716
 20
151.884
 11
-97.716
 21
153.184
  0
LINE
  8
0
 10
-97.716
 20
153.184
 11
-57.716
 21
153.184
  0
LINE
  8
0
 10
-57.716
 20
153.184
 11
-57.716
 21
151.884
  0
LINE
  8
0
 10
-57.716
 20
151.884
 11
-97.716
 21
151.884
  0
LINE
  8
0
 10
-149.716
 20
151.884
 11
-149.716
 21
153.184
  0
LINE
  8
0
 10
-149.716
 20
153.184
 11
-109.716
 21
153.184
  0
LINE
  8
0
 10
-109.716
 20
153.184
 11
-109.716
 21
151.884
  0
LINE
  8
0
 10
-109.716
 20
151.884
 11
-149.716
 21
151.884
  0
LINE
  8
0
 10
6.28395
 20
151.884
 11
6.28395
 21
153.184
  0
LINE
  8
0
 10
6.28395
 20
153.184
 11
46.284
 21
153.184
  0
LINE
  8
0
 10
46.284
 20
153.184
 11
46.284
 21
151.884
  0
LINE
  8
0
 10
46.284
 20
151.884
 11
6.28395
 21
151.884
  0
LINE
  8
0
 10
110.284
 20
151.884
 11
110.284
 21
153.184
  0
LINE
  8
0
 10
110.284
 20
153.184
 11
150.284
 21
153.184
  0
LINE
  8
0
 10
150.284
 20
153.184
 11
150.284
 21
151.884
  0
LINE
  8
0
 10
150.284
 20
151.884
 11
110.284
 21
151.884
  0
LINE
  8
0
 10
58.284
 20
151.884
 11
58.284
 21
153.184
  0
LINE
  8
0
 10
58.284
 20
153.184
 11
98.284
 21
153.184
  0
LINE
  8
0
 10
98.284
 20
153.184
 11
98.284
 21
151.884
  0
LINE
  8
0
 10
98.284
 20
151.884
 11
58.284
 21
151.884
  0
LINE
  8
0
 10
-45.716
 20
146.684
 11
-45.716
 21
147.984
  0
LINE
  8
0
 10
-45.716
 20
147.984
 11
-5.71603
 21
147.984
  0
LINE
  8
0
 10
-5.71603
 20
147.984
 11
-5.71603
 21
146.684
  0
LINE
  8
0
 10
-5.71603
 20
146.684
 11
-45.716
 21
146.684
  0
LINE
  8
0
 10
110.284
 20
146.684
 11
110.284
 21
147.984
  0
LINE
  8
0
 10
110.284
 20
147.984
 11
150.284
 21
147.984
  0
LINE
  8
0
 10
150.284
 20
147.984
 11
150.284
 21
146.684
  0
LINE
  8
0
 10
150.284
 20
146.684
 11
110.284
 21
146.684
  0
LINE
  8
0
 10
58.284
 20
146.684
 11
58.284
 21
147.984
  0
LINE
  8
0
 10
58.284
 20
147.984
 11
98.284
 21
147.984
  0
LINE
  8
0
 10
98.284
 20
147.984
 11
98.284
 21
146.684
  0
LINE
  8
0
 10
98.284
 20
146.684
 11
58.284
 21
146.684
  0
LINE
  8
0
 10
6.28395
 20
146.684
 11
6.28395
 21
147.984
  0
LINE
  8
0
 10
6.28395
 20
147.984
 11
46.284
 21
147.984
  0
LINE
  8
0
 10
46.284
 20
147.984
 11
46.284
 21
146.684
  0
LINE
  8
0
 10
46.284
 20
146.684
 11
6.28395
 21
146.684
  0
LINE
  8
0
 10
-149.716
 20
146.684
 11
-149.716
 21
147.984
  0
LINE
  8
0
 10
-149.716
 20
147.984
 11
-109.716
 21
147.984
  0
LINE
  8
0
 10
-109.716
 20
147.984
 11
-109.716
 21
146.684
  0
LINE
  8
0
 10
-109.716
 20
146.684
 11
-149.716
 21
146.684
  0
LINE
  8
0
 10
-97.716
 20
146.684
 11
-97.716
 21
147.984
  0
LINE
  8
0
 10
-97.716
 20
147.984
 11
-57.716
 21
147.984
  0
LINE
  8
0
 10
-57.716
 20
147.984
 11
-57.716
 21
146.684
  0
LINE
  8
0
 10
-57.716
 20
146.684
 11
-97.716
 21
146.684
  0
LINE
  8
0
 10
-149.716
 20
141.484
 11
-149.716
 21
142.784
  0
LINE
  8
0
 10
-149.716
 20
142.784
 11
-109.716
 21
142.784
  0
LINE
  8
0
 10
-109.716
 20
142.784
 11
-109.716
 21
141.484
  0
LINE
  8
0
 10
-109.716
 20
141.484
 11
-149.716
 21
141.484
  0
LINE
  8
0
 10
-97.716
 20
141.484
 11
-97.716
 21
142.784
  0
LINE
  8
0
 10
-97.716
 20
142.784
 11
-57.716
 21
142.784
  0
LINE
  8
0
 10
-57.716
 20
142.784
 11
-57.716
 21
141.484
  0
LINE
  8
0
 10
-57.716
 20
141.484
 11
-97.716
 21
141.484
  0
LINE
  8
0
 10
-45.716
 20
141.484
 11
-45.716
 21
142.784
  0
LINE
  8
0
 10
-45.716
 20
142.784
 11
-5.71603
 21
142.784
  0
LINE
  8
0
 10
-5.71603
 20
142.784
 11
-5.71603
 21
141.484
  0
LINE
  8
0
 10
-5.71603
 20
141.484
 11
-45.716
 21
141.484
  0
LINE
  8
0
 10
6.28395
 20
141.484
 11
6.28395
 21
142.784
  0
LINE
  8
0
 10
6.28395
 20
142.784
 11
46.284
 21
142.784
  0
LINE
  8
0
 10
46.284
 20
142.784
 11
46.284
 21
141.484
  0
LINE
  8
0
 10
46.284
 20
141.484
 11
6.28395
 21
141.484
  0
LINE
  8
0
 10
58.284
 20
141.484
 11
58.284
 21
142.784
  0
LINE
  8
0
 10
58.284
 20
142.784
 11
98.284
 21
142.784
  0
LINE
  8
0
 10
98.284
 20
142.784
 11
98.284
 21
141.484
  0
LINE
  8
0
 10
98.284
 20
141.484
 11
58.284
 21
141.484
  0
LINE
  8
0
 10
110.284
 20
141.484
 11
110.284
 21
142.784
  0
LINE
  8
0
 10
110.284
 20
142.784
 11
150.284
 21
142.784
  0
LINE
  8
0
 10
150.284
 20
142.784
 11
150.284
 21
141.484
  0
LINE
  8
0
 10
150.284
 20
141.484
 11
110.284
 21
141.484
  0
LINE
  8
0
 10
6.28395
 20
136.284
 11
6.28395
 21
137.584
  0
LINE
  8
0
 10
6.28395
 20
137.584
 11
46.284
 21
137.584
  0
LINE
  8
0
 10
46.284
 20
137.584
 11
46.284
 21
136.284
  0
LINE
  8
0
 10
46.284
 20
136.284
 11
6.28395
 21
136.284
  0
LINE
  8
0
 10
-149.716
 20
136.284
 11
-149.716
 21
137.584
  0
LINE
  8
0
 10
-149.716
 20
137.584
 11
-109.716
 21
137.584
  0
LINE
  8
0
 10
-109.716
 20
137.584
 11
-109.716
 21
136.284
  0
LINE
  8
0
 10
-109.716
 20
136.284
 11
-149.716
 21
136.284
  0
LINE
  8
0
 10
-97.716
 20
136.284
 11
-97.716
 21
137.584
  0
LINE
  8
0
 10
-97.716
 20
137.584
 11
-57.716
 21
137.584
  0
LINE
  8
0
 10
-57.716
 20
137.584
 11
-57.716
 21
136.284
  0
LINE
  8
0
 10
-57.716
 20
136.284
 11
-97.716
 21
136.284
  0
LINE
  8
0
 10
-45.716
 20
136.284
 11
-45.716
 21
137.584
  0
LINE
  8
0
 10
-45.716
 20
137.584
 11
-5.71603
 21
137.584
  0
LINE
  8
0
 10
-5.71603
 20
137.584
 11
-5.71603
 21
136.284
  0
LINE
  8
0
 10
-5.71603
 20
136.284
 11
-45.716
 21
136.284
  0
LINE
  8
0
 10
58.284
 20
136.284
 11
58.284
 21
137.584
  0
LINE
  8
0
 10
58.284
 20
137.584
 11
98.284
 21
137.584
  0
LINE
  8
0
 10
98.284
 20
137.584
 11
98.284
 21
136.284
  0
LINE
  8
0
 10
98.284
 20
136.284
 11
58.284
 21
136.284
  0
LINE
  8
0
 10
110.284
 20
136.284
 11
110.284
 21
137.584
  0
LINE
  8
0
 10
110.284
 20
137.584
 11
150.284
 21
137.584
  0
LINE
  8
0
 10
150.284
 20
137.584
 11
150.284
 21
136.284
  0
LINE
  8
0
 10
150.284
 20
136.284
 11
110.284
 21
136.284
  0
LINE
  8
0
 10
110.284
 20
131.084
 11
110.284
 21
132.384
  0
LINE
  8
0
 10
110.284
 20
132.384
 11
150.284
 21
132.384
  0
LINE
  8
0
 10
150.284
 20
132.384
 11
150.284
 21
131.084
  0
LINE
  8
0
 10
150.284
 20
131.084
 11
110.284
 21
131.084
  0
LINE
  8
0
 10
-97.716
 20
131.084
 11
-97.716
 21
132.384
  0
LINE
  8
0
 10
-97.716
 20
132.384
 11
-57.716
 21
132.384
  0
LINE
  8
0
 10
-57.716
 20
132.384
 11
-57.716
 21
131.084
  0
LINE
  8
0
 10
-57.716
 20
131.084
 11
-97.716
 21
131.084
  0
LINE
  8
0
 10
58.284
 20
131.084
 11
58.284
 21
132.384
  0
LINE
  8
0
 10
58.284
 20
132.384
 11
98.284
 21
132.384
  0
LINE
  8
0
 10
98.284
 20
132.384
 11
98.284
 21
131.084
  0
LINE
  8
0
 10
98.284
 20
131.084
 11
58.284
 21
131.084
  0
LINE
  8
0
 10
-149.716
 20
131.084
 11
-149.716
 21
132.384
  0
LINE
  8
0
 10
-149.716
 20
132.384
 11
-109.716
 21
132.384
  0
LINE
  8
0
 10
-109.716
 20
132.384
 11
-109.716
 21
131.084
  0
LINE
  8
0
 10
-109.716
 20
131.084
 11
-149.716
 21
131.084
  0
LINE
  8
0
 10
-45.716
 20
131.084
 11
-45.716
 21
132.384
  0
LINE
  8
0
 10
-45.716
 20
132.384
 11
-5.71603
 21
132.384
  0
LINE
  8
0
 10
-5.71603
 20
132.384
 11
-5.71603
 21
131.084
  0
LINE
  8
0
 10
-5.71603
 20
131.084
 11
-45.716
 21
131.084
  0
LINE
  8
0
 10
6.28395
 20
131.084
 11
6.28395
 21
132.384
  0
LINE
  8
0
 10
6.28395
 20
132.384
 11
46.284
 21
132.384
  0
LINE
  8
0
 10
46.284
 20
132.384
 11
46.284
 21
131.084
  0
LINE
  8
0
 10
46.284
 20
131.084
 11
6.28395
 21
131.084
  0
LINE
  8
0
 10
-45.716
 20
125.884
 11
-45.716
 21
127.184
  0
LINE
  8
0
 10
-45.716
 20
127.184
 11
-5.71603
 21
127.184
  0
LINE
  8
0
 10
-5.71603
 20
127.184
 11
-5.71603
 21
125.884
  0
LINE
  8
0
 10
-5.71603
 20
125.884
 11
-45.716
 21
125.884
  0
LINE
  8
0
 10
110.284
 20
125.884
 11
110.284
 21
127.184
  0
LINE
  8
0
 10
110.284
 20
127.184
 11
150.284
 21
127.184
  0
LINE
  8
0
 10
150.284
 20
127.184
 11
150.284
 21
125.884
  0
LINE
  8
0
 10
150.284
 20
125.884
 11
110.284
 21
125.884
  0
LINE
  8
0
 10
58.284
 20
125.884
 11
58.284
 21
127.184
  0
LINE
  8
0
 10
58.284
 20
127.184
 11
98.284
 21
127.184
  0
LINE
  8
0
 10
98.284
 20
127.184
 11
98.284
 21
125.884
  0
LINE
  8
0
 10
98.284
 20
125.884
 11
58.284
 21
125.884
  0
LINE
  8
0
 10
6.28395
 20
125.884
 11
6.28395
 21
127.184
  0
LINE
  8
0
 10
6.28395
 20
127.184
 11
46.284
 21
127.184
  0
LINE
  8
0
 10
46.284
 20
127.184
 11
46.284
 21
125.884
  0
LINE
  8
0
 10
46.284
 20
125.884
 11
6.28395
 21
125.884
  0
LINE
  8
0
 10
-149.716
 20
125.884
 11
-149.716
 21
127.184
  0
LINE
  8
0
 10
-149.716
 20
127.184
 11
-109.716
 21
127.184
  0
LINE
  8
0
 10
-109.716
 20
127.184
 11
-109.716
 21
125.884
  0
LINE
  8
0
 10
-109.716
 20
125.884
 11
-149.716
 21
125.884
  0
LINE
  8
0
 10
-97.716
 20
125.884
 11
-97.716
 21
127.184
  0
LINE
  8
0
 10
-97.716
 20
127.184
 11
-57.716
 21
127.184
  0
LINE
  8
0
 10
-57.716
 20
127.184
 11
-57.716
 21
125.884
  0
LINE
  8
0
 10
-57.716
 20
125.884
 11
-97.716
 21
125.884
  0
LINE
  8
0
 10
-149.716
 20
120.684
 11
-149.716
 21
121.984
  0
LINE
  8
0
 10
-149.716
 20
121.984
 11
-109.716
 21
121.984
  0
LINE
  8
0
 10
-109.716
 20
121.984
 11
-109.716
 21
120.684
  0
LINE
  8
0
 10
-109.716
 20
120.684
 11
-149.716
 21
120.684
  0
LINE
  8
0
 10
-97.716
 20
120.684
 11
-97.716
 21
121.984
  0
LINE
  8
0
 10
-97.716
 20
121.984
 11
-57.716
 21
121.984
  0
LINE
  8
0
 10
-57.716
 20
121.984
 11
-57.716
 21
120.684
  0
LINE
  8
0
 10
-57.716
 20
120.684
 11
-97.716
 21
120.684
  0
LINE
  8
0
 10
-45.716
 20
120.684
 11
-45.716
 21
121.984
  0
LINE
  8
0
 10
-45.716
 20
121.984
 11
-5.71603
 21
121.984
  0
LINE
  8
0
 10
-5.71603
 20
121.984
 11
-5.71603
 21
120.684
  0
LINE
  8
0
 10
-5.71603
 20
120.684
 11
-45.716
 21
120.684
  0
LINE
  8
0
 10
6.28395
 20
120.684
 11
6.28395
 21
121.984
  0
LINE
  8
0
 10
6.28395
 20
121.984
 11
46.284
 21
121.984
  0
LINE
  8
0
 10
46.284
 20
121.984
 11
46.284
 21
120.684
  0
LINE
  8
0
 10
46.284
 20
120.684
 11
6.28395
 21
120.684
  0
LINE
  8
0
 10
58.284
 20
120.684
 11
58.284
 21
121.984
  0
LINE
  8
0
 10
58.284
 20
121.984
 11
98.284
 21
121.984
  0
LINE
  8
0
 10
98.284
 20
121.984
 11
98.284
 21
120.684
  0
LINE
  8
0
 10
98.284
 20
120.684
 11
58.284
 21
120.684
  0
LINE
  8
0
 10
110.284
 20
120.684
 11
110.284
 21
121.984
  0
LINE
  8
0
 10
110.284
 20
121.984
 11
150.284
 21
121.984
  0
LINE
  8
0
 10
150.284
 20
121.984
 11
150.284
 21
120.684
  0
LINE
  8
0
 10
150.284
 20
120.684
 11
110.284
 21
120.684
  0
LINE
  8
0
 10
-149.716
 20
115.484
 11
-149.716
 21
116.784
  0
LINE
  8
0
 10
-149.716
 20
116.784
 11
-109.716
 21
116.784
  0
LINE
  8
0
 10
-109.716
 20
116.784
 11
-109.716
 21
115.484
  0
LINE
  8
0
 10
-109.716
 20
115.484
 11
-149.716
 21
115.484
  0
LINE
  8
0
 10
6.28395
 20
115.484
 11
6.28395
 21
116.784
  0
LINE
  8
0
 10
6.28395
 20
116.784
 11
46.284
 21
116.784
  0
LINE
  8
0
 10
46.284
 20
116.784
 11
46.284
 21
115.484
  0
LINE
  8
0
 10
46.284
 20
115.484
 11
6.28395
 21
115.484
  0
LINE
  8
0
 10
58.284
 20
115.484
 11
58.284
 21
116.784
  0
LINE
  8
0
 10
58.284
 20
116.784
 11
98.284
 21
116.784
  0
LINE
  8
0
 10
98.284
 20
116.784
 11
98.284
 21
115.484
  0
LINE
  8
0
 10
98.284
 20
115.484
 11
58.284
 21
115.484
  0
LINE
  8
0
 10
110.284
 20
115.484
 11
110.284
 21
116.784
  0
LINE
  8
0
 10
110.284
 20
116.784
 11
150.284
 21
116.784
  0
LINE
  8
0
 10
150.284
 20
116.784
 11
150.284
 21
115.484
  0
LINE
  8
0
 10
150.284
 20
115.484
 11
110.284
 21
115.484
  0
LINE
  8
0
 10
-97.716
 20
115.484
 11
-97.716
 21
116.784
  0
LINE
  8
0
 10
-97.716
 20
116.784
 11
-57.716
 21
116.784
  0
LINE
  8
0
 10
-57.716
 20
116.784
 11
-57.716
 21
115.484
  0
LINE
  8
0
 10
-57.716
 20
115.484
 11
-97.716
 21
115.484
  0
LINE
  8
0
 10
-45.716
 20
115.484
 11
-45.716
 21
116.784
  0
LINE
  8
0
 10
-45.716
 20
116.784
 11
-5.71603
 21
116.784
  0
LINE
  8
0
 10
-5.71603
 20
116.784
 11
-5.71603
 21
115.484
  0
LINE
  8
0
 10
-5.71603
 20
115.484
 11
-45.716
 21
115.484
  0
LINE
  8
0
 10
58.284
 20
110.284
 11
58.284
 21
111.584
  0
LINE
  8
0
 10
58.284
 20
111.584
 11
98.284
 21
111.584
  0
LINE
  8
0
 10
98.284
 20
111.584
 11
98.284
 21
110.284
  0
LINE
  8
0
 10
98.284
 20
110.284
 11
58.284
 21
110.284
  0
LINE
  8
0
 10
-149.716
 20
110.284
 11
-149.716
 21
111.584
  0
LINE
  8
0
 10
-149.716
 20
111.584
 11
-109.716
 21
111.584
  0
LINE
  8
0
 10
-109.716
 20
111.584
 11
-109.716
 21
110.284
  0
LINE
  8
0
 10
-109.716
 20
110.284
 11
-149.716
 21
110.284
  0
LINE
  8
0
 10
6.28395
 20
110.284
 11
6.28395
 21
111.584
  0
LINE
  8
0
 10
6.28395
 20
111.584
 11
46.284
 21
111.584
  0
LINE
  8
0
 10
46.284
 20
111.584
 11
46.284
 21
110.284
  0
LINE
  8
0
 10
46.284
 20
110.284
 11
6.28395
 21
110.284
  0
LINE
  8
0
 10
-97.716
 20
110.284
 11
-97.716
 21
111.584
  0
LINE
  8
0
 10
-97.716
 20
111.584
 11
-57.716
 21
111.584
  0
LINE
  8
0
 10
-57.716
 20
111.584
 11
-57.716
 21
110.284
  0
LINE
  8
0
 10
-57.716
 20
110.284
 11
-97.716
 21
110.284
  0
LINE
  8
0
 10
110.284
 20
110.284
 11
110.284
 21
111.584
  0
LINE
  8
0
 10
110.284
 20
111.584
 11
150.284
 21
111.584
  0
LINE
  8
0
 10
150.284
 20
111.584
 11
150.284
 21
110.284
  0
LINE
  8
0
 10
150.284
 20
110.284
 11
110.284
 21
110.284
  0
LINE
  8
0
 10
-5.71603
 20
110.284
 11
-45.716
 21
110.284
  0
LINE
  8
0
 10
-45.716
 20
110.284
 11
-45.716
 21
111.584
  0
LINE
  8
0
 10
-45.716
 20
111.584
 11
-5.71603
 21
111.584
  0
LINE
  8
0
 10
-5.71603
 20
111.584
 11
-5.71603
 21
110.284
  0
LINE
  8
0
 10
-97.716
 20
105.084
 11
-97.716
 21
106.384
  0
LINE
  8
0
 10
-97.716
 20
106.384
 11
-57.716
 21
106.384
  0
LINE
  8
0
 10
-57.716
 20
106.384
 11
-57.716
 21
105.084
  0
LINE
  8
0
 10
-57.716
 20
105.084
 11
-97.716
 21
105.084
  0
LINE
  8
0
 10
110.284
 20
105.084
 11
110.284
 21
106.384
  0
LINE
  8
0
 10
110.284
 20
106.384
 11
150.284
 21
106.384
  0
LINE
  8
0
 10
150.284
 20
106.384
 11
150.284
 21
105.084
  0
LINE
  8
0
 10
150.284
 20
105.084
 11
110.284
 21
105.084
  0
LINE
  8
0
 10
58.284
 20
105.084
 11
58.284
 21
106.384
  0
LINE
  8
0
 10
58.284
 20
106.384
 11
98.284
 21
106.384
  0
LINE
  8
0
 10
98.284
 20
106.384
 11
98.284
 21
105.084
  0
LINE
  8
0
 10
98.284
 20
105.084
 11
58.284
 21
105.084
  0
LINE
  8
0
 10
6.28395
 20
105.084
 11
6.28395
 21
106.384
  0
LINE
  8
0
 10
6.28395
 20
106.384
 11
46.284
 21
106.384
  0
LINE
  8
0
 10
46.284
 20
106.384
 11
46.284
 21
105.084
  0
LINE
  8
0
 10
46.284
 20
105.084
 11
6.28395
 21
105.084
  0
LINE
  8
0
 10
-45.716
 20
105.084
 11
-45.716
 21
106.384
  0
LINE
  8
0
 10
-45.716
 20
106.384
 11
-5.71603
 21
106.384
  0
LINE
  8
0
 10
-5.71603
 20
106.384
 11
-5.71603
 21
105.084
  0
LINE
  8
0
 10
-5.71603
 20
105.084
 11
-45.716
 21
105.084
  0
LINE
  8
0
 10
-149.716
 20
105.084
 11
-149.716
 21
106.384
  0
LINE
  8
0
 10
-149.716
 20
106.384
 11
-109.716
 21
106.384
  0
LINE
  8
0
 10
-109.716
 20
106.384
 11
-109.716
 21
105.084
  0
LINE
  8
0
 10
-109.716
 20
105.084
 11
-149.716
 21
105.084
  0
LINE
  8
0
 10
110.284
 20
99.884
 11
110.284
 21
101.184
  0
LINE
  8
0
 10
110.284
 20
101.184
 11
150.284
 21
101.184
  0
LINE
  8
0
 10
150.284
 20
101.184
 11
150.284
 21
99.884
  0
LINE
  8
0
 10
150.284
 20
99.884
 11
110.284
 21
99.884
  0
LINE
  8
0
 10
-97.716
 20
99.884
 11
-97.716
 21
101.184
  0
LINE
  8
0
 10
-97.716
 20
101.184
 11
-57.716
 21
101.184
  0
LINE
  8
0
 10
-57.716
 20
101.184
 11
-57.716
 21
99.884
  0
LINE
  8
0
 10
-57.716
 20
99.884
 11
-97.716
 21
99.884
  0
LINE
  8
0
 10
-45.716
 20
99.884
 11
-45.716
 21
101.184
  0
LINE
  8
0
 10
-45.716
 20
101.184
 11
-5.71603
 21
101.184
  0
LINE
  8
0
 10
-5.71603
 20
101.184
 11
-5.71603
 21
99.884
  0
LINE
  8
0
 10
-5.71603
 20
99.884
 11
-45.716
 21
99.884
  0
LINE
  8
0
 10
6.28395
 20
99.884
 11
6.28395
 21
101.184
  0
LINE
  8
0
 10
6.28395
 20
101.184
 11
46.284
 21
101.184
  0
LINE
  8
0
 10
46.284
 20
101.184
 11
46.284
 21
99.884
  0
LINE
  8
0
 10
46.284
 20
99.884
 11
6.28395
 21
99.884
  0
LINE
  8
0
 10
58.284
 20
99.884
 11
58.284
 21
101.184
  0
LINE
  8
0
 10
58.284
 20
101.184
 11
98.284
 21
101.184
  0
LINE
  8
0
 10
98.284
 20
101.184
 11
98.284
 21
99.884
  0
LINE
  8
0
 10
98.284
 20
99.884
 11
58.284
 21
99.884
  0
LINE
  8
0
 10
-149.716
 20
99.884
 11
-149.716
 21
101.184
  0
LINE
  8
0
 10
-149.716
 20
101.184
 11
-109.716
 21
101.184
  0
LINE
  8
0
 10
-109.716
 20
101.184
 11
-109.716
 21
99.884
  0
LINE
  8
0
 10
-109.716
 20
99.884
 11
-149.716
 21
99.884
  0
LINE
  8
0
 10
-149.716
 20
94.684
 11
-149.716
 21
95.984
  0
LINE
  8
0
 10
-149.716
 20
95.984
 11
-109.716
 21
95.984
  0
LINE
  8
0
 10
-109.716
 20
95.984
 11
-109.716
 21
94.684
  0
LINE
  8
0
 10
-109.716
 20
94.684
 11
-149.716
 21
94.684
  0
LINE
  8
0
 10
-45.716
 20
94.684
 11
-45.716
 21
95.984
  0
LINE
  8
0
 10
-45.716
 20
95.984
 11
-5.71603
 21
95.984
  0
LINE
  8
0
 10
-5.71603
 20
95.984
 11
-5.71603
 21
94.684
  0
LINE
  8
0
 10
-5.71603
 20
94.684
 11
-45.716
 21
94.684
  0
LINE
  8
0
 10
-97.716
 20
94.684
 11
-97.716
 21
95.984
  0
LINE
  8
0
 10
-97.716
 20
95.984
 11
-57.716
 21
95.984
  0
LINE
  8
0
 10
-57.716
 20
95.984
 11
-57.716
 21
94.684
  0
LINE
  8
0
 10
-57.716
 20
94.684
 11
-97.716
 21
94.684
  0
LINE
  8
0
 10
6.28395
 20
94.684
 11
6.28395
 21
95.984
  0
LINE
  8
0
 10
6.28395
 20
95.984
 11
46.284
 21
95.984
  0
LINE
  8
0
 10
46.284
 20
95.984
 11
46.284
 21
94.684
  0
LINE
  8
0
 10
46.284
 20
94.684
 11
6.28395
 21
94.684
  0
LINE
  8
0
 10
58.284
 20
94.684
 11
58.284
 21
95.984
  0
LINE
  8
0
 10
58.284
 20
95.984
 11
98.284
 21
95.984
  0
LINE
  8
0
 10
98.284
 20
95.984
 11
98.284
 21
94.684
  0
LINE
  8
0
 10
98.284
 20
94.684
 11
58.284
 21
94.684
  0
LINE
  8
0
 10
110.284
 20
94.684
 11
110.284
 21
95.984
  0
LINE
  8
0
 10
110.284
 20
95.984
 11
150.284
 21
95.984
  0
LINE
  8
0
 10
150.284
 20
95.984
 11
150.284
 21
94.684
  0
LINE
  8
0
 10
150.284
 20
94.684
 11
110.284
 21
94.684
  0
LINE
  8
0
 10
-97.716
 20
89.484
 11
-97.716
 21
90.784
  0
LINE
  8
0
 10
-97.716
 20
90.784
 11
-57.716
 21
90.784
  0
LINE
  8
0
 10
-57.716
 20
90.784
 11
-57.716
 21
89.484
  0
LINE
  8
0
 10
-57.716
 20
89.484
 11
-97.716
 21
89.484
  0
LINE
  8
0
 10
-149.716
 20
89.484
 11
-149.716
 21
90.784
  0
LINE
  8
0
 10
-149.716
 20
90.784
 11
-109.716
 21
90.784
  0
LINE
  8
0
 10
-109.716
 20
90.784
 11
-109.716
 21
89.484
  0
LINE
  8
0
 10
-109.716
 20
89.484
 11
-149.716
 21
89.484
  0
LINE
  8
0
 10
58.284
 20
89.484
 11
58.284
 21
90.784
  0
LINE
  8
0
 10
58.284
 20
90.784
 11
98.284
 21
90.784
  0
LINE
  8
0
 10
98.284
 20
90.784
 11
98.284
 21
89.484
  0
LINE
  8
0
 10
98.284
 20
89.484
 11
58.284
 21
89.484
  0
LINE
  8
0
 10
110.284
 20
89.484
 11
110.284
 21
90.784
  0
LINE
  8
0
 10
110.284
 20
90.784
 11
150.284
 21
90.784
  0
LINE
  8
0
 10
150.284
 20
90.784
 11
150.284
 21
89.484
  0
LINE
  8
0
 10
150.284
 20
89.484
 11
110.284
 21
89.484
  0
LINE
  8
0
 10
-45.716
 20
90.784
 11
-5.71603
 21
90.784
  0
LINE
  8
0
 10
-5.71603
 20
90.784
 11
-5.71603
 21
89.484
  0
LINE
  8
0
 10
-5.71603
 20
89.484
 11
-45.716
 21
89.484
  0
LINE
  8
0
 10
-45.716
 20
89.484
 11
-45.716
 21
90.784
  0
LINE
  8
0
 10
-149.716
 20
84.284
 11
-149.716
 21
85.584
  0
LINE
  8
0
 10
-149.716
 20
85.584
 11
-109.716
 21
85.584
  0
LINE
  8
0
 10
-109.716
 20
85.584
 11
-109.716
 21
84.284
  0
LINE
  8
0
 10
-109.716
 20
84.284
 11
-149.716
 21
84.284
  0
LINE
  8
0
 10
-97.716
 20
84.284
 11
-97.716
 21
85.584
  0
LINE
  8
0
 10
-97.716
 20
85.584
 11
-57.716
 21
85.584
  0
LINE
  8
0
 10
-57.716
 20
85.584
 11
-57.716
 21
84.284
  0
LINE
  8
0
 10
-57.716
 20
84.284
 11
-97.716
 21
84.284
  0
LINE
  8
0
 10
58.284
 20
84.284
 11
58.284
 21
85.584
  0
LINE
  8
0
 10
58.284
 20
85.584
 11
98.284
 21
85.584
  0
LINE
  8
0
 10
98.284
 20
85.584
 11
98.284
 21
84.284
  0
LINE
  8
0
 10
98.284
 20
84.284
 11
58.284
 21
84.284
  0
LINE
  8
0
 10
110.284
 20
84.284
 11
110.284
 21
85.584
  0
LINE
  8
0
 10
110.284
 20
85.584
 11
150.284
 21
85.584
  0
LINE
  8
0
 10
150.284
 20
85.584
 11
150.284
 21
84.284
  0
LINE
  8
0
 10
150.284
 20
84.284
 11
110.284
 21
84.284
  0
LINE
  8
0
 10
6.28395
 20
84.284
 11
6.28395
 21
85.584
  0
LINE
  8
0
 10
6.28395
 20
85.584
 11
46.284
 21
85.584
  0
LINE
  8
0
 10
46.284
 20
85.584
 11
46.284
 21
84.284
  0
LINE
  8
0
 10
46.284
 20
84.284
 11
6.28395
 21
84.284
  0
LINE
  8
0
 10
-45.716
 20
84.284
 11
-45.716
 21
85.584
  0
LINE
  8
0
 10
-45.716
 20
85.584
 11
-5.71603
 21
85.584
  0
LINE
  8
0
 10
-5.71603
 20
85.584
 11
-5.71603
 21
84.284
  0
LINE
  8
0
 10
-5.71603
 20
84.284
 11
-45.716
 21
84.284
  0
LINE
  8
0
 10
6.28395
 20
79.084
 11
6.28395
 21
80.384
  0
LINE
  8
0
 10
6.28395
 20
80.384
 11
46.284
 21
80.384
  0
LINE
  8
0
 10
46.284
 20
80.384
 11
46.284
 21
79.084
  0
LINE
  8
0
 10
46.284
 20
79.084
 11
6.28395
 21
79.084
  0
LINE
  8
0
 10
58.284
 20
79.084
 11
58.284
 21
80.384
  0
LINE
  8
0
 10
58.284
 20
80.384
 11
98.284
 21
80.384
  0
LINE
  8
0
 10
98.284
 20
80.384
 11
98.284
 21
79.084
  0
LINE
  8
0
 10
98.284
 20
79.084
 11
58.284
 21
79.084
  0
LINE
  8
0
 10
-149.716
 20
79.084
 11
-149.716
 21
80.384
  0
LINE
  8
0
 10
-149.716
 20
80.384
 11
-109.716
 21
80.384
  0
LINE
  8
0
 10
-109.716
 20
80.384
 11
-109.716
 21
79.084
  0
LINE
  8
0
 10
-109.716
 20
79.084
 11
-149.716
 21
79.084
  0
LINE
  8
0
 10
-97.716
 20
79.084
 11
-97.716
 21
80.384
  0
LINE
  8
0
 10
-97.716
 20
80.384
 11
-57.716
 21
80.384
  0
LINE
  8
0
 10
-57.716
 20
80.384
 11
-57.716
 21
79.084
  0
LINE
  8
0
 10
-57.716
 20
79.084
 11
-97.716
 21
79.084
  0
LINE
  8
0
 10
-45.716
 20
79.084
 11
-45.716
 21
80.384
  0
LINE
  8
0
 10
-45.716
 20
80.384
 11
-5.71603
 21
80.384
  0
LINE
  8
0
 10
-5.71603
 20
80.384
 11
-5.71603
 21
79.084
  0
LINE
  8
0
 10
-5.71603
 20
79.084
 11
-45.716
 21
79.084
  0
LINE
  8
0
 10
110.284
 20
79.084
 11
110.284
 21
80.384
  0
LINE
  8
0
 10
110.284
 20
80.384
 11
150.284
 21
80.384
  0
LINE
  8
0
 10
150.284
 20
80.384
 11
150.284
 21
79.084
  0
LINE
  8
0
 10
150.284
 20
79.084
 11
110.284
 21
79.084
  0
LINE
  8
0
 10
6.28395
 20
73.884
 11
6.28395
 21
75.184
  0
LINE
  8
0
 10
6.28395
 20
75.184
 11
46.284
 21
75.184
  0
LINE
  8
0
 10
46.284
 20
75.184
 11
46.284
 21
73.884
  0
LINE
  8
0
 10
46.284
 20
73.884
 11
6.28395
 21
73.884
  0
LINE
  8
0
 10
-97.716
 20
73.884
 11
-97.716
 21
75.184
  0
LINE
  8
0
 10
-97.716
 20
75.184
 11
-57.716
 21
75.184
  0
LINE
  8
0
 10
-57.716
 20
75.184
 11
-57.716
 21
73.884
  0
LINE
  8
0
 10
-57.716
 20
73.884
 11
-97.716
 21
73.884
  0
LINE
  8
0
 10
-45.716
 20
73.884
 11
-45.716
 21
75.184
  0
LINE
  8
0
 10
-45.716
 20
75.184
 11
-5.71603
 21
75.184
  0
LINE
  8
0
 10
-5.71603
 20
75.184
 11
-5.71603
 21
73.884
  0
LINE
  8
0
 10
-5.71603
 20
73.884
 11
-45.716
 21
73.884
  0
LINE
  8
0
 10
58.284
 20
73.884
 11
58.284
 21
75.184
  0
LINE
  8
0
 10
58.284
 20
75.184
 11
98.284
 21
75.184
  0
LINE
  8
0
 10
98.284
 20
75.184
 11
98.284
 21
73.884
  0
LINE
  8
0
 10
98.284
 20
73.884
 11
58.284
 21
73.884
  0
LINE
  8
0
 10
-149.716
 20
73.884
 11
-149.716
 21
75.184
  0
LINE
  8
0
 10
-149.716
 20
75.184
 11
-109.716
 21
75.184
  0
LINE
  8
0
 10
-109.716
 20
75.184
 11
-109.716
 21
73.884
  0
LINE
  8
0
 10
-109.716
 20
73.884
 11
-149.716
 21
73.884
  0
LINE
  8
0
 10
110.284
 20
73.884
 11
110.284
 21
75.184
  0
LINE
  8
0
 10
110.284
 20
75.184
 11
150.284
 21
75.184
  0
LINE
  8
0
 10
150.284
 20
75.184
 11
150.284
 21
73.884
  0
LINE
  8
0
 10
150.284
 20
73.884
 11
110.284
 21
73.884
  0
LINE
  8
0
 10
-97.716
 20
68.684
 11
-97.716
 21
69.984
  0
LINE
  8
0
 10
-97.716
 20
69.984
 11
-57.716
 21
69.984
  0
LINE
  8
0
 10
-57.716
 20
69.984
 11
-57.716
 21
68.684
  0
LINE
  8
0
 10
-57.716
 20
68.684
 11
-97.716
 21
68.684
  0
LINE
  8
0
 10
6.28395
 20
68.684
 11
6.28395
 21
69.984
  0
LINE
  8
0
 10
6.28395
 20
69.984
 11
46.284
 21
69.984
  0
LINE
  8
0
 10
46.284
 20
69.984
 11
46.284
 21
68.684
  0
LINE
  8
0
 10
46.284
 20
68.684
 11
6.28395
 21
68.684
  0
LINE
  8
0
 10
110.284
 20
68.684
 11
110.284
 21
69.984
  0
LINE
  8
0
 10
110.284
 20
69.984
 11
150.284
 21
69.984
  0
LINE
  8
0
 10
150.284
 20
69.984
 11
150.284
 21
68.684
  0
LINE
  8
0
 10
150.284
 20
68.684
 11
110.284
 21
68.684
  0
LINE
  8
0
 10
58.284
 20
68.684
 11
58.284
 21
69.984
  0
LINE
  8
0
 10
58.284
 20
69.984
 11
98.284
 21
69.984
  0
LINE
  8
0
 10
98.284
 20
69.984
 11
98.284
 21
68.684
  0
LINE
  8
0
 10
98.284
 20
68.684
 11
58.284
 21
68.684
  0
LINE
  8
0
 10
-149.716
 20
68.684
 11
-149.716
 21
69.984
  0
LINE
  8
0
 10
-149.716
 20
69.984
 11
-109.716
 21
69.984
  0
LINE
  8
0
 10
-109.716
 20
69.984
 11
-109.716
 21
68.684
  0
LINE
  8
0
 10
-109.716
 20
68.684
 11
-149.716
 21
68.684
  0
LINE
  8
0
 10
-5.71603
 20
68.684
 11
-45.716
 21
68.684
  0
LINE
  8
0
 10
-45.716
 20
68.684
 11
-45.716
 21
69.984
  0
LINE
  8
0
 10
-45.716
 20
69.984
 11
-5.71603
 21
69.984
  0
LINE
  8
0
 10
-5.71603
 20
69.984
 11
-5.71603
 21
68.684
  0
LINE
  8
0
 10
-97.716
 20
63.484
 11
-97.716
 21
64.784
  0
LINE
  8
0
 10
-97.716
 20
64.784
 11
-57.716
 21
64.784
  0
LINE
  8
0
 10
-57.716
 20
64.784
 11
-57.716
 21
63.484
  0
LINE
  8
0
 10
-57.716
 20
63.484
 11
-97.716
 21
63.484
  0
LINE
  8
0
 10
-149.716
 20
63.484
 11
-149.716
 21
64.784
  0
LINE
  8
0
 10
-149.716
 20
64.784
 11
-109.716
 21
64.784
  0
LINE
  8
0
 10
-109.716
 20
64.784
 11
-109.716
 21
63.484
  0
LINE
  8
0
 10
-109.716
 20
63.484
 11
-149.716
 21
63.484
  0
LINE
  8
0
 10
110.284
 20
63.484
 11
110.284
 21
64.784
  0
LINE
  8
0
 10
110.284
 20
64.784
 11
150.284
 21
64.784
  0
LINE
  8
0
 10
150.284
 20
64.784
 11
150.284
 21
63.484
  0
LINE
  8
0
 10
150.284
 20
63.484
 11
110.284
 21
63.484
  0
LINE
  8
0
 10
58.284
 20
63.484
 11
58.284
 21
64.784
  0
LINE
  8
0
 10
58.284
 20
64.784
 11
98.284
 21
64.784
  0
LINE
  8
0
 10
98.284
 20
64.784
 11
98.284
 21
63.484
  0
LINE
  8
0
 10
98.284
 20
63.484
 11
58.284
 21
63.484
  0
LINE
  8
0
 10
6.28395
 20
63.484
 11
6.28395
 21
64.784
  0
LINE
  8
0
 10
6.28395
 20
64.784
 11
46.284
 21
64.784
  0
LINE
  8
0
 10
46.284
 20
64.784
 11
46.284
 21
63.484
  0
LINE
  8
0
 10
46.284
 20
63.484
 11
6.28395
 21
63.484
  0
LINE
  8
0
 10
-45.716
 20
63.484
 11
-45.716
 21
64.784
  0
LINE
  8
0
 10
-45.716
 20
64.784
 11
-5.71603
 21
64.784
  0
LINE
  8
0
 10
-5.71603
 20
64.784
 11
-5.71603
 21
63.484
  0
LINE
  8
0
 10
-5.71603
 20
63.484
 11
-45.716
 21
63.484
  0
LINE
  8
0
 10
-97.716
 20
58.284
 11
-97.716
 21
59.584
  0
LINE
  8
0
 10
-97.716
 20
59.584
 11
-57.716
 21
59.584
  0
LINE
  8
0
 10
-57.716
 20
59.584
 11
-57.716
 21
58.284
  0
LINE
  8
0
 10
-57.716
 20
58.284
 11
-97.716
 21
58.284
  0
LINE
  8
0
 10
-149.716
 20
58.284
 11
-149.716
 21
59.584
  0
LINE
  8
0
 10
-149.716
 20
59.584
 11
-109.716
 21
59.584
  0
LINE
  8
0
 10
-109.716
 20
59.584
 11
-109.716
 21
58.284
  0
LINE
  8
0
 10
-109.716
 20
58.284
 11
-149.716
 21
58.284
  0
LINE
  8
0
 10
-45.716
 20
58.284
 11
-45.716
 21
59.584
  0
LINE
  8
0
 10
-45.716
 20
59.584
 11
-5.71603
 21
59.584
  0
LINE
  8
0
 10
-5.71603
 20
59.584
 11
-5.71603
 21
58.284
  0
LINE
  8
0
 10
-5.71603
 20
58.284
 11
-45.716
 21
58.284
  0
LINE
  8
0
 10
58.284
 20
58.284
 11
58.284
 21
59.584
  0
LINE
  8
0
 10
58.284
 20
59.584
 11
98.284
 21
59.584
  0
LINE
  8
0
 10
98.284
 20
59.584
 11
98.284
 21
58.284
  0
LINE
  8
0
 10
98.284
 20
58.284
 11
58.284
 21
58.284
  0
LINE
  8
0
 10
110.284
 20
58.284
 11
110.284
 21
59.584
  0
LINE
  8
0
 10
110.284
 20
59.584
 11
150.284
 21
59.584
  0
LINE
  8
0
 10
150.284
 20
59.584
 11
150.284
 21
58.284
  0
LINE
  8
0
 10
150.284
 20
58.284
 11
110.284
 21
58.284
  0
LINE
  8
0
 10
6.28395
 20
58.284
 11
6.28395
 21
59.584
  0
LINE
  8
0
 10
6.28395
 20
59.584
 11
46.284
 21
59.584
  0
LINE
  8
0
 10
46.284
 20
59.584
 11
46.284
 21
58.284
  0
LINE
  8
0
 10
46.284
 20
58.284
 11
6.28395
 21
58.284
  0
LINE
  8
0
 10
-97.716
 20
53.084
 11
-97.716
 21
54.384
  0
LINE
  8
0
 10
-97.716
 20
54.384
 11
-57.716
 21
54.384
  0
LINE
  8
0
 10
-57.716
 20
54.384
 11
-57.716
 21
53.084
  0
LINE
  8
0
 10
-57.716
 20
53.084
 11
-97.716
 21
53.084
  0
LINE
  8
0
 10
58.284
 20
53.084
 11
58.284
 21
54.384
  0
LINE
  8
0
 10
58.284
 20
54.384
 11
98.284
 21
54.384
  0
LINE
  8
0
 10
98.284
 20
54.384
 11
98.284
 21
53.084
  0
LINE
  8
0
 10
98.284
 20
53.084
 11
58.284
 21
53.084
  0
LINE
  8
0
 10
-149.716
 20
53.084
 11
-149.716
 21
54.384
  0
LINE
  8
0
 10
-149.716
 20
54.384
 11
-109.716
 21
54.384
  0
LINE
  8
0
 10
-109.716
 20
54.384
 11
-109.716
 21
53.084
  0
LINE
  8
0
 10
-109.716
 20
53.084
 11
-149.716
 21
53.084
  0
LINE
  8
0
 10
-45.716
 20
53.084
 11
-45.716
 21
54.384
  0
LINE
  8
0
 10
-45.716
 20
54.384
 11
-5.71603
 21
54.384
  0
LINE
  8
0
 10
-5.71603
 20
54.384
 11
-5.71603
 21
53.084
  0
LINE
  8
0
 10
-5.71603
 20
53.084
 11
-45.716
 21
53.084
  0
LINE
  8
0
 10
6.28395
 20
53.084
 11
6.28395
 21
54.384
  0
LINE
  8
0
 10
6.28395
 20
54.384
 11
46.284
 21
54.384
  0
LINE
  8
0
 10
46.284
 20
54.384
 11
46.284
 21
53.084
  0
LINE
  8
0
 10
46.284
 20
53.084
 11
6.28395
 21
53.084
  0
LINE
  8
0
 10
110.284
 20
53.084
 11
110.284
 21
54.384
  0
LINE
  8
0
 10
110.284
 20
54.384
 11
150.284
 21
54.384
  0
LINE
  8
0
 10
150.284
 20
54.384
 11
150.284
 21
53.084
  0
LINE
  8
0
 10
150.284
 20
53.084
 11
110.284
 21
53.084
  0
LINE
  8
0
 10
-97.716
 20
47.884
 11
-97.716
 21
49.184
  0
LINE
  8
0
 10
-97.716
 20
49.184
 11
-57.716
 21
49.184
  0
LINE
  8
0
 10
-57.716
 20
49.184
 11
-57.716
 21
47.884
  0
LINE
  8
0
 10
-57.716
 20
47.884
 11
-97.716
 21
47.884
  0
LINE
  8
0
 10
58.284
 20
47.884
 11
58.284
 21
49.184
  0
LINE
  8
0
 10
58.284
 20
49.184
 11
98.284
 21
49.184
  0
LINE
  8
0
 10
98.284
 20
49.184
 11
98.284
 21
47.884
  0
LINE
  8
0
 10
98.284
 20
47.884
 11
58.284
 21
47.884
  0
LINE
  8
0
 10
-45.716
 20
47.884
 11
-45.716
 21
49.184
  0
LINE
  8
0
 10
-45.716
 20
49.184
 11
-5.71603
 21
49.184
  0
LINE
  8
0
 10
-5.71603
 20
49.184
 11
-5.71603
 21
47.884
  0
LINE
  8
0
 10
-5.71603
 20
47.884
 11
-45.716
 21
47.884
  0
LINE
  8
0
 10
-149.716
 20
47.884
 11
-149.716
 21
49.184
  0
LINE
  8
0
 10
-149.716
 20
49.184
 11
-109.716
 21
49.184
  0
LINE
  8
0
 10
-109.716
 20
49.184
 11
-109.716
 21
47.884
  0
LINE
  8
0
 10
-109.716
 20
47.884
 11
-149.716
 21
47.884
  0
LINE
  8
0
 10
6.28395
 20
47.884
 11
6.28395
 21
49.184
  0
LINE
  8
0
 10
6.28395
 20
49.184
 11
46.284
 21
49.184
  0
LINE
  8
0
 10
46.284
 20
49.184
 11
46.284
 21
47.884
  0
LINE
  8
0
 10
46.284
 20
47.884
 11
6.28395
 21
47.884
  0
LINE
  8
0
 10
150.284
 20
47.884
 11
110.284
 21
47.884
  0
LINE
  8
0
 10
110.284
 20
47.884
 11
110.284
 21
49.184
  0
LINE
  8
0
 10
110.284
 20
49.184
 11
150.284
 21
49.184
  0
LINE
  8
0
 10
150.284
 20
49.184
 11
150.284
 21
47.884
  0
LINE
  8
0
 10
58.284
 20
42.684
 11
58.284
 21
43.984
  0
LINE
  8
0
 10
58.284
 20
43.984
 11
98.284
 21
43.984
  0
LINE
  8
0
 10
98.284
 20
43.984
 11
98.284
 21
42.684
  0
LINE
  8
0
 10
98.284
 20
42.684
 11
58.284
 21
42.684
  0
LINE
  8
0
 10
-149.716
 20
42.684
 11
-149.716
 21
43.984
  0
LINE
  8
0
 10
-149.716
 20
43.984
 11
-109.716
 21
43.984
  0
LINE
  8
0
 10
-109.716
 20
43.984
 11
-109.716
 21
42.684
  0
LINE
  8
0
 10
-109.716
 20
42.684
 11
-149.716
 21
42.684
  0
LINE
  8
0
 10
-97.716
 20
43.984
 11
-57.716
 21
43.984
  0
LINE
  8
0
 10
-57.716
 20
43.984
 11
-57.716
 21
42.684
  0
LINE
  8
0
 10
-57.716
 20
42.684
 11
-97.716
 21
42.684
  0
LINE
  8
0
 10
-97.716
 20
42.684
 11
-97.716
 21
43.984
  0
LINE
  8
0
 10
6.28395
 20
42.684
 11
6.28395
 21
43.984
  0
LINE
  8
0
 10
6.28395
 20
43.984
 11
46.284
 21
43.984
  0
LINE
  8
0
 10
46.284
 20
43.984
 11
46.284
 21
42.684
  0
LINE
  8
0
 10
46.284
 20
42.684
 11
6.28395
 21
42.684
  0
LINE
  8
0
 10
110.284
 20
42.684
 11
110.284
 21
43.984
  0
LINE
  8
0
 10
110.284
 20
43.984
 11
150.284
 21
43.984
  0
LINE
  8
0
 10
150.284
 20
43.984
 11
150.284
 21
42.684
  0
LINE
  8
0
 10
150.284
 20
42.684
 11
110.284
 21
42.684
  0
LINE
  8
0
 10
-97.716
 20
37.484
 11
-97.716
 21
38.784
  0
LINE
  8
0
 10
-97.716
 20
38.784
 11
-57.716
 21
38.784
  0
LINE
  8
0
 10
-57.716
 20
38.784
 11
-57.716
 21
37.484
  0
LINE
  8
0
 10
-57.716
 20
37.484
 11
-97.716
 21
37.484
  0
LINE
  8
0
 10
58.284
 20
37.484
 11
58.284
 21
38.784
  0
LINE
  8
0
 10
58.284
 20
38.784
 11
98.284
 21
38.784
  0
LINE
  8
0
 10
98.284
 20
38.784
 11
98.284
 21
37.484
  0
LINE
  8
0
 10
98.284
 20
37.484
 11
58.284
 21
37.484
  0
LINE
  8
0
 10
-149.716
 20
37.484
 11
-149.716
 21
38.784
  0
LINE
  8
0
 10
-149.716
 20
38.784
 11
-109.716
 21
38.784
  0
LINE
  8
0
 10
-109.716
 20
38.784
 11
-109.716
 21
37.484
  0
LINE
  8
0
 10
-109.716
 20
37.484
 11
-149.716
 21
37.484
  0
LINE
  8
0
 10
110.284
 20
37.484
 11
110.284
 21
38.784
  0
LINE
  8
0
 10
110.284
 20
38.784
 11
150.284
 21
38.784
  0
LINE
  8
0
 10
150.284
 20
38.784
 11
150.284
 21
37.484
  0
LINE
  8
0
 10
150.284
 20
37.484
 11
110.284
 21
37.484
  0
LINE
  8
0
 10
6.28395
 20
37.484
 11
6.28395
 21
38.784
  0
LINE
  8
0
 10
6.28395
 20
38.784
 11
46.284
 21
38.784
  0
LINE
  8
0
 10
46.284
 20
38.784
 11
46.284
 21
37.484
  0
LINE
  8
0
 10
46.284
 20
37.484
 11
6.28395
 21
37.484
  0
LINE
  8
0
 10
-45.716
 20
37.484
 11
-45.716
 21
38.784
  0
LINE
  8
0
 10
-45.716
 20
38.784
 11
-5.71603
 21
38.784
  0
LINE
  8
0
 10
-5.71603
 20
38.784
 11
-5.71603
 21
37.484
  0
LINE
  8
0
 10
-5.71603
 20
37.484
 11
-45.716
 21
37.484
  0
LINE
  8
0
 10
58.284
 20
32.284
 11
58.284
 21
33.584
  0
LINE
  8
0
 10
58.284
 20
33.584
 11
98.284
 21
33.584
  0
LINE
  8
0
 10
98.284
 20
33.584
 11
98.284
 21
32.284
  0
LINE
  8
0
 10
98.284
 20
32.284
 11
58.284
 21
32.284
  0
LINE
  8
0
 10
-149.716
 20
32.284
 11
-149.716
 21
33.584
  0
LINE
  8
0
 10
-149.716
 20
33.584
 11
-109.716
 21
33.584
  0
LINE
  8
0
 10
-109.716
 20
33.584
 11
-109.716
 21
32.284
  0
LINE
  8
0
 10
-109.716
 20
32.284
 11
-149.716
 21
32.284
  0
LINE
  8
0
 10
-45.716
 20
32.284
 11
-45.716
 21
33.584
  0
LINE
  8
0
 10
-45.716
 20
33.584
 11
-5.71603
 21
33.584
  0
LINE
  8
0
 10
-5.71603
 20
33.584
 11
-5.71603
 21
32.284
  0
LINE
  8
0
 10
-5.71603
 20
32.284
 11
-45.716
 21
32.284
  0
LINE
  8
0
 10
110.284
 20
32.284
 11
110.284
 21
33.584
  0
LINE
  8
0
 10
110.284
 20
33.584
 11
150.284
 21
33.584
  0
LINE
  8
0
 10
150.284
 20
33.584
 11
150.284
 21
32.284
  0
LINE
  8
0
 10
150.284
 20
32.284
 11
110.284
 21
32.284
  0
LINE
  8
0
 10
6.28395
 20
32.284
 11
6.28395
 21
33.584
  0
LINE
  8
0
 10
6.28395
 20
33.584
 11
46.284
 21
33.584
  0
LINE
  8
0
 10
46.284
 20
33.584
 11
46.284
 21
32.284
  0
LINE
  8
0
 10
46.284
 20
32.284
 11
6.28395
 21
32.284
  0
LINE
  8
0
 10
-97.716
 20
32.284
 11
-97.716
 21
33.584
  0
LINE
  8
0
 10
-97.716
 20
33.584
 11
-57.716
 21
33.584
  0
LINE
  8
0
 10
-57.716
 20
33.584
 11
-57.716
 21
32.284
  0
LINE
  8
0
 10
-57.716
 20
32.284
 11
-97.716
 21
32.284
  0
LINE
  8
0
 10
-149.716
 20
27.084
 11
-149.716
 21
28.384
  0
LINE
  8
0
 10
-149.716
 20
28.384
 11
-109.716
 21
28.384
  0
LINE
  8
0
 10
-109.716
 20
28.384
 11
-109.716
 21
27.084
  0
LINE
  8
0
 10
-109.716
 20
27.084
 11
-149.716
 21
27.084
  0
LINE
  8
0
 10
-97.716
 20
27.084
 11
-97.716
 21
28.384
  0
LINE
  8
0
 10
-97.716
 20
28.384
 11
-57.716
 21
28.384
  0
LINE
  8
0
 10
-57.716
 20
28.384
 11
-57.716
 21
27.084
  0
LINE
  8
0
 10
-57.716
 20
27.084
 11
-97.716
 21
27.084
  0
LINE
  8
0
 10
58.284
 20
27.084
 11
58.284
 21
28.384
  0
LINE
  8
0
 10
58.284
 20
28.384
 11
98.284
 21
28.384
  0
LINE
  8
0
 10
98.284
 20
28.384
 11
98.284
 21
27.084
  0
LINE
  8
0
 10
98.284
 20
27.084
 11
58.284
 21
27.084
  0
LINE
  8
0
 10
110.284
 20
27.084
 11
110.284
 21
28.384
  0
LINE
  8
0
 10
110.284
 20
28.384
 11
150.284
 21
28.384
  0
LINE
  8
0
 10
150.284
 20
28.384
 11
150.284
 21
27.084
  0
LINE
  8
0
 10
150.284
 20
27.084
 11
110.284
 21
27.084
  0
LINE
  8
0
 10
-45.716
 20
27.084
 11
-45.716
 21
28.384
  0
LINE
  8
0
 10
-45.716
 20
28.384
 11
-5.71603
 21
28.384
  0
LINE
  8
0
 10
-5.71603
 20
28.384
 11
-5.71603
 21
27.084
  0
LINE
  8
0
 10
-5.71603
 20
27.084
 11
-45.716
 21
27.084
  0
LINE
  8
0
 10
6.28395
 20
27.084
 11
6.28395
 21
28.384
  0
LINE
  8
0
 10
6.28395
 20
28.384
 11
46.284
 21
28.384
  0
LINE
  8
0
 10
46.284
 20
28.384
 11
46.284
 21
27.084
  0
LINE
  8
0
 10
46.284
 20
27.084
 11
6.28395
 21
27.084
  0
LINE
  8
0
 10
-45.716
 20
21.884
 11
-45.716
 21
23.184
  0
LINE
  8
0
 10
-45.716
 20
23.184
 11
-5.71603
 21
23.184
  0
LINE
  8
0
 10
-5.71603
 20
23.184
 11
-5.71603
 21
21.884
  0
LINE
  8
0
 10
-5.71603
 20
21.884
 11
-45.716
 21
21.884
  0
LINE
  8
0
 10
110.284
 20
21.884
 11
110.284
 21
23.184
  0
LINE
  8
0
 10
110.284
 20
23.184
 11
150.284
 21
23.184
  0
LINE
  8
0
 10
150.284
 20
23.184
 11
150.284
 21
21.884
  0
LINE
  8
0
 10
150.284
 20
21.884
 11
110.284
 21
21.884
  0
LINE
  8
0
 10
-97.716
 20
21.884
 11
-97.716
 21
23.184
  0
LINE
  8
0
 10
-97.716
 20
23.184
 11
-57.716
 21
23.184
  0
LINE
  8
0
 10
-57.716
 20
23.184
 11
-57.716
 21
21.884
  0
LINE
  8
0
 10
-57.716
 20
21.884
 11
-97.716
 21
21.884
  0
LINE
  8
0
 10
-149.716
 20
21.884
 11
-149.716
 21
23.184
  0
LINE
  8
0
 10
-149.716
 20
23.184
 11
-109.716
 21
23.184
  0
LINE
  8
0
 10
-109.716
 20
23.184
 11
-109.716
 21
21.884
  0
LINE
  8
0
 10
-109.716
 20
21.884
 11
-149.716
 21
21.884
  0
LINE
  8
0
 10
58.284
 20
21.884
 11
58.284
 21
23.184
  0
LINE
  8
0
 10
58.284
 20
23.184
 11
98.284
 21
23.184
  0
LINE
  8
0
 10
98.284
 20
23.184
 11
98.284
 21
21.884
  0
LINE
  8
0
 10
98.284
 20
21.884
 11
58.284
 21
21.884
  0
LINE
  8
0
 10
6.28395
 20
21.884
 11
6.28395
 21
23.184
  0
LINE
  8
0
 10
6.28395
 20
23.184
 11
46.284
 21
23.184
  0
LINE
  8
0
 10
46.284
 20
23.184
 11
46.284
 21
21.884
  0
LINE
  8
0
 10
46.284
 20
21.884
 11
6.28395
 21
21.884
  0
LINE
  8
0
 10
110.284
 20
16.684
 11
110.284
 21
17.984
  0
LINE
  8
0
 10
110.284
 20
17.984
 11
150.284
 21
17.984
  0
LINE
  8
0
 10
150.284
 20
17.984
 11
150.284
 21
16.684
  0
LINE
  8
0
 10
150.284
 20
16.684
 11
110.284
 21
16.684
  0
LINE
  8
0
 10
-149.716
 20
16.684
 11
-149.716
 21
17.984
  0
LINE
  8
0
 10
-149.716
 20
17.984
 11
-109.716
 21
17.984
  0
LINE
  8
0
 10
-109.716
 20
17.984
 11
-109.716
 21
16.684
  0
LINE
  8
0
 10
-109.716
 20
16.684
 11
-149.716
 21
16.684
  0
LINE
  8
0
 10
58.284
 20
16.684
 11
58.284
 21
17.984
  0
LINE
  8
0
 10
58.284
 20
17.984
 11
98.284
 21
17.984
  0
LINE
  8
0
 10
98.284
 20
17.984
 11
98.284
 21
16.684
  0
LINE
  8
0
 10
98.284
 20
16.684
 11
58.284
 21
16.684
  0
LINE
  8
0
 10
6.28395
 20
16.684
 11
6.28395
 21
17.984
  0
LINE
  8
0
 10
6.28395
 20
17.984
 11
46.284
 21
17.984
  0
LINE
  8
0
 10
46.284
 20
17.984
 11
46.284
 21
16.684
  0
LINE
  8
0
 10
46.284
 20
16.684
 11
6.28395
 21
16.684
  0
LINE
  8
0
 10
-57.716
 20
16.684
 11
-97.716
 21
16.684
  0
LINE
  8
0
 10
-97.716
 20
16.684
 11
-97.716
 21
17.984
  0
LINE
  8
0
 10
-97.716
 20
17.984
 11
-57.716
 21
17.984
  0
LINE
  8
0
 10
-57.716
 20
17.984
 11
-57.716
 21
16.684
  0
LINE
  8
0
 10
-5.71603
 20
16.684
 11
-45.716
 21
16.684
  0
LINE
  8
0
 10
-45.716
 20
16.684
 11
-45.716
 21
17.984
  0
LINE
  8
0
 10
-45.716
 20
17.984
 11
-5.71603
 21
17.984
  0
LINE
  8
0
 10
-5.71603
 20
17.984
 11
-5.71603
 21
16.684
  0
LINE
  8
0
 10
-97.716
 20
11.484
 11
-97.716
 21
12.784
  0
LINE
  8
0
 10
-97.716
 20
12.784
 11
-57.716
 21
12.784
  0
LINE
  8
0
 10
-57.716
 20
12.784
 11
-57.716
 21
11.484
  0
LINE
  8
0
 10
-57.716
 20
11.484
 11
-97.716
 21
11.484
  0
LINE
  8
0
 10
6.28395
 20
11.484
 11
6.28395
 21
12.784
  0
LINE
  8
0
 10
6.28395
 20
12.784
 11
46.284
 21
12.784
  0
LINE
  8
0
 10
46.284
 20
12.784
 11
46.284
 21
11.484
  0
LINE
  8
0
 10
46.284
 20
11.484
 11
6.28395
 21
11.484
  0
LINE
  8
0
 10
-149.716
 20
11.484
 11
-149.716
 21
12.784
  0
LINE
  8
0
 10
-149.716
 20
12.784
 11
-109.716
 21
12.784
  0
LINE
  8
0
 10
-109.716
 20
12.784
 11
-109.716
 21
11.484
  0
LINE
  8
0
 10
-109.716
 20
11.484
 11
-149.716
 21
11.484
  0
LINE
  8
0
 10
-45.716
 20
11.484
 11
-45.716
 21
12.784
  0
LINE
  8
0
 10
-45.716
 20
12.784
 11
-5.71603
 21
12.784
  0
LINE
  8
0
 10
-5.71603
 20
12.784
 11
-5.71603
 21
11.484
  0
LINE
  8
0
 10
-5.71603
 20
11.484
 11
-45.716
 21
11.484
  0
LINE
  8
0
 10
58.284
 20
11.484
 11
58.284
 21
12.784
  0
LINE
  8
0
 10
58.284
 20
12.784
 11
98.284
 21
12.784
  0
LINE
  8
0
 10
98.284
 20
12.784
 11
98.284
 21
11.484
  0
LINE
  8
0
 10
98.284
 20
11.484
 11
58.284
 21
11.484
  0
LINE
  8
0
 10
110.284
 20
11.484
 11
110.284
 21
12.784
  0
LINE
  8
0
 10
110.284
 20
12.784
 11
150.284
 21
12.784
  0
LINE
  8
0
 10
150.284
 20
12.784
 11
150.284
 21
11.484
  0
LINE
  8
0
 10
150.284
 20
11.484
 11
110.284
 21
11.484
  0
LINE
  8
0
 10
110.284
 20
6.28395
 11
110.284
 21
7.58395
  0
LINE
  8
0
 10
110.284
 20
7.58395
 11
150.284
 21
7.58395
  0
LINE
  8
0
 10
150.284
 20
7.58395
 11
150.284
 21
6.28395
  0
LINE
  8
0
 10
150.284
 20
6.28395
 11
110.284
 21
6.28395
  0
LINE
  8
0
 10
-149.716
 20
6.28395
 11
-149.716
 21
7.58395
  0
LINE
  8
0
 10
-149.716
 20
7.58395
 11
-109.716
 21
7.58395
  0
LINE
  8
0
 10
-109.716
 20
7.58395
 11
-109.716
 21
6.28395
  0
LINE
  8
0
 10
-109.716
 20
6.28395
 11
-149.716
 21
6.28395
  0
LINE
  8
0
 10
-97.716
 20
6.28395
 11
-97.716
 21
7.58395
  0
LINE
  8
0
 10
-97.716
 20
7.58395
 11
-57.716
 21
7.58395
  0
LINE
  8
0
 10
-57.716
 20
7.58395
 11
-57.716
 21
6.28395
  0
LINE
  8
0
 10
-57.716
 20
6.28395
 11
-97.716
 21
6.28395
  0
LINE
  8
0
 10
6.28395
 20
6.28395
 11
6.28395
 21
7.58395
  0
LINE
  8
0
 10
6.28395
 20
7.58395
 11
46.284
 21
7.58395
  0
LINE
  8
0
 10
46.284
 20
7.58395
 11
46.284
 21
6.28395
  0
LINE
  8
0
 10
46.284
 20
6.28395
 11
6.28395
 21
6.28395
  0
LINE
  8
0
 10
-45.716
 20
6.28395
 11
-45.716
 21
7.58395
  0
LINE
  8
0
 10
-45.716
 20
7.58395
 11
-5.71603
 21
7.58395
  0
LINE
  8
0
 10
-5.71603
 20
7.58395
 11
-5.71603
 21
6.28395
  0
LINE
  8
0
 10
-5.71603
 20
6.28395
 11
-45.716
 21
6.28395
  0
LINE
  8
0
 10
58.284
 20
6.28395
 11
58.284
 21
7.58395
  0
LINE
  8
0
 10
58.284
 20
7.58395
 11
98.284
 21
7.58395
  0
LINE
  8
0
 10
98.284
 20
7.58395
 11
98.284
 21
6.28395
  0
LINE
  8
0
 10
98.284
 20
6.28395
 11
58.284
 21
6.28395
  0
LINE
  8
0
 10
-175.889
 20
-2.74457
 11
-176.061
 21
-2.7283
  0
LINE
  8
0
 10
-176.061
 20
-2.7283
 11
-176.231
 21
-2.70128
  0
LINE
  8
0
 10
-176.231
 20
-2.70128
 11
-176.4
 21
-2.66359
  0
LINE
  8
0
 10
-176.4
 20
-2.66359
 11
-176.566
 21
-2.6154
  0
LINE
  8
0
 10
-176.566
 20
-2.6154
 11
-176.728
 21
-2.55688
  0
LINE
  8
0
 10
-176.728
 20
-2.55688
 11
-176.887
 21
-2.48827
  0
LINE
  8
0
 10
-176.887
 20
-2.48827
 11
-177.041
 21
-2.40984
  0
LINE
  8
0
 10
-177.041
 20
-2.40984
 11
-177.19
 21
-2.3219
  0
LINE
  8
0
 10
-177.19
 20
-2.3219
 11
-177.332
 21
-2.22479
  0
LINE
  8
0
 10
-177.332
 20
-2.22479
 11
-177.469
 21
-2.1189
  0
LINE
  8
0
 10
-177.469
 20
-2.1189
 11
-177.599
 21
-2.00465
  0
LINE
  8
0
 10
-177.599
 20
-2.00465
 11
-177.721
 21
-1.88249
  0
LINE
  8
0
 10
-177.721
 20
-1.88249
 11
-177.835
 21
-1.75291
  0
LINE
  8
0
 10
-177.835
 20
-1.75291
 11
-177.941
 21
-1.61641
  0
LINE
  8
0
 10
-177.941
 20
-1.61641
 11
-178.038
 21
-1.47351
  0
LINE
  8
0
 10
-178.038
 20
-1.47351
 11
-178.126
 21
-1.32481
  0
LINE
  8
0
 10
-178.126
 20
-1.32481
 11
-178.204
 21
-1.17088
  0
LINE
  8
0
 10
-178.204
 20
-1.17088
 11
-178.273
 21
-1.01233
  0
LINE
  8
0
 10
-178.273
 20
-1.01233
 11
-178.331
 21
-0.849792
  0
LINE
  8
0
 10
-178.331
 20
-0.849792
 11
-178.38
 21
-0.683884
  0
LINE
  8
0
 10
-178.38
 20
-0.683884
 11
-178.417
 21
-0.515289
  0
LINE
  8
0
 10
-178.417
 20
-0.515289
 11
-178.444
 21
-0.344666
  0
LINE
  8
0
 10
-178.444
 20
-0.344666
 11
-178.461
 21
-0.172668
  0
LINE
  8
0
 10
-178.461
 20
-0.172668
 11
-178.466
 21
0
  0
LINE
  8
0
 10
-178.466
 20
0
 11
-178.461
 21
0.172668
  0
LINE
  8
0
 10
-178.461
 20
0.172668
 11
-178.444
 21
0.344666
  0
LINE
  8
0
 10
-178.444
 20
0.344666
 11
-178.417
 21
0.515289
  0
LINE
  8
0
 10
-178.417
 20
0.515289
 11
-178.38
 21
0.683884
  0
LINE
  8
0
 10
-178.38
 20
0.683884
 11
-178.331
 21
0.849792
  0
LINE
  8
0
 10
-178.331
 20
0.849792
 11
-178.273
 21
1.01233
  0
LINE
  8
0
 10
-178.273
 20
1.01233
 11
-178.204
 21
1.17088
  0
LINE
  8
0
 10
-178.204
 20
1.17088
 11
-178.126
 21
1.32481
  0
LINE
  8
0
 10
-178.126
 20
1.32481
 11
-178.038
 21
1.47351
  0
LINE
  8
0
 10
-178.038
 20
1.47351
 11
-177.941
 21
1.61641
  0
LINE
  8
0
 10
-177.941
 20
1.61641
 11
-177.835
 21
1.75291
  0
LINE
  8
0
 10
-177.835
 20
1.75291
 11
-177.721
 21
1.88249
  0
LINE
  8
0
 10
-177.721
 20
1.88249
 11
-177.599
 21
2.00465
  0
LINE
  8
0
 10
-177.599
 20
2.00465
 11
-177.469
 21
2.1189
  0
LINE
  8
0
 10
-177.469
 20
2.1189
 11
-177.332
 21
2.22479
  0
LINE
  8
0
 10
-177.332
 20
2.22479
 11
-177.19
 21
2.3219
  0
LINE
  8
0
 10
-177.19
 20
2.3219
 11
-177.041
 21
2.40984
  0
LINE
  8
0
 10
-177.041
 20
2.40984
 11
-176.887
 21
2.48827
  0
LINE
  8
0
 10
-176.887
 20
2.48827
 11
-176.728
 21
2.55688
  0
LINE
  8
0
 10
-176.728
 20
2.55688
 11
-176.566
 21
2.6154
  0
LINE
  8
0
 10
-176.566
 20
2.6154
 11
-176.4
 21
2.66359
  0
LINE
  8
0
 10
-176.4
 20
2.66359
 11
-176.231
 21
2.70128
  0
LINE
  8
0
 10
-176.231
 20
2.70128
 11
-176.061
 21
2.7283
  0
LINE
  8
0
 10
-176.061
 20
2.7283
 11
-175.889
 21
2.74457
  0
LINE
  8
0
 10
-175.889
 20
2.74457
 11
-175.716
 21
2.75
  0
LINE
  8
0
 10
-175.716
 20
2.75
 11
-175.543
 21
2.74457
  0
LINE
  8
0
 10
-175.543
 20
2.74457
 11
-175.371
 21
2.7283
  0
LINE
  8
0
 10
-175.371
 20
2.7283
 11
-175.201
 21
2.70128
  0
LINE
  8
0
 10
-175.201
 20
2.70128
 11
-175.032
 21
2.66359
  0
LINE
  8
0
 10
-175.032
 20
2.66359
 11
-174.866
 21
2.6154
  0
LINE
  8
0
 10
-174.866
 20
2.6154
 11
-174.704
 21
2.55688
  0
LINE
  8
0
 10
-174.704
 20
2.55688
 11
-174.545
 21
2.48827
  0
LINE
  8
0
 10
-174.545
 20
2.48827
 11
-174.391
 21
2.40984
  0
LINE
  8
0
 10
-174.391
 20
2.40984
 11
-174.243
 21
2.3219
  0
LINE
  8
0
 10
-174.243
 20
2.3219
 11
-174.1
 21
2.22479
  0
LINE
  8
0
 10
-174.1
 20
2.22479
 11
-173.963
 21
2.1189
  0
LINE
  8
0
 10
-173.963
 20
2.1189
 11
-173.834
 21
2.00465
  0
LINE
  8
0
 10
-173.834
 20
2.00465
 11
-173.711
 21
1.88249
  0
LINE
  8
0
 10
-173.711
 20
1.88249
 11
-173.597
 21
1.75291
  0
LINE
  8
0
 10
-173.597
 20
1.75291
 11
-173.491
 21
1.61641
  0
LINE
  8
0
 10
-173.491
 20
1.61641
 11
-173.394
 21
1.47351
  0
LINE
  8
0
 10
-173.394
 20
1.47351
 11
-173.306
 21
1.32481
  0
LINE
  8
0
 10
-173.306
 20
1.32481
 11
-173.228
 21
1.17088
  0
LINE
  8
0
 10
-173.228
 20
1.17088
 11
-173.159
 21
1.01233
  0
LINE
  8
0
 10
-173.159
 20
1.01233
 11
-173.101
 21
0.849792
  0
LINE
  8
0
 10
-173.101
 20
0.849792
 11
-173.052
 21
0.683884
  0
LINE
  8
0
 10
-173.052
 20
0.683884
 11
-173.015
 21
0.515289
  0
LINE
  8
0
 10
-173.015
 20
0.515289
 11
-172.988
 21
0.344666
  0
LINE
  8
0
 10
-172.988
 20
0.344666
 11
-172.971
 21
0.172668
  0
LINE
  8
0
 10
-172.971
 20
0.172668
 11
-172.966
 21
0
  0
LINE
  8
0
 10
-172.966
 20
0
 11
-172.971
 21
-0.172668
  0
LINE
  8
0
 10
-172.971
 20
-0.172668
 11
-172.988
 21
-0.344666
  0
LINE
  8
0
 10
-172.988
 20
-0.344666
 11
-173.015
 21
-0.515289
  0
LINE
  8
0
 10
-173.015
 20
-0.515289
 11
-173.052
 21
-0.683884
  0
LINE
  8
0
 10
-173.052
 20
-0.683884
 11
-173.101
 21
-0.849792
  0
LINE
  8
0
 10
-173.101
 20
-0.849792
 11
-173.159
 21
-1.01233
  0
LINE
  8
0
 10
-173.159
 20
-1.01233
 11
-173.228
 21
-1.17088
  0
LINE
  8
0
 10
-173.228
 20
-1.17088
 11
-173.306
 21
-1.32481
  0
LINE
  8
0
 10
-173.306
 20
-1.32481
 11
-173.394
 21
-1.47351
  0
LINE
  8
0
 10
-173.394
 20
-1.47351
 11
-173.491
 21
-1.61641
  0
LINE
  8
0
 10
-173.491
 20
-1.61641
 11
-173.597
 21
-1.75291
  0
LINE
  8
0
 10
-173.597
 20
-1.75291
 11
-173.711
 21
-1.88249
  0
LINE
  8
0
 10
-173.711
 20
-1.88249
 11
-173.834
 21
-2.00465
  0
LINE
  8
0
 10
-173.834
 20
-2.00465
 11
-173.963
 21
-2.1189
  0
LINE
  8
0
 10
-173.963
 20
-2.1189
 11
-174.1
 21
-2.22479
  0
LINE
  8
0
 10
-174.1
 20
-2.22479
 11
-174.243
 21
-2.3219
  0
LINE
  8
0
 10
-174.243
 20
-2.3219
 11
-174.391
 21
-2.40984
  0
LINE
  8
0
 10
-174.391
 20
-2.40984
 11
-174.545
 21
-2.48827
  0
LINE
  8
0
 10
-174.545
 20
-2.48827
 11
-174.704
 21
-2.55688
  0
LINE
  8
0
 10
-174.704
 20
-2.55688
 11
-174.866
 21
-2.6154
  0
LINE
  8
0
 10
-174.866
 20
-2.6154
 11
-175.032
 21
-2.66359
  0
LINE
  8
0
 10
-175.032
 20
-2.66359
 11
-175.201
 21
-2.70128
  0
LINE
  8
0
 10
-175.201
 20
-2.70128
 11
-175.371
 21
-2.7283
  0
LINE
  8
0
 10
-175.371
 20
-2.7283
 11
-175.543
 21
-2.74457
  0
LINE
  8
0
 10
-175.543
 20
-2.74457
 11
-175.716
 21
-2.75
  0
LINE
  8
0
 10
-175.716
 20
-2.75
 11
-175.889
 21
-2.74457
  0
LINE
  8
0
 10
-0.172668
 20
-2.74457
 11
-0.344666
 21
-2.7283
  0
LINE
  8
0
 10
-0.344666
 20
-2.7283
 11
-0.515289
 21
-2.70128
  0
LINE
  8
0
 10
-0.515289
 20
-2.70128
 11
-0.683884
 21
-2.66359
  0
LINE
  8
0
 10
-0.683884
 20
-2.66359
 11
-0.849792
 21
-2.6154
  0
LINE
  8
0
 10
-0.849792
 20
-2.6154
 11
-1.01233
 21
-2.55688
  0
LINE
  8
0
 10
-1.01233
 20
-2.55688
 11
-1.17088
 21
-2.48827
  0
LINE
  8
0
 10
-1.17088
 20
-2.48827
 11
-1.32481
 21
-2.40984
  0
LINE
  8
0
 10
-1.32481
 20
-2.40984
 11
-1.47351
 21
-2.3219
  0
LINE
  8
0
 10
-1.47351
 20
-2.3219
 11
-1.61641
 21
-2.22479
  0
LINE
  8
0
 10
-1.61641
 20
-2.22479
 11
-1.75291
 21
-2.1189
  0
LINE
  8
0
 10
-1.75291
 20
-2.1189
 11
-1.88249
 21
-2.00465
  0
LINE
  8
0
 10
-1.88249
 20
-2.00465
 11
-2.00465
 21
-1.88249
  0
LINE
  8
0
 10
-2.00465
 20
-1.88249
 11
-2.1189
 21
-1.75291
  0
LINE
  8
0
 10
-2.1189
 20
-1.75291
 11
-2.22479
 21
-1.61641
  0
LINE
  8
0
 10
-2.22479
 20
-1.61641
 11
-2.3219
 21
-1.47351
  0
LINE
  8
0
 10
-2.3219
 20
-1.47351
 11
-2.40984
 21
-1.32481
  0
LINE
  8
0
 10
-2.40984
 20
-1.32481
 11
-2.48827
 21
-1.17088
  0
LINE
  8
0
 10
-2.48827
 20
-1.17088
 11
-2.55688
 21
-1.01233
  0
LINE
  8
0
 10
-2.55688
 20
-1.01233
 11
-2.6154
 21
-0.849792
  0
LINE
  8
0
 10
-2.6154
 20
-0.849792
 11
-2.66359
 21
-0.683884
  0
LINE
  8
0
 10
-2.66359
 20
-0.683884
 11
-2.70128
 21
-0.515289
  0
LINE
  8
0
 10
-2.70128
 20
-0.515289
 11
-2.7283
 21
-0.344666
  0
LINE
  8
0
 10
-2.7283
 20
-0.344666
 11
-2.74457
 21
-0.172668
  0
LINE
  8
0
 10
-2.74457
 20
-0.172668
 11
-2.75
 21
0
  0
LINE
  8
0
 10
-2.75
 20
0
 11
-2.74457
 21
0.172668
  0
LINE
  8
0
 10
-2.74457
 20
0.172668
 11
-2.7283
 21
0.344666
  0
LINE
  8
0
 10
-2.7283
 20
0.344666
 11
-2.70128
 21
0.515289
  0
LINE
  8
0
 10
-2.70128
 20
0.515289
 11
-2.66359
 21
0.683884
  0
LINE
  8
0
 10
-2.66359
 20
0.683884
 11
-2.6154
 21
0.849792
  0
LINE
  8
0
 10
-2.6154
 20
0.849792
 11
-2.55688
 21
1.01233
  0
LINE
  8
0
 10
-2.55688
 20
1.01233
 11
-2.48827
 21
1.17088
  0
LINE
  8
0
 10
-2.48827
 20
1.17088
 11
-2.40984
 21
1.32481
  0
LINE
  8
0
 10
-2.40984
 20
1.32481
 11
-2.3219
 21
1.47351
  0
LINE
  8
0
 10
-2.3219
 20
1.47351
 11
-2.22479
 21
1.61641
  0
LINE
  8
0
 10
-2.22479
 20
1.61641
 11
-2.1189
 21
1.75291
  0
LINE
  8
0
 10
-2.1189
 20
1.75291
 11
-2.00465
 21
1.88249
  0
LINE
  8
0
 10
-2.00465
 20
1.88249
 11
-1.88249
 21
2.00465
  0
LINE
  8
0
 10
-1.88249
 20
2.00465
 11
-1.75291
 21
2.1189
  0
LINE
  8
0
 10
-1.75291
 20
2.1189
 11
-1.61641
 21
2.22479
  0
LINE
  8
0
 10
-1.61641
 20
2.22479
 11
-1.47351
 21
2.3219
  0
LINE
  8
0
 10
-1.47351
 20
2.3219
 11
-1.32481
 21
2.40984
  0
LINE
  8
0
 10
-1.32481
 20
2.40984
 11
-1.17088
 21
2.48827
  0
LINE
  8
0
 10
-1.17088
 20
2.48827
 11
-1.01233
 21
2.55688
  0
LINE
  8
0
 10
-1.01233
 20
2.55688
 11
-0.849792
 21
2.6154
  0
LINE
  8
0
 10
-0.849792
 20
2.6154
 11
-0.683884
 21
2.66359
  0
LINE
  8
0
 10
-0.683884
 20
2.66359
 11
-0.515289
 21
2.70128
  0
LINE
  8
0
 10
-0.515289
 20
2.70128
 11
-0.344666
 21
2.7283
  0
LINE
  8
0
 10
-0.344666
 20
2.7283
 11
-0.172668
 21
2.74457
  0
LINE
  8
0
 10
-0.172668
 20
2.74457
 11
0
 21
2.75
  0
LINE
  8
0
 10
0
 20
2.75
 11
0.172668
 21
2.74457
  0
LINE
  8
0
 10
0.172668
 20
2.74457
 11
0.344666
 21
2.7283
  0
LINE
  8
0
 10
0.344666
 20
2.7283
 11
0.515289
 21
2.70128
  0
LINE
  8
0
 10
0.515289
 20
2.70128
 11
0.683884
 21
2.66359
  0
LINE
  8
0
 10
0.683884
 20
2.66359
 11
0.849792
 21
2.6154
  0
LINE
  8
0
 10
0.849792
 20
2.6154
 11
1.01233
 21
2.55688
  0
LINE
  8
0
 10
1.01233
 20
2.55688
 11
1.17088
 21
2.48827
  0
LINE
  8
0
 10
1.17088
 20
2.48827
 11
1.32481
 21
2.40984
  0
LINE
  8
0
 10
1.32481
 20
2.40984
 11
1.47351
 21
2.3219
  0
LINE
  8
0
 10
1.47351
 20
2.3219
 11
1.61641
 21
2.22479
  0
LINE
  8
0
 10
1.61641
 20
2.22479
 11
1.75291
 21
2.1189
  0
LINE
  8
0
 10
1.75291
 20
2.1189
 11
1.88249
 21
2.00465
  0
LINE
  8
0
 10
1.88249
 20
2.00465
 11
2.00465
 21
1.88249
  0
LINE
  8
0
 10
2.00465
 20
1.88249
 11
2.1189
 21
1.75291
  0
LINE
  8
0
 10
2.1189
 20
1.75291
 11
2.22479
 21
1.61641
  0
LINE
  8
0
 10
2.22479
 20
1.61641
 11
2.3219
 21
1.47351
  0
LINE
  8
0
 10
2.3219
 20
1.47351
 11
2.40984
 21
1.32481
  0
LINE
  8
0
 10
2.40984
 20
1.32481
 11
2.48827
 21
1.17088
  0
LINE
  8
0
 10
2.48827
 20
1.17088
 11
2.55688
 21
1.01233
  0
LINE
  8
0
 10
2.55688
 20
1.01233
 11
2.6154
 21
0.849792
  0
LINE
  8
0
 10
2.6154
 20
0.849792
 11
2.66359
 21
0.683884
  0
LINE
  8
0
 10
2.66359
 20
0.683884
 11
2.70128
 21
0.515289
  0
LINE
  8
0
 10
2.70128
 20
0.515289
 11
2.7283
 21
0.344666
  0
LINE
  8
0
 10
2.7283
 20
0.344666
 11
2.74457
 21
0.172668
  0
LINE
  8
0
 10
2.74457
 20
0.172668
 11
2.75
 21
0
  0
LINE
  8
0
 10
2.75
 20
0
 11
2.74457
 21
-0.172668
  0
LINE
  8
0
 10
2.74457
 20
-0.172668
 11
2.7283
 21
-0.344666
  0
LINE
  8
0
 10
2.7283
 20
-0.344666
 11
2.70128
 21
-0.515289
  0
LINE
  8
0
 10
2.70128
 20
-0.515289
 11
2.66359
 21
-0.683884
  0
LINE
  8
0
 10
2.66359
 20
-0.683884
 11
2.6154
 21
-0.849792
  0
LINE
  8
0
 10
2.6154
 20
-0.849792
 11
2.55688
 21
-1.01233
  0
LINE
  8
0
 10
2.55688
 20
-1.01233
 11
2.48827
 21
-1.17088
  0
LINE
  8
0
 10
2.48827
 20
-1.17088
 11
2.40984
 21
-1.32481
  0
LINE
  8
0
 10
2.40984
 20
-1.32481
 11
2.3219
 21
-1.47351
  0
LINE
  8
0
 10
2.3219
 20
-1.47351
 11
2.22479
 21
-1.61641
  0
LINE
  8
0
 10
2.22479
 20
-1.61641
 11
2.1189
 21
-1.75291
  0
LINE
  8
0
 10
2.1189
 20
-1.75291
 11
2.00465
 21
-1.88249
  0
LINE
  8
0
 10
2.00465
 20
-1.88249
 11
1.88249
 21
-2.00465
  0
LINE
  8
0
 10
1.88249
 20
-2.00465
 11
1.75291
 21
-2.1189
  0
LINE
  8
0
 10
1.75291
 20
-2.1189
 11
1.61641
 21
-2.22479
  0
LINE
  8
0
 10
1.61641
 20
-2.22479
 11
1.47351
 21
-2.3219
  0
LINE
  8
0
 10
1.47351
 20
-2.3219
 11
1.32481
 21
-2.40984
  0
LINE
  8
0
 10
1.32481
 20
-2.40984
 11
1.17088
 21
-2.48827
  0
LINE
  8
0
 10
1.17088
 20
-2.48827
 11
1.01233
 21
-2.55688
  0
LINE
  8
0
 10
1.01233
 20
-2.55688
 11
0.849792
 21
-2.6154
  0
LINE
  8
0
 10
0.849792
 20
-2.6154
 11
0.683884
 21
-2.66359
  0
LINE
  8
0
 10
0.683884
 20
-2.66359
 11
0.515289
 21
-2.70128
  0
LINE
  8
0
 10
0.515289
 20
-2.70128
 11
0.344666
 21
-2.7283
  0
LINE
  8
0
 10
0.344666
 20
-2.7283
 11
0.172668
 21
-2.74457
  0
LINE
  8
0
 10
0.172668
 20
-2.74457
 11
0
 21
-2.75
  0
LINE
  8
0
 10
0
 20
-2.75
 11
-0.172668
 21
-2.74457
  0
LINE
  8
0
 10
175.543
 20
-2.74457
 11
175.371
 21
-2.7283
  0
LINE
  8
0
 10
175.371
 20
-2.7283
 11
175.201
 21
-2.70128
  0
LINE
  8
0
 10
175.201
 20
-2.70128
 11
175.032
 21
-2.66359
  0
LINE
  8
0
 10
175.032
 20
-2.66359
 11
174.866
 21
-2.6154
  0
LINE
  8
0
 10
174.866
 20
-2.6154
 11
174.704
 21
-2.55688
  0
LINE
  8
0
 10
174.704
 20
-2.55688
 11
174.545
 21
-2.48827
  0
LINE
  8
0
 10
174.545
 20
-2.48827
 11
174.391
 21
-2.40984
  0
LINE
  8
0
 10
174.391
 20
-2.40984
 11
174.243
 21
-2.3219
  0
LINE
  8
0
 10
174.243
 20
-2.3219
 11
174.1
 21
-2.22479
  0
LINE
  8
0
 10
174.1
 20
-2.22479
 11
173.963
 21
-2.1189
  0
LINE
  8
0
 10
173.963
 20
-2.1189
 11
173.834
 21
-2.00465
  0
LINE
  8
0
 10
173.834
 20
-2.00465
 11
173.711
 21
-1.88249
  0
LINE
  8
0
 10
173.711
 20
-1.88249
 11
173.597
 21
-1.75291
  0
LINE
  8
0
 10
173.597
 20
-1.75291
 11
173.491
 21
-1.61641
  0
LINE
  8
0
 10
173.491
 20
-1.61641
 11
173.394
 21
-1.47351
  0
LINE
  8
0
 10
173.394
 20
-1.47351
 11
173.306
 21
-1.32481
  0
LINE
  8
0
 10
173.306
 20
-1.32481
 11
173.228
 21
-1.17088
  0
LINE
  8
0
 10
173.228
 20
-1.17088
 11
173.159
 21
-1.01233
  0
LINE
  8
0
 10
173.159
 20
-1.01233
 11
173.101
 21
-0.849792
  0
LINE
  8
0
 10
173.101
 20
-0.849792
 11
173.052
 21
-0.683884
  0
LINE
  8
0
 10
173.052
 20
-0.683884
 11
173.015
 21
-0.515289
  0
LINE
  8
0
 10
173.015
 20
-0.515289
 11
172.988
 21
-0.344666
  0
LINE
  8
0
 10
172.988
 20
-0.344666
 11
172.971
 21
-0.172668
  0
LINE
  8
0
 10
172.971
 20
-0.172668
 11
172.966
 21
0
  0
LINE
  8
0
 10
172.966
 20
0
 11
172.971
 21
0.172668
  0
LINE
  8
0
 10
172.971
 20
0.172668
 11
172.988
 21
0.344666
  0
LINE
  8
0
 10
172.988
 20
0.344666
 11
173.015
 21
0.515289
  0
LINE
  8
0
 10
173.015
 20
0.515289
 11
173.052
 21
0.683884
  0
LINE
  8
0
 10
173.052
 20
0.683884
 11
173.101
 21
0.849792
  0
LINE
  8
0
 10
173.101
 20
0.849792
 11
173.159
 21
1.01233
  0
LINE
  8
0
 10
173.159
 20
1.01233
 11
173.228
 21
1.17088
  0
LINE
  8
0
 10
173.228
 20
1.17088
 11
173.306
 21
1.32481
  0
LINE
  8
0
 10
173.306
 20
1.32481
 11
173.394
 21
1.47351
  0
LINE
  8
0
 10
173.394
 20
1.47351
 11
173.491
 21
1.61641
  0
LINE
  8
0
 10
173.491
 20
1.61641
 11
173.597
 21
1.75291
  0
LINE
  8
0
 10
173.597
 20
1.75291
 11
173.711
 21
1.88249
  0
LINE
  8
0
 10
173.711
 20
1.88249
 11
173.834
 21
2.00465
  0
LINE
  8
0
 10
173.834
 20
2.00465
 11
173.963
 21
2.1189
  0
LINE
  8
0
 10
173.963
 20
2.1189
 11
174.1
 21
2.22479
  0
LINE
  8
0
 10
174.1
 20
2.22479
 11
174.243
 21
2.3219
  0
LINE
  8
0
 10
174.243
 20
2.3219
 11
174.391
 21
2.40984
  0
LINE
  8
0
 10
174.391
 20
2.40984
 11
174.545
 21
2.48827
  0
LINE
  8
0
 10
174.545
 20
2.48827
 11
174.704
 21
2.55688
  0
LINE
  8
0
 10
174.704
 20
2.55688
 11
174.866
 21
2.6154
  0
LINE
  8
0
 10
174.866
 20
2.6154
 11
175.032
 21
2.66359
  0
LINE
  8
0
 10
175.032
 20
2.66359
 11
175.201
 21
2.70128
  0
LINE
  8
0
 10
175.201
 20
2.70128
 11
175.371
 21
2.7283
  0
LINE
  8
0
 10
175.371
 20
2.7283
 11
175.543
 21
2.74457
  0
LINE
  8
0
 10
175.543
 20
2.74457
 11
175.716
 21
2.75
  0
LINE
  8
0
 10
175.716
 20
2.75
 11
175.889
 21
2.74457
  0
LINE
  8
0
 10
175.889
 20
2.74457
 11
176.061
 21
2.7283
  0
LINE
  8
0
 10
176.061
 20
2.7283
 11
176.231
 21
2.70128
  0
LINE
  8
0
 10
176.231
 20
2.70128
 11
176.4
 21
2.66359
  0
LINE
  8
0
 10
176.4
 20
2.66359
 11
176.566
 21
2.6154
  0
LINE
  8
0
 10
176.566
 20
2.6154
 11
176.728
 21
2.55688
  0
LINE
  8
0
 10
176.728
 20
2.55688
 11
176.887
 21
2.48827
  0
LINE
  8
0
 10
176.887
 20
2.48827
 11
177.041
 21
2.40984
  0
LINE
  8
0
 10
177.041
 20
2.40984
 11
177.19
 21
2.3219
  0
LINE
  8
0
 10
177.19
 20
2.3219
 11
177.332
 21
2.22479
  0
LINE
  8
0
 10
177.332
 20
2.22479
 11
177.469
 21
2.1189
  0
LINE
  8
0
 10
177.469
 20
2.1189
 11
177.599
 21
2.00465
  0
LINE
  8
0
 10
177.599
 20
2.00465
 11
177.721
 21
1.88249
  0
LINE
  8
0
 10
177.721
 20
1.88249
 11
177.835
 21
1.75291
  0
LINE
  8
0
 10
177.835
 20
1.75291
 11
177.941
 21
1.61641
  0
LINE
  8
0
 10
177.941
 20
1.61641
 11
178.038
 21
1.47351
  0
LINE
  8
0
 10
178.038
 20
1.47351
 11
178.126
 21
1.32481
  0
LINE
  8
0
 10
178.126
 20
1.32481
 11
178.204
 21
1.17088
  0
LINE
  8
0
 10
178.204
 20
1.17088
 11
178.273
 21
1.01233
  0
LINE
  8
0
 10
178.273
 20
1.01233
 11
178.331
 21
0.849792
  0
LINE
  8
0
 10
178.331
 20
0.849792
 11
178.38
 21
0.683884
  0
LINE
  8
0
 10
178.38
 20
0.683884
 11
178.417
 21
0.515289
  0
LINE
  8
0
 10
178.417
 20
0.515289
 11
178.444
 21
0.344666
  0
LINE
  8
0
 10
178.444
 20
0.344666
 11
178.461
 21
0.172668
  0
LINE
  8
0
 10
178.461
 20
0.172668
 11
178.466
 21
0
  0
LINE
  8
0
 10
178.466
 20
0
 11
178.461
 21
-0.172668
  0
LINE
  8
0
 10
178.461
 20
-0.172668
 11
178.444
 21
-0.344666
  0
LINE
  8
0
 10
178.444
 20
-0.344666
 11
178.417
 21
-0.515289
  0
LINE
  8
0
 10
178.417
 20
-0.515289
 11
178.38
 21
-0.683884
  0
LINE
  8
0
 10
178.38
 20
-0.683884
 11
178.331
 21
-0.849792
  0
LINE
  8
0
 10
178.331
 20
-0.849792
 11
178.273
 21
-1.01233
  0
LINE
  8
0
 10
178.273
 20
-1.01233
 11
178.204
 21
-1.17088
  0
LINE
  8
0
 10
178.204
 20
-1.17088
 11
178.126
 21
-1.32481
  0
LINE
  8
0
 10
178.126
 20
-1.32481
 11
178.038
 21
-1.47351
  0
LINE
  8
0
 10
178.038
 20
-1.47351
 11
177.941
 21
-1.61641
  0
LINE
  8
0
 10
177.941
 20
-1.61641
 11
177.835
 21
-1.75291
  0
LINE
  8
0
 10
177.835
 20
-1.75291
 11
177.721
 21
-1.88249
  0
LINE
  8
0
 10
177.721
 20
-1.88249
 11
177.599
 21
-2.00465
  0
LINE
  8
0
 10
177.599
 20
-2.00465
 11
177.469
 21
-2.1189
  0
LINE
  8
0
 10
177.469
 20
-2.1189
 11
177.332
 21
-2.22479
  0
LINE
  8
0
 10
177.332
 20
-2.22479
 11
177.19
 21
-2.3219
  0
LINE
  8
0
 10
177.19
 20
-2.3219
 11
177.041
 21
-2.40984
  0
LINE
  8
0
 10
177.041
 20
-2.40984
 11
176.887
 21
-2.48827
  0
LINE
  8
0
 10
176.887
 20
-2.48827
 11
176.728
 21
-2.55688
  0
LINE
  8
0
 10
176.728
 20
-2.55688
 11
176.566
 21
-2.6154
  0
LINE
  8
0
 10
176.566
 20
-2.6154
 11
176.4
 21
-2.66359
  0
LINE
  8
0
 10
176.4
 20
-2.66359
 11
176.231
 21
-2.70128
  0
LINE
  8
0
 10
176.231
 20
-2.70128
 11
176.061
 21
-2.7283
  0
LINE
  8
0
 10
176.061
 20
-2.7283
 11
175.889
 21
-2.74457
  0
LINE
  8
0
 10
175.889
 20
-2.74457
 11
175.716
 21
-2.75
  0
LINE
  8
0
 10
175.716
 20
-2.75
 11
175.543
 21
-2.74457
  0
LINE
  8
0
 10
-149.716
 20
1.08395
 11
-149.716
 21
2.38396
  0
LINE
  8
0
 10
-149.716
 20
2.38396
 11
-109.716
 21
2.38396
  0
LINE
  8
0
 10
-109.716
 20
2.38396
 11
-109.716
 21
1.08395
  0
LINE
  8
0
 10
-109.716
 20
1.08395
 11
-149.716
 21
1.08395
  0
LINE
  8
0
 10
6.28395
 20
1.08395
 11
6.28395
 21
2.38396
  0
LINE
  8
0
 10
6.28395
 20
2.38396
 11
46.284
 21
2.38396
  0
LINE
  8
0
 10
46.284
 20
2.38396
 11
46.284
 21
1.08395
  0
LINE
  8
0
 10
46.284
 20
1.08395
 11
6.28395
 21
1.08395
  0
LINE
  8
0
 10
58.284
 20
1.08395
 11
58.284
 21
2.38396
  0
LINE
  8
0
 10
58.284
 20
2.38396
 11
98.284
 21
2.38396
  0
LINE
  8
0
 10
98.284
 20
2.38396
 11
98.284
 21
1.08395
  0
LINE
  8
0
 10
98.284
 20
1.08395
 11
58.284
 21
1.08395
  0
LINE
  8
0
 10
-97.716
 20
1.08395
 11
-97.716
 21
2.38396
  0
LINE
  8
0
 10
-97.716
 20
2.38396
 11
-57.716
 21
2.38396
  0
LINE
  8
0
 10
-57.716
 20
2.38396
 11
-57.716
 21
1.08395
  0
LINE
  8
0
 10
-57.716
 20
1.08395
 11
-97.716
 21
1.08395
  0
LINE
  8
0
 10
-45.716
 20
1.08395
 11
-45.716
 21
2.38396
  0
LINE
  8
0
 10
-45.716
 20
2.38396
 11
-5.71603
 21
2.38396
  0
LINE
  8
0
 10
-5.71603
 20
2.38396
 11
-5.71603
 21
1.08395
  0
LINE
  8
0
 10
-5.71603
 20
1.08395
 11
-45.716
 21
1.08395
  0
LINE
  8
0
 10
110.284
 20
1.08395
 11
110.284
 21
2.38396
  0
LINE
  8
0
 10
110.284
 20
2.38396
 11
150.284
 21
2.38396
  0
LINE
  8
0
 10
150.284
 20
2.38396
 11
150.284
 21
1.08395
  0
LINE
  8
0
 10
150.284
 20
1.08395
 11
110.284
 21
1.08395
  0
LINE
  8
0
 10
110.284
 20
-4.11603
 11
110.284
 21
-2.81602
  0
LINE
  8
0
 10
110.284
 20
-2.81602
 11
150.284
 21
-2.81602
  0
LINE
  8
0
 10
150.284
 20
-2.81602
 11
150.284
 21
-4.11603
  0
LINE
  8
0
 10
150.284
 20
-4.11603
 11
110.284
 21
-4.11603
  0
LINE
  8
0
 10
-45.716
 20
-4.11603
 11
-45.716
 21
-2.81602
  0
LINE
  8
0
 10
-45.716
 20
-2.81602
 11
-5.71603
 21
-2.81602
  0
LINE
  8
0
 10
-5.71603
 20
-2.81602
 11
-5.71603
 21
-4.11603
  0
LINE
  8
0
 10
-5.71603
 20
-4.11603
 11
-45.716
 21
-4.11603
  0
LINE
  8
0
 10
58.284
 20
-4.11603
 11
58.284
 21
-2.81602
  0
LINE
  8
0
 10
58.284
 20
-2.81602
 11
98.284
 21
-2.81602
  0
LINE
  8
0
 10
98.284
 20
-2.81602
 11
98.284
 21
-4.11603
  0
LINE
  8
0
 10
98.284
 20
-4.11603
 11
58.284
 21
-4.11603
  0
LINE
  8
0
 10
6.28395
 20
-4.11603
 11
6.28395
 21
-2.81602
  0
LINE
  8
0
 10
6.28395
 20
-2.81602
 11
46.284
 21
-2.81602
  0
LINE
  8
0
 10
46.284
 20
-2.81602
 11
46.284
 21
-4.11603
  0
LINE
  8
0
 10
46.284
 20
-4.11603
 11
6.28395
 21
-4.11603
  0
LINE
  8
0
 10
-149.716
 20
-4.11603
 11
-149.716
 21
-2.81602
  0
LINE
  8
0
 10
-149.716
 20
-2.81602
 11
-109.716
 21
-2.81602
  0
LINE
  8
0
 10
-109.716
 20
-2.81602
 11
-109.716
 21
-4.11603
  0
LINE
  8
0
 10
-109.716
 20
-4.11603
 11
-149.716
 21
-4.11603
  0
LINE
  8
0
 10
-97.716
 20
-4.11603
 11
-97.716
 21
-2.81602
  0
LINE
  8
0
 10
-97.716
 20
-2.81602
 11
-57.716
 21
-2.81602
  0
LINE
  8
0
 10
-57.716
 20
-2.81602
 11
-57.716
 21
-4.11603
  0
LINE
  8
0
 10
-57.716
 20
-4.11603
 11
-97.716
 21
-4.11603
  0
LINE
  8
0
 10
110.284
 20
-9.31602
 11
110.284
 21
-8.01602
  0
LINE
  8
0
 10
110.284
 20
-8.01602
 11
150.284
 21
-8.01602
  0
LINE
  8
0
 10
150.284
 20
-8.01602
 11
150.284
 21
-9.31602
  0
LINE
  8
0
 10
150.284
 20
-9.31602
 11
110.284
 21
-9.31602
  0
LINE
  8
0
 10
6.28395
 20
-9.31602
 11
6.28395
 21
-8.01602
  0
LINE
  8
0
 10
6.28395
 20
-8.01602
 11
46.284
 21
-8.01602
  0
LINE
  8
0
 10
46.284
 20
-8.01602
 11
46.284
 21
-9.31602
  0
LINE
  8
0
 10
46.284
 20
-9.31602
 11
6.28395
 21
-9.31602
  0
LINE
  8
0
 10
-149.716
 20
-9.31602
 11
-149.716
 21
-8.01602
  0
LINE
  8
0
 10
-149.716
 20
-8.01602
 11
-109.716
 21
-8.01602
  0
LINE
  8
0
 10
-109.716
 20
-8.01602
 11
-109.716
 21
-9.31602
  0
LINE
  8
0
 10
-109.716
 20
-9.31602
 11
-149.716
 21
-9.31602
  0
LINE
  8
0
 10
-97.716
 20
-9.31602
 11
-97.716
 21
-8.01602
  0
LINE
  8
0
 10
-97.716
 20
-8.01602
 11
-57.716
 21
-8.01602
  0
LINE
  8
0
 10
-57.716
 20
-8.01602
 11
-57.716
 21
-9.31602
  0
LINE
  8
0
 10
-57.716
 20
-9.31602
 11
-97.716
 21
-9.31602
  0
LINE
  8
0
 10
-45.716
 20
-9.31602
 11
-45.716
 21
-8.01602
  0
LINE
  8
0
 10
-45.716
 20
-8.01602
 11
-5.71603
 21
-8.01602
  0
LINE
  8
0
 10
-5.71603
 20
-8.01602
 11
-5.71603
 21
-9.31602
  0
LINE
  8
0
 10
-5.71603
 20
-9.31602
 11
-45.716
 21
-9.31602
  0
LINE
  8
0
 10
58.284
 20
-9.31602
 11
58.284
 21
-8.01602
  0
LINE
  8
0
 10
58.284
 20
-8.01602
 11
98.284
 21
-8.01602
  0
LINE
  8
0
 10
98.284
 20
-8.01602
 11
98.284
 21
-9.31602
  0
LINE
  8
0
 10
98.284
 20
-9.31602
 11
58.284
 21
-9.31602
  0
LINE
  8
0
 10
-45.716
 20
-14.516
 11
-45.716
 21
-13.216
  0
LINE
  8
0
 10
-45.716
 20
-13.216
 11
-5.71603
 21
-13.216
  0
LINE
  8
0
 10
-5.71603
 20
-13.216
 11
-5.71603
 21
-14.516
  0
LINE
  8
0
 10
-5.71603
 20
-14.516
 11
-45.716
 21
-14.516
  0
LINE
  8
0
 10
110.284
 20
-14.516
 11
110.284
 21
-13.216
  0
LINE
  8
0
 10
110.284
 20
-13.216
 11
150.284
 21
-13.216
  0
LINE
  8
0
 10
150.284
 20
-13.216
 11
150.284
 21
-14.516
  0
LINE
  8
0
 10
150.284
 20
-14.516
 11
110.284
 21
-14.516
  0
LINE
  8
0
 10
-149.716
 20
-14.516
 11
-149.716
 21
-13.216
  0
LINE
  8
0
 10
-149.716
 20
-13.216
 11
-109.716
 21
-13.216
  0
LINE
  8
0
 10
-109.716
 20
-13.216
 11
-109.716
 21
-14.516
  0
LINE
  8
0
 10
-109.716
 20
-14.516
 11
-149.716
 21
-14.516
  0
LINE
  8
0
 10
6.28395
 20
-14.516
 11
6.28395
 21
-13.216
  0
LINE
  8
0
 10
6.28395
 20
-13.216
 11
46.284
 21
-13.216
  0
LINE
  8
0
 10
46.284
 20
-13.216
 11
46.284
 21
-14.516
  0
LINE
  8
0
 10
46.284
 20
-14.516
 11
6.28395
 21
-14.516
  0
LINE
  8
0
 10
58.284
 20
-14.516
 11
58.284
 21
-13.216
  0
LINE
  8
0
 10
58.284
 20
-13.216
 11
98.284
 21
-13.216
  0
LINE
  8
0
 10
98.284
 20
-13.216
 11
98.284
 21
-14.516
  0
LINE
  8
0
 10
98.284
 20
-14.516
 11
58.284
 21
-14.516
  0
LINE
  8
0
 10
-97.716
 20
-14.516
 11
-97.716
 21
-13.216
  0
LINE
  8
0
 10
-97.716
 20
-13.216
 11
-57.716
 21
-13.216
  0
LINE
  8
0
 10
-57.716
 20
-13.216
 11
-57.716
 21
-14.516
  0
LINE
  8
0
 10
-57.716
 20
-14.516
 11
-97.716
 21
-14.516
  0
LINE
  8
0
 10
-97.716
 20
-19.716
 11
-97.716
 21
-18.416
  0
LINE
  8
0
 10
-97.716
 20
-18.416
 11
-57.716
 21
-18.416
  0
LINE
  8
0
 10
-57.716
 20
-18.416
 11
-57.716
 21
-19.716
  0
LINE
  8
0
 10
-57.716
 20
-19.716
 11
-97.716
 21
-19.716
  0
LINE
  8
0
 10
-149.716
 20
-19.716
 11
-149.716
 21
-18.416
  0
LINE
  8
0
 10
-149.716
 20
-18.416
 11
-109.716
 21
-18.416
  0
LINE
  8
0
 10
-109.716
 20
-18.416
 11
-109.716
 21
-19.716
  0
LINE
  8
0
 10
-109.716
 20
-19.716
 11
-149.716
 21
-19.716
  0
LINE
  8
0
 10
6.28395
 20
-19.716
 11
6.28395
 21
-18.416
  0
LINE
  8
0
 10
6.28395
 20
-18.416
 11
46.284
 21
-18.416
  0
LINE
  8
0
 10
46.284
 20
-18.416
 11
46.284
 21
-19.716
  0
LINE
  8
0
 10
46.284
 20
-19.716
 11
6.28395
 21
-19.716
  0
LINE
  8
0
 10
58.284
 20
-19.716
 11
58.284
 21
-18.416
  0
LINE
  8
0
 10
58.284
 20
-18.416
 11
98.284
 21
-18.416
  0
LINE
  8
0
 10
98.284
 20
-18.416
 11
98.284
 21
-19.716
  0
LINE
  8
0
 10
98.284
 20
-19.716
 11
58.284
 21
-19.716
  0
LINE
  8
0
 10
110.284
 20
-19.716
 11
110.284
 21
-18.416
  0
LINE
  8
0
 10
110.284
 20
-18.416
 11
150.284
 21
-18.416
  0
LINE
  8
0
 10
150.284
 20
-18.416
 11
150.284
 21
-19.716
  0
LINE
  8
0
 10
150.284
 20
-19.716
 11
110.284
 21
-19.716
  0
LINE
  8
0
 10
-45.716
 20
-19.716
 11
-45.716
 21
-18.416
  0
LINE
  8
0
 10
-45.716
 20
-18.416
 11
-5.71603
 21
-18.416
  0
LINE
  8
0
 10
-5.71603
 20
-18.416
 11
-5.71603
 21
-19.716
  0
LINE
  8
0
 10
-5.71603
 20
-19.716
 11
-45.716
 21
-19.716
  0
LINE
  8
0
 10
-45.716
 20
-24.916
 11
-45.716
 21
-23.616
  0
LINE
  8
0
 10
-45.716
 20
-23.616
 11
-5.71603
 21
-23.616
  0
LINE
  8
0
 10
-5.71603
 20
-23.616
 11
-5.71603
 21
-24.916
  0
LINE
  8
0
 10
-5.71603
 20
-24.916
 11
-45.716
 21
-24.916
  0
LINE
  8
0
 10
110.284
 20
-24.916
 11
110.284
 21
-23.616
  0
LINE
  8
0
 10
110.284
 20
-23.616
 11
150.284
 21
-23.616
  0
LINE
  8
0
 10
150.284
 20
-23.616
 11
150.284
 21
-24.916
  0
LINE
  8
0
 10
150.284
 20
-24.916
 11
110.284
 21
-24.916
  0
LINE
  8
0
 10
-149.716
 20
-24.916
 11
-149.716
 21
-23.616
  0
LINE
  8
0
 10
-149.716
 20
-23.616
 11
-109.716
 21
-23.616
  0
LINE
  8
0
 10
-109.716
 20
-23.616
 11
-109.716
 21
-24.916
  0
LINE
  8
0
 10
-109.716
 20
-24.916
 11
-149.716
 21
-24.916
  0
LINE
  8
0
 10
6.28395
 20
-24.916
 11
6.28395
 21
-23.616
  0
LINE
  8
0
 10
6.28395
 20
-23.616
 11
46.284
 21
-23.616
  0
LINE
  8
0
 10
46.284
 20
-23.616
 11
46.284
 21
-24.916
  0
LINE
  8
0
 10
46.284
 20
-24.916
 11
6.28395
 21
-24.916
  0
LINE
  8
0
 10
58.284
 20
-24.916
 11
58.284
 21
-23.616
  0
LINE
  8
0
 10
58.284
 20
-23.616
 11
98.284
 21
-23.616
  0
LINE
  8
0
 10
98.284
 20
-23.616
 11
98.284
 21
-24.916
  0
LINE
  8
0
 10
98.284
 20
-24.916
 11
58.284
 21
-24.916
  0
LINE
  8
0
 10
-97.716
 20
-24.916
 11
-97.716
 21
-23.616
  0
LINE
  8
0
 10
-97.716
 20
-23.616
 11
-57.716
 21
-23.616
  0
LINE
  8
0
 10
-57.716
 20
-23.616
 11
-57.716
 21
-24.916
  0
LINE
  8
0
 10
-57.716
 20
-24.916
 11
-97.716
 21
-24.916
  0
LINE
  8
0
 10
110.284
 20
-30.116
 11
110.284
 21
-28.816
  0
LINE
  8
0
 10
110.284
 20
-28.816
 11
150.284
 21
-28.816
  0
LINE
  8
0
 10
150.284
 20
-28.816
 11
150.284
 21
-30.116
  0
LINE
  8
0
 10
150.284
 20
-30.116
 11
110.284
 21
-30.116
  0
LINE
  8
0
 10
-45.716
 20
-30.116
 11
-45.716
 21
-28.816
  0
LINE
  8
0
 10
-45.716
 20
-28.816
 11
-5.71603
 21
-28.816
  0
LINE
  8
0
 10
-5.71603
 20
-28.816
 11
-5.71603
 21
-30.116
  0
LINE
  8
0
 10
-5.71603
 20
-30.116
 11
-45.716
 21
-30.116
  0
LINE
  8
0
 10
6.28395
 20
-30.116
 11
6.28395
 21
-28.816
  0
LINE
  8
0
 10
6.28395
 20
-28.816
 11
46.284
 21
-28.816
  0
LINE
  8
0
 10
46.284
 20
-28.816
 11
46.284
 21
-30.116
  0
LINE
  8
0
 10
46.284
 20
-30.116
 11
6.28395
 21
-30.116
  0
LINE
  8
0
 10
58.284
 20
-30.116
 11
58.284
 21
-28.816
  0
LINE
  8
0
 10
58.284
 20
-28.816
 11
98.284
 21
-28.816
  0
LINE
  8
0
 10
98.284
 20
-28.816
 11
98.284
 21
-30.116
  0
LINE
  8
0
 10
98.284
 20
-30.116
 11
58.284
 21
-30.116
  0
LINE
  8
0
 10
-149.716
 20
-30.116
 11
-149.716
 21
-28.816
  0
LINE
  8
0
 10
-149.716
 20
-28.816
 11
-109.716
 21
-28.816
  0
LINE
  8
0
 10
-109.716
 20
-28.816
 11
-109.716
 21
-30.116
  0
LINE
  8
0
 10
-109.716
 20
-30.116
 11
-149.716
 21
-30.116
  0
LINE
  8
0
 10
-97.716
 20
-30.116
 11
-97.716
 21
-28.816
  0
LINE
  8
0
 10
-97.716
 20
-28.816
 11
-57.716
 21
-28.816
  0
LINE
  8
0
 10
-57.716
 20
-28.816
 11
-57.716
 21
-30.116
  0
LINE
  8
0
 10
-57.716
 20
-30.116
 11
-97.716
 21
-30.116
  0
LINE
  8
0
 10
-97.716
 20
-35.316
 11
-97.716
 21
-34.016
  0
LINE
  8
0
 10
-97.716
 20
-34.016
 11
-57.716
 21
-34.016
  0
LINE
  8
0
 10
-57.716
 20
-34.016
 11
-57.716
 21
-35.316
  0
LINE
  8
0
 10
-57.716
 20
-35.316
 11
-97.716
 21
-35.316
  0
LINE
  8
0
 10
58.284
 20
-35.316
 11
58.284
 21
-34.016
  0
LINE
  8
0
 10
58.284
 20
-34.016
 11
98.284
 21
-34.016
  0
LINE
  8
0
 10
98.284
 20
-34.016
 11
98.284
 21
-35.316
  0
LINE
  8
0
 10
98.284
 20
-35.316
 11
58.284
 21
-35.316
  0
LINE
  8
0
 10
-149.716
 20
-35.316
 11
-149.716
 21
-34.016
  0
LINE
  8
0
 10
-149.716
 20
-34.016
 11
-109.716
 21
-34.016
  0
LINE
  8
0
 10
-109.716
 20
-34.016
 11
-109.716
 21
-35.316
  0
LINE
  8
0
 10
-109.716
 20
-35.316
 11
-149.716
 21
-35.316
  0
LINE
  8
0
 10
-45.716
 20
-35.316
 11
-45.716
 21
-34.016
  0
LINE
  8
0
 10
-45.716
 20
-34.016
 11
-5.71603
 21
-34.016
  0
LINE
  8
0
 10
-5.71603
 20
-34.016
 11
-5.71603
 21
-35.316
  0
LINE
  8
0
 10
-5.71603
 20
-35.316
 11
-45.716
 21
-35.316
  0
LINE
  8
0
 10
6.28395
 20
-35.316
 11
6.28395
 21
-34.016
  0
LINE
  8
0
 10
6.28395
 20
-34.016
 11
46.284
 21
-34.016
  0
LINE
  8
0
 10
46.284
 20
-34.016
 11
46.284
 21
-35.316
  0
LINE
  8
0
 10
46.284
 20
-35.316
 11
6.28395
 21
-35.316
  0
LINE
  8
0
 10
110.284
 20
-35.316
 11
110.284
 21
-34.016
  0
LINE
  8
0
 10
110.284
 20
-34.016
 11
150.284
 21
-34.016
  0
LINE
  8
0
 10
150.284
 20
-34.016
 11
150.284
 21
-35.316
  0
LINE
  8
0
 10
150.284
 20
-35.316
 11
110.284
 21
-35.316
  0
LINE
  8
0
 10
110.284
 20
-40.516
 11
110.284
 21
-39.216
  0
LINE
  8
0
 10
110.284
 20
-39.216
 11
150.284
 21
-39.216
  0
LINE
  8
0
 10
150.284
 20
-39.216
 11
150.284
 21
-40.516
  0
LINE
  8
0
 10
150.284
 20
-40.516
 11
110.284
 21
-40.516
  0
LINE
  8
0
 10
6.28395
 20
-40.516
 11
6.28395
 21
-39.216
  0
LINE
  8
0
 10
6.28395
 20
-39.216
 11
46.284
 21
-39.216
  0
LINE
  8
0
 10
46.284
 20
-39.216
 11
46.284
 21
-40.516
  0
LINE
  8
0
 10
46.284
 20
-40.516
 11
6.28395
 21
-40.516
  0
LINE
  8
0
 10
-149.716
 20
-40.516
 11
-149.716
 21
-39.216
  0
LINE
  8
0
 10
-149.716
 20
-39.216
 11
-109.716
 21
-39.216
  0
LINE
  8
0
 10
-109.716
 20
-39.216
 11
-109.716
 21
-40.516
  0
LINE
  8
0
 10
-109.716
 20
-40.516
 11
-149.716
 21
-40.516
  0
LINE
  8
0
 10
-45.716
 20
-40.516
 11
-45.716
 21
-39.216
  0
LINE
  8
0
 10
-45.716
 20
-39.216
 11
-5.71603
 21
-39.216
  0
LINE
  8
0
 10
-5.71603
 20
-39.216
 11
-5.71603
 21
-40.516
  0
LINE
  8
0
 10
-5.71603
 20
-40.516
 11
-45.716
 21
-40.516
  0
LINE
  8
0
 10
58.284
 20
-40.516
 11
58.284
 21
-39.216
  0
LINE
  8
0
 10
58.284
 20
-39.216
 11
98.284
 21
-39.216
  0
LINE
  8
0
 10
98.284
 20
-39.216
 11
98.284
 21
-40.516
  0
LINE
  8
0
 10
98.284
 20
-40.516
 11
58.284
 21
-40.516
  0
LINE
  8
0
 10
-97.716
 20
-40.516
 11
-97.716
 21
-39.216
  0
LINE
  8
0
 10
-97.716
 20
-39.216
 11
-57.716
 21
-39.216
  0
LINE
  8
0
 10
-57.716
 20
-39.216
 11
-57.716
 21
-40.516
  0
LINE
  8
0
 10
-57.716
 20
-40.516
 11
-97.716
 21
-40.516
  0
LINE
  8
0
 10
58.284
 20
-45.716
 11
58.284
 21
-44.416
  0
LINE
  8
0
 10
58.284
 20
-44.416
 11
98.284
 21
-44.416
  0
LINE
  8
0
 10
98.284
 20
-44.416
 11
98.284
 21
-45.716
  0
LINE
  8
0
 10
98.284
 20
-45.716
 11
58.284
 21
-45.716
  0
LINE
  8
0
 10
-97.716
 20
-45.716
 11
-97.716
 21
-44.416
  0
LINE
  8
0
 10
-97.716
 20
-44.416
 11
-57.716
 21
-44.416
  0
LINE
  8
0
 10
-57.716
 20
-44.416
 11
-57.716
 21
-45.716
  0
LINE
  8
0
 10
-57.716
 20
-45.716
 11
-97.716
 21
-45.716
  0
LINE
  8
0
 10
-149.716
 20
-45.716
 11
-149.716
 21
-44.416
  0
LINE
  8
0
 10
-149.716
 20
-44.416
 11
-109.716
 21
-44.416
  0
LINE
  8
0
 10
-109.716
 20
-44.416
 11
-109.716
 21
-45.716
  0
LINE
  8
0
 10
-109.716
 20
-45.716
 11
-149.716
 21
-45.716
  0
LINE
  8
0
 10
-45.716
 20
-45.716
 11
-45.716
 21
-44.416
  0
LINE
  8
0
 10
-45.716
 20
-44.416
 11
-5.71603
 21
-44.416
  0
LINE
  8
0
 10
-5.71603
 20
-44.416
 11
-5.71603
 21
-45.716
  0
LINE
  8
0
 10
-5.71603
 20
-45.716
 11
-45.716
 21
-45.716
  0
LINE
  8
0
 10
6.28395
 20
-45.716
 11
6.28395
 21
-44.416
  0
LINE
  8
0
 10
6.28395
 20
-44.416
 11
46.284
 21
-44.416
  0
LINE
  8
0
 10
46.284
 20
-44.416
 11
46.284
 21
-45.716
  0
LINE
  8
0
 10
46.284
 20
-45.716
 11
6.28395
 21
-45.716
  0
LINE
  8
0
 10
110.284
 20
-45.716
 11
110.284
 21
-44.416
  0
LINE
  8
0
 10
110.284
 20
-44.416
 11
150.284
 21
-44.416
  0
LINE
  8
0
 10
150.284
 20
-44.416
 11
150.284
 21
-45.716
  0
LINE
  8
0
 10
150.284
 20
-45.716
 11
110.284
 21
-45.716
  0
LINE
  8
0
 10
58.284
 20
-50.916
 11
58.284
 21
-49.616
  0
LINE
  8
0
 10
58.284
 20
-49.616
 11
98.284
 21
-49.616
  0
LINE
  8
0
 10
98.284
 20
-49.616
 11
98.284
 21
-50.916
  0
LINE
  8
0
 10
98.284
 20
-50.916
 11
58.284
 21
-50.916
  0
LINE
  8
0
 10
-97.716
 20
-50.916
 11
-97.716
 21
-49.616
  0
LINE
  8
0
 10
-97.716
 20
-49.616
 11
-57.716
 21
-49.616
  0
LINE
  8
0
 10
-57.716
 20
-49.616
 11
-57.716
 21
-50.916
  0
LINE
  8
0
 10
-57.716
 20
-50.916
 11
-97.716
 21
-50.916
  0
LINE
  8
0
 10
110.284
 20
-50.916
 11
110.284
 21
-49.616
  0
LINE
  8
0
 10
110.284
 20
-49.616
 11
150.284
 21
-49.616
  0
LINE
  8
0
 10
150.284
 20
-49.616
 11
150.284
 21
-50.916
  0
LINE
  8
0
 10
150.284
 20
-50.916
 11
110.284
 21
-50.916
  0
LINE
  8
0
 10
-149.716
 20
-50.916
 11
-149.716
 21
-49.616
  0
LINE
  8
0
 10
-149.716
 20
-49.616
 11
-109.716
 21
-49.616
  0
LINE
  8
0
 10
-109.716
 20
-49.616
 11
-109.716
 21
-50.916
  0
LINE
  8
0
 10
-109.716
 20
-50.916
 11
-149.716
 21
-50.916
  0
LINE
  8
0
 10
6.28395
 20
-50.916
 11
6.28395
 21
-49.616
  0
LINE
  8
0
 10
6.28395
 20
-49.616
 11
46.284
 21
-49.616
  0
LINE
  8
0
 10
46.284
 20
-49.616
 11
46.284
 21
-50.916
  0
LINE
  8
0
 10
46.284
 20
-50.916
 11
6.28395
 21
-50.916
  0
LINE
  8
0
 10
-45.716
 20
-50.916
 11
-45.716
 21
-49.616
  0
LINE
  8
0
 10
-45.716
 20
-49.616
 11
-5.71603
 21
-49.616
  0
LINE
  8
0
 10
-5.71603
 20
-49.616
 11
-5.71603
 21
-50.916
  0
LINE
  8
0
 10
-5.71603
 20
-50.916
 11
-45.716
 21
-50.916
  0
LINE
  8
0
 10
110.284
 20
-56.116
 11
110.284
 21
-54.816
  0
LINE
  8
0
 10
110.284
 20
-54.816
 11
150.284
 21
-54.816
  0
LINE
  8
0
 10
150.284
 20
-54.816
 11
150.284
 21
-56.116
  0
LINE
  8
0
 10
150.284
 20
-56.116
 11
110.284
 21
-56.116
  0
LINE
  8
0
 10
58.284
 20
-56.116
 11
58.284
 21
-54.816
  0
LINE
  8
0
 10
58.284
 20
-54.816
 11
98.284
 21
-54.816
  0
LINE
  8
0
 10
98.284
 20
-54.816
 11
98.284
 21
-56.116
  0
LINE
  8
0
 10
98.284
 20
-56.116
 11
58.284
 21
-56.116
  0
LINE
  8
0
 10
-45.716
 20
-56.116
 11
-45.716
 21
-54.816
  0
LINE
  8
0
 10
-45.716
 20
-54.816
 11
-5.71603
 21
-54.816
  0
LINE
  8
0
 10
-5.71603
 20
-54.816
 11
-5.71603
 21
-56.116
  0
LINE
  8
0
 10
-5.71603
 20
-56.116
 11
-45.716
 21
-56.116
  0
LINE
  8
0
 10
6.28395
 20
-56.116
 11
6.28395
 21
-54.816
  0
LINE
  8
0
 10
6.28395
 20
-54.816
 11
46.284
 21
-54.816
  0
LINE
  8
0
 10
46.284
 20
-54.816
 11
46.284
 21
-56.116
  0
LINE
  8
0
 10
46.284
 20
-56.116
 11
6.28395
 21
-56.116
  0
LINE
  8
0
 10
-97.716
 20
-56.116
 11
-97.716
 21
-54.816
  0
LINE
  8
0
 10
-97.716
 20
-54.816
 11
-57.716
 21
-54.816
  0
LINE
  8
0
 10
-57.716
 20
-54.816
 11
-57.716
 21
-56.116
  0
LINE
  8
0
 10
-57.716
 20
-56.116
 11
-97.716
 21
-56.116
  0
LINE
  8
0
 10
-149.716
 20
-56.116
 11
-149.716
 21
-54.816
  0
LINE
  8
0
 10
-149.716
 20
-54.816
 11
-109.716
 21
-54.816
  0
LINE
  8
0
 10
-109.716
 20
-54.816
 11
-109.716
 21
-56.116
  0
LINE
  8
0
 10
-109.716
 20
-56.116
 11
-149.716
 21
-56.116
  0
LINE
  8
0
 10
-149.716
 20
-61.316
 11
-149.716
 21
-60.016
  0
LINE
  8
0
 10
-149.716
 20
-60.016
 11
-109.716
 21
-60.016
  0
LINE
  8
0
 10
-109.716
 20
-60.016
 11
-109.716
 21
-61.316
  0
LINE
  8
0
 10
-109.716
 20
-61.316
 11
-149.716
 21
-61.316
  0
LINE
  8
0
 10
110.284
 20
-61.316
 11
110.284
 21
-60.016
  0
LINE
  8
0
 10
110.284
 20
-60.016
 11
150.284
 21
-60.016
  0
LINE
  8
0
 10
150.284
 20
-60.016
 11
150.284
 21
-61.316
  0
LINE
  8
0
 10
150.284
 20
-61.316
 11
110.284
 21
-61.316
  0
LINE
  8
0
 10
58.284
 20
-61.316
 11
58.284
 21
-60.016
  0
LINE
  8
0
 10
58.284
 20
-60.016
 11
98.284
 21
-60.016
  0
LINE
  8
0
 10
98.284
 20
-60.016
 11
98.284
 21
-61.316
  0
LINE
  8
0
 10
98.284
 20
-61.316
 11
58.284
 21
-61.316
  0
LINE
  8
0
 10
6.28395
 20
-61.316
 11
6.28395
 21
-60.016
  0
LINE
  8
0
 10
6.28395
 20
-60.016
 11
46.284
 21
-60.016
  0
LINE
  8
0
 10
46.284
 20
-60.016
 11
46.284
 21
-61.316
  0
LINE
  8
0
 10
46.284
 20
-61.316
 11
6.28395
 21
-61.316
  0
LINE
  8
0
 10
-45.716
 20
-61.316
 11
-45.716
 21
-60.016
  0
LINE
  8
0
 10
-45.716
 20
-60.016
 11
-5.71603
 21
-60.016
  0
LINE
  8
0
 10
-5.71603
 20
-60.016
 11
-5.71603
 21
-61.316
  0
LINE
  8
0
 10
-5.71603
 20
-61.316
 11
-45.716
 21
-61.316
  0
LINE
  8
0
 10
-97.716
 20
-61.316
 11
-97.716
 21
-60.016
  0
LINE
  8
0
 10
-97.716
 20
-60.016
 11
-57.716
 21
-60.016
  0
LINE
  8
0
 10
-57.716
 20
-60.016
 11
-57.716
 21
-61.316
  0
LINE
  8
0
 10
-57.716
 20
-61.316
 11
-97.716
 21
-61.316
  0
LINE
  8
0
 10
-97.716
 20
-66.516
 11
-97.716
 21
-65.216
  0
LINE
  8
0
 10
-97.716
 20
-65.216
 11
-57.716
 21
-65.216
  0
LINE
  8
0
 10
-57.716
 20
-65.216
 11
-57.716
 21
-66.516
  0
LINE
  8
0
 10
-57.716
 20
-66.516
 11
-97.716
 21
-66.516
  0
LINE
  8
0
 10
-149.716
 20
-66.516
 11
-149.716
 21
-65.216
  0
LINE
  8
0
 10
-149.716
 20
-65.216
 11
-109.716
 21
-65.216
  0
LINE
  8
0
 10
-109.716
 20
-65.216
 11
-109.716
 21
-66.516
  0
LINE
  8
0
 10
-109.716
 20
-66.516
 11
-149.716
 21
-66.516
  0
LINE
  8
0
 10
110.284
 20
-66.516
 11
110.284
 21
-65.216
  0
LINE
  8
0
 10
110.284
 20
-65.216
 11
150.284
 21
-65.216
  0
LINE
  8
0
 10
150.284
 20
-65.216
 11
150.284
 21
-66.516
  0
LINE
  8
0
 10
150.284
 20
-66.516
 11
110.284
 21
-66.516
  0
LINE
  8
0
 10
-45.716
 20
-66.516
 11
-45.716
 21
-65.216
  0
LINE
  8
0
 10
-45.716
 20
-65.216
 11
-5.71603
 21
-65.216
  0
LINE
  8
0
 10
-5.71603
 20
-65.216
 11
-5.71603
 21
-66.516
  0
LINE
  8
0
 10
-5.71603
 20
-66.516
 11
-45.716
 21
-66.516
  0
LINE
  8
0
 10
6.28395
 20
-66.516
 11
6.28395
 21
-65.216
  0
LINE
  8
0
 10
6.28395
 20
-65.216
 11
46.284
 21
-65.216
  0
LINE
  8
0
 10
46.284
 20
-65.216
 11
46.284
 21
-66.516
  0
LINE
  8
0
 10
46.284
 20
-66.516
 11
6.28395
 21
-66.516
  0
LINE
  8
0
 10
58.284
 20
-66.516
 11
58.284
 21
-65.216
  0
LINE
  8
0
 10
58.284
 20
-65.216
 11
98.284
 21
-65.216
  0
LINE
  8
0
 10
98.284
 20
-65.216
 11
98.284
 21
-66.516
  0
LINE
  8
0
 10
98.284
 20
-66.516
 11
58.284
 21
-66.516
  0
LINE
  8
0
 10
-97.716
 20
-71.716
 11
-97.716
 21
-70.416
  0
LINE
  8
0
 10
-97.716
 20
-70.416
 11
-57.716
 21
-70.416
  0
LINE
  8
0
 10
-57.716
 20
-70.416
 11
-57.716
 21
-71.716
  0
LINE
  8
0
 10
-57.716
 20
-71.716
 11
-97.716
 21
-71.716
  0
LINE
  8
0
 10
110.284
 20
-71.716
 11
110.284
 21
-70.416
  0
LINE
  8
0
 10
110.284
 20
-70.416
 11
150.284
 21
-70.416
  0
LINE
  8
0
 10
150.284
 20
-70.416
 11
150.284
 21
-71.716
  0
LINE
  8
0
 10
150.284
 20
-71.716
 11
110.284
 21
-71.716
  0
LINE
  8
0
 10
58.284
 20
-71.716
 11
58.284
 21
-70.416
  0
LINE
  8
0
 10
58.284
 20
-70.416
 11
98.284
 21
-70.416
  0
LINE
  8
0
 10
98.284
 20
-70.416
 11
98.284
 21
-71.716
  0
LINE
  8
0
 10
98.284
 20
-71.716
 11
58.284
 21
-71.716
  0
LINE
  8
0
 10
-149.716
 20
-71.716
 11
-149.716
 21
-70.416
  0
LINE
  8
0
 10
-149.716
 20
-70.416
 11
-109.716
 21
-70.416
  0
LINE
  8
0
 10
-109.716
 20
-70.416
 11
-109.716
 21
-71.716
  0
LINE
  8
0
 10
-109.716
 20
-71.716
 11
-149.716
 21
-71.716
  0
LINE
  8
0
 10
6.28395
 20
-71.716
 11
6.28395
 21
-70.416
  0
LINE
  8
0
 10
6.28395
 20
-70.416
 11
46.284
 21
-70.416
  0
LINE
  8
0
 10
46.284
 20
-70.416
 11
46.284
 21
-71.716
  0
LINE
  8
0
 10
46.284
 20
-71.716
 11
6.28395
 21
-71.716
  0
LINE
  8
0
 10
-45.716
 20
-71.716
 11
-45.716
 21
-70.416
  0
LINE
  8
0
 10
-45.716
 20
-70.416
 11
-5.71603
 21
-70.416
  0
LINE
  8
0
 10
-5.71603
 20
-70.416
 11
-5.71603
 21
-71.716
  0
LINE
  8
0
 10
-5.71603
 20
-71.716
 11
-45.716
 21
-71.716
  0
LINE
  8
0
 10
58.284
 20
-76.916
 11
58.284
 21
-75.616
  0
LINE
  8
0
 10
58.284
 20
-75.616
 11
98.284
 21
-75.616
  0
LINE
  8
0
 10
98.284
 20
-75.616
 11
98.284
 21
-76.916
  0
LINE
  8
0
 10
98.284
 20
-76.916
 11
58.284
 21
-76.916
  0
LINE
  8
0
 10
-149.716
 20
-76.916
 11
-149.716
 21
-75.616
  0
LINE
  8
0
 10
-149.716
 20
-75.616
 11
-109.716
 21
-75.616
  0
LINE
  8
0
 10
-109.716
 20
-75.616
 11
-109.716
 21
-76.916
  0
LINE
  8
0
 10
-109.716
 20
-76.916
 11
-149.716
 21
-76.916
  0
LINE
  8
0
 10
6.28395
 20
-76.916
 11
6.28395
 21
-75.616
  0
LINE
  8
0
 10
6.28395
 20
-75.616
 11
46.284
 21
-75.616
  0
LINE
  8
0
 10
46.284
 20
-75.616
 11
46.284
 21
-76.916
  0
LINE
  8
0
 10
46.284
 20
-76.916
 11
6.28395
 21
-76.916
  0
LINE
  8
0
 10
-97.716
 20
-76.916
 11
-97.716
 21
-75.616
  0
LINE
  8
0
 10
-97.716
 20
-75.616
 11
-57.716
 21
-75.616
  0
LINE
  8
0
 10
-57.716
 20
-75.616
 11
-57.716
 21
-76.916
  0
LINE
  8
0
 10
-57.716
 20
-76.916
 11
-97.716
 21
-76.916
  0
LINE
  8
0
 10
-45.716
 20
-76.916
 11
-45.716
 21
-75.616
  0
LINE
  8
0
 10
-45.716
 20
-75.616
 11
-5.71603
 21
-75.616
  0
LINE
  8
0
 10
-5.71603
 20
-75.616
 11
-5.71603
 21
-76.916
  0
LINE
  8
0
 10
-5.71603
 20
-76.916
 11
-45.716
 21
-76.916
  0
LINE
  8
0
 10
110.284
 20
-76.916
 11
110.284
 21
-75.616
  0
LINE
  8
0
 10
110.284
 20
-75.616
 11
150.284
 21
-75.616
  0
LINE
  8
0
 10
150.284
 20
-75.616
 11
150.284
 21
-76.916
  0
LINE
  8
0
 10
150.284
 20
-76.916
 11
110.284
 21
-76.916
  0
LINE
  8
0
 10
-149.716
 20
-82.116
 11
-149.716
 21
-80.816
  0
LINE
  8
0
 10
-149.716
 20
-80.816
 11
-109.716
 21
-80.816
  0
LINE
  8
0
 10
-109.716
 20
-80.816
 11
-109.716
 21
-82.116
  0
LINE
  8
0
 10
-109.716
 20
-82.116
 11
-149.716
 21
-82.116
  0
LINE
  8
0
 10
-45.716
 20
-80.816
 11
-5.71603
 21
-80.816
  0
LINE
  8
0
 10
-5.71603
 20
-80.816
 11
-5.71603
 21
-82.116
  0
LINE
  8
0
 10
-5.71603
 20
-82.116
 11
-45.716
 21
-82.116
  0
LINE
  8
0
 10
-45.716
 20
-82.116
 11
-45.716
 21
-80.816
  0
LINE
  8
0
 10
110.284
 20
-82.116
 11
110.284
 21
-80.816
  0
LINE
  8
0
 10
110.284
 20
-80.816
 11
150.284
 21
-80.816
  0
LINE
  8
0
 10
150.284
 20
-80.816
 11
150.284
 21
-82.116
  0
LINE
  8
0
 10
150.284
 20
-82.116
 11
110.284
 21
-82.116
  0
LINE
  8
0
 10
-97.716
 20
-82.116
 11
-97.716
 21
-80.816
  0
LINE
  8
0
 10
-97.716
 20
-80.816
 11
-57.716
 21
-80.816
  0
LINE
  8
0
 10
-57.716
 20
-80.816
 11
-57.716
 21
-82.116
  0
LINE
  8
0
 10
-57.716
 20
-82.116
 11
-97.716
 21
-82.116
  0
LINE
  8
0
 10
58.284
 20
-82.116
 11
58.284
 21
-80.816
  0
LINE
  8
0
 10
58.284
 20
-80.816
 11
98.284
 21
-80.816
  0
LINE
  8
0
 10
98.284
 20
-80.816
 11
98.284
 21
-82.116
  0
LINE
  8
0
 10
98.284
 20
-82.116
 11
58.284
 21
-82.116
  0
LINE
  8
0
 10
110.284
 20
-87.316
 11
110.284
 21
-86.016
  0
LINE
  8
0
 10
110.284
 20
-86.016
 11
150.284
 21
-86.016
  0
LINE
  8
0
 10
150.284
 20
-86.016
 11
150.284
 21
-87.316
  0
LINE
  8
0
 10
150.284
 20
-87.316
 11
110.284
 21
-87.316
  0
LINE
  8
0
 10
-45.716
 20
-87.316
 11
-45.716
 21
-86.016
  0
LINE
  8
0
 10
-45.716
 20
-86.016
 11
-5.71603
 21
-86.016
  0
LINE
  8
0
 10
-5.71603
 20
-86.016
 11
-5.71603
 21
-87.316
  0
LINE
  8
0
 10
-5.71603
 20
-87.316
 11
-45.716
 21
-87.316
  0
LINE
  8
0
 10
-97.716
 20
-87.316
 11
-97.716
 21
-86.016
  0
LINE
  8
0
 10
-97.716
 20
-86.016
 11
-57.716
 21
-86.016
  0
LINE
  8
0
 10
-57.716
 20
-86.016
 11
-57.716
 21
-87.316
  0
LINE
  8
0
 10
-57.716
 20
-87.316
 11
-97.716
 21
-87.316
  0
LINE
  8
0
 10
-149.716
 20
-87.316
 11
-149.716
 21
-86.016
  0
LINE
  8
0
 10
-149.716
 20
-86.016
 11
-109.716
 21
-86.016
  0
LINE
  8
0
 10
-109.716
 20
-86.016
 11
-109.716
 21
-87.316
  0
LINE
  8
0
 10
-109.716
 20
-87.316
 11
-149.716
 21
-87.316
  0
LINE
  8
0
 10
6.28395
 20
-87.316
 11
6.28395
 21
-86.016
  0
LINE
  8
0
 10
6.28395
 20
-86.016
 11
46.284
 21
-86.016
  0
LINE
  8
0
 10
46.284
 20
-86.016
 11
46.284
 21
-87.316
  0
LINE
  8
0
 10
46.284
 20
-87.316
 11
6.28395
 21
-87.316
  0
LINE
  8
0
 10
58.284
 20
-87.316
 11
58.284
 21
-86.016
  0
LINE
  8
0
 10
58.284
 20
-86.016
 11
98.284
 21
-86.016
  0
LINE
  8
0
 10
98.284
 20
-86.016
 11
98.284
 21
-87.316
  0
LINE
  8
0
 10
98.284
 20
-87.316
 11
58.284
 21
-87.316
  0
LINE
  8
0
 10
6.28395
 20
-92.516
 11
6.28395
 21
-91.216
  0
LINE
  8
0
 10
6.28395
 20
-91.216
 11
46.284
 21
-91.216
  0
LINE
  8
0
 10
46.284
 20
-91.216
 11
46.284
 21
-92.516
  0
LINE
  8
0
 10
46.284
 20
-92.516
 11
6.28395
 21
-92.516
  0
LINE
  8
0
 10
58.284
 20
-92.516
 11
58.284
 21
-91.216
  0
LINE
  8
0
 10
58.284
 20
-91.216
 11
98.284
 21
-91.216
  0
LINE
  8
0
 10
98.284
 20
-91.216
 11
98.284
 21
-92.516
  0
LINE
  8
0
 10
98.284
 20
-92.516
 11
58.284
 21
-92.516
  0
LINE
  8
0
 10
110.284
 20
-92.516
 11
110.284
 21
-91.216
  0
LINE
  8
0
 10
110.284
 20
-91.216
 11
150.284
 21
-91.216
  0
LINE
  8
0
 10
150.284
 20
-91.216
 11
150.284
 21
-92.516
  0
LINE
  8
0
 10
150.284
 20
-92.516
 11
110.284
 21
-92.516
  0
LINE
  8
0
 10
-149.716
 20
-92.516
 11
-149.716
 21
-91.216
  0
LINE
  8
0
 10
-149.716
 20
-91.216
 11
-109.716
 21
-91.216
  0
LINE
  8
0
 10
-109.716
 20
-91.216
 11
-109.716
 21
-92.516
  0
LINE
  8
0
 10
-109.716
 20
-92.516
 11
-149.716
 21
-92.516
  0
LINE
  8
0
 10
-45.716
 20
-92.516
 11
-45.716
 21
-91.216
  0
LINE
  8
0
 10
-45.716
 20
-91.216
 11
-5.71603
 21
-91.216
  0
LINE
  8
0
 10
-5.71603
 20
-91.216
 11
-5.71603
 21
-92.516
  0
LINE
  8
0
 10
-5.71603
 20
-92.516
 11
-45.716
 21
-92.516
  0
LINE
  8
0
 10
-97.716
 20
-92.516
 11
-97.716
 21
-91.216
  0
LINE
  8
0
 10
-97.716
 20
-91.216
 11
-57.716
 21
-91.216
  0
LINE
  8
0
 10
-57.716
 20
-91.216
 11
-57.716
 21
-92.516
  0
LINE
  8
0
 10
-57.716
 20
-92.516
 11
-97.716
 21
-92.516
  0
LINE
  8
0
 10
-149.716
 20
-97.716
 11
-149.716
 21
-96.416
  0
LINE
  8
0
 10
-149.716
 20
-96.416
 11
-109.716
 21
-96.416
  0
LINE
  8
0
 10
-109.716
 20
-96.416
 11
-109.716
 21
-97.716
  0
LINE
  8
0
 10
-109.716
 20
-97.716
 11
-149.716
 21
-97.716
  0
LINE
  8
0
 10
110.284
 20
-97.716
 11
110.284
 21
-96.416
  0
LINE
  8
0
 10
110.284
 20
-96.416
 11
150.284
 21
-96.416
  0
LINE
  8
0
 10
150.284
 20
-96.416
 11
150.284
 21
-97.716
  0
LINE
  8
0
 10
150.284
 20
-97.716
 11
110.284
 21
-97.716
  0
LINE
  8
0
 10
58.284
 20
-97.716
 11
58.284
 21
-96.416
  0
LINE
  8
0
 10
58.284
 20
-96.416
 11
98.284
 21
-96.416
  0
LINE
  8
0
 10
98.284
 20
-96.416
 11
98.284
 21
-97.716
  0
LINE
  8
0
 10
98.284
 20
-97.716
 11
58.284
 21
-97.716
  0
LINE
  8
0
 10
6.28395
 20
-97.716
 11
6.28395
 21
-96.416
  0
LINE
  8
0
 10
6.28395
 20
-96.416
 11
46.284
 21
-96.416
  0
LINE
  8
0
 10
46.284
 20
-96.416
 11
46.284
 21
-97.716
  0
LINE
  8
0
 10
46.284
 20
-97.716
 11
6.28395
 21
-97.716
  0
LINE
  8
0
 10
-45.716
 20
-97.716
 11
-45.716
 21
-96.416
  0
LINE
  8
0
 10
-45.716
 20
-96.416
 11
-5.71603
 21
-96.416
  0
LINE
  8
0
 10
-5.71603
 20
-96.416
 11
-5.71603
 21
-97.716
  0
LINE
  8
0
 10
-5.71603
 20
-97.716
 11
-45.716
 21
-97.716
  0
LINE
  8
0
 10
-97.716
 20
-97.716
 11
-97.716
 21
-96.416
  0
LINE
  8
0
 10
-97.716
 20
-96.416
 11
-57.716
 21
-96.416
  0
LINE
  8
0
 10
-57.716
 20
-96.416
 11
-57.716
 21
-97.716
  0
LINE
  8
0
 10
-57.716
 20
-97.716
 11
-97.716
 21
-97.716
  0
LINE
  8
0
 10
-45.716
 20
-102.916
 11
-45.716
 21
-101.616
  0
LINE
  8
0
 10
-45.716
 20
-101.616
 11
-5.71603
 21
-101.616
  0
LINE
  8
0
 10
-5.71603
 20
-101.616
 11
-5.71603
 21
-102.916
  0
LINE
  8
0
 10
-5.71603
 20
-102.916
 11
-45.716
 21
-102.916
  0
LINE
  8
0
 10
-149.716
 20
-102.916
 11
-149.716
 21
-101.616
  0
LINE
  8
0
 10
-149.716
 20
-101.616
 11
-109.716
 21
-101.616
  0
LINE
  8
0
 10
-109.716
 20
-101.616
 11
-109.716
 21
-102.916
  0
LINE
  8
0
 10
-109.716
 20
-102.916
 11
-149.716
 21
-102.916
  0
LINE
  8
0
 10
-97.716
 20
-102.916
 11
-97.716
 21
-101.616
  0
LINE
  8
0
 10
-97.716
 20
-101.616
 11
-57.716
 21
-101.616
  0
LINE
  8
0
 10
-57.716
 20
-101.616
 11
-57.716
 21
-102.916
  0
LINE
  8
0
 10
-57.716
 20
-102.916
 11
-97.716
 21
-102.916
  0
LINE
  8
0
 10
6.28395
 20
-102.916
 11
6.28395
 21
-101.616
  0
LINE
  8
0
 10
6.28395
 20
-101.616
 11
46.284
 21
-101.616
  0
LINE
  8
0
 10
46.284
 20
-101.616
 11
46.284
 21
-102.916
  0
LINE
  8
0
 10
46.284
 20
-102.916
 11
6.28395
 21
-102.916
  0
LINE
  8
0
 10
58.284
 20
-102.916
 11
58.284
 21
-101.616
  0
LINE
  8
0
 10
58.284
 20
-101.616
 11
98.284
 21
-101.616
  0
LINE
  8
0
 10
98.284
 20
-101.616
 11
98.284
 21
-102.916
  0
LINE
  8
0
 10
98.284
 20
-102.916
 11
58.284
 21
-102.916
  0
LINE
  8
0
 10
110.284
 20
-102.916
 11
110.284
 21
-101.616
  0
LINE
  8
0
 10
110.284
 20
-101.616
 11
150.284
 21
-101.616
  0
LINE
  8
0
 10
150.284
 20
-101.616
 11
150.284
 21
-102.916
  0
LINE
  8
0
 10
150.284
 20
-102.916
 11
110.284
 21
-102.916
  0
LINE
  8
0
 10
58.284
 20
-108.116
 11
58.284
 21
-106.816
  0
LINE
  8
0
 10
58.284
 20
-106.816
 11
98.284
 21
-106.816
  0
LINE
  8
0
 10
98.284
 20
-106.816
 11
98.284
 21
-108.116
  0
LINE
  8
0
 10
98.284
 20
-108.116
 11
58.284
 21
-108.116
  0
LINE
  8
0
 10
-149.716
 20
-108.116
 11
-149.716
 21
-106.816
  0
LINE
  8
0
 10
-149.716
 20
-106.816
 11
-109.716
 21
-106.816
  0
LINE
  8
0
 10
-109.716
 20
-106.816
 11
-109.716
 21
-108.116
  0
LINE
  8
0
 10
-109.716
 20
-108.116
 11
-149.716
 21
-108.116
  0
LINE
  8
0
 10
-45.716
 20
-108.116
 11
-45.716
 21
-106.816
  0
LINE
  8
0
 10
-45.716
 20
-106.816
 11
-5.71603
 21
-106.816
  0
LINE
  8
0
 10
-5.71603
 20
-106.816
 11
-5.71603
 21
-108.116
  0
LINE
  8
0
 10
-5.71603
 20
-108.116
 11
-45.716
 21
-108.116
  0
LINE
  8
0
 10
6.28395
 20
-108.116
 11
6.28395
 21
-106.816
  0
LINE
  8
0
 10
6.28395
 20
-106.816
 11
46.284
 21
-106.816
  0
LINE
  8
0
 10
46.284
 20
-106.816
 11
46.284
 21
-108.116
  0
LINE
  8
0
 10
46.284
 20
-108.116
 11
6.28395
 21
-108.116
  0
LINE
  8
0
 10
-97.716
 20
-108.116
 11
-97.716
 21
-106.816
  0
LINE
  8
0
 10
-97.716
 20
-106.816
 11
-57.716
 21
-106.816
  0
LINE
  8
0
 10
-57.716
 20
-106.816
 11
-57.716
 21
-108.116
  0
LINE
  8
0
 10
-57.716
 20
-108.116
 11
-97.716
 21
-108.116
  0
LINE
  8
0
 10
110.284
 20
-108.116
 11
110.284
 21
-106.816
  0
LINE
  8
0
 10
110.284
 20
-106.816
 11
150.284
 21
-106.816
  0
LINE
  8
0
 10
150.284
 20
-106.816
 11
150.284
 21
-108.116
  0
LINE
  8
0
 10
150.284
 20
-108.116
 11
110.284
 21
-108.116
  0
LINE
  8
0
 10
-149.716
 20
-113.316
 11
-149.716
 21
-112.016
  0
LINE
  8
0
 10
-149.716
 20
-112.016
 11
-109.716
 21
-112.016
  0
LINE
  8
0
 10
-109.716
 20
-112.016
 11
-109.716
 21
-113.316
  0
LINE
  8
0
 10
-109.716
 20
-113.316
 11
-149.716
 21
-113.316
  0
LINE
  8
0
 10
58.284
 20
-113.316
 11
58.284
 21
-112.016
  0
LINE
  8
0
 10
58.284
 20
-112.016
 11
98.284
 21
-112.016
  0
LINE
  8
0
 10
98.284
 20
-112.016
 11
98.284
 21
-113.316
  0
LINE
  8
0
 10
98.284
 20
-113.316
 11
58.284
 21
-113.316
  0
LINE
  8
0
 10
-97.716
 20
-113.316
 11
-97.716
 21
-112.016
  0
LINE
  8
0
 10
-97.716
 20
-112.016
 11
-57.716
 21
-112.016
  0
LINE
  8
0
 10
-57.716
 20
-112.016
 11
-57.716
 21
-113.316
  0
LINE
  8
0
 10
-57.716
 20
-113.316
 11
-97.716
 21
-113.316
  0
LINE
  8
0
 10
110.284
 20
-113.316
 11
110.284
 21
-112.016
  0
LINE
  8
0
 10
110.284
 20
-112.016
 11
150.284
 21
-112.016
  0
LINE
  8
0
 10
150.284
 20
-112.016
 11
150.284
 21
-113.316
  0
LINE
  8
0
 10
150.284
 20
-113.316
 11
110.284
 21
-113.316
  0
LINE
  8
0
 10
6.28395
 20
-113.316
 11
6.28395
 21
-112.016
  0
LINE
  8
0
 10
6.28395
 20
-112.016
 11
46.284
 21
-112.016
  0
LINE
  8
0
 10
46.284
 20
-112.016
 11
46.284
 21
-113.316
  0
LINE
  8
0
 10
46.284
 20
-113.316
 11
6.28395
 21
-113.316
  0
LINE
  8
0
 10
-45.716
 20
-113.316
 11
-45.716
 21
-112.016
  0
LINE
  8
0
 10
-45.716
 20
-112.016
 11
-5.71603
 21
-112.016
  0
LINE
  8
0
 10
-5.71603
 20
-112.016
 11
-5.71603
 21
-113.316
  0
LINE
  8
0
 10
-5.71603
 20
-113.316
 11
-45.716
 21
-113.316
  0
LINE
  8
0
 10
-97.716
 20
-118.516
 11
-97.716
 21
-117.216
  0
LINE
  8
0
 10
-97.716
 20
-117.216
 11
-57.716
 21
-117.216
  0
LINE
  8
0
 10
-57.716
 20
-117.216
 11
-57.716
 21
-118.516
  0
LINE
  8
0
 10
-57.716
 20
-118.516
 11
-97.716
 21
-118.516
  0
LINE
  8
0
 10
-45.716
 20
-118.516
 11
-45.716
 21
-117.216
  0
LINE
  8
0
 10
-45.716
 20
-117.216
 11
-5.71603
 21
-117.216
  0
LINE
  8
0
 10
-5.71603
 20
-117.216
 11
-5.71603
 21
-118.516
  0
LINE
  8
0
 10
-5.71603
 20
-118.516
 11
-45.716
 21
-118.516
  0
LINE
  8
0
 10
6.28395
 20
-118.516
 11
6.28395
 21
-117.216
  0
LINE
  8
0
 10
6.28395
 20
-117.216
 11
46.284
 21
-117.216
  0
LINE
  8
0
 10
46.284
 20
-117.216
 11
46.284
 21
-118.516
  0
LINE
  8
0
 10
46.284
 20
-118.516
 11
6.28395
 21
-118.516
  0
LINE
  8
0
 10
58.284
 20
-118.516
 11
58.284
 21
-117.216
  0
LINE
  8
0
 10
58.284
 20
-117.216
 11
98.284
 21
-117.216
  0
LINE
  8
0
 10
98.284
 20
-117.216
 11
98.284
 21
-118.516
  0
LINE
  8
0
 10
98.284
 20
-118.516
 11
58.284
 21
-118.516
  0
LINE
  8
0
 10
110.284
 20
-118.516
 11
110.284
 21
-117.216
  0
LINE
  8
0
 10
110.284
 20
-117.216
 11
150.284
 21
-117.216
  0
LINE
  8
0
 10
150.284
 20
-117.216
 11
150.284
 21
-118.516
  0
LINE
  8
0
 10
150.284
 20
-118.516
 11
110.284
 21
-118.516
  0
LINE
  8
0
 10
-149.716
 20
-118.516
 11
-149.716
 21
-117.216
  0
LINE
  8
0
 10
-149.716
 20
-117.216
 11
-109.716
 21
-117.216
  0
LINE
  8
0
 10
-109.716
 20
-117.216
 11
-109.716
 21
-118.516
  0
LINE
  8
0
 10
-109.716
 20
-118.516
 11
-149.716
 21
-118.516
  0
LINE
  8
0
 10
-149.716
 20
-123.716
 11
-149.716
 21
-122.416
  0
LINE
  8
0
 10
-149.716
 20
-122.416
 11
-109.716
 21
-122.416
  0
LINE
  8
0
 10
-109.716
 20
-122.416
 11
-109.716
 21
-123.716
  0
LINE
  8
0
 10
-109.716
 20
-123.716
 11
-149.716
 21
-123.716
  0
LINE
  8
0
 10
6.28395
 20
-123.716
 11
6.28395
 21
-122.416
  0
LINE
  8
0
 10
6.28395
 20
-122.416
 11
46.284
 21
-122.416
  0
LINE
  8
0
 10
46.284
 20
-122.416
 11
46.284
 21
-123.716
  0
LINE
  8
0
 10
46.284
 20
-123.716
 11
6.28395
 21
-123.716
  0
LINE
  8
0
 10
-97.716
 20
-123.716
 11
-97.716
 21
-122.416
  0
LINE
  8
0
 10
-97.716
 20
-122.416
 11
-57.716
 21
-122.416
  0
LINE
  8
0
 10
-57.716
 20
-122.416
 11
-57.716
 21
-123.716
  0
LINE
  8
0
 10
-57.716
 20
-123.716
 11
-97.716
 21
-123.716
  0
LINE
  8
0
 10
110.284
 20
-123.716
 11
110.284
 21
-122.416
  0
LINE
  8
0
 10
110.284
 20
-122.416
 11
150.284
 21
-122.416
  0
LINE
  8
0
 10
150.284
 20
-122.416
 11
150.284
 21
-123.716
  0
LINE
  8
0
 10
150.284
 20
-123.716
 11
110.284
 21
-123.716
  0
LINE
  8
0
 10
58.284
 20
-123.716
 11
58.284
 21
-122.416
  0
LINE
  8
0
 10
58.284
 20
-122.416
 11
98.284
 21
-122.416
  0
LINE
  8
0
 10
98.284
 20
-122.416
 11
98.284
 21
-123.716
  0
LINE
  8
0
 10
98.284
 20
-123.716
 11
58.284
 21
-123.716
  0
LINE
  8
0
 10
-5.71603
 20
-123.716
 11
-45.716
 21
-123.716
  0
LINE
  8
0
 10
-45.716
 20
-123.716
 11
-45.716
 21
-122.416
  0
LINE
  8
0
 10
-45.716
 20
-122.416
 11
-5.71603
 21
-122.416
  0
LINE
  8
0
 10
-5.71603
 20
-122.416
 11
-5.71603
 21
-123.716
  0
LINE
  8
0
 10
-149.716
 20
-128.916
 11
-149.716
 21
-127.616
  0
LINE
  8
0
 10
-149.716
 20
-127.616
 11
-109.716
 21
-127.616
  0
LINE
  8
0
 10
-109.716
 20
-127.616
 11
-109.716
 21
-128.916
  0
LINE
  8
0
 10
-109.716
 20
-128.916
 11
-149.716
 21
-128.916
  0
LINE
  8
0
 10
110.284
 20
-128.916
 11
110.284
 21
-127.616
  0
LINE
  8
0
 10
110.284
 20
-127.616
 11
150.284
 21
-127.616
  0
LINE
  8
0
 10
150.284
 20
-127.616
 11
150.284
 21
-128.916
  0
LINE
  8
0
 10
150.284
 20
-128.916
 11
110.284
 21
-128.916
  0
LINE
  8
0
 10
58.284
 20
-128.916
 11
58.284
 21
-127.616
  0
LINE
  8
0
 10
58.284
 20
-127.616
 11
98.284
 21
-127.616
  0
LINE
  8
0
 10
98.284
 20
-127.616
 11
98.284
 21
-128.916
  0
LINE
  8
0
 10
98.284
 20
-128.916
 11
58.284
 21
-128.916
  0
LINE
  8
0
 10
-97.716
 20
-128.916
 11
-97.716
 21
-127.616
  0
LINE
  8
0
 10
-97.716
 20
-127.616
 11
-57.716
 21
-127.616
  0
LINE
  8
0
 10
-57.716
 20
-127.616
 11
-57.716
 21
-128.916
  0
LINE
  8
0
 10
-57.716
 20
-128.916
 11
-97.716
 21
-128.916
  0
LINE
  8
0
 10
6.28395
 20
-128.916
 11
6.28395
 21
-127.616
  0
LINE
  8
0
 10
6.28395
 20
-127.616
 11
46.284
 21
-127.616
  0
LINE
  8
0
 10
46.284
 20
-127.616
 11
46.284
 21
-128.916
  0
LINE
  8
0
 10
46.284
 20
-128.916
 11
6.28395
 21
-128.916
  0
LINE
  8
0
 10
-45.716
 20
-128.916
 11
-45.716
 21
-127.616
  0
LINE
  8
0
 10
-45.716
 20
-127.616
 11
-5.71603
 21
-127.616
  0
LINE
  8
0
 10
-5.71603
 20
-127.616
 11
-5.71603
 21
-128.916
  0
LINE
  8
0
 10
-5.71603
 20
-128.916
 11
-45.716
 21
-128.916
  0
LINE
  8
0
 10
-149.716
 20
-134.116
 11
-149.716
 21
-132.816
  0
LINE
  8
0
 10
-149.716
 20
-132.816
 11
-109.716
 21
-132.816
  0
LINE
  8
0
 10
-109.716
 20
-132.816
 11
-109.716
 21
-134.116
  0
LINE
  8
0
 10
-109.716
 20
-134.116
 11
-149.716
 21
-134.116
  0
LINE
  8
0
 10
110.284
 20
-134.116
 11
110.284
 21
-132.816
  0
LINE
  8
0
 10
110.284
 20
-132.816
 11
150.284
 21
-132.816
  0
LINE
  8
0
 10
150.284
 20
-132.816
 11
150.284
 21
-134.116
  0
LINE
  8
0
 10
150.284
 20
-134.116
 11
110.284
 21
-134.116
  0
LINE
  8
0
 10
6.28395
 20
-134.116
 11
6.28395
 21
-132.816
  0
LINE
  8
0
 10
6.28395
 20
-132.816
 11
46.284
 21
-132.816
  0
LINE
  8
0
 10
46.284
 20
-132.816
 11
46.284
 21
-134.116
  0
LINE
  8
0
 10
46.284
 20
-134.116
 11
6.28395
 21
-134.116
  0
LINE
  8
0
 10
-45.716
 20
-134.116
 11
-45.716
 21
-132.816
  0
LINE
  8
0
 10
-45.716
 20
-132.816
 11
-5.71603
 21
-132.816
  0
LINE
  8
0
 10
-5.71603
 20
-132.816
 11
-5.71603
 21
-134.116
  0
LINE
  8
0
 10
-5.71603
 20
-134.116
 11
-45.716
 21
-134.116
  0
LINE
  8
0
 10
-97.716
 20
-134.116
 11
-97.716
 21
-132.816
  0
LINE
  8
0
 10
-97.716
 20
-132.816
 11
-57.716
 21
-132.816
  0
LINE
  8
0
 10
-57.716
 20
-132.816
 11
-57.716
 21
-134.116
  0
LINE
  8
0
 10
-57.716
 20
-134.116
 11
-97.716
 21
-134.116
  0
LINE
  8
0
 10
58.284
 20
-134.116
 11
58.284
 21
-132.816
  0
LINE
  8
0
 10
58.284
 20
-132.816
 11
98.284
 21
-132.816
  0
LINE
  8
0
 10
98.284
 20
-132.816
 11
98.284
 21
-134.116
  0
LINE
  8
0
 10
98.284
 20
-134.116
 11
58.284
 21
-134.116
  0
LINE
  8
0
 10
58.284
 20
-139.316
 11
58.284
 21
-138.016
  0
LINE
  8
0
 10
58.284
 20
-138.016
 11
98.284
 21
-138.016
  0
LINE
  8
0
 10
98.284
 20
-138.016
 11
98.284
 21
-139.316
  0
LINE
  8
0
 10
98.284
 20
-139.316
 11
58.284
 21
-139.316
  0
LINE
  8
0
 10
-149.716
 20
-139.316
 11
-149.716
 21
-138.016
  0
LINE
  8
0
 10
-149.716
 20
-138.016
 11
-109.716
 21
-138.016
  0
LINE
  8
0
 10
-109.716
 20
-138.016
 11
-109.716
 21
-139.316
  0
LINE
  8
0
 10
-109.716
 20
-139.316
 11
-149.716
 21
-139.316
  0
LINE
  8
0
 10
-97.716
 20
-139.316
 11
-97.716
 21
-138.016
  0
LINE
  8
0
 10
-97.716
 20
-138.016
 11
-57.716
 21
-138.016
  0
LINE
  8
0
 10
-57.716
 20
-138.016
 11
-57.716
 21
-139.316
  0
LINE
  8
0
 10
-57.716
 20
-139.316
 11
-97.716
 21
-139.316
  0
LINE
  8
0
 10
110.284
 20
-139.316
 11
110.284
 21
-138.016
  0
LINE
  8
0
 10
110.284
 20
-138.016
 11
150.284
 21
-138.016
  0
LINE
  8
0
 10
150.284
 20
-138.016
 11
150.284
 21
-139.316
  0
LINE
  8
0
 10
150.284
 20
-139.316
 11
110.284
 21
-139.316
  0
LINE
  8
0
 10
6.28395
 20
-139.316
 11
6.28395
 21
-138.016
  0
LINE
  8
0
 10
6.28395
 20
-138.016
 11
46.284
 21
-138.016
  0
LINE
  8
0
 10
46.284
 20
-138.016
 11
46.284
 21
-139.316
  0
LINE
  8
0
 10
46.284
 20
-139.316
 11
6.28395
 21
-139.316
  0
LINE
  8
0
 10
-5.71603
 20
-139.316
 11
-45.716
 21
-139.316
  0
LINE
  8
0
 10
-45.716
 20
-139.316
 11
-45.716
 21
-138.016
  0
LINE
  8
0
 10
-45.716
 20
-138.016
 11
-5.71603
 21
-138.016
  0
LINE
  8
0
 10
-5.71603
 20
-138.016
 11
-5.71603
 21
-139.316
  0
LINE
  8
0
 10
-149.716
 20
-144.516
 11
-149.716
 21
-143.216
  0
LINE
  8
0
 10
-149.716
 20
-143.216
 11
-109.716
 21
-143.216
  0
LINE
  8
0
 10
-109.716
 20
-143.216
 11
-109.716
 21
-144.516
  0
LINE
  8
0
 10
-109.716
 20
-144.516
 11
-149.716
 21
-144.516
  0
LINE
  8
0
 10
110.284
 20
-144.516
 11
110.284
 21
-143.216
  0
LINE
  8
0
 10
110.284
 20
-143.216
 11
150.284
 21
-143.216
  0
LINE
  8
0
 10
150.284
 20
-143.216
 11
150.284
 21
-144.516
  0
LINE
  8
0
 10
150.284
 20
-144.516
 11
110.284
 21
-144.516
  0
LINE
  8
0
 10
-97.716
 20
-144.516
 11
-97.716
 21
-143.216
  0
LINE
  8
0
 10
-97.716
 20
-143.216
 11
-57.716
 21
-143.216
  0
LINE
  8
0
 10
-57.716
 20
-143.216
 11
-57.716
 21
-144.516
  0
LINE
  8
0
 10
-57.716
 20
-144.516
 11
-97.716
 21
-144.516
  0
LINE
  8
0
 10
-45.716
 20
-144.516
 11
-45.716
 21
-143.216
  0
LINE
  8
0
 10
-45.716
 20
-143.216
 11
-5.71603
 21
-143.216
  0
LINE
  8
0
 10
-5.71603
 20
-143.216
 11
-5.71603
 21
-144.516
  0
LINE
  8
0
 10
-5.71603
 20
-144.516
 11
-45.716
 21
-144.516
  0
LINE
  8
0
 10
58.284
 20
-144.516
 11
58.284
 21
-143.216
  0
LINE
  8
0
 10
58.284
 20
-143.216
 11
98.284
 21
-143.216
  0
LINE
  8
0
 10
98.284
 20
-143.216
 11
98.284
 21
-144.516
  0
LINE
  8
0
 10
98.284
 20
-144.516
 11
58.284
 21
-144.516
  0
LINE
  8
0
 10
6.28395
 20
-144.516
 11
6.28395
 21
-143.216
  0
LINE
  8
0
 10
6.28395
 20
-143.216
 11
46.284
 21
-143.216
  0
LINE
  8
0
 10
46.284
 20
-143.216
 11
46.284
 21
-144.516
  0
LINE
  8
0
 10
46.284
 20
-144.516
 11
6.28395
 21
-144.516
  0
LINE
  8
0
 10
58.284
 20
-149.716
 11
58.284
 21
-148.416
  0
LINE
  8
0
 10
58.284
 20
-148.416
 11
98.284
 21
-148.416
  0
LINE
  8
0
 10
98.284
 20
-148.416
 11
98.284
 21
-149.716
  0
LINE
  8
0
 10
98.284
 20
-149.716
 11
58.284
 21
-149.716
  0
LINE
  8
0
 10
-97.716
 20
-149.716
 11
-97.716
 21
-148.416
  0
LINE
  8
0
 10
-97.716
 20
-148.416
 11
-57.716
 21
-148.416
  0
LINE
  8
0
 10
-57.716
 20
-148.416
 11
-57.716
 21
-149.716
  0
LINE
  8
0
 10
-57.716
 20
-149.716
 11
-97.716
 21
-149.716
  0
LINE
  8
0
 10
-45.716
 20
-149.716
 11
-45.716
 21
-148.416
  0
LINE
  8
0
 10
-45.716
 20
-148.416
 11
-5.71603
 21
-148.416
  0
LINE
  8
0
 10
-5.71603
 20
-148.416
 11
-5.71603
 21
-149.716
  0
LINE
  8
0
 10
-5.71603
 20
-149.716
 11
-45.716
 21
-149.716
  0
LINE
  8
0
 10
110.284
 20
-149.716
 11
110.284
 21
-148.416
  0
LINE
  8
0
 10
110.284
 20
-148.416
 11
150.284
 21
-148.416
  0
LINE
  8
0
 10
150.284
 20
-148.416
 11
150.284
 21
-149.716
  0
LINE
  8
0
 10
150.284
 20
-149.716
 11
110.284
 21
-149.716
  0
LINE
  8
0
 10
-149.716
 20
-149.716
 11
-149.716
 21
-148.416
  0
LINE
  8
0
 10
-149.716
 20
-148.416
 11
-109.716
 21
-148.416
  0
LINE
  8
0
 10
-109.716
 20
-148.416
 11
-109.716
 21
-149.716
  0
LINE
  8
0
 10
-109.716
 20
-149.716
 11
-149.716
 21
-149.716
  0
LINE
  8
0
 10
6.28395
 20
-149.716
 11
6.28395
 21
-148.416
  0
LINE
  8
0
 10
6.28395
 20
-148.416
 11
46.284
 21
-148.416
  0
LINE
  8
0
 10
46.284
 20
-148.416
 11
46.284
 21
-149.716
  0
LINE
  8
0
 10
46.284
 20
-149.716
 11
6.28395
 21
-149.716
  0
LINE
  8
0
 10
-97.716
 20
-154.916
 11
-97.716
 21
-153.616
  0
LINE
  8
0
 10
-97.716
 20
-153.616
 11
-57.716
 21
-153.616
  0
LINE
  8
0
 10
-57.716
 20
-153.616
 11
-57.716
 21
-154.916
  0
LINE
  8
0
 10
-57.716
 20
-154.916
 11
-97.716
 21
-154.916
  0
LINE
  8
0
 10
-149.716
 20
-154.916
 11
-149.716
 21
-153.616
  0
LINE
  8
0
 10
-149.716
 20
-153.616
 11
-109.716
 21
-153.616
  0
LINE
  8
0
 10
-109.716
 20
-153.616
 11
-109.716
 21
-154.916
  0
LINE
  8
0
 10
-109.716
 20
-154.916
 11
-149.716
 21
-154.916
  0
LINE
  8
0
 10
110.284
 20
-154.916
 11
110.284
 21
-153.616
  0
LINE
  8
0
 10
110.284
 20
-153.616
 11
150.284
 21
-153.616
  0
LINE
  8
0
 10
150.284
 20
-153.616
 11
150.284
 21
-154.916
  0
LINE
  8
0
 10
150.284
 20
-154.916
 11
110.284
 21
-154.916
  0
LINE
  8
0
 10
6.28395
 20
-154.916
 11
6.28395
 21
-153.616
  0
LINE
  8
0
 10
6.28395
 20
-153.616
 11
46.284
 21
-153.616
  0
LINE
  8
0
 10
46.284
 20
-153.616
 11
46.284
 21
-154.916
  0
LINE
  8
0
 10
46.284
 20
-154.916
 11
6.28395
 21
-154.916
  0
LINE
  8
0
 10
58.284
 20
-154.916
 11
58.284
 21
-153.616
  0
LINE
  8
0
 10
58.284
 20
-153.616
 11
98.284
 21
-153.616
  0
LINE
  8
0
 10
98.284
 20
-153.616
 11
98.284
 21
-154.916
  0
LINE
  8
0
 10
98.284
 20
-154.916
 11
58.284
 21
-154.916
  0
LINE
  8
0
 10
-45.716
 20
-154.916
 11
-45.716
 21
-153.616
  0
LINE
  8
0
 10
-45.716
 20
-153.616
 11
-5.71603
 21
-153.616
  0
LINE
  8
0
 10
-5.71603
 20
-153.616
 11
-5.71603
 21
-154.916
  0
LINE
  8
0
 10
-5.71603
 20
-154.916
 11
-45.716
 21
-154.916
  0
LINE
  8
0
 10
-45.716
 20
-160.116
 11
-45.716
 21
-158.816
  0
LINE
  8
0
 10
-45.716
 20
-158.816
 11
-5.71603
 21
-158.816
  0
LINE
  8
0
 10
-5.71603
 20
-158.816
 11
-5.71603
 21
-160.116
  0
LINE
  8
0
 10
-5.71603
 20
-160.116
 11
-45.716
 21
-160.116
  0
LINE
  8
0
 10
58.284
 20
-160.116
 11
58.284
 21
-158.816
  0
LINE
  8
0
 10
58.284
 20
-158.816
 11
98.284
 21
-158.816
  0
LINE
  8
0
 10
98.284
 20
-158.816
 11
98.284
 21
-160.116
  0
LINE
  8
0
 10
98.284
 20
-160.116
 11
58.284
 21
-160.116
  0
LINE
  8
0
 10
110.284
 20
-160.116
 11
110.284
 21
-158.816
  0
LINE
  8
0
 10
110.284
 20
-158.816
 11
150.284
 21
-158.816
  0
LINE
  8
0
 10
150.284
 20
-158.816
 11
150.284
 21
-160.116
  0
LINE
  8
0
 10
150.284
 20
-160.116
 11
110.284
 21
-160.116
  0
LINE
  8
0
 10
-149.716
 20
-160.116
 11
-149.716
 21
-158.816
  0
LINE
  8
0
 10
-149.716
 20
-158.816
 11
-109.716
 21
-158.816
  0
LINE
  8
0
 10
-109.716
 20
-158.816
 11
-109.716
 21
-160.116
  0
LINE
  8
0
 10
-109.716
 20
-160.116
 11
-149.716
 21
-160.116
  0
LINE
  8
0
 10
6.28395
 20
-160.116
 11
6.28395
 21
-158.816
  0
LINE
  8
0
 10
6.28395
 20
-158.816
 11
46.284
 21
-158.816
  0
LINE
  8
0
 10
46.284
 20
-158.816
 11
46.284
 21
-160.116
  0
LINE
  8
0
 10
46.284
 20
-160.116
 11
6.28395
 21
-160.116
  0
LINE
  8
0
 10
-97.716
 20
-160.116
 11
-97.716
 21
-158.816
  0
LINE
  8
0
 10
-97.716
 20
-158.816
 11
-57.716
 21
-158.816
  0
LINE
  8
0
 10
-57.716
 20
-158.816
 11
-57.716
 21
-160.116
  0
LINE
  8
0
 10
-57.716
 20
-160.116
 11
-97.716
 21
-160.116
  0
LINE
  8
0
 10
58.284
 20
-165.316
 11
58.284
 21
-164.016
  0
LINE
  8
0
 10
58.284
 20
-164.016
 11
98.284
 21
-164.016
  0
LINE
  8
0
 10
98.284
 20
-164.016
 11
98.284
 21
-165.316
  0
LINE
  8
0
 10
98.284
 20
-165.316
 11
58.284
 21
-165.316
  0
LINE
  8
0
 10
-97.716
 20
-165.316
 11
-97.716
 21
-164.016
  0
LINE
  8
0
 10
-97.716
 20
-164.016
 11
-57.716
 21
-164.016
  0
LINE
  8
0
 10
-57.716
 20
-164.016
 11
-57.716
 21
-165.316
  0
LINE
  8
0
 10
-57.716
 20
-165.316
 11
-97.716
 21
-165.316
  0
LINE
  8
0
 10
-149.716
 20
-165.316
 11
-149.716
 21
-164.016
  0
LINE
  8
0
 10
-149.716
 20
-164.016
 11
-109.716
 21
-164.016
  0
LINE
  8
0
 10
-109.716
 20
-164.016
 11
-109.716
 21
-165.316
  0
LINE
  8
0
 10
-109.716
 20
-165.316
 11
-149.716
 21
-165.316
  0
LINE
  8
0
 10
110.284
 20
-165.316
 11
110.284
 21
-164.016
  0
LINE
  8
0
 10
110.284
 20
-164.016
 11
150.284
 21
-164.016
  0
LINE
  8
0
 10
150.284
 20
-164.016
 11
150.284
 21
-165.316
  0
LINE
  8
0
 10
150.284
 20
-165.316
 11
110.284
 21
-165.316
  0
LINE
  8
0
 10
6.28395
 20
-165.316
 11
6.28395
 21
-164.016
  0
LINE
  8
0
 10
6.28395
 20
-164.016
 11
46.284
 21
-164.016
  0
LINE
  8
0
 10
46.284
 20
-164.016
 11
46.284
 21
-165.316
  0
LINE
  8
0
 10
46.284
 20
-165.316
 11
6.28395
 21
-165.316
  0
LINE
  8
0
 10
-45.716
 20
-165.316
 11
-45.716
 21
-164.016
  0
LINE
  8
0
 10
-45.716
 20
-164.016
 11
-5.71603
 21
-164.016
  0
LINE
  8
0
 10
-5.71603
 20
-164.016
 11
-5.71603
 21
-165.316
  0
LINE
  8
0
 10
-5.71603
 20
-165.316
 11
-45.716
 21
-165.316
  0
LINE
  8
0
 10
-97.716
 20
-170.516
 11
-97.716
 21
-169.216
  0
LINE
  8
0
 10
-97.716
 20
-169.216
 11
-57.716
 21
-169.216
  0
LINE
  8
0
 10
-57.716
 20
-169.216
 11
-57.716
 21
-170.516
  0
LINE
  8
0
 10
-57.716
 20
-170.516
 11
-97.716
 21
-170.516
  0
LINE
  8
0
 10
-45.716
 20
-170.516
 11
-45.716
 21
-169.216
  0
LINE
  8
0
 10
-45.716
 20
-169.216
 11
-5.71603
 21
-169.216
  0
LINE
  8
0
 10
-5.71603
 20
-169.216
 11
-5.71603
 21
-170.516
  0
LINE
  8
0
 10
-5.71603
 20
-170.516
 11
-45.716
 21
-170.516
  0
LINE
  8
0
 10
58.284
 20
-170.516
 11
58.284
 21
-169.216
  0
LINE
  8
0
 10
58.284
 20
-169.216
 11
98.284
 21
-169.216
  0
LINE
  8
0
 10
98.284
 20
-169.216
 11
98.284
 21
-170.516
  0
LINE
  8
0
 10
98.284
 20
-170.516
 11
58.284
 21
-170.516
  0
LINE
  8
0
 10
6.28395
 20
-170.516
 11
6.28395
 21
-169.216
  0
LINE
  8
0
 10
6.28395
 20
-169.216
 11
46.284
 21
-169.216
  0
LINE
  8
0
 10
46.284
 20
-169.216
 11
46.284
 21
-170.516
  0
LINE
  8
0
 10
46.284
 20
-170.516
 11
6.28395
 21
-170.516
  0
LINE
  8
0
 10
-149.716
 20
-170.516
 11
-149.716
 21
-169.216
  0
LINE
  8
0
 10
-149.716
 20
-169.216
 11
-109.716
 21
-169.216
  0
LINE
  8
0
 10
-109.716
 20
-169.216
 11
-109.716
 21
-170.516
  0
LINE
  8
0
 10
-109.716
 20
-170.516
 11
-149.716
 21
-170.516
  0
LINE
  8
0
 10
110.284
 20
-170.516
 11
110.284
 21
-169.216
  0
LINE
  8
0
 10
110.284
 20
-169.216
 11
150.284
 21
-169.216
  0
LINE
  8
0
 10
150.284
 20
-169.216
 11
150.284
 21
-170.516
  0
LINE
  8
0
 10
150.284
 20
-170.516
 11
110.284
 21
-170.516
  0
LINE
  8
0
 10
-0.172668
 20
-178.461
 11
-0.344666
 21
-178.444
  0
LINE
  8
0
 10
-0.344666
 20
-178.444
 11
-0.515289
 21
-178.417
  0
LINE
  8
0
 10
-0.515289
 20
-178.417
 11
-0.683884
 21
-178.38
  0
LINE
  8
0
 10
-0.683884
 20
-178.38
 11
-0.849792
 21
-178.331
  0
LINE
  8
0
 10
-0.849792
 20
-178.331
 11
-1.01233
 21
-178.273
  0
LINE
  8
0
 10
-1.01233
 20
-178.273
 11
-1.17088
 21
-178.204
  0
LINE
  8
0
 10
-1.17088
 20
-178.204
 11
-1.32481
 21
-178.126
  0
LINE
  8
0
 10
-1.32481
 20
-178.126
 11
-1.47351
 21
-178.038
  0
LINE
  8
0
 10
-1.47351
 20
-178.038
 11
-1.61641
 21
-177.941
  0
LINE
  8
0
 10
-1.61641
 20
-177.941
 11
-1.75291
 21
-177.835
  0
LINE
  8
0
 10
-1.75291
 20
-177.835
 11
-1.88249
 21
-177.721
  0
LINE
  8
0
 10
-1.88249
 20
-177.721
 11
-2.00465
 21
-177.599
  0
LINE
  8
0
 10
-2.00465
 20
-177.599
 11
-2.1189
 21
-177.469
  0
LINE
  8
0
 10
-2.1189
 20
-177.469
 11
-2.22479
 21
-177.332
  0
LINE
  8
0
 10
-2.22479
 20
-177.332
 11
-2.3219
 21
-177.19
  0
LINE
  8
0
 10
-2.3219
 20
-177.19
 11
-2.40984
 21
-177.041
  0
LINE
  8
0
 10
-2.40984
 20
-177.041
 11
-2.48827
 21
-176.887
  0
LINE
  8
0
 10
-2.48827
 20
-176.887
 11
-2.55688
 21
-176.728
  0
LINE
  8
0
 10
-2.55688
 20
-176.728
 11
-2.6154
 21
-176.566
  0
LINE
  8
0
 10
-2.6154
 20
-176.566
 11
-2.66359
 21
-176.4
  0
LINE
  8
0
 10
-2.66359
 20
-176.4
 11
-2.70128
 21
-176.231
  0
LINE
  8
0
 10
-2.70128
 20
-176.231
 11
-2.7283
 21
-176.061
  0
LINE
  8
0
 10
-2.7283
 20
-176.061
 11
-2.74457
 21
-175.889
  0
LINE
  8
0
 10
-2.74457
 20
-175.889
 11
-2.75
 21
-175.716
  0
LINE
  8
0
 10
-2.75
 20
-175.716
 11
-2.74457
 21
-175.543
  0
LINE
  8
0
 10
-2.74457
 20
-175.543
 11
-2.7283
 21
-175.371
  0
LINE
  8
0
 10
-2.7283
 20
-175.371
 11
-2.70128
 21
-175.201
  0
LINE
  8
0
 10
-2.70128
 20
-175.201
 11
-2.66359
 21
-175.032
  0
LINE
  8
0
 10
-2.66359
 20
-175.032
 11
-2.6154
 21
-174.866
  0
LINE
  8
0
 10
-2.6154
 20
-174.866
 11
-2.55688
 21
-174.704
  0
LINE
  8
0
 10
-2.55688
 20
-174.704
 11
-2.48827
 21
-174.545
  0
LINE
  8
0
 10
-2.48827
 20
-174.545
 11
-2.40984
 21
-174.391
  0
LINE
  8
0
 10
-2.40984
 20
-174.391
 11
-2.3219
 21
-174.243
  0
LINE
  8
0
 10
-2.3219
 20
-174.243
 11
-2.22479
 21
-174.1
  0
LINE
  8
0
 10
-2.22479
 20
-174.1
 11
-2.1189
 21
-173.963
  0
LINE
  8
0
 10
-2.1189
 20
-173.963
 11
-2.00465
 21
-173.834
  0
LINE
  8
0
 10
-2.00465
 20
-173.834
 11
-1.88249
 21
-173.711
  0
LINE
  8
0
 10
-1.88249
 20
-173.711
 11
-1.75291
 21
-173.597
  0
LINE
  8
0
 10
-1.75291
 20
-173.597
 11
-1.61641
 21
-173.491
  0
LINE
  8
0
 10
-1.61641
 20
-173.491
 11
-1.47351
 21
-173.394
  0
LINE
  8
0
 10
-1.47351
 20
-173.394
 11
-1.32481
 21
-173.306
  0
LINE
  8
0
 10
-1.32481
 20
-173.306
 11
-1.17088
 21
-173.228
  0
LINE
  8
0
 10
-1.17088
 20
-173.228
 11
-1.01233
 21
-173.159
  0
LINE
  8
0
 10
-1.01233
 20
-173.159
 11
-0.849792
 21
-173.101
  0
LINE
  8
0
 10
-0.849792
 20
-173.101
 11
-0.683884
 21
-173.052
  0
LINE
  8
0
 10
-0.683884
 20
-173.052
 11
-0.515289
 21
-173.015
  0
LINE
  8
0
 10
-0.515289
 20
-173.015
 11
-0.344666
 21
-172.988
  0
LINE
  8
0
 10
-0.344666
 20
-172.988
 11
-0.172668
 21
-172.971
  0
LINE
  8
0
 10
-0.172668
 20
-172.971
 11
0
 21
-172.966
  0
LINE
  8
0
 10
0
 20
-172.966
 11
0.172668
 21
-172.971
  0
LINE
  8
0
 10
0.172668
 20
-172.971
 11
0.344666
 21
-172.988
  0
LINE
  8
0
 10
0.344666
 20
-172.988
 11
0.515289
 21
-173.015
  0
LINE
  8
0
 10
0.515289
 20
-173.015
 11
0.683884
 21
-173.052
  0
LINE
  8
0
 10
0.683884
 20
-173.052
 11
0.849792
 21
-173.101
  0
LINE
  8
0
 10
0.849792
 20
-173.101
 11
1.01233
 21
-173.159
  0
LINE
  8
0
 10
1.01233
 20
-173.159
 11
1.17088
 21
-173.228
  0
LINE
  8
0
 10
1.17088
 20
-173.228
 11
1.32481
 21
-173.306
  0
LINE
  8
0
 10
1.32481
 20
-173.306
 11
1.47351
 21
-173.394
  0
LINE
  8
0
 10
1.47351
 20
-173.394
 11
1.61641
 21
-173.491
  0
LINE
  8
0
 10
1.61641
 20
-173.491
 11
1.75291
 21
-173.597
  0
LINE
  8
0
 10
1.75291
 20
-173.597
 11
1.88249
 21
-173.711
  0
LINE
  8
0
 10
1.88249
 20
-173.711
 11
2.00465
 21
-173.834
  0
LINE
  8
0
 10
2.00465
 20
-173.834
 11
2.1189
 21
-173.963
  0
LINE
  8
0
 10
2.1189
 20
-173.963
 11
2.22479
 21
-174.1
  0
LINE
  8
0
 10
2.22479
 20
-174.1
 11
2.3219
 21
-174.243
  0
LINE
  8
0
 10
2.3219
 20
-174.243
 11
2.40984
 21
-174.391
  0
LINE
  8
0
 10
2.40984
 20
-174.391
 11
2.48827
 21
-174.545
  0
LINE
  8
0
 10
2.48827
 20
-174.545
 11
2.55688
 21
-174.704
  0
LINE
  8
0
 10
2.55688
 20
-174.704
 11
2.6154
 21
-174.866
  0
LINE
  8
0
 10
2.6154
 20
-174.866
 11
2.66359
 21
-175.032
  0
LINE
  8
0
 10
2.66359
 20
-175.032
 11
2.70128
 21
-175.201
  0
LINE
  8
0
 10
2.70128
 20
-175.201
 11
2.7283
 21
-175.371
  0
LINE
  8
0
 10
2.7283
 20
-175.371
 11
2.74457
 21
-175.543
  0
LINE
  8
0
 10
2.74457
 20
-175.543
 11
2.75
 21
-175.716
  0
LINE
  8
0
 10
2.75
 20
-175.716
 11
2.74457
 21
-175.889
  0
LINE
  8
0
 10
2.74457
 20
-175.889
 11
2.7283
 21
-176.061
  0
LINE
  8
0
 10
2.7283
 20
-176.061
 11
2.70128
 21
-176.231
  0
LINE
  8
0
 10
2.70128
 20
-176.231
 11
2.66359
 21
-176.4
  0
LINE
  8
0
 10
2.66359
 20
-176.4
 11
2.6154
 21
-176.566
  0
LINE
  8
0
 10
2.6154
 20
-176.566
 11
2.55688
 21
-176.728
  0
LINE
  8
0
 10
2.55688
 20
-176.728
 11
2.48827
 21
-176.887
  0
LINE
  8
0
 10
2.48827
 20
-176.887
 11
2.40984
 21
-177.041
  0
LINE
  8
0
 10
2.40984
 20
-177.041
 11
2.3219
 21
-177.19
  0
LINE
  8
0
 10
2.3219
 20
-177.19
 11
2.22479
 21
-177.332
  0
LINE
  8
0
 10
2.22479
 20
-177.332
 11
2.1189
 21
-177.469
  0
LINE
  8
0
 10
2.1189
 20
-177.469
 11
2.00465
 21
-177.599
  0
LINE
  8
0
 10
2.00465
 20
-177.599
 11
1.88249
 21
-177.721
  0
LINE
  8
0
 10
1.88249
 20
-177.721
 11
1.75291
 21
-177.835
  0
LINE
  8
0
 10
1.75291
 20
-177.835
 11
1.61641
 21
-177.941
  0
LINE
  8
0
 10
1.61641
 20
-177.941
 11
1.47351
 21
-178.038
  0
LINE
  8
0
 10
1.47351
 20
-178.038
 11
1.32481
 21
-178.126
  0
LINE
  8
0
 10
1.32481
 20
-178.126
 11
1.17088
 21
-178.204
  0
LINE
  8
0
 10
1.17088
 20
-178.204
 11
1.01233
 21
-178.273
  0
LINE
  8
0
 10
1.01233
 20
-178.273
 11
0.849792
 21
-178.331
  0
LINE
  8
0
 10
0.849792
 20
-178.331
 11
0.683884
 21
-178.38
  0
LINE
  8
0
 10
0.683884
 20
-178.38
 11
0.515289
 21
-178.417
  0
LINE
  8
0
 10
0.515289
 20
-178.417
 11
0.344666
 21
-178.444
  0
LINE
  8
0
 10
0.344666
 20
-178.444
 11
0.172668
 21
-178.461
  0
LINE
  8
0
 10
0.172668
 20
-178.461
 11
0
 21
-178.466
  0
LINE
  8
0
 10
0
 20
-178.466
 11
-0.172668
 21
-178.461
  0
LINE
  8
0
 10
-149.716
 20
-175.716
 11
-149.716
 21
-174.416
  0
LINE
  8
0
 10
-149.716
 20
-174.416
 11
-109.716
 21
-174.416
  0
LINE
  8
0
 10
-109.716
 20
-174.416
 11
-109.716
 21
-175.716
  0
LINE
  8
0
 10
-109.716
 20
-175.716
 11
-149.716
 21
-175.716
  0
LINE
  8
0
 10
6.28395
 20
-175.716
 11
6.28395
 21
-174.416
  0
LINE
  8
0
 10
6.28395
 20
-174.416
 11
46.284
 21
-174.416
  0
LINE
  8
0
 10
46.284
 20
-174.416
 11
46.284
 21
-175.716
  0
LINE
  8
0
 10
46.284
 20
-175.716
 11
6.28395
 21
-175.716
  0
LINE
  8
0
 10
58.284
 20
-175.716
 11
58.284
 21
-174.416
  0
LINE
  8
0
 10
58.284
 20
-174.416
 11
98.284
 21
-174.416
  0
LINE
  8
0
 10
98.284
 20
-174.416
 11
98.284
 21
-175.716
  0
LINE
  8
0
 10
98.284
 20
-175.716
 11
58.284
 21
-175.716
  0
LINE
  8
0
 10
110.284
 20
-175.716
 11
110.284
 21
-174.416
  0
LINE
  8
0
 10
110.284
 20
-174.416
 11
150.284
 21
-174.416
  0
LINE
  8
0
 10
150.284
 20
-174.416
 11
150.284
 21
-175.716
  0
LINE
  8
0
 10
150.284
 20
-175.716
 11
110.284
 21
-175.716
  0
LINE
  8
0
 10
-97.716
 20
-175.716
 11
-97.716
 21
-174.416
  0
LINE
  8
0
 10
-97.716
 20
-174.416
 11
-57.716
 21
-174.416
  0
LINE
  8
0
 10
-57.716
 20
-174.416
 11
-57.716
 21
-175.716
  0
LINE
  8
0
 10
-57.716
 20
-175.716
 11
-97.716
 21
-175.716
  0
LINE
  8
0
 10
-45.716
 20
-175.716
 11
-45.716
 21
-174.416
  0
LINE
  8
0
 10
-45.716
 20
-174.416
 11
-5.71603
 21
-174.416
  0
LINE
  8
0
 10
-5.71603
 20
-174.416
 11
-5.71603
 21
-175.716
  0
LINE
  8
0
 10
-5.71603
 20
-175.716
 11
-45.716
 21
-175.716
  0
LINE
  8
0
 10
46.284
 20
90.784
 11
46.284
 21
89.484
  0
LINE
  8
0
 10
46.284
 20
89.484
 11
6.28395
 21
89.484
  0
LINE
  8
0
 10
6.28395
 20
89.484
 11
6.28395
 21
90.784
  0
LINE
  8
0
 10
6.28395
 20
90.784
 11
46.284
 21
90.784
  0
LINE
  8
0
 10
-5.71603
 20
43.984
 11
-5.71603
 21
42.684
  0
LINE
  8
0
 10
-5.71603
 20
42.684
 11
-45.716
 21
42.684
  0
LINE
  8
0
 10
-45.716
 20
42.684
 11
-45.716
 21
43.984
  0
LINE
  8
0
 10
-45.716
 20
43.984
 11
-5.71603
 21
43.984
  0
LINE
  8
0
 10
46.284
 20
-80.816
 11
46.284
 21
-82.116
  0
LINE
  8
0
 10
46.284
 20
-82.116
 11
6.28395
 21
-82.116
  0
LINE
  8
0
 10
6.28395
 20
-82.116
 11
6.28395
 21
-80.816
  0
LINE
  8
0
 10
6.28395
 20
-80.816
 11
46.284
 21
-80.816
  0
ENDSEC
  0
SECTION
  2
OBJECTS
  0
DICTIONARY
  0
ENDSEC
  0
EOF
