  0
SECTION
  2
BLOCKS
  0
ENDSEC
  0
SECTION
  2
ENTITIES
  0
LINE
  8
0
 10
10.8314
 20
-172.16
 11
21.62
 21
-171.14
  0
LINE
  8
0
 10
21.62
 20
-171.14
 11
32.3233
 21
-169.445
  0
LINE
  8
0
 10
32.3233
 20
-169.445
 11
42.899
 21
-167.081
  0
LINE
  8
0
 10
42.899
 20
-167.081
 11
53.3054
 21
-164.057
  0
LINE
  8
0
 10
53.3054
 20
-164.057
 11
63.5015
 21
-160.386
  0
LINE
  8
0
 10
63.5015
 20
-160.386
 11
73.4469
 21
-156.083
  0
LINE
  8
0
 10
73.4469
 20
-156.083
 11
83.1025
 21
-151.163
  0
LINE
  8
0
 10
83.1025
 20
-151.163
 11
92.4301
 21
-145.647
  0
LINE
  8
0
 10
92.4301
 20
-145.647
 11
101.393
 21
-139.555
  0
LINE
  8
0
 10
101.393
 20
-139.555
 11
109.956
 21
-132.914
  0
LINE
  8
0
 10
109.956
 20
-132.914
 11
118.084
 21
-125.747
  0
LINE
  8
0
 10
118.084
 20
-125.747
 11
125.747
 21
-118.084
  0
LINE
  8
0
 10
125.747
 20
-118.084
 11
132.914
 21
-109.956
  0
LINE
  8
0
 10
132.914
 20
-109.956
 11
139.555
 21
-101.393
  0
LINE
  8
0
 10
139.555
 20
-101.393
 11
145.647
 21
-92.4301
  0
LINE
  8
0
 10
145.647
 20
-92.4301
 11
151.163
 21
-83.1025
  0
LINE
  8
0
 10
151.163
 20
-83.1025
 11
156.083
 21
-73.4469
  0
LINE
  8
0
 10
156.083
 20
-73.4469
 11
160.386
 21
-63.5015
  0
LINE
  8
0
 10
160.386
 20
-63.5015
 11
164.057
 21
-53.3054
  0
LINE
  8
0
 10
164.057
 20
-53.3054
 11
167.081
 21
-42.899
  0
LINE
  8
0
 10
167.081
 20
-42.899
 11
169.445
 21
-32.3233
  0
LINE
  8
0
 10
169.445
 20
-32.3233
 11
171.14
 21
-21.62
  0
LINE
  8
0
 10
171.14
 20
-21.62
 11
172.16
 21
-10.8314
  0
LINE
  8
0
 10
172.16
 20
-10.8314
 11
172.5
 21
0
  0
LINE
  8
0
 10
172.5
 20
0
 11
172.16
 21
10.8314
  0
LINE
  8
0
 10
172.16
 20
10.8314
 11
171.14
 21
21.62
  0
LINE
  8
0
 10
171.14
 20
21.62
 11
169.445
 21
32.3233
  0
LINE
  8
0
 10
169.445
 20
32.3233
 11
167.081
 21
42.899
  0
LINE
  8
0
 10
167.081
 20
42.899
 11
164.057
 21
53.3054
  0
LINE
  8
0
 10
164.057
 20
53.3054
 11
160.386
 21
63.5015
  0
LINE
  8
0
 10
160.386
 20
63.5015
 11
156.083
 21
73.4469
  0
LINE
  8
0
 10
156.083
 20
73.4469
 11
151.163
 21
83.1025
  0
LINE
  8
0
 10
151.163
 20
83.1025
 11
145.647
 21
92.4301
  0
LINE
  8
0
 10
145.647
 20
92.4301
 11
139.555
 21
101.393
  0
LINE
  8
0
 10
139.555
 20
101.393
 11
132.914
 21
109.956
  0
LINE
  8
0
 10
132.914
 20
109.956
 11
125.747
 21
118.084
  0
LINE
  8
0
 10
125.747
 20
118.084
 11
118.084
 21
125.747
  0
LINE
  8
0
 10
118.084
 20
125.747
 11
109.956
 21
132.914
  0
LINE
  8
0
 10
109.956
 20
132.914
 11
101.393
 21
139.555
  0
LINE
  8
0
 10
101.393
 20
139.555
 11
92.4301
 21
145.647
  0
LINE
  8
0
 10
92.4301
 20
145.647
 11
83.1025
 21
151.163
  0
LINE
  8
0
 10
83.1025
 20
151.163
 11
73.4469
 21
156.083
  0
LINE
  8
0
 10
73.4469
 20
156.083
 11
63.5015
 21
160.386
  0
LINE
  8
0
 10
63.5015
 20
160.386
 11
53.3054
 21
164.057
  0
LINE
  8
0
 10
53.3054
 20
164.057
 11
42.899
 21
167.081
  0
LINE
  8
0
 10
42.899
 20
167.081
 11
32.3233
 21
169.445
  0
LINE
  8
0
 10
32.3233
 20
169.445
 11
21.62
 21
171.14
  0
LINE
  8
0
 10
21.62
 20
171.14
 11
10.8314
 21
172.16
  0
LINE
  8
0
 10
10.8314
 20
172.16
 11
0
 21
172.5
  0
LINE
  8
0
 10
0
 20
172.5
 11
-10.8314
 21
172.16
  0
LINE
  8
0
 10
-10.8314
 20
172.16
 11
-21.62
 21
171.14
  0
LINE
  8
0
 10
-21.62
 20
171.14
 11
-32.3233
 21
169.445
  0
LINE
  8
0
 10
-32.3233
 20
169.445
 11
-42.899
 21
167.081
  0
LINE
  8
0
 10
-42.899
 20
167.081
 11
-53.3054
 21
164.057
  0
LINE
  8
0
 10
-53.3054
 20
164.057
 11
-63.5015
 21
160.386
  0
LINE
  8
0
 10
-63.5015
 20
160.386
 11
-73.4469
 21
156.083
  0
LINE
  8
0
 10
-73.4469
 20
156.083
 11
-83.1025
 21
151.163
  0
LINE
  8
0
 10
-83.1025
 20
151.163
 11
-92.4301
 21
145.647
  0
LINE
  8
0
 10
-92.4301
 20
145.647
 11
-101.393
 21
139.555
  0
LINE
  8
0
 10
-101.393
 20
139.555
 11
-109.956
 21
132.914
  0
LINE
  8
0
 10
-109.956
 20
132.914
 11
-118.084
 21
125.747
  0
LINE
  8
0
 10
-118.084
 20
125.747
 11
-125.747
 21
118.084
  0
LINE
  8
0
 10
-125.747
 20
118.084
 11
-132.914
 21
109.956
  0
LINE
  8
0
 10
-132.914
 20
109.956
 11
-139.555
 21
101.393
  0
LINE
  8
0
 10
-139.555
 20
101.393
 11
-145.647
 21
92.4301
  0
LINE
  8
0
 10
-145.647
 20
92.4301
 11
-151.163
 21
83.1025
  0
LINE
  8
0
 10
-151.163
 20
83.1025
 11
-156.083
 21
73.4469
  0
LINE
  8
0
 10
-156.083
 20
73.4469
 11
-160.386
 21
63.5015
  0
LINE
  8
0
 10
-160.386
 20
63.5015
 11
-164.057
 21
53.3054
  0
LINE
  8
0
 10
-164.057
 20
53.3054
 11
-167.081
 21
42.899
  0
LINE
  8
0
 10
-167.081
 20
42.899
 11
-169.445
 21
32.3233
  0
LINE
  8
0
 10
-169.445
 20
32.3233
 11
-171.14
 21
21.62
  0
LINE
  8
0
 10
-171.14
 20
21.62
 11
-172.16
 21
10.8314
  0
LINE
  8
0
 10
-172.16
 20
10.8314
 11
-172.5
 21
0
  0
LINE
  8
0
 10
-172.5
 20
0
 11
-172.16
 21
-10.8314
  0
LINE
  8
0
 10
-172.16
 20
-10.8314
 11
-171.14
 21
-21.62
  0
LINE
  8
0
 10
-171.14
 20
-21.62
 11
-169.445
 21
-32.3233
  0
LINE
  8
0
 10
-169.445
 20
-32.3233
 11
-167.081
 21
-42.899
  0
LINE
  8
0
 10
-167.081
 20
-42.899
 11
-164.057
 21
-53.3054
  0
LINE
  8
0
 10
-164.057
 20
-53.3054
 11
-160.386
 21
-63.5015
  0
LINE
  8
0
 10
-160.386
 20
-63.5015
 11
-156.083
 21
-73.4469
  0
LINE
  8
0
 10
-156.083
 20
-73.4469
 11
-151.163
 21
-83.1025
  0
LINE
  8
0
 10
-151.163
 20
-83.1025
 11
-145.647
 21
-92.4301
  0
LINE
  8
0
 10
-145.647
 20
-92.4301
 11
-139.555
 21
-101.393
  0
LINE
  8
0
 10
-139.555
 20
-101.393
 11
-132.914
 21
-109.956
  0
LINE
  8
0
 10
-132.914
 20
-109.956
 11
-125.747
 21
-118.084
  0
LINE
  8
0
 10
-125.747
 20
-118.084
 11
-118.084
 21
-125.747
  0
LINE
  8
0
 10
-118.084
 20
-125.747
 11
-109.956
 21
-132.914
  0
LINE
  8
0
 10
-109.956
 20
-132.914
 11
-101.393
 21
-139.555
  0
LINE
  8
0
 10
-101.393
 20
-139.555
 11
-92.4301
 21
-145.647
  0
LINE
  8
0
 10
-92.4301
 20
-145.647
 11
-83.1025
 21
-151.163
  0
LINE
  8
0
 10
-83.1025
 20
-151.163
 11
-73.4469
 21
-156.083
  0
LINE
  8
0
 10
-73.4469
 20
-156.083
 11
-63.5015
 21
-160.386
  0
LINE
  8
0
 10
-63.5015
 20
-160.386
 11
-53.3054
 21
-164.057
  0
LINE
  8
0
 10
-53.3054
 20
-164.057
 11
-42.899
 21
-167.081
  0
LINE
  8
0
 10
-42.899
 20
-167.081
 11
-32.3233
 21
-169.445
  0
LINE
  8
0
 10
-32.3233
 20
-169.445
 11
-21.62
 21
-171.14
  0
LINE
  8
0
 10
-21.62
 20
-171.14
 11
-10.8314
 21
-172.16
  0
LINE
  8
0
 10
-10.8314
 20
-172.16
 11
0
 21
-172.5
  0
LINE
  8
0
 10
0
 20
-172.5
 11
10.8314
 21
-172.16
  0
LINE
  8
0
 10
-0.172668
 20
119.231
 11
-0.344666
 21
119.248
  0
LINE
  8
0
 10
-0.344666
 20
119.248
 11
-0.515289
 21
119.275
  0
LINE
  8
0
 10
-0.515289
 20
119.275
 11
-0.683884
 21
119.312
  0
LINE
  8
0
 10
-0.683884
 20
119.312
 11
-0.849792
 21
119.361
  0
LINE
  8
0
 10
-0.849792
 20
119.361
 11
-1.01233
 21
119.419
  0
LINE
  8
0
 10
-1.01233
 20
119.419
 11
-1.17088
 21
119.488
  0
LINE
  8
0
 10
-1.17088
 20
119.488
 11
-1.32481
 21
119.566
  0
LINE
  8
0
 10
-1.32481
 20
119.566
 11
-1.47351
 21
119.654
  0
LINE
  8
0
 10
-1.47351
 20
119.654
 11
-1.61641
 21
119.751
  0
LINE
  8
0
 10
-1.61641
 20
119.751
 11
-1.75291
 21
119.857
  0
LINE
  8
0
 10
-1.75291
 20
119.857
 11
-1.88249
 21
119.971
  0
LINE
  8
0
 10
-1.88249
 20
119.971
 11
-2.00465
 21
120.093
  0
LINE
  8
0
 10
-2.00465
 20
120.093
 11
-2.1189
 21
120.223
  0
LINE
  8
0
 10
-2.1189
 20
120.223
 11
-2.22479
 21
120.36
  0
LINE
  8
0
 10
-2.22479
 20
120.36
 11
-2.3219
 21
120.502
  0
LINE
  8
0
 10
-2.3219
 20
120.502
 11
-2.40984
 21
120.651
  0
LINE
  8
0
 10
-2.40984
 20
120.651
 11
-2.48827
 21
120.805
  0
LINE
  8
0
 10
-2.48827
 20
120.805
 11
-2.55688
 21
120.964
  0
LINE
  8
0
 10
-2.55688
 20
120.964
 11
-2.6154
 21
121.126
  0
LINE
  8
0
 10
-2.6154
 20
121.126
 11
-2.66359
 21
121.292
  0
LINE
  8
0
 10
-2.66359
 20
121.292
 11
-2.70128
 21
121.461
  0
LINE
  8
0
 10
-2.70128
 20
121.461
 11
-2.7283
 21
121.631
  0
LINE
  8
0
 10
-2.7283
 20
121.631
 11
-2.74457
 21
121.803
  0
LINE
  8
0
 10
-2.74457
 20
121.803
 11
-2.75
 21
121.976
  0
LINE
  8
0
 10
-2.75
 20
121.976
 11
-2.74457
 21
122.149
  0
LINE
  8
0
 10
-2.74457
 20
122.149
 11
-2.7283
 21
122.321
  0
LINE
  8
0
 10
-2.7283
 20
122.321
 11
-2.70128
 21
122.491
  0
LINE
  8
0
 10
-2.70128
 20
122.491
 11
-2.66359
 21
122.66
  0
LINE
  8
0
 10
-2.66359
 20
122.66
 11
-2.6154
 21
122.826
  0
LINE
  8
0
 10
-2.6154
 20
122.826
 11
-2.55688
 21
122.988
  0
LINE
  8
0
 10
-2.55688
 20
122.988
 11
-2.48827
 21
123.147
  0
LINE
  8
0
 10
-2.48827
 20
123.147
 11
-2.40984
 21
123.301
  0
LINE
  8
0
 10
-2.40984
 20
123.301
 11
-2.3219
 21
123.449
  0
LINE
  8
0
 10
-2.3219
 20
123.449
 11
-2.22479
 21
123.592
  0
LINE
  8
0
 10
-2.22479
 20
123.592
 11
-2.1189
 21
123.729
  0
LINE
  8
0
 10
-2.1189
 20
123.729
 11
-2.00465
 21
123.858
  0
LINE
  8
0
 10
-2.00465
 20
123.858
 11
-1.88249
 21
123.981
  0
LINE
  8
0
 10
-1.88249
 20
123.981
 11
-1.75291
 21
124.095
  0
LINE
  8
0
 10
-1.75291
 20
124.095
 11
-1.61641
 21
124.201
  0
LINE
  8
0
 10
-1.61641
 20
124.201
 11
-1.47351
 21
124.298
  0
LINE
  8
0
 10
-1.47351
 20
124.298
 11
-1.32481
 21
124.386
  0
LINE
  8
0
 10
-1.32481
 20
124.386
 11
-1.17088
 21
124.464
  0
LINE
  8
0
 10
-1.17088
 20
124.464
 11
-1.01233
 21
124.533
  0
LINE
  8
0
 10
-1.01233
 20
124.533
 11
-0.849792
 21
124.591
  0
LINE
  8
0
 10
-0.849792
 20
124.591
 11
-0.683884
 21
124.64
  0
LINE
  8
0
 10
-0.683884
 20
124.64
 11
-0.515289
 21
124.677
  0
LINE
  8
0
 10
-0.515289
 20
124.677
 11
-0.344666
 21
124.704
  0
LINE
  8
0
 10
-0.344666
 20
124.704
 11
-0.172668
 21
124.72
  0
LINE
  8
0
 10
-0.172668
 20
124.72
 11
0
 21
124.726
  0
LINE
  8
0
 10
0
 20
124.726
 11
0.172668
 21
124.72
  0
LINE
  8
0
 10
0.172668
 20
124.72
 11
0.344666
 21
124.704
  0
LINE
  8
0
 10
0.344666
 20
124.704
 11
0.515289
 21
124.677
  0
LINE
  8
0
 10
0.515289
 20
124.677
 11
0.683884
 21
124.64
  0
LINE
  8
0
 10
0.683884
 20
124.64
 11
0.849792
 21
124.591
  0
LINE
  8
0
 10
0.849792
 20
124.591
 11
1.01233
 21
124.533
  0
LINE
  8
0
 10
1.01233
 20
124.533
 11
1.17088
 21
124.464
  0
LINE
  8
0
 10
1.17088
 20
124.464
 11
1.32481
 21
124.386
  0
LINE
  8
0
 10
1.32481
 20
124.386
 11
1.47351
 21
124.298
  0
LINE
  8
0
 10
1.47351
 20
124.298
 11
1.61641
 21
124.201
  0
LINE
  8
0
 10
1.61641
 20
124.201
 11
1.75291
 21
124.095
  0
LINE
  8
0
 10
1.75291
 20
124.095
 11
1.88249
 21
123.981
  0
LINE
  8
0
 10
1.88249
 20
123.981
 11
2.00465
 21
123.858
  0
LINE
  8
0
 10
2.00465
 20
123.858
 11
2.1189
 21
123.729
  0
LINE
  8
0
 10
2.1189
 20
123.729
 11
2.22479
 21
123.592
  0
LINE
  8
0
 10
2.22479
 20
123.592
 11
2.3219
 21
123.449
  0
LINE
  8
0
 10
2.3219
 20
123.449
 11
2.40984
 21
123.301
  0
LINE
  8
0
 10
2.40984
 20
123.301
 11
2.48827
 21
123.147
  0
LINE
  8
0
 10
2.48827
 20
123.147
 11
2.55688
 21
122.988
  0
LINE
  8
0
 10
2.55688
 20
122.988
 11
2.6154
 21
122.826
  0
LINE
  8
0
 10
2.6154
 20
122.826
 11
2.66359
 21
122.66
  0
LINE
  8
0
 10
2.66359
 20
122.66
 11
2.70128
 21
122.491
  0
LINE
  8
0
 10
2.70128
 20
122.491
 11
2.7283
 21
122.321
  0
LINE
  8
0
 10
2.7283
 20
122.321
 11
2.74457
 21
122.149
  0
LINE
  8
0
 10
2.74457
 20
122.149
 11
2.75
 21
121.976
  0
LINE
  8
0
 10
2.75
 20
121.976
 11
2.74457
 21
121.803
  0
LINE
  8
0
 10
2.74457
 20
121.803
 11
2.7283
 21
121.631
  0
LINE
  8
0
 10
2.7283
 20
121.631
 11
2.70128
 21
121.461
  0
LINE
  8
0
 10
2.70128
 20
121.461
 11
2.66359
 21
121.292
  0
LINE
  8
0
 10
2.66359
 20
121.292
 11
2.6154
 21
121.126
  0
LINE
  8
0
 10
2.6154
 20
121.126
 11
2.55688
 21
120.964
  0
LINE
  8
0
 10
2.55688
 20
120.964
 11
2.48827
 21
120.805
  0
LINE
  8
0
 10
2.48827
 20
120.805
 11
2.40984
 21
120.651
  0
LINE
  8
0
 10
2.40984
 20
120.651
 11
2.3219
 21
120.502
  0
LINE
  8
0
 10
2.3219
 20
120.502
 11
2.22479
 21
120.36
  0
LINE
  8
0
 10
2.22479
 20
120.36
 11
2.1189
 21
120.223
  0
LINE
  8
0
 10
2.1189
 20
120.223
 11
2.00465
 21
120.093
  0
LINE
  8
0
 10
2.00465
 20
120.093
 11
1.88249
 21
119.971
  0
LINE
  8
0
 10
1.88249
 20
119.971
 11
1.75291
 21
119.857
  0
LINE
  8
0
 10
1.75291
 20
119.857
 11
1.61641
 21
119.751
  0
LINE
  8
0
 10
1.61641
 20
119.751
 11
1.47351
 21
119.654
  0
LINE
  8
0
 10
1.47351
 20
119.654
 11
1.32481
 21
119.566
  0
LINE
  8
0
 10
1.32481
 20
119.566
 11
1.17088
 21
119.488
  0
LINE
  8
0
 10
1.17088
 20
119.488
 11
1.01233
 21
119.419
  0
LINE
  8
0
 10
1.01233
 20
119.419
 11
0.849792
 21
119.361
  0
LINE
  8
0
 10
0.849792
 20
119.361
 11
0.683884
 21
119.312
  0
LINE
  8
0
 10
0.683884
 20
119.312
 11
0.515289
 21
119.275
  0
LINE
  8
0
 10
0.515289
 20
119.275
 11
0.344666
 21
119.248
  0
LINE
  8
0
 10
0.344666
 20
119.248
 11
0.172668
 21
119.231
  0
LINE
  8
0
 10
0.172668
 20
119.231
 11
0
 21
119.226
  0
LINE
  8
0
 10
0
 20
119.226
 11
-0.172668
 21
119.231
  0
LINE
  8
0
 10
-95.9759
 20
112.024
 11
-95.9759
 21
113.324
  0
LINE
  8
0
 10
-95.9759
 20
113.324
 11
-55.9759
 21
113.324
  0
LINE
  8
0
 10
-55.9759
 20
113.324
 11
-55.9759
 21
112.024
  0
LINE
  8
0
 10
-55.9759
 20
112.024
 11
-95.9759
 21
112.024
  0
LINE
  8
0
 10
-43.9759
 20
112.024
 11
-43.9759
 21
113.324
  0
LINE
  8
0
 10
-43.9759
 20
113.324
 11
-3.97591
 21
113.324
  0
LINE
  8
0
 10
-3.97591
 20
113.324
 11
-3.97591
 21
112.024
  0
LINE
  8
0
 10
-3.97591
 20
112.024
 11
-43.9759
 21
112.024
  0
LINE
  8
0
 10
8.02408
 20
112.024
 11
8.02408
 21
113.324
  0
LINE
  8
0
 10
8.02408
 20
113.324
 11
48.0241
 21
113.324
  0
LINE
  8
0
 10
48.0241
 20
113.324
 11
48.0241
 21
112.024
  0
LINE
  8
0
 10
48.0241
 20
112.024
 11
8.02408
 21
112.024
  0
LINE
  8
0
 10
60.0241
 20
112.024
 11
60.0241
 21
113.324
  0
LINE
  8
0
 10
60.0241
 20
113.324
 11
100.024
 21
113.324
  0
LINE
  8
0
 10
100.024
 20
113.324
 11
100.024
 21
112.024
  0
LINE
  8
0
 10
100.024
 20
112.024
 11
60.0241
 21
112.024
  0
LINE
  8
0
 10
-43.9759
 20
106.824
 11
-43.9759
 21
108.124
  0
LINE
  8
0
 10
-43.9759
 20
108.124
 11
-3.97591
 21
108.124
  0
LINE
  8
0
 10
-3.97591
 20
108.124
 11
-3.97591
 21
106.824
  0
LINE
  8
0
 10
-3.97591
 20
106.824
 11
-43.9759
 21
106.824
  0
LINE
  8
0
 10
-95.9759
 20
106.824
 11
-95.9759
 21
108.124
  0
LINE
  8
0
 10
-95.9759
 20
108.124
 11
-55.9759
 21
108.124
  0
LINE
  8
0
 10
-55.9759
 20
108.124
 11
-55.9759
 21
106.824
  0
LINE
  8
0
 10
-55.9759
 20
106.824
 11
-95.9759
 21
106.824
  0
LINE
  8
0
 10
8.02408
 20
106.824
 11
8.02408
 21
108.124
  0
LINE
  8
0
 10
8.02408
 20
108.124
 11
48.0241
 21
108.124
  0
LINE
  8
0
 10
48.0241
 20
108.124
 11
48.0241
 21
106.824
  0
LINE
  8
0
 10
48.0241
 20
106.824
 11
8.02408
 21
106.824
  0
LINE
  8
0
 10
60.0241
 20
106.824
 11
60.0241
 21
108.124
  0
LINE
  8
0
 10
60.0241
 20
108.124
 11
100.024
 21
108.124
  0
LINE
  8
0
 10
100.024
 20
108.124
 11
100.024
 21
106.824
  0
LINE
  8
0
 10
100.024
 20
106.824
 11
60.0241
 21
106.824
  0
LINE
  8
0
 10
60.0241
 20
101.624
 11
60.0241
 21
102.924
  0
LINE
  8
0
 10
60.0241
 20
102.924
 11
100.024
 21
102.924
  0
LINE
  8
0
 10
100.024
 20
102.924
 11
100.024
 21
101.624
  0
LINE
  8
0
 10
100.024
 20
101.624
 11
60.0241
 21
101.624
  0
LINE
  8
0
 10
8.02408
 20
101.624
 11
8.02408
 21
102.924
  0
LINE
  8
0
 10
8.02408
 20
102.924
 11
48.0241
 21
102.924
  0
LINE
  8
0
 10
48.0241
 20
102.924
 11
48.0241
 21
101.624
  0
LINE
  8
0
 10
48.0241
 20
101.624
 11
8.02408
 21
101.624
  0
LINE
  8
0
 10
-95.9759
 20
101.624
 11
-95.9759
 21
102.924
  0
LINE
  8
0
 10
-95.9759
 20
102.924
 11
-55.9759
 21
102.924
  0
LINE
  8
0
 10
-55.9759
 20
102.924
 11
-55.9759
 21
101.624
  0
LINE
  8
0
 10
-55.9759
 20
101.624
 11
-95.9759
 21
101.624
  0
LINE
  8
0
 10
-43.9759
 20
101.624
 11
-43.9759
 21
102.924
  0
LINE
  8
0
 10
-43.9759
 20
102.924
 11
-3.97591
 21
102.924
  0
LINE
  8
0
 10
-3.97591
 20
102.924
 11
-3.97591
 21
101.624
  0
LINE
  8
0
 10
-3.97591
 20
101.624
 11
-43.9759
 21
101.624
  0
LINE
  8
0
 10
-43.9759
 20
96.4241
 11
-43.9759
 21
97.7241
  0
LINE
  8
0
 10
-43.9759
 20
97.7241
 11
-3.97591
 21
97.7241
  0
LINE
  8
0
 10
-3.97591
 20
97.7241
 11
-3.97591
 21
96.4241
  0
LINE
  8
0
 10
-3.97591
 20
96.4241
 11
-43.9759
 21
96.4241
  0
LINE
  8
0
 10
-95.9759
 20
96.4241
 11
-95.9759
 21
97.7241
  0
LINE
  8
0
 10
-95.9759
 20
97.7241
 11
-55.9759
 21
97.7241
  0
LINE
  8
0
 10
-55.9759
 20
97.7241
 11
-55.9759
 21
96.4241
  0
LINE
  8
0
 10
-55.9759
 20
96.4241
 11
-95.9759
 21
96.4241
  0
LINE
  8
0
 10
8.02408
 20
96.4241
 11
8.02408
 21
97.7241
  0
LINE
  8
0
 10
8.02408
 20
97.7241
 11
48.0241
 21
97.7241
  0
LINE
  8
0
 10
48.0241
 20
97.7241
 11
48.0241
 21
96.4241
  0
LINE
  8
0
 10
48.0241
 20
96.4241
 11
8.02408
 21
96.4241
  0
LINE
  8
0
 10
60.0241
 20
96.4241
 11
60.0241
 21
97.7241
  0
LINE
  8
0
 10
60.0241
 20
97.7241
 11
100.024
 21
97.7241
  0
LINE
  8
0
 10
100.024
 20
97.7241
 11
100.024
 21
96.4241
  0
LINE
  8
0
 10
100.024
 20
96.4241
 11
60.0241
 21
96.4241
  0
LINE
  8
0
 10
-95.9759
 20
91.2241
 11
-95.9759
 21
92.5241
  0
LINE
  8
0
 10
-95.9759
 20
92.5241
 11
-55.9759
 21
92.5241
  0
LINE
  8
0
 10
-55.9759
 20
92.5241
 11
-55.9759
 21
91.2241
  0
LINE
  8
0
 10
-55.9759
 20
91.2241
 11
-95.9759
 21
91.2241
  0
LINE
  8
0
 10
-43.9759
 20
91.2241
 11
-43.9759
 21
92.5241
  0
LINE
  8
0
 10
-43.9759
 20
92.5241
 11
-3.97591
 21
92.5241
  0
LINE
  8
0
 10
-3.97591
 20
92.5241
 11
-3.97591
 21
91.2241
  0
LINE
  8
0
 10
-3.97591
 20
91.2241
 11
-43.9759
 21
91.2241
  0
LINE
  8
0
 10
8.02408
 20
91.2241
 11
8.02408
 21
92.5241
  0
LINE
  8
0
 10
8.02408
 20
92.5241
 11
48.0241
 21
92.5241
  0
LINE
  8
0
 10
48.0241
 20
92.5241
 11
48.0241
 21
91.2241
  0
LINE
  8
0
 10
48.0241
 20
91.2241
 11
8.02408
 21
91.2241
  0
LINE
  8
0
 10
60.0241
 20
91.2241
 11
60.0241
 21
92.5241
  0
LINE
  8
0
 10
60.0241
 20
92.5241
 11
100.024
 21
92.5241
  0
LINE
  8
0
 10
100.024
 20
92.5241
 11
100.024
 21
91.2241
  0
LINE
  8
0
 10
100.024
 20
91.2241
 11
60.0241
 21
91.2241
  0
LINE
  8
0
 10
-95.9759
 20
86.0241
 11
-95.9759
 21
87.3241
  0
LINE
  8
0
 10
-95.9759
 20
87.3241
 11
-55.9759
 21
87.3241
  0
LINE
  8
0
 10
-55.9759
 20
87.3241
 11
-55.9759
 21
86.0241
  0
LINE
  8
0
 10
-55.9759
 20
86.0241
 11
-95.9759
 21
86.0241
  0
LINE
  8
0
 10
-43.9759
 20
86.0241
 11
-43.9759
 21
87.3241
  0
LINE
  8
0
 10
-43.9759
 20
87.3241
 11
-3.97591
 21
87.3241
  0
LINE
  8
0
 10
-3.97591
 20
87.3241
 11
-3.97591
 21
86.0241
  0
LINE
  8
0
 10
-3.97591
 20
86.0241
 11
-43.9759
 21
86.0241
  0
LINE
  8
0
 10
8.02408
 20
86.0241
 11
8.02408
 21
87.3241
  0
LINE
  8
0
 10
8.02408
 20
87.3241
 11
48.0241
 21
87.3241
  0
LINE
  8
0
 10
48.0241
 20
87.3241
 11
48.0241
 21
86.0241
  0
LINE
  8
0
 10
48.0241
 20
86.0241
 11
8.02408
 21
86.0241
  0
LINE
  8
0
 10
60.0241
 20
86.0241
 11
60.0241
 21
87.3241
  0
LINE
  8
0
 10
60.0241
 20
87.3241
 11
100.024
 21
87.3241
  0
LINE
  8
0
 10
100.024
 20
87.3241
 11
100.024
 21
86.0241
  0
LINE
  8
0
 10
100.024
 20
86.0241
 11
60.0241
 21
86.0241
  0
LINE
  8
0
 10
8.02408
 20
80.8241
 11
8.02408
 21
82.1241
  0
LINE
  8
0
 10
8.02408
 20
82.1241
 11
48.0241
 21
82.1241
  0
LINE
  8
0
 10
48.0241
 20
82.1241
 11
48.0241
 21
80.8241
  0
LINE
  8
0
 10
48.0241
 20
80.8241
 11
8.02408
 21
80.8241
  0
LINE
  8
0
 10
-95.9759
 20
80.8241
 11
-95.9759
 21
82.1241
  0
LINE
  8
0
 10
-95.9759
 20
82.1241
 11
-55.9759
 21
82.1241
  0
LINE
  8
0
 10
-55.9759
 20
82.1241
 11
-55.9759
 21
80.8241
  0
LINE
  8
0
 10
-55.9759
 20
80.8241
 11
-95.9759
 21
80.8241
  0
LINE
  8
0
 10
-43.9759
 20
80.8241
 11
-43.9759
 21
82.1241
  0
LINE
  8
0
 10
-43.9759
 20
82.1241
 11
-3.97591
 21
82.1241
  0
LINE
  8
0
 10
-3.97591
 20
82.1241
 11
-3.97591
 21
80.8241
  0
LINE
  8
0
 10
-3.97591
 20
80.8241
 11
-43.9759
 21
80.8241
  0
LINE
  8
0
 10
60.0241
 20
80.8241
 11
60.0241
 21
82.1241
  0
LINE
  8
0
 10
60.0241
 20
82.1241
 11
100.024
 21
82.1241
  0
LINE
  8
0
 10
100.024
 20
82.1241
 11
100.024
 21
80.8241
  0
LINE
  8
0
 10
100.024
 20
80.8241
 11
60.0241
 21
80.8241
  0
LINE
  8
0
 10
-95.9759
 20
75.6241
 11
-95.9759
 21
76.9241
  0
LINE
  8
0
 10
-95.9759
 20
76.9241
 11
-55.9759
 21
76.9241
  0
LINE
  8
0
 10
-55.9759
 20
76.9241
 11
-55.9759
 21
75.6241
  0
LINE
  8
0
 10
-55.9759
 20
75.6241
 11
-95.9759
 21
75.6241
  0
LINE
  8
0
 10
-43.9759
 20
75.6241
 11
-43.9759
 21
76.9241
  0
LINE
  8
0
 10
-43.9759
 20
76.9241
 11
-3.97591
 21
76.9241
  0
LINE
  8
0
 10
-3.97591
 20
76.9241
 11
-3.97591
 21
75.6241
  0
LINE
  8
0
 10
-3.97591
 20
75.6241
 11
-43.9759
 21
75.6241
  0
LINE
  8
0
 10
8.02408
 20
75.6241
 11
8.02408
 21
76.9241
  0
LINE
  8
0
 10
8.02408
 20
76.9241
 11
48.0241
 21
76.9241
  0
LINE
  8
0
 10
48.0241
 20
76.9241
 11
48.0241
 21
75.6241
  0
LINE
  8
0
 10
48.0241
 20
75.6241
 11
8.02408
 21
75.6241
  0
LINE
  8
0
 10
60.0241
 20
75.6241
 11
60.0241
 21
76.9241
  0
LINE
  8
0
 10
60.0241
 20
76.9241
 11
100.024
 21
76.9241
  0
LINE
  8
0
 10
100.024
 20
76.9241
 11
100.024
 21
75.6241
  0
LINE
  8
0
 10
100.024
 20
75.6241
 11
60.0241
 21
75.6241
  0
LINE
  8
0
 10
-95.9759
 20
70.4241
 11
-95.9759
 21
71.7241
  0
LINE
  8
0
 10
-95.9759
 20
71.7241
 11
-55.9759
 21
71.7241
  0
LINE
  8
0
 10
-55.9759
 20
71.7241
 11
-55.9759
 21
70.4241
  0
LINE
  8
0
 10
-55.9759
 20
70.4241
 11
-95.9759
 21
70.4241
  0
LINE
  8
0
 10
-43.9759
 20
70.4241
 11
-43.9759
 21
71.7241
  0
LINE
  8
0
 10
-43.9759
 20
71.7241
 11
-3.97591
 21
71.7241
  0
LINE
  8
0
 10
-3.97591
 20
71.7241
 11
-3.97591
 21
70.4241
  0
LINE
  8
0
 10
-3.97591
 20
70.4241
 11
-43.9759
 21
70.4241
  0
LINE
  8
0
 10
8.02408
 20
70.4241
 11
8.02408
 21
71.7241
  0
LINE
  8
0
 10
8.02408
 20
71.7241
 11
48.0241
 21
71.7241
  0
LINE
  8
0
 10
48.0241
 20
71.7241
 11
48.0241
 21
70.4241
  0
LINE
  8
0
 10
48.0241
 20
70.4241
 11
8.02408
 21
70.4241
  0
LINE
  8
0
 10
60.0241
 20
70.4241
 11
60.0241
 21
71.7241
  0
LINE
  8
0
 10
60.0241
 20
71.7241
 11
100.024
 21
71.7241
  0
LINE
  8
0
 10
100.024
 20
71.7241
 11
100.024
 21
70.4241
  0
LINE
  8
0
 10
100.024
 20
70.4241
 11
60.0241
 21
70.4241
  0
LINE
  8
0
 10
60.0241
 20
65.2241
 11
60.0241
 21
66.5241
  0
LINE
  8
0
 10
60.0241
 20
66.5241
 11
100.024
 21
66.5241
  0
LINE
  8
0
 10
100.024
 20
66.5241
 11
100.024
 21
65.2241
  0
LINE
  8
0
 10
100.024
 20
65.2241
 11
60.0241
 21
65.2241
  0
LINE
  8
0
 10
-43.9759
 20
65.2241
 11
-43.9759
 21
66.5241
  0
LINE
  8
0
 10
-43.9759
 20
66.5241
 11
-3.97591
 21
66.5241
  0
LINE
  8
0
 10
-3.97591
 20
66.5241
 11
-3.97591
 21
65.2241
  0
LINE
  8
0
 10
-3.97591
 20
65.2241
 11
-43.9759
 21
65.2241
  0
LINE
  8
0
 10
-95.9759
 20
65.2241
 11
-95.9759
 21
66.5241
  0
LINE
  8
0
 10
-95.9759
 20
66.5241
 11
-55.9759
 21
66.5241
  0
LINE
  8
0
 10
-55.9759
 20
66.5241
 11
-55.9759
 21
65.2241
  0
LINE
  8
0
 10
-55.9759
 20
65.2241
 11
-95.9759
 21
65.2241
  0
LINE
  8
0
 10
8.02408
 20
65.2241
 11
8.02408
 21
66.5241
  0
LINE
  8
0
 10
8.02408
 20
66.5241
 11
48.0241
 21
66.5241
  0
LINE
  8
0
 10
48.0241
 20
66.5241
 11
48.0241
 21
65.2241
  0
LINE
  8
0
 10
48.0241
 20
65.2241
 11
8.02408
 21
65.2241
  0
LINE
  8
0
 10
-95.9759
 20
60.0241
 11
-95.9759
 21
61.3241
  0
LINE
  8
0
 10
-95.9759
 20
61.3241
 11
-55.9759
 21
61.3241
  0
LINE
  8
0
 10
-55.9759
 20
61.3241
 11
-55.9759
 21
60.0241
  0
LINE
  8
0
 10
-55.9759
 20
60.0241
 11
-95.9759
 21
60.0241
  0
LINE
  8
0
 10
-43.9759
 20
60.0241
 11
-43.9759
 21
61.3241
  0
LINE
  8
0
 10
-43.9759
 20
61.3241
 11
-3.97591
 21
61.3241
  0
LINE
  8
0
 10
-3.97591
 20
61.3241
 11
-3.97591
 21
60.0241
  0
LINE
  8
0
 10
-3.97591
 20
60.0241
 11
-43.9759
 21
60.0241
  0
LINE
  8
0
 10
8.02408
 20
60.0241
 11
8.02408
 21
61.3241
  0
LINE
  8
0
 10
8.02408
 20
61.3241
 11
48.0241
 21
61.3241
  0
LINE
  8
0
 10
48.0241
 20
61.3241
 11
48.0241
 21
60.0241
  0
LINE
  8
0
 10
48.0241
 20
60.0241
 11
8.02408
 21
60.0241
  0
LINE
  8
0
 10
60.0241
 20
60.0241
 11
60.0241
 21
61.3241
  0
LINE
  8
0
 10
60.0241
 20
61.3241
 11
100.024
 21
61.3241
  0
LINE
  8
0
 10
100.024
 20
61.3241
 11
100.024
 21
60.0241
  0
LINE
  8
0
 10
100.024
 20
60.0241
 11
60.0241
 21
60.0241
  0
LINE
  8
0
 10
-43.9759
 20
54.8241
 11
-43.9759
 21
56.1241
  0
LINE
  8
0
 10
-43.9759
 20
56.1241
 11
-3.97591
 21
56.1241
  0
LINE
  8
0
 10
-3.97591
 20
56.1241
 11
-3.97591
 21
54.8241
  0
LINE
  8
0
 10
-3.97591
 20
54.8241
 11
-43.9759
 21
54.8241
  0
LINE
  8
0
 10
8.02408
 20
54.8241
 11
8.02408
 21
56.1241
  0
LINE
  8
0
 10
8.02408
 20
56.1241
 11
48.0241
 21
56.1241
  0
LINE
  8
0
 10
48.0241
 20
56.1241
 11
48.0241
 21
54.8241
  0
LINE
  8
0
 10
48.0241
 20
54.8241
 11
8.02408
 21
54.8241
  0
LINE
  8
0
 10
60.0241
 20
54.8241
 11
60.0241
 21
56.1241
  0
LINE
  8
0
 10
60.0241
 20
56.1241
 11
100.024
 21
56.1241
  0
LINE
  8
0
 10
100.024
 20
56.1241
 11
100.024
 21
54.8241
  0
LINE
  8
0
 10
100.024
 20
54.8241
 11
60.0241
 21
54.8241
  0
LINE
  8
0
 10
-95.9759
 20
54.8241
 11
-95.9759
 21
56.1241
  0
LINE
  8
0
 10
-95.9759
 20
56.1241
 11
-55.9759
 21
56.1241
  0
LINE
  8
0
 10
-55.9759
 20
56.1241
 11
-55.9759
 21
54.8241
  0
LINE
  8
0
 10
-55.9759
 20
54.8241
 11
-95.9759
 21
54.8241
  0
LINE
  8
0
 10
-95.9759
 20
49.6241
 11
-95.9759
 21
50.9241
  0
LINE
  8
0
 10
-95.9759
 20
50.9241
 11
-55.9759
 21
50.9241
  0
LINE
  8
0
 10
-55.9759
 20
50.9241
 11
-55.9759
 21
49.6241
  0
LINE
  8
0
 10
-55.9759
 20
49.6241
 11
-95.9759
 21
49.6241
  0
LINE
  8
0
 10
-43.9759
 20
49.6241
 11
-43.9759
 21
50.9241
  0
LINE
  8
0
 10
-43.9759
 20
50.9241
 11
-3.97591
 21
50.9241
  0
LINE
  8
0
 10
-3.97591
 20
50.9241
 11
-3.97591
 21
49.6241
  0
LINE
  8
0
 10
-3.97591
 20
49.6241
 11
-43.9759
 21
49.6241
  0
LINE
  8
0
 10
60.0241
 20
49.6241
 11
60.0241
 21
50.9241
  0
LINE
  8
0
 10
60.0241
 20
50.9241
 11
100.024
 21
50.9241
  0
LINE
  8
0
 10
100.024
 20
50.9241
 11
100.024
 21
49.6241
  0
LINE
  8
0
 10
100.024
 20
49.6241
 11
60.0241
 21
49.6241
  0
LINE
  8
0
 10
8.02408
 20
49.6241
 11
8.02408
 21
50.9241
  0
LINE
  8
0
 10
8.02408
 20
50.9241
 11
48.0241
 21
50.9241
  0
LINE
  8
0
 10
48.0241
 20
50.9241
 11
48.0241
 21
49.6241
  0
LINE
  8
0
 10
48.0241
 20
49.6241
 11
8.02408
 21
49.6241
  0
LINE
  8
0
 10
-95.9759
 20
44.4241
 11
-95.9759
 21
45.7241
  0
LINE
  8
0
 10
-95.9759
 20
45.7241
 11
-55.9759
 21
45.7241
  0
LINE
  8
0
 10
-55.9759
 20
45.7241
 11
-55.9759
 21
44.4241
  0
LINE
  8
0
 10
-55.9759
 20
44.4241
 11
-95.9759
 21
44.4241
  0
LINE
  8
0
 10
-43.9759
 20
44.4241
 11
-43.9759
 21
45.7241
  0
LINE
  8
0
 10
-43.9759
 20
45.7241
 11
-3.97591
 21
45.7241
  0
LINE
  8
0
 10
-3.97591
 20
45.7241
 11
-3.97591
 21
44.4241
  0
LINE
  8
0
 10
-3.97591
 20
44.4241
 11
-43.9759
 21
44.4241
  0
LINE
  8
0
 10
8.02408
 20
44.4241
 11
8.02408
 21
45.7241
  0
LINE
  8
0
 10
8.02408
 20
45.7241
 11
48.0241
 21
45.7241
  0
LINE
  8
0
 10
48.0241
 20
45.7241
 11
48.0241
 21
44.4241
  0
LINE
  8
0
 10
48.0241
 20
44.4241
 11
8.02408
 21
44.4241
  0
LINE
  8
0
 10
60.0241
 20
44.4241
 11
60.0241
 21
45.7241
  0
LINE
  8
0
 10
60.0241
 20
45.7241
 11
100.024
 21
45.7241
  0
LINE
  8
0
 10
100.024
 20
45.7241
 11
100.024
 21
44.4241
  0
LINE
  8
0
 10
100.024
 20
44.4241
 11
60.0241
 21
44.4241
  0
LINE
  8
0
 10
8.02408
 20
39.2241
 11
8.02408
 21
40.5241
  0
LINE
  8
0
 10
8.02408
 20
40.5241
 11
48.0241
 21
40.5241
  0
LINE
  8
0
 10
48.0241
 20
40.5241
 11
48.0241
 21
39.2241
  0
LINE
  8
0
 10
48.0241
 20
39.2241
 11
8.02408
 21
39.2241
  0
LINE
  8
0
 10
-43.9759
 20
39.2241
 11
-43.9759
 21
40.5241
  0
LINE
  8
0
 10
-43.9759
 20
40.5241
 11
-3.97591
 21
40.5241
  0
LINE
  8
0
 10
-3.97591
 20
40.5241
 11
-3.97591
 21
39.2241
  0
LINE
  8
0
 10
-3.97591
 20
39.2241
 11
-43.9759
 21
39.2241
  0
LINE
  8
0
 10
-95.9759
 20
39.2241
 11
-95.9759
 21
40.5241
  0
LINE
  8
0
 10
-95.9759
 20
40.5241
 11
-55.9759
 21
40.5241
  0
LINE
  8
0
 10
-55.9759
 20
40.5241
 11
-55.9759
 21
39.2241
  0
LINE
  8
0
 10
-55.9759
 20
39.2241
 11
-95.9759
 21
39.2241
  0
LINE
  8
0
 10
60.0241
 20
39.2241
 11
60.0241
 21
40.5241
  0
LINE
  8
0
 10
60.0241
 20
40.5241
 11
100.024
 21
40.5241
  0
LINE
  8
0
 10
100.024
 20
40.5241
 11
100.024
 21
39.2241
  0
LINE
  8
0
 10
100.024
 20
39.2241
 11
60.0241
 21
39.2241
  0
LINE
  8
0
 10
60.0241
 20
34.0241
 11
60.0241
 21
35.3241
  0
LINE
  8
0
 10
60.0241
 20
35.3241
 11
100.024
 21
35.3241
  0
LINE
  8
0
 10
100.024
 20
35.3241
 11
100.024
 21
34.0241
  0
LINE
  8
0
 10
100.024
 20
34.0241
 11
60.0241
 21
34.0241
  0
LINE
  8
0
 10
8.02408
 20
34.0241
 11
8.02408
 21
35.3241
  0
LINE
  8
0
 10
8.02408
 20
35.3241
 11
48.0241
 21
35.3241
  0
LINE
  8
0
 10
48.0241
 20
35.3241
 11
48.0241
 21
34.0241
  0
LINE
  8
0
 10
48.0241
 20
34.0241
 11
8.02408
 21
34.0241
  0
LINE
  8
0
 10
-95.9759
 20
34.0241
 11
-95.9759
 21
35.3241
  0
LINE
  8
0
 10
-95.9759
 20
35.3241
 11
-55.9759
 21
35.3241
  0
LINE
  8
0
 10
-55.9759
 20
35.3241
 11
-55.9759
 21
34.0241
  0
LINE
  8
0
 10
-55.9759
 20
34.0241
 11
-95.9759
 21
34.0241
  0
LINE
  8
0
 10
-43.9759
 20
34.0241
 11
-43.9759
 21
35.3241
  0
LINE
  8
0
 10
-43.9759
 20
35.3241
 11
-3.97591
 21
35.3241
  0
LINE
  8
0
 10
-3.97591
 20
35.3241
 11
-3.97591
 21
34.0241
  0
LINE
  8
0
 10
-3.97591
 20
34.0241
 11
-43.9759
 21
34.0241
  0
LINE
  8
0
 10
-95.9759
 20
28.8241
 11
-95.9759
 21
30.1241
  0
LINE
  8
0
 10
-95.9759
 20
30.1241
 11
-55.9759
 21
30.1241
  0
LINE
  8
0
 10
-55.9759
 20
30.1241
 11
-55.9759
 21
28.8241
  0
LINE
  8
0
 10
-55.9759
 20
28.8241
 11
-95.9759
 21
28.8241
  0
LINE
  8
0
 10
60.0241
 20
28.8241
 11
60.0241
 21
30.1241
  0
LINE
  8
0
 10
60.0241
 20
30.1241
 11
100.024
 21
30.1241
  0
LINE
  8
0
 10
100.024
 20
30.1241
 11
100.024
 21
28.8241
  0
LINE
  8
0
 10
100.024
 20
28.8241
 11
60.0241
 21
28.8241
  0
LINE
  8
0
 10
-43.9759
 20
28.8241
 11
-43.9759
 21
30.1241
  0
LINE
  8
0
 10
-43.9759
 20
30.1241
 11
-3.97591
 21
30.1241
  0
LINE
  8
0
 10
-3.97591
 20
30.1241
 11
-3.97591
 21
28.8241
  0
LINE
  8
0
 10
-3.97591
 20
28.8241
 11
-43.9759
 21
28.8241
  0
LINE
  8
0
 10
8.02408
 20
28.8241
 11
8.02408
 21
30.1241
  0
LINE
  8
0
 10
8.02408
 20
30.1241
 11
48.0241
 21
30.1241
  0
LINE
  8
0
 10
48.0241
 20
30.1241
 11
48.0241
 21
28.8241
  0
LINE
  8
0
 10
48.0241
 20
28.8241
 11
8.02408
 21
28.8241
  0
LINE
  8
0
 10
-95.9759
 20
23.6241
 11
-95.9759
 21
24.9241
  0
LINE
  8
0
 10
-95.9759
 20
24.9241
 11
-55.9759
 21
24.9241
  0
LINE
  8
0
 10
-55.9759
 20
24.9241
 11
-55.9759
 21
23.6241
  0
LINE
  8
0
 10
-55.9759
 20
23.6241
 11
-95.9759
 21
23.6241
  0
LINE
  8
0
 10
60.0241
 20
23.6241
 11
60.0241
 21
24.9241
  0
LINE
  8
0
 10
60.0241
 20
24.9241
 11
100.024
 21
24.9241
  0
LINE
  8
0
 10
100.024
 20
24.9241
 11
100.024
 21
23.6241
  0
LINE
  8
0
 10
100.024
 20
23.6241
 11
60.0241
 21
23.6241
  0
LINE
  8
0
 10
-43.9759
 20
23.6241
 11
-43.9759
 21
24.9241
  0
LINE
  8
0
 10
-43.9759
 20
24.9241
 11
-3.97591
 21
24.9241
  0
LINE
  8
0
 10
-3.97591
 20
24.9241
 11
-3.97591
 21
23.6241
  0
LINE
  8
0
 10
-3.97591
 20
23.6241
 11
-43.9759
 21
23.6241
  0
LINE
  8
0
 10
8.02408
 20
23.6241
 11
8.02408
 21
24.9241
  0
LINE
  8
0
 10
8.02408
 20
24.9241
 11
48.0241
 21
24.9241
  0
LINE
  8
0
 10
48.0241
 20
24.9241
 11
48.0241
 21
23.6241
  0
LINE
  8
0
 10
48.0241
 20
23.6241
 11
8.02408
 21
23.6241
  0
LINE
  8
0
 10
-95.9759
 20
18.4241
 11
-95.9759
 21
19.7241
  0
LINE
  8
0
 10
-95.9759
 20
19.7241
 11
-55.9759
 21
19.7241
  0
LINE
  8
0
 10
-55.9759
 20
19.7241
 11
-55.9759
 21
18.4241
  0
LINE
  8
0
 10
-55.9759
 20
18.4241
 11
-95.9759
 21
18.4241
  0
LINE
  8
0
 10
8.02408
 20
18.4241
 11
8.02408
 21
19.7241
  0
LINE
  8
0
 10
8.02408
 20
19.7241
 11
48.0241
 21
19.7241
  0
LINE
  8
0
 10
48.0241
 20
19.7241
 11
48.0241
 21
18.4241
  0
LINE
  8
0
 10
48.0241
 20
18.4241
 11
8.02408
 21
18.4241
  0
LINE
  8
0
 10
60.0241
 20
18.4241
 11
60.0241
 21
19.7241
  0
LINE
  8
0
 10
60.0241
 20
19.7241
 11
100.024
 21
19.7241
  0
LINE
  8
0
 10
100.024
 20
19.7241
 11
100.024
 21
18.4241
  0
LINE
  8
0
 10
100.024
 20
18.4241
 11
60.0241
 21
18.4241
  0
LINE
  8
0
 10
-43.9759
 20
18.4241
 11
-43.9759
 21
19.7241
  0
LINE
  8
0
 10
-43.9759
 20
19.7241
 11
-3.97591
 21
19.7241
  0
LINE
  8
0
 10
-3.97591
 20
19.7241
 11
-3.97591
 21
18.4241
  0
LINE
  8
0
 10
-3.97591
 20
18.4241
 11
-43.9759
 21
18.4241
  0
LINE
  8
0
 10
8.02408
 20
13.2241
 11
8.02408
 21
14.5241
  0
LINE
  8
0
 10
8.02408
 20
14.5241
 11
48.0241
 21
14.5241
  0
LINE
  8
0
 10
48.0241
 20
14.5241
 11
48.0241
 21
13.2241
  0
LINE
  8
0
 10
48.0241
 20
13.2241
 11
8.02408
 21
13.2241
  0
LINE
  8
0
 10
60.0241
 20
13.2241
 11
60.0241
 21
14.5241
  0
LINE
  8
0
 10
60.0241
 20
14.5241
 11
100.024
 21
14.5241
  0
LINE
  8
0
 10
100.024
 20
14.5241
 11
100.024
 21
13.2241
  0
LINE
  8
0
 10
100.024
 20
13.2241
 11
60.0241
 21
13.2241
  0
LINE
  8
0
 10
-43.9759
 20
13.2241
 11
-43.9759
 21
14.5241
  0
LINE
  8
0
 10
-43.9759
 20
14.5241
 11
-3.97591
 21
14.5241
  0
LINE
  8
0
 10
-3.97591
 20
14.5241
 11
-3.97591
 21
13.2241
  0
LINE
  8
0
 10
-3.97591
 20
13.2241
 11
-43.9759
 21
13.2241
  0
LINE
  8
0
 10
-95.9759
 20
13.2241
 11
-95.9759
 21
14.5241
  0
LINE
  8
0
 10
-95.9759
 20
14.5241
 11
-55.9759
 21
14.5241
  0
LINE
  8
0
 10
-55.9759
 20
14.5241
 11
-55.9759
 21
13.2241
  0
LINE
  8
0
 10
-55.9759
 20
13.2241
 11
-95.9759
 21
13.2241
  0
LINE
  8
0
 10
-95.9759
 20
8.02408
 11
-95.9759
 21
9.32407
  0
LINE
  8
0
 10
-95.9759
 20
9.32407
 11
-55.9759
 21
9.32407
  0
LINE
  8
0
 10
-55.9759
 20
9.32407
 11
-55.9759
 21
8.02408
  0
LINE
  8
0
 10
-55.9759
 20
8.02408
 11
-95.9759
 21
8.02408
  0
LINE
  8
0
 10
60.0241
 20
8.02408
 11
60.0241
 21
9.32407
  0
LINE
  8
0
 10
60.0241
 20
9.32407
 11
100.024
 21
9.32407
  0
LINE
  8
0
 10
100.024
 20
9.32407
 11
100.024
 21
8.02408
  0
LINE
  8
0
 10
100.024
 20
8.02408
 11
60.0241
 21
8.02408
  0
LINE
  8
0
 10
8.02408
 20
8.02408
 11
8.02408
 21
9.32407
  0
LINE
  8
0
 10
8.02408
 20
9.32407
 11
48.0241
 21
9.32407
  0
LINE
  8
0
 10
48.0241
 20
9.32407
 11
48.0241
 21
8.02408
  0
LINE
  8
0
 10
48.0241
 20
8.02408
 11
8.02408
 21
8.02408
  0
LINE
  8
0
 10
-43.9759
 20
8.02408
 11
-43.9759
 21
9.32407
  0
LINE
  8
0
 10
-43.9759
 20
9.32407
 11
-3.97591
 21
9.32407
  0
LINE
  8
0
 10
-3.97591
 20
9.32407
 11
-3.97591
 21
8.02408
  0
LINE
  8
0
 10
-3.97591
 20
8.02408
 11
-43.9759
 21
8.02408
  0
LINE
  8
0
 10
60.0241
 20
2.82407
 11
60.0241
 21
4.12407
  0
LINE
  8
0
 10
60.0241
 20
4.12407
 11
100.024
 21
4.12407
  0
LINE
  8
0
 10
100.024
 20
4.12407
 11
100.024
 21
2.82407
  0
LINE
  8
0
 10
100.024
 20
2.82407
 11
60.0241
 21
2.82407
  0
LINE
  8
0
 10
8.02408
 20
2.82407
 11
8.02408
 21
4.12407
  0
LINE
  8
0
 10
8.02408
 20
4.12407
 11
48.0241
 21
4.12407
  0
LINE
  8
0
 10
48.0241
 20
4.12407
 11
48.0241
 21
2.82407
  0
LINE
  8
0
 10
48.0241
 20
2.82407
 11
8.02408
 21
2.82407
  0
LINE
  8
0
 10
-95.9759
 20
4.12407
 11
-55.9759
 21
4.12407
  0
LINE
  8
0
 10
-55.9759
 20
4.12407
 11
-55.9759
 21
2.82407
  0
LINE
  8
0
 10
-55.9759
 20
2.82407
 11
-95.9759
 21
2.82407
  0
LINE
  8
0
 10
-95.9759
 20
2.82407
 11
-95.9759
 21
4.12407
  0
LINE
  8
0
 10
121.803
 20
-2.74457
 11
121.631
 21
-2.7283
  0
LINE
  8
0
 10
121.631
 20
-2.7283
 11
121.461
 21
-2.70128
  0
LINE
  8
0
 10
121.461
 20
-2.70128
 11
121.292
 21
-2.66359
  0
LINE
  8
0
 10
121.292
 20
-2.66359
 11
121.126
 21
-2.6154
  0
LINE
  8
0
 10
121.126
 20
-2.6154
 11
120.964
 21
-2.55688
  0
LINE
  8
0
 10
120.964
 20
-2.55688
 11
120.805
 21
-2.48827
  0
LINE
  8
0
 10
120.805
 20
-2.48827
 11
120.651
 21
-2.40984
  0
LINE
  8
0
 10
120.651
 20
-2.40984
 11
120.502
 21
-2.3219
  0
LINE
  8
0
 10
120.502
 20
-2.3219
 11
120.36
 21
-2.22479
  0
LINE
  8
0
 10
120.36
 20
-2.22479
 11
120.223
 21
-2.1189
  0
LINE
  8
0
 10
120.223
 20
-2.1189
 11
120.093
 21
-2.00465
  0
LINE
  8
0
 10
120.093
 20
-2.00465
 11
119.971
 21
-1.88249
  0
LINE
  8
0
 10
119.971
 20
-1.88249
 11
119.857
 21
-1.75291
  0
LINE
  8
0
 10
119.857
 20
-1.75291
 11
119.751
 21
-1.61641
  0
LINE
  8
0
 10
119.751
 20
-1.61641
 11
119.654
 21
-1.47351
  0
LINE
  8
0
 10
119.654
 20
-1.47351
 11
119.566
 21
-1.32481
  0
LINE
  8
0
 10
119.566
 20
-1.32481
 11
119.488
 21
-1.17088
  0
LINE
  8
0
 10
119.488
 20
-1.17088
 11
119.419
 21
-1.01233
  0
LINE
  8
0
 10
119.419
 20
-1.01233
 11
119.361
 21
-0.849792
  0
LINE
  8
0
 10
119.361
 20
-0.849792
 11
119.312
 21
-0.683884
  0
LINE
  8
0
 10
119.312
 20
-0.683884
 11
119.275
 21
-0.515289
  0
LINE
  8
0
 10
119.275
 20
-0.515289
 11
119.248
 21
-0.344666
  0
LINE
  8
0
 10
119.248
 20
-0.344666
 11
119.231
 21
-0.172668
  0
LINE
  8
0
 10
119.231
 20
-0.172668
 11
119.226
 21
0
  0
LINE
  8
0
 10
119.226
 20
0
 11
119.231
 21
0.172668
  0
LINE
  8
0
 10
119.231
 20
0.172668
 11
119.248
 21
0.344666
  0
LINE
  8
0
 10
119.248
 20
0.344666
 11
119.275
 21
0.515289
  0
LINE
  8
0
 10
119.275
 20
0.515289
 11
119.312
 21
0.683884
  0
LINE
  8
0
 10
119.312
 20
0.683884
 11
119.361
 21
0.849792
  0
LINE
  8
0
 10
119.361
 20
0.849792
 11
119.419
 21
1.01233
  0
LINE
  8
0
 10
119.419
 20
1.01233
 11
119.488
 21
1.17088
  0
LINE
  8
0
 10
119.488
 20
1.17088
 11
119.566
 21
1.32481
  0
LINE
  8
0
 10
119.566
 20
1.32481
 11
119.654
 21
1.47351
  0
LINE
  8
0
 10
119.654
 20
1.47351
 11
119.751
 21
1.61641
  0
LINE
  8
0
 10
119.751
 20
1.61641
 11
119.857
 21
1.75291
  0
LINE
  8
0
 10
119.857
 20
1.75291
 11
119.971
 21
1.88249
  0
LINE
  8
0
 10
119.971
 20
1.88249
 11
120.093
 21
2.00465
  0
LINE
  8
0
 10
120.093
 20
2.00465
 11
120.223
 21
2.1189
  0
LINE
  8
0
 10
120.223
 20
2.1189
 11
120.36
 21
2.22479
  0
LINE
  8
0
 10
120.36
 20
2.22479
 11
120.502
 21
2.3219
  0
LINE
  8
0
 10
120.502
 20
2.3219
 11
120.651
 21
2.40984
  0
LINE
  8
0
 10
120.651
 20
2.40984
 11
120.805
 21
2.48827
  0
LINE
  8
0
 10
120.805
 20
2.48827
 11
120.964
 21
2.55688
  0
LINE
  8
0
 10
120.964
 20
2.55688
 11
121.126
 21
2.6154
  0
LINE
  8
0
 10
121.126
 20
2.6154
 11
121.292
 21
2.66359
  0
LINE
  8
0
 10
121.292
 20
2.66359
 11
121.461
 21
2.70128
  0
LINE
  8
0
 10
121.461
 20
2.70128
 11
121.631
 21
2.7283
  0
LINE
  8
0
 10
121.631
 20
2.7283
 11
121.803
 21
2.74457
  0
LINE
  8
0
 10
121.803
 20
2.74457
 11
121.976
 21
2.75
  0
LINE
  8
0
 10
121.976
 20
2.75
 11
122.149
 21
2.74457
  0
LINE
  8
0
 10
122.149
 20
2.74457
 11
122.321
 21
2.7283
  0
LINE
  8
0
 10
122.321
 20
2.7283
 11
122.491
 21
2.70128
  0
LINE
  8
0
 10
122.491
 20
2.70128
 11
122.66
 21
2.66359
  0
LINE
  8
0
 10
122.66
 20
2.66359
 11
122.826
 21
2.6154
  0
LINE
  8
0
 10
122.826
 20
2.6154
 11
122.988
 21
2.55688
  0
LINE
  8
0
 10
122.988
 20
2.55688
 11
123.147
 21
2.48827
  0
LINE
  8
0
 10
123.147
 20
2.48827
 11
123.301
 21
2.40984
  0
LINE
  8
0
 10
123.301
 20
2.40984
 11
123.449
 21
2.3219
  0
LINE
  8
0
 10
123.449
 20
2.3219
 11
123.592
 21
2.22479
  0
LINE
  8
0
 10
123.592
 20
2.22479
 11
123.729
 21
2.1189
  0
LINE
  8
0
 10
123.729
 20
2.1189
 11
123.858
 21
2.00465
  0
LINE
  8
0
 10
123.858
 20
2.00465
 11
123.981
 21
1.88249
  0
LINE
  8
0
 10
123.981
 20
1.88249
 11
124.095
 21
1.75291
  0
LINE
  8
0
 10
124.095
 20
1.75291
 11
124.201
 21
1.61641
  0
LINE
  8
0
 10
124.201
 20
1.61641
 11
124.298
 21
1.47351
  0
LINE
  8
0
 10
124.298
 20
1.47351
 11
124.386
 21
1.32481
  0
LINE
  8
0
 10
124.386
 20
1.32481
 11
124.464
 21
1.17088
  0
LINE
  8
0
 10
124.464
 20
1.17088
 11
124.533
 21
1.01233
  0
LINE
  8
0
 10
124.533
 20
1.01233
 11
124.591
 21
0.849792
  0
LINE
  8
0
 10
124.591
 20
0.849792
 11
124.64
 21
0.683884
  0
LINE
  8
0
 10
124.64
 20
0.683884
 11
124.677
 21
0.515289
  0
LINE
  8
0
 10
124.677
 20
0.515289
 11
124.704
 21
0.344666
  0
LINE
  8
0
 10
124.704
 20
0.344666
 11
124.72
 21
0.172668
  0
LINE
  8
0
 10
124.72
 20
0.172668
 11
124.726
 21
0
  0
LINE
  8
0
 10
124.726
 20
0
 11
124.72
 21
-0.172668
  0
LINE
  8
0
 10
124.72
 20
-0.172668
 11
124.704
 21
-0.344666
  0
LINE
  8
0
 10
124.704
 20
-0.344666
 11
124.677
 21
-0.515289
  0
LINE
  8
0
 10
124.677
 20
-0.515289
 11
124.64
 21
-0.683884
  0
LINE
  8
0
 10
124.64
 20
-0.683884
 11
124.591
 21
-0.849792
  0
LINE
  8
0
 10
124.591
 20
-0.849792
 11
124.533
 21
-1.01233
  0
LINE
  8
0
 10
124.533
 20
-1.01233
 11
124.464
 21
-1.17088
  0
LINE
  8
0
 10
124.464
 20
-1.17088
 11
124.386
 21
-1.32481
  0
LINE
  8
0
 10
124.386
 20
-1.32481
 11
124.298
 21
-1.47351
  0
LINE
  8
0
 10
124.298
 20
-1.47351
 11
124.201
 21
-1.61641
  0
LINE
  8
0
 10
124.201
 20
-1.61641
 11
124.095
 21
-1.75291
  0
LINE
  8
0
 10
124.095
 20
-1.75291
 11
123.981
 21
-1.88249
  0
LINE
  8
0
 10
123.981
 20
-1.88249
 11
123.858
 21
-2.00465
  0
LINE
  8
0
 10
123.858
 20
-2.00465
 11
123.729
 21
-2.1189
  0
LINE
  8
0
 10
123.729
 20
-2.1189
 11
123.592
 21
-2.22479
  0
LINE
  8
0
 10
123.592
 20
-2.22479
 11
123.449
 21
-2.3219
  0
LINE
  8
0
 10
123.449
 20
-2.3219
 11
123.301
 21
-2.40984
  0
LINE
  8
0
 10
123.301
 20
-2.40984
 11
123.147
 21
-2.48827
  0
LINE
  8
0
 10
123.147
 20
-2.48827
 11
122.988
 21
-2.55688
  0
LINE
  8
0
 10
122.988
 20
-2.55688
 11
122.826
 21
-2.6154
  0
LINE
  8
0
 10
122.826
 20
-2.6154
 11
122.66
 21
-2.66359
  0
LINE
  8
0
 10
122.66
 20
-2.66359
 11
122.491
 21
-2.70128
  0
LINE
  8
0
 10
122.491
 20
-2.70128
 11
122.321
 21
-2.7283
  0
LINE
  8
0
 10
122.321
 20
-2.7283
 11
122.149
 21
-2.74457
  0
LINE
  8
0
 10
122.149
 20
-2.74457
 11
121.976
 21
-2.75
  0
LINE
  8
0
 10
121.976
 20
-2.75
 11
121.803
 21
-2.74457
  0
LINE
  8
0
 10
-122.149
 20
-2.74457
 11
-122.321
 21
-2.7283
  0
LINE
  8
0
 10
-122.321
 20
-2.7283
 11
-122.491
 21
-2.70128
  0
LINE
  8
0
 10
-122.491
 20
-2.70128
 11
-122.66
 21
-2.66359
  0
LINE
  8
0
 10
-122.66
 20
-2.66359
 11
-122.826
 21
-2.6154
  0
LINE
  8
0
 10
-122.826
 20
-2.6154
 11
-122.988
 21
-2.55688
  0
LINE
  8
0
 10
-122.988
 20
-2.55688
 11
-123.147
 21
-2.48827
  0
LINE
  8
0
 10
-123.147
 20
-2.48827
 11
-123.301
 21
-2.40984
  0
LINE
  8
0
 10
-123.301
 20
-2.40984
 11
-123.449
 21
-2.3219
  0
LINE
  8
0
 10
-123.449
 20
-2.3219
 11
-123.592
 21
-2.22479
  0
LINE
  8
0
 10
-123.592
 20
-2.22479
 11
-123.729
 21
-2.1189
  0
LINE
  8
0
 10
-123.729
 20
-2.1189
 11
-123.858
 21
-2.00465
  0
LINE
  8
0
 10
-123.858
 20
-2.00465
 11
-123.981
 21
-1.88249
  0
LINE
  8
0
 10
-123.981
 20
-1.88249
 11
-124.095
 21
-1.75291
  0
LINE
  8
0
 10
-124.095
 20
-1.75291
 11
-124.201
 21
-1.61641
  0
LINE
  8
0
 10
-124.201
 20
-1.61641
 11
-124.298
 21
-1.47351
  0
LINE
  8
0
 10
-124.298
 20
-1.47351
 11
-124.386
 21
-1.32481
  0
LINE
  8
0
 10
-124.386
 20
-1.32481
 11
-124.464
 21
-1.17088
  0
LINE
  8
0
 10
-124.464
 20
-1.17088
 11
-124.533
 21
-1.01233
  0
LINE
  8
0
 10
-124.533
 20
-1.01233
 11
-124.591
 21
-0.849792
  0
LINE
  8
0
 10
-124.591
 20
-0.849792
 11
-124.64
 21
-0.683884
  0
LINE
  8
0
 10
-124.64
 20
-0.683884
 11
-124.677
 21
-0.515289
  0
LINE
  8
0
 10
-124.677
 20
-0.515289
 11
-124.704
 21
-0.344666
  0
LINE
  8
0
 10
-124.704
 20
-0.344666
 11
-124.72
 21
-0.172668
  0
LINE
  8
0
 10
-124.72
 20
-0.172668
 11
-124.726
 21
0
  0
LINE
  8
0
 10
-124.726
 20
0
 11
-124.72
 21
0.172668
  0
LINE
  8
0
 10
-124.72
 20
0.172668
 11
-124.704
 21
0.344666
  0
LINE
  8
0
 10
-124.704
 20
0.344666
 11
-124.677
 21
0.515289
  0
LINE
  8
0
 10
-124.677
 20
0.515289
 11
-124.64
 21
0.683884
  0
LINE
  8
0
 10
-124.64
 20
0.683884
 11
-124.591
 21
0.849792
  0
LINE
  8
0
 10
-124.591
 20
0.849792
 11
-124.533
 21
1.01233
  0
LINE
  8
0
 10
-124.533
 20
1.01233
 11
-124.464
 21
1.17088
  0
LINE
  8
0
 10
-124.464
 20
1.17088
 11
-124.386
 21
1.32481
  0
LINE
  8
0
 10
-124.386
 20
1.32481
 11
-124.298
 21
1.47351
  0
LINE
  8
0
 10
-124.298
 20
1.47351
 11
-124.201
 21
1.61641
  0
LINE
  8
0
 10
-124.201
 20
1.61641
 11
-124.095
 21
1.75291
  0
LINE
  8
0
 10
-124.095
 20
1.75291
 11
-123.981
 21
1.88249
  0
LINE
  8
0
 10
-123.981
 20
1.88249
 11
-123.858
 21
2.00465
  0
LINE
  8
0
 10
-123.858
 20
2.00465
 11
-123.729
 21
2.1189
  0
LINE
  8
0
 10
-123.729
 20
2.1189
 11
-123.592
 21
2.22479
  0
LINE
  8
0
 10
-123.592
 20
2.22479
 11
-123.449
 21
2.3219
  0
LINE
  8
0
 10
-123.449
 20
2.3219
 11
-123.301
 21
2.40984
  0
LINE
  8
0
 10
-123.301
 20
2.40984
 11
-123.147
 21
2.48827
  0
LINE
  8
0
 10
-123.147
 20
2.48827
 11
-122.988
 21
2.55688
  0
LINE
  8
0
 10
-122.988
 20
2.55688
 11
-122.826
 21
2.6154
  0
LINE
  8
0
 10
-122.826
 20
2.6154
 11
-122.66
 21
2.66359
  0
LINE
  8
0
 10
-122.66
 20
2.66359
 11
-122.491
 21
2.70128
  0
LINE
  8
0
 10
-122.491
 20
2.70128
 11
-122.321
 21
2.7283
  0
LINE
  8
0
 10
-122.321
 20
2.7283
 11
-122.149
 21
2.74457
  0
LINE
  8
0
 10
-122.149
 20
2.74457
 11
-121.976
 21
2.75
  0
LINE
  8
0
 10
-121.976
 20
2.75
 11
-121.803
 21
2.74457
  0
LINE
  8
0
 10
-121.803
 20
2.74457
 11
-121.631
 21
2.7283
  0
LINE
  8
0
 10
-121.631
 20
2.7283
 11
-121.461
 21
2.70128
  0
LINE
  8
0
 10
-121.461
 20
2.70128
 11
-121.292
 21
2.66359
  0
LINE
  8
0
 10
-121.292
 20
2.66359
 11
-121.126
 21
2.6154
  0
LINE
  8
0
 10
-121.126
 20
2.6154
 11
-120.964
 21
2.55688
  0
LINE
  8
0
 10
-120.964
 20
2.55688
 11
-120.805
 21
2.48827
  0
LINE
  8
0
 10
-120.805
 20
2.48827
 11
-120.651
 21
2.40984
  0
LINE
  8
0
 10
-120.651
 20
2.40984
 11
-120.502
 21
2.3219
  0
LINE
  8
0
 10
-120.502
 20
2.3219
 11
-120.36
 21
2.22479
  0
LINE
  8
0
 10
-120.36
 20
2.22479
 11
-120.223
 21
2.1189
  0
LINE
  8
0
 10
-120.223
 20
2.1189
 11
-120.093
 21
2.00465
  0
LINE
  8
0
 10
-120.093
 20
2.00465
 11
-119.971
 21
1.88249
  0
LINE
  8
0
 10
-119.971
 20
1.88249
 11
-119.857
 21
1.75291
  0
LINE
  8
0
 10
-119.857
 20
1.75291
 11
-119.751
 21
1.61641
  0
LINE
  8
0
 10
-119.751
 20
1.61641
 11
-119.654
 21
1.47351
  0
LINE
  8
0
 10
-119.654
 20
1.47351
 11
-119.566
 21
1.32481
  0
LINE
  8
0
 10
-119.566
 20
1.32481
 11
-119.488
 21
1.17088
  0
LINE
  8
0
 10
-119.488
 20
1.17088
 11
-119.419
 21
1.01233
  0
LINE
  8
0
 10
-119.419
 20
1.01233
 11
-119.361
 21
0.849792
  0
LINE
  8
0
 10
-119.361
 20
0.849792
 11
-119.312
 21
0.683884
  0
LINE
  8
0
 10
-119.312
 20
0.683884
 11
-119.275
 21
0.515289
  0
LINE
  8
0
 10
-119.275
 20
0.515289
 11
-119.248
 21
0.344666
  0
LINE
  8
0
 10
-119.248
 20
0.344666
 11
-119.231
 21
0.172668
  0
LINE
  8
0
 10
-119.231
 20
0.172668
 11
-119.226
 21
0
  0
LINE
  8
0
 10
-119.226
 20
0
 11
-119.231
 21
-0.172668
  0
LINE
  8
0
 10
-119.231
 20
-0.172668
 11
-119.248
 21
-0.344666
  0
LINE
  8
0
 10
-119.248
 20
-0.344666
 11
-119.275
 21
-0.515289
  0
LINE
  8
0
 10
-119.275
 20
-0.515289
 11
-119.312
 21
-0.683884
  0
LINE
  8
0
 10
-119.312
 20
-0.683884
 11
-119.361
 21
-0.849792
  0
LINE
  8
0
 10
-119.361
 20
-0.849792
 11
-119.419
 21
-1.01233
  0
LINE
  8
0
 10
-119.419
 20
-1.01233
 11
-119.488
 21
-1.17088
  0
LINE
  8
0
 10
-119.488
 20
-1.17088
 11
-119.566
 21
-1.32481
  0
LINE
  8
0
 10
-119.566
 20
-1.32481
 11
-119.654
 21
-1.47351
  0
LINE
  8
0
 10
-119.654
 20
-1.47351
 11
-119.751
 21
-1.61641
  0
LINE
  8
0
 10
-119.751
 20
-1.61641
 11
-119.857
 21
-1.75291
  0
LINE
  8
0
 10
-119.857
 20
-1.75291
 11
-119.971
 21
-1.88249
  0
LINE
  8
0
 10
-119.971
 20
-1.88249
 11
-120.093
 21
-2.00465
  0
LINE
  8
0
 10
-120.093
 20
-2.00465
 11
-120.223
 21
-2.1189
  0
LINE
  8
0
 10
-120.223
 20
-2.1189
 11
-120.36
 21
-2.22479
  0
LINE
  8
0
 10
-120.36
 20
-2.22479
 11
-120.502
 21
-2.3219
  0
LINE
  8
0
 10
-120.502
 20
-2.3219
 11
-120.651
 21
-2.40984
  0
LINE
  8
0
 10
-120.651
 20
-2.40984
 11
-120.805
 21
-2.48827
  0
LINE
  8
0
 10
-120.805
 20
-2.48827
 11
-120.964
 21
-2.55688
  0
LINE
  8
0
 10
-120.964
 20
-2.55688
 11
-121.126
 21
-2.6154
  0
LINE
  8
0
 10
-121.126
 20
-2.6154
 11
-121.292
 21
-2.66359
  0
LINE
  8
0
 10
-121.292
 20
-2.66359
 11
-121.461
 21
-2.70128
  0
LINE
  8
0
 10
-121.461
 20
-2.70128
 11
-121.631
 21
-2.7283
  0
LINE
  8
0
 10
-121.631
 20
-2.7283
 11
-121.803
 21
-2.74457
  0
LINE
  8
0
 10
-121.803
 20
-2.74457
 11
-121.976
 21
-2.75
  0
LINE
  8
0
 10
-121.976
 20
-2.75
 11
-122.149
 21
-2.74457
  0
LINE
  8
0
 10
-0.172668
 20
-2.74457
 11
-0.344666
 21
-2.7283
  0
LINE
  8
0
 10
-0.344666
 20
-2.7283
 11
-0.515289
 21
-2.70128
  0
LINE
  8
0
 10
-0.515289
 20
-2.70128
 11
-0.683884
 21
-2.66359
  0
LINE
  8
0
 10
-0.683884
 20
-2.66359
 11
-0.849792
 21
-2.6154
  0
LINE
  8
0
 10
-0.849792
 20
-2.6154
 11
-1.01233
 21
-2.55688
  0
LINE
  8
0
 10
-1.01233
 20
-2.55688
 11
-1.17088
 21
-2.48827
  0
LINE
  8
0
 10
-1.17088
 20
-2.48827
 11
-1.32481
 21
-2.40984
  0
LINE
  8
0
 10
-1.32481
 20
-2.40984
 11
-1.47351
 21
-2.3219
  0
LINE
  8
0
 10
-1.47351
 20
-2.3219
 11
-1.61641
 21
-2.22479
  0
LINE
  8
0
 10
-1.61641
 20
-2.22479
 11
-1.75291
 21
-2.1189
  0
LINE
  8
0
 10
-1.75291
 20
-2.1189
 11
-1.88249
 21
-2.00465
  0
LINE
  8
0
 10
-1.88249
 20
-2.00465
 11
-2.00465
 21
-1.88249
  0
LINE
  8
0
 10
-2.00465
 20
-1.88249
 11
-2.1189
 21
-1.75291
  0
LINE
  8
0
 10
-2.1189
 20
-1.75291
 11
-2.22479
 21
-1.61641
  0
LINE
  8
0
 10
-2.22479
 20
-1.61641
 11
-2.3219
 21
-1.47351
  0
LINE
  8
0
 10
-2.3219
 20
-1.47351
 11
-2.40984
 21
-1.32481
  0
LINE
  8
0
 10
-2.40984
 20
-1.32481
 11
-2.48827
 21
-1.17088
  0
LINE
  8
0
 10
-2.48827
 20
-1.17088
 11
-2.55688
 21
-1.01233
  0
LINE
  8
0
 10
-2.55688
 20
-1.01233
 11
-2.6154
 21
-0.849792
  0
LINE
  8
0
 10
-2.6154
 20
-0.849792
 11
-2.66359
 21
-0.683884
  0
LINE
  8
0
 10
-2.66359
 20
-0.683884
 11
-2.70128
 21
-0.515289
  0
LINE
  8
0
 10
-2.70128
 20
-0.515289
 11
-2.7283
 21
-0.344666
  0
LINE
  8
0
 10
-2.7283
 20
-0.344666
 11
-2.74457
 21
-0.172668
  0
LINE
  8
0
 10
-2.74457
 20
-0.172668
 11
-2.75
 21
0
  0
LINE
  8
0
 10
-2.75
 20
0
 11
-2.74457
 21
0.172668
  0
LINE
  8
0
 10
-2.74457
 20
0.172668
 11
-2.7283
 21
0.344666
  0
LINE
  8
0
 10
-2.7283
 20
0.344666
 11
-2.70128
 21
0.515289
  0
LINE
  8
0
 10
-2.70128
 20
0.515289
 11
-2.66359
 21
0.683884
  0
LINE
  8
0
 10
-2.66359
 20
0.683884
 11
-2.6154
 21
0.849792
  0
LINE
  8
0
 10
-2.6154
 20
0.849792
 11
-2.55688
 21
1.01233
  0
LINE
  8
0
 10
-2.55688
 20
1.01233
 11
-2.48827
 21
1.17088
  0
LINE
  8
0
 10
-2.48827
 20
1.17088
 11
-2.40984
 21
1.32481
  0
LINE
  8
0
 10
-2.40984
 20
1.32481
 11
-2.3219
 21
1.47351
  0
LINE
  8
0
 10
-2.3219
 20
1.47351
 11
-2.22479
 21
1.61641
  0
LINE
  8
0
 10
-2.22479
 20
1.61641
 11
-2.1189
 21
1.75291
  0
LINE
  8
0
 10
-2.1189
 20
1.75291
 11
-2.00465
 21
1.88249
  0
LINE
  8
0
 10
-2.00465
 20
1.88249
 11
-1.88249
 21
2.00465
  0
LINE
  8
0
 10
-1.88249
 20
2.00465
 11
-1.75291
 21
2.1189
  0
LINE
  8
0
 10
-1.75291
 20
2.1189
 11
-1.61641
 21
2.22479
  0
LINE
  8
0
 10
-1.61641
 20
2.22479
 11
-1.47351
 21
2.3219
  0
LINE
  8
0
 10
-1.47351
 20
2.3219
 11
-1.32481
 21
2.40984
  0
LINE
  8
0
 10
-1.32481
 20
2.40984
 11
-1.17088
 21
2.48827
  0
LINE
  8
0
 10
-1.17088
 20
2.48827
 11
-1.01233
 21
2.55688
  0
LINE
  8
0
 10
-1.01233
 20
2.55688
 11
-0.849792
 21
2.6154
  0
LINE
  8
0
 10
-0.849792
 20
2.6154
 11
-0.683884
 21
2.66359
  0
LINE
  8
0
 10
-0.683884
 20
2.66359
 11
-0.515289
 21
2.70128
  0
LINE
  8
0
 10
-0.515289
 20
2.70128
 11
-0.344666
 21
2.7283
  0
LINE
  8
0
 10
-0.344666
 20
2.7283
 11
-0.172668
 21
2.74457
  0
LINE
  8
0
 10
-0.172668
 20
2.74457
 11
0
 21
2.75
  0
LINE
  8
0
 10
0
 20
2.75
 11
0.172668
 21
2.74457
  0
LINE
  8
0
 10
0.172668
 20
2.74457
 11
0.344666
 21
2.7283
  0
LINE
  8
0
 10
0.344666
 20
2.7283
 11
0.515289
 21
2.70128
  0
LINE
  8
0
 10
0.515289
 20
2.70128
 11
0.683884
 21
2.66359
  0
LINE
  8
0
 10
0.683884
 20
2.66359
 11
0.849792
 21
2.6154
  0
LINE
  8
0
 10
0.849792
 20
2.6154
 11
1.01233
 21
2.55688
  0
LINE
  8
0
 10
1.01233
 20
2.55688
 11
1.17088
 21
2.48827
  0
LINE
  8
0
 10
1.17088
 20
2.48827
 11
1.32481
 21
2.40984
  0
LINE
  8
0
 10
1.32481
 20
2.40984
 11
1.47351
 21
2.3219
  0
LINE
  8
0
 10
1.47351
 20
2.3219
 11
1.61641
 21
2.22479
  0
LINE
  8
0
 10
1.61641
 20
2.22479
 11
1.75291
 21
2.1189
  0
LINE
  8
0
 10
1.75291
 20
2.1189
 11
1.88249
 21
2.00465
  0
LINE
  8
0
 10
1.88249
 20
2.00465
 11
2.00465
 21
1.88249
  0
LINE
  8
0
 10
2.00465
 20
1.88249
 11
2.1189
 21
1.75291
  0
LINE
  8
0
 10
2.1189
 20
1.75291
 11
2.22479
 21
1.61641
  0
LINE
  8
0
 10
2.22479
 20
1.61641
 11
2.3219
 21
1.47351
  0
LINE
  8
0
 10
2.3219
 20
1.47351
 11
2.40984
 21
1.32481
  0
LINE
  8
0
 10
2.40984
 20
1.32481
 11
2.48827
 21
1.17088
  0
LINE
  8
0
 10
2.48827
 20
1.17088
 11
2.55688
 21
1.01233
  0
LINE
  8
0
 10
2.55688
 20
1.01233
 11
2.6154
 21
0.849792
  0
LINE
  8
0
 10
2.6154
 20
0.849792
 11
2.66359
 21
0.683884
  0
LINE
  8
0
 10
2.66359
 20
0.683884
 11
2.70128
 21
0.515289
  0
LINE
  8
0
 10
2.70128
 20
0.515289
 11
2.7283
 21
0.344666
  0
LINE
  8
0
 10
2.7283
 20
0.344666
 11
2.74457
 21
0.172668
  0
LINE
  8
0
 10
2.74457
 20
0.172668
 11
2.75
 21
0
  0
LINE
  8
0
 10
2.75
 20
0
 11
2.74457
 21
-0.172668
  0
LINE
  8
0
 10
2.74457
 20
-0.172668
 11
2.7283
 21
-0.344666
  0
LINE
  8
0
 10
2.7283
 20
-0.344666
 11
2.70128
 21
-0.515289
  0
LINE
  8
0
 10
2.70128
 20
-0.515289
 11
2.66359
 21
-0.683884
  0
LINE
  8
0
 10
2.66359
 20
-0.683884
 11
2.6154
 21
-0.849792
  0
LINE
  8
0
 10
2.6154
 20
-0.849792
 11
2.55688
 21
-1.01233
  0
LINE
  8
0
 10
2.55688
 20
-1.01233
 11
2.48827
 21
-1.17088
  0
LINE
  8
0
 10
2.48827
 20
-1.17088
 11
2.40984
 21
-1.32481
  0
LINE
  8
0
 10
2.40984
 20
-1.32481
 11
2.3219
 21
-1.47351
  0
LINE
  8
0
 10
2.3219
 20
-1.47351
 11
2.22479
 21
-1.61641
  0
LINE
  8
0
 10
2.22479
 20
-1.61641
 11
2.1189
 21
-1.75291
  0
LINE
  8
0
 10
2.1189
 20
-1.75291
 11
2.00465
 21
-1.88249
  0
LINE
  8
0
 10
2.00465
 20
-1.88249
 11
1.88249
 21
-2.00465
  0
LINE
  8
0
 10
1.88249
 20
-2.00465
 11
1.75291
 21
-2.1189
  0
LINE
  8
0
 10
1.75291
 20
-2.1189
 11
1.61641
 21
-2.22479
  0
LINE
  8
0
 10
1.61641
 20
-2.22479
 11
1.47351
 21
-2.3219
  0
LINE
  8
0
 10
1.47351
 20
-2.3219
 11
1.32481
 21
-2.40984
  0
LINE
  8
0
 10
1.32481
 20
-2.40984
 11
1.17088
 21
-2.48827
  0
LINE
  8
0
 10
1.17088
 20
-2.48827
 11
1.01233
 21
-2.55688
  0
LINE
  8
0
 10
1.01233
 20
-2.55688
 11
0.849792
 21
-2.6154
  0
LINE
  8
0
 10
0.849792
 20
-2.6154
 11
0.683884
 21
-2.66359
  0
LINE
  8
0
 10
0.683884
 20
-2.66359
 11
0.515289
 21
-2.70128
  0
LINE
  8
0
 10
0.515289
 20
-2.70128
 11
0.344666
 21
-2.7283
  0
LINE
  8
0
 10
0.344666
 20
-2.7283
 11
0.172668
 21
-2.74457
  0
LINE
  8
0
 10
0.172668
 20
-2.74457
 11
0
 21
-2.75
  0
LINE
  8
0
 10
0
 20
-2.75
 11
-0.172668
 21
-2.74457
  0
LINE
  8
0
 10
-95.9759
 20
-1.07591
 11
-55.9759
 21
-1.07591
  0
LINE
  8
0
 10
-55.9759
 20
-1.07591
 11
-55.9759
 21
-2.37592
  0
LINE
  8
0
 10
-55.9759
 20
-2.37592
 11
-95.9759
 21
-2.37592
  0
LINE
  8
0
 10
-95.9759
 20
-2.37592
 11
-95.9759
 21
-1.07591
  0
LINE
  8
0
 10
8.02408
 20
-2.37592
 11
8.02408
 21
-1.07591
  0
LINE
  8
0
 10
8.02408
 20
-1.07591
 11
48.0241
 21
-1.07591
  0
LINE
  8
0
 10
48.0241
 20
-1.07591
 11
48.0241
 21
-2.37592
  0
LINE
  8
0
 10
48.0241
 20
-2.37592
 11
8.02408
 21
-2.37592
  0
LINE
  8
0
 10
60.0241
 20
-2.37592
 11
60.0241
 21
-1.07591
  0
LINE
  8
0
 10
60.0241
 20
-1.07591
 11
100.024
 21
-1.07591
  0
LINE
  8
0
 10
100.024
 20
-1.07591
 11
100.024
 21
-2.37592
  0
LINE
  8
0
 10
100.024
 20
-2.37592
 11
60.0241
 21
-2.37592
  0
LINE
  8
0
 10
60.0241
 20
-7.57591
 11
60.0241
 21
-6.27591
  0
LINE
  8
0
 10
60.0241
 20
-6.27591
 11
100.024
 21
-6.27591
  0
LINE
  8
0
 10
100.024
 20
-6.27591
 11
100.024
 21
-7.57591
  0
LINE
  8
0
 10
100.024
 20
-7.57591
 11
60.0241
 21
-7.57591
  0
LINE
  8
0
 10
-43.9759
 20
-7.57591
 11
-43.9759
 21
-6.27591
  0
LINE
  8
0
 10
-43.9759
 20
-6.27591
 11
-3.97591
 21
-6.27591
  0
LINE
  8
0
 10
-3.97591
 20
-6.27591
 11
-3.97591
 21
-7.57591
  0
LINE
  8
0
 10
-3.97591
 20
-7.57591
 11
-43.9759
 21
-7.57591
  0
LINE
  8
0
 10
8.02408
 20
-7.57591
 11
8.02408
 21
-6.27591
  0
LINE
  8
0
 10
8.02408
 20
-6.27591
 11
48.0241
 21
-6.27591
  0
LINE
  8
0
 10
48.0241
 20
-6.27591
 11
48.0241
 21
-7.57591
  0
LINE
  8
0
 10
48.0241
 20
-7.57591
 11
8.02408
 21
-7.57591
  0
LINE
  8
0
 10
-95.9759
 20
-7.57591
 11
-95.9759
 21
-6.27591
  0
LINE
  8
0
 10
-95.9759
 20
-6.27591
 11
-55.9759
 21
-6.27591
  0
LINE
  8
0
 10
-55.9759
 20
-6.27591
 11
-55.9759
 21
-7.57591
  0
LINE
  8
0
 10
-55.9759
 20
-7.57591
 11
-95.9759
 21
-7.57591
  0
LINE
  8
0
 10
-95.9759
 20
-12.7759
 11
-95.9759
 21
-11.4759
  0
LINE
  8
0
 10
-95.9759
 20
-11.4759
 11
-55.9759
 21
-11.4759
  0
LINE
  8
0
 10
-55.9759
 20
-11.4759
 11
-55.9759
 21
-12.7759
  0
LINE
  8
0
 10
-55.9759
 20
-12.7759
 11
-95.9759
 21
-12.7759
  0
LINE
  8
0
 10
60.0241
 20
-12.7759
 11
60.0241
 21
-11.4759
  0
LINE
  8
0
 10
60.0241
 20
-11.4759
 11
100.024
 21
-11.4759
  0
LINE
  8
0
 10
100.024
 20
-11.4759
 11
100.024
 21
-12.7759
  0
LINE
  8
0
 10
100.024
 20
-12.7759
 11
60.0241
 21
-12.7759
  0
LINE
  8
0
 10
8.02408
 20
-12.7759
 11
8.02408
 21
-11.4759
  0
LINE
  8
0
 10
8.02408
 20
-11.4759
 11
48.0241
 21
-11.4759
  0
LINE
  8
0
 10
48.0241
 20
-11.4759
 11
48.0241
 21
-12.7759
  0
LINE
  8
0
 10
48.0241
 20
-12.7759
 11
8.02408
 21
-12.7759
  0
LINE
  8
0
 10
-43.9759
 20
-12.7759
 11
-43.9759
 21
-11.4759
  0
LINE
  8
0
 10
-43.9759
 20
-11.4759
 11
-3.97591
 21
-11.4759
  0
LINE
  8
0
 10
-3.97591
 20
-11.4759
 11
-3.97591
 21
-12.7759
  0
LINE
  8
0
 10
-3.97591
 20
-12.7759
 11
-43.9759
 21
-12.7759
  0
LINE
  8
0
 10
-95.9759
 20
-17.9759
 11
-95.9759
 21
-16.6759
  0
LINE
  8
0
 10
-95.9759
 20
-16.6759
 11
-55.9759
 21
-16.6759
  0
LINE
  8
0
 10
-55.9759
 20
-16.6759
 11
-55.9759
 21
-17.9759
  0
LINE
  8
0
 10
-55.9759
 20
-17.9759
 11
-95.9759
 21
-17.9759
  0
LINE
  8
0
 10
-43.9759
 20
-17.9759
 11
-43.9759
 21
-16.6759
  0
LINE
  8
0
 10
-43.9759
 20
-16.6759
 11
-3.97591
 21
-16.6759
  0
LINE
  8
0
 10
-3.97591
 20
-16.6759
 11
-3.97591
 21
-17.9759
  0
LINE
  8
0
 10
-3.97591
 20
-17.9759
 11
-43.9759
 21
-17.9759
  0
LINE
  8
0
 10
8.02408
 20
-17.9759
 11
8.02408
 21
-16.6759
  0
LINE
  8
0
 10
8.02408
 20
-16.6759
 11
48.0241
 21
-16.6759
  0
LINE
  8
0
 10
48.0241
 20
-16.6759
 11
48.0241
 21
-17.9759
  0
LINE
  8
0
 10
48.0241
 20
-17.9759
 11
8.02408
 21
-17.9759
  0
LINE
  8
0
 10
100.024
 20
-17.9759
 11
60.0241
 21
-17.9759
  0
LINE
  8
0
 10
60.0241
 20
-17.9759
 11
60.0241
 21
-16.6759
  0
LINE
  8
0
 10
60.0241
 20
-16.6759
 11
100.024
 21
-16.6759
  0
LINE
  8
0
 10
100.024
 20
-16.6759
 11
100.024
 21
-17.9759
  0
LINE
  8
0
 10
8.02408
 20
-23.1759
 11
8.02408
 21
-21.8759
  0
LINE
  8
0
 10
8.02408
 20
-21.8759
 11
48.0241
 21
-21.8759
  0
LINE
  8
0
 10
48.0241
 20
-21.8759
 11
48.0241
 21
-23.1759
  0
LINE
  8
0
 10
48.0241
 20
-23.1759
 11
8.02408
 21
-23.1759
  0
LINE
  8
0
 10
-95.9759
 20
-23.1759
 11
-95.9759
 21
-21.8759
  0
LINE
  8
0
 10
-95.9759
 20
-21.8759
 11
-55.9759
 21
-21.8759
  0
LINE
  8
0
 10
-55.9759
 20
-21.8759
 11
-55.9759
 21
-23.1759
  0
LINE
  8
0
 10
-55.9759
 20
-23.1759
 11
-95.9759
 21
-23.1759
  0
LINE
  8
0
 10
60.0241
 20
-23.1759
 11
60.0241
 21
-21.8759
  0
LINE
  8
0
 10
60.0241
 20
-21.8759
 11
100.024
 21
-21.8759
  0
LINE
  8
0
 10
100.024
 20
-21.8759
 11
100.024
 21
-23.1759
  0
LINE
  8
0
 10
100.024
 20
-23.1759
 11
60.0241
 21
-23.1759
  0
LINE
  8
0
 10
-3.97591
 20
-23.1759
 11
-43.9759
 21
-23.1759
  0
LINE
  8
0
 10
-43.9759
 20
-23.1759
 11
-43.9759
 21
-21.8759
  0
LINE
  8
0
 10
-43.9759
 20
-21.8759
 11
-3.97591
 21
-21.8759
  0
LINE
  8
0
 10
-3.97591
 20
-21.8759
 11
-3.97591
 21
-23.1759
  0
LINE
  8
0
 10
-95.9759
 20
-28.3759
 11
-95.9759
 21
-27.0759
  0
LINE
  8
0
 10
-95.9759
 20
-27.0759
 11
-55.9759
 21
-27.0759
  0
LINE
  8
0
 10
-55.9759
 20
-27.0759
 11
-55.9759
 21
-28.3759
  0
LINE
  8
0
 10
-55.9759
 20
-28.3759
 11
-95.9759
 21
-28.3759
  0
LINE
  8
0
 10
60.0241
 20
-28.3759
 11
60.0241
 21
-27.0759
  0
LINE
  8
0
 10
60.0241
 20
-27.0759
 11
100.024
 21
-27.0759
  0
LINE
  8
0
 10
100.024
 20
-27.0759
 11
100.024
 21
-28.3759
  0
LINE
  8
0
 10
100.024
 20
-28.3759
 11
60.0241
 21
-28.3759
  0
LINE
  8
0
 10
-43.9759
 20
-28.3759
 11
-43.9759
 21
-27.0759
  0
LINE
  8
0
 10
-43.9759
 20
-27.0759
 11
-3.97591
 21
-27.0759
  0
LINE
  8
0
 10
-3.97591
 20
-27.0759
 11
-3.97591
 21
-28.3759
  0
LINE
  8
0
 10
-3.97591
 20
-28.3759
 11
-43.9759
 21
-28.3759
  0
LINE
  8
0
 10
8.02408
 20
-28.3759
 11
8.02408
 21
-27.0759
  0
LINE
  8
0
 10
8.02408
 20
-27.0759
 11
48.0241
 21
-27.0759
  0
LINE
  8
0
 10
48.0241
 20
-27.0759
 11
48.0241
 21
-28.3759
  0
LINE
  8
0
 10
48.0241
 20
-28.3759
 11
8.02408
 21
-28.3759
  0
LINE
  8
0
 10
8.02408
 20
-33.5759
 11
8.02408
 21
-32.2759
  0
LINE
  8
0
 10
8.02408
 20
-32.2759
 11
48.0241
 21
-32.2759
  0
LINE
  8
0
 10
48.0241
 20
-32.2759
 11
48.0241
 21
-33.5759
  0
LINE
  8
0
 10
48.0241
 20
-33.5759
 11
8.02408
 21
-33.5759
  0
LINE
  8
0
 10
-95.9759
 20
-33.5759
 11
-95.9759
 21
-32.2759
  0
LINE
  8
0
 10
-95.9759
 20
-32.2759
 11
-55.9759
 21
-32.2759
  0
LINE
  8
0
 10
-55.9759
 20
-32.2759
 11
-55.9759
 21
-33.5759
  0
LINE
  8
0
 10
-55.9759
 20
-33.5759
 11
-95.9759
 21
-33.5759
  0
LINE
  8
0
 10
-43.9759
 20
-33.5759
 11
-43.9759
 21
-32.2759
  0
LINE
  8
0
 10
-43.9759
 20
-32.2759
 11
-3.97591
 21
-32.2759
  0
LINE
  8
0
 10
-3.97591
 20
-32.2759
 11
-3.97591
 21
-33.5759
  0
LINE
  8
0
 10
-3.97591
 20
-33.5759
 11
-43.9759
 21
-33.5759
  0
LINE
  8
0
 10
60.0241
 20
-33.5759
 11
60.0241
 21
-32.2759
  0
LINE
  8
0
 10
60.0241
 20
-32.2759
 11
100.024
 21
-32.2759
  0
LINE
  8
0
 10
100.024
 20
-32.2759
 11
100.024
 21
-33.5759
  0
LINE
  8
0
 10
100.024
 20
-33.5759
 11
60.0241
 21
-33.5759
  0
LINE
  8
0
 10
-95.9759
 20
-38.7759
 11
-95.9759
 21
-37.4759
  0
LINE
  8
0
 10
-95.9759
 20
-37.4759
 11
-55.9759
 21
-37.4759
  0
LINE
  8
0
 10
-55.9759
 20
-37.4759
 11
-55.9759
 21
-38.7759
  0
LINE
  8
0
 10
-55.9759
 20
-38.7759
 11
-95.9759
 21
-38.7759
  0
LINE
  8
0
 10
8.02408
 20
-38.7759
 11
8.02408
 21
-37.4759
  0
LINE
  8
0
 10
8.02408
 20
-37.4759
 11
48.0241
 21
-37.4759
  0
LINE
  8
0
 10
48.0241
 20
-37.4759
 11
48.0241
 21
-38.7759
  0
LINE
  8
0
 10
48.0241
 20
-38.7759
 11
8.02408
 21
-38.7759
  0
LINE
  8
0
 10
-43.9759
 20
-38.7759
 11
-43.9759
 21
-37.4759
  0
LINE
  8
0
 10
-43.9759
 20
-37.4759
 11
-3.97591
 21
-37.4759
  0
LINE
  8
0
 10
-3.97591
 20
-37.4759
 11
-3.97591
 21
-38.7759
  0
LINE
  8
0
 10
-3.97591
 20
-38.7759
 11
-43.9759
 21
-38.7759
  0
LINE
  8
0
 10
60.0241
 20
-38.7759
 11
60.0241
 21
-37.4759
  0
LINE
  8
0
 10
60.0241
 20
-37.4759
 11
100.024
 21
-37.4759
  0
LINE
  8
0
 10
100.024
 20
-37.4759
 11
100.024
 21
-38.7759
  0
LINE
  8
0
 10
100.024
 20
-38.7759
 11
60.0241
 21
-38.7759
  0
LINE
  8
0
 10
-95.9759
 20
-43.9759
 11
-95.9759
 21
-42.6759
  0
LINE
  8
0
 10
-95.9759
 20
-42.6759
 11
-55.9759
 21
-42.6759
  0
LINE
  8
0
 10
-55.9759
 20
-42.6759
 11
-55.9759
 21
-43.9759
  0
LINE
  8
0
 10
-55.9759
 20
-43.9759
 11
-95.9759
 21
-43.9759
  0
LINE
  8
0
 10
60.0241
 20
-43.9759
 11
60.0241
 21
-42.6759
  0
LINE
  8
0
 10
60.0241
 20
-42.6759
 11
100.024
 21
-42.6759
  0
LINE
  8
0
 10
100.024
 20
-42.6759
 11
100.024
 21
-43.9759
  0
LINE
  8
0
 10
100.024
 20
-43.9759
 11
60.0241
 21
-43.9759
  0
LINE
  8
0
 10
-43.9759
 20
-43.9759
 11
-43.9759
 21
-42.6759
  0
LINE
  8
0
 10
-43.9759
 20
-42.6759
 11
-3.97591
 21
-42.6759
  0
LINE
  8
0
 10
-3.97591
 20
-42.6759
 11
-3.97591
 21
-43.9759
  0
LINE
  8
0
 10
-3.97591
 20
-43.9759
 11
-43.9759
 21
-43.9759
  0
LINE
  8
0
 10
8.02408
 20
-43.9759
 11
8.02408
 21
-42.6759
  0
LINE
  8
0
 10
8.02408
 20
-42.6759
 11
48.0241
 21
-42.6759
  0
LINE
  8
0
 10
48.0241
 20
-42.6759
 11
48.0241
 21
-43.9759
  0
LINE
  8
0
 10
48.0241
 20
-43.9759
 11
8.02408
 21
-43.9759
  0
LINE
  8
0
 10
-95.9759
 20
-49.1759
 11
-95.9759
 21
-47.8759
  0
LINE
  8
0
 10
-95.9759
 20
-47.8759
 11
-55.9759
 21
-47.8759
  0
LINE
  8
0
 10
-55.9759
 20
-47.8759
 11
-55.9759
 21
-49.1759
  0
LINE
  8
0
 10
-55.9759
 20
-49.1759
 11
-95.9759
 21
-49.1759
  0
LINE
  8
0
 10
-43.9759
 20
-49.1759
 11
-43.9759
 21
-47.8759
  0
LINE
  8
0
 10
-43.9759
 20
-47.8759
 11
-3.97591
 21
-47.8759
  0
LINE
  8
0
 10
-3.97591
 20
-47.8759
 11
-3.97591
 21
-49.1759
  0
LINE
  8
0
 10
-3.97591
 20
-49.1759
 11
-43.9759
 21
-49.1759
  0
LINE
  8
0
 10
8.02408
 20
-49.1759
 11
8.02408
 21
-47.8759
  0
LINE
  8
0
 10
8.02408
 20
-47.8759
 11
48.0241
 21
-47.8759
  0
LINE
  8
0
 10
48.0241
 20
-47.8759
 11
48.0241
 21
-49.1759
  0
LINE
  8
0
 10
48.0241
 20
-49.1759
 11
8.02408
 21
-49.1759
  0
LINE
  8
0
 10
60.0241
 20
-49.1759
 11
60.0241
 21
-47.8759
  0
LINE
  8
0
 10
60.0241
 20
-47.8759
 11
100.024
 21
-47.8759
  0
LINE
  8
0
 10
100.024
 20
-47.8759
 11
100.024
 21
-49.1759
  0
LINE
  8
0
 10
100.024
 20
-49.1759
 11
60.0241
 21
-49.1759
  0
LINE
  8
0
 10
-43.9759
 20
-54.3759
 11
-43.9759
 21
-53.0759
  0
LINE
  8
0
 10
-43.9759
 20
-53.0759
 11
-3.97591
 21
-53.0759
  0
LINE
  8
0
 10
-3.97591
 20
-53.0759
 11
-3.97591
 21
-54.3759
  0
LINE
  8
0
 10
-3.97591
 20
-54.3759
 11
-43.9759
 21
-54.3759
  0
LINE
  8
0
 10
-95.9759
 20
-54.3759
 11
-95.9759
 21
-53.0759
  0
LINE
  8
0
 10
-95.9759
 20
-53.0759
 11
-55.9759
 21
-53.0759
  0
LINE
  8
0
 10
-55.9759
 20
-53.0759
 11
-55.9759
 21
-54.3759
  0
LINE
  8
0
 10
-55.9759
 20
-54.3759
 11
-95.9759
 21
-54.3759
  0
LINE
  8
0
 10
8.02408
 20
-54.3759
 11
8.02408
 21
-53.0759
  0
LINE
  8
0
 10
8.02408
 20
-53.0759
 11
48.0241
 21
-53.0759
  0
LINE
  8
0
 10
48.0241
 20
-53.0759
 11
48.0241
 21
-54.3759
  0
LINE
  8
0
 10
48.0241
 20
-54.3759
 11
8.02408
 21
-54.3759
  0
LINE
  8
0
 10
60.0241
 20
-54.3759
 11
60.0241
 21
-53.0759
  0
LINE
  8
0
 10
60.0241
 20
-53.0759
 11
100.024
 21
-53.0759
  0
LINE
  8
0
 10
100.024
 20
-53.0759
 11
100.024
 21
-54.3759
  0
LINE
  8
0
 10
100.024
 20
-54.3759
 11
60.0241
 21
-54.3759
  0
LINE
  8
0
 10
-95.9759
 20
-59.5759
 11
-95.9759
 21
-58.2759
  0
LINE
  8
0
 10
-95.9759
 20
-58.2759
 11
-55.9759
 21
-58.2759
  0
LINE
  8
0
 10
-55.9759
 20
-58.2759
 11
-55.9759
 21
-59.5759
  0
LINE
  8
0
 10
-55.9759
 20
-59.5759
 11
-95.9759
 21
-59.5759
  0
LINE
  8
0
 10
8.02408
 20
-59.5759
 11
8.02408
 21
-58.2759
  0
LINE
  8
0
 10
8.02408
 20
-58.2759
 11
48.0241
 21
-58.2759
  0
LINE
  8
0
 10
48.0241
 20
-58.2759
 11
48.0241
 21
-59.5759
  0
LINE
  8
0
 10
48.0241
 20
-59.5759
 11
8.02408
 21
-59.5759
  0
LINE
  8
0
 10
60.0241
 20
-59.5759
 11
60.0241
 21
-58.2759
  0
LINE
  8
0
 10
60.0241
 20
-58.2759
 11
100.024
 21
-58.2759
  0
LINE
  8
0
 10
100.024
 20
-58.2759
 11
100.024
 21
-59.5759
  0
LINE
  8
0
 10
100.024
 20
-59.5759
 11
60.0241
 21
-59.5759
  0
LINE
  8
0
 10
-43.9759
 20
-59.5759
 11
-43.9759
 21
-58.2759
  0
LINE
  8
0
 10
-43.9759
 20
-58.2759
 11
-3.97591
 21
-58.2759
  0
LINE
  8
0
 10
-3.97591
 20
-58.2759
 11
-3.97591
 21
-59.5759
  0
LINE
  8
0
 10
-3.97591
 20
-59.5759
 11
-43.9759
 21
-59.5759
  0
LINE
  8
0
 10
8.02408
 20
-64.7759
 11
8.02408
 21
-63.4759
  0
LINE
  8
0
 10
8.02408
 20
-63.4759
 11
48.0241
 21
-63.4759
  0
LINE
  8
0
 10
48.0241
 20
-63.4759
 11
48.0241
 21
-64.7759
  0
LINE
  8
0
 10
48.0241
 20
-64.7759
 11
8.02408
 21
-64.7759
  0
LINE
  8
0
 10
60.0241
 20
-64.7759
 11
60.0241
 21
-63.4759
  0
LINE
  8
0
 10
60.0241
 20
-63.4759
 11
100.024
 21
-63.4759
  0
LINE
  8
0
 10
100.024
 20
-63.4759
 11
100.024
 21
-64.7759
  0
LINE
  8
0
 10
100.024
 20
-64.7759
 11
60.0241
 21
-64.7759
  0
LINE
  8
0
 10
-95.9759
 20
-64.7759
 11
-95.9759
 21
-63.4759
  0
LINE
  8
0
 10
-95.9759
 20
-63.4759
 11
-55.9759
 21
-63.4759
  0
LINE
  8
0
 10
-55.9759
 20
-63.4759
 11
-55.9759
 21
-64.7759
  0
LINE
  8
0
 10
-55.9759
 20
-64.7759
 11
-95.9759
 21
-64.7759
  0
LINE
  8
0
 10
-43.9759
 20
-64.7759
 11
-43.9759
 21
-63.4759
  0
LINE
  8
0
 10
-43.9759
 20
-63.4759
 11
-3.97591
 21
-63.4759
  0
LINE
  8
0
 10
-3.97591
 20
-63.4759
 11
-3.97591
 21
-64.7759
  0
LINE
  8
0
 10
-3.97591
 20
-64.7759
 11
-43.9759
 21
-64.7759
  0
LINE
  8
0
 10
-95.9759
 20
-69.9759
 11
-95.9759
 21
-68.6759
  0
LINE
  8
0
 10
-95.9759
 20
-68.6759
 11
-55.9759
 21
-68.6759
  0
LINE
  8
0
 10
-55.9759
 20
-68.6759
 11
-55.9759
 21
-69.9759
  0
LINE
  8
0
 10
-55.9759
 20
-69.9759
 11
-95.9759
 21
-69.9759
  0
LINE
  8
0
 10
-43.9759
 20
-69.9759
 11
-43.9759
 21
-68.6759
  0
LINE
  8
0
 10
-43.9759
 20
-68.6759
 11
-3.97591
 21
-68.6759
  0
LINE
  8
0
 10
-3.97591
 20
-68.6759
 11
-3.97591
 21
-69.9759
  0
LINE
  8
0
 10
-3.97591
 20
-69.9759
 11
-43.9759
 21
-69.9759
  0
LINE
  8
0
 10
8.02408
 20
-69.9759
 11
8.02408
 21
-68.6759
  0
LINE
  8
0
 10
8.02408
 20
-68.6759
 11
48.0241
 21
-68.6759
  0
LINE
  8
0
 10
48.0241
 20
-68.6759
 11
48.0241
 21
-69.9759
  0
LINE
  8
0
 10
48.0241
 20
-69.9759
 11
8.02408
 21
-69.9759
  0
LINE
  8
0
 10
60.0241
 20
-69.9759
 11
60.0241
 21
-68.6759
  0
LINE
  8
0
 10
60.0241
 20
-68.6759
 11
100.024
 21
-68.6759
  0
LINE
  8
0
 10
100.024
 20
-68.6759
 11
100.024
 21
-69.9759
  0
LINE
  8
0
 10
100.024
 20
-69.9759
 11
60.0241
 21
-69.9759
  0
LINE
  8
0
 10
-43.9759
 20
-75.1759
 11
-43.9759
 21
-73.8759
  0
LINE
  8
0
 10
-43.9759
 20
-73.8759
 11
-3.97591
 21
-73.8759
  0
LINE
  8
0
 10
-3.97591
 20
-73.8759
 11
-3.97591
 21
-75.1759
  0
LINE
  8
0
 10
-3.97591
 20
-75.1759
 11
-43.9759
 21
-75.1759
  0
LINE
  8
0
 10
-95.9759
 20
-75.1759
 11
-95.9759
 21
-73.8759
  0
LINE
  8
0
 10
-95.9759
 20
-73.8759
 11
-55.9759
 21
-73.8759
  0
LINE
  8
0
 10
-55.9759
 20
-73.8759
 11
-55.9759
 21
-75.1759
  0
LINE
  8
0
 10
-55.9759
 20
-75.1759
 11
-95.9759
 21
-75.1759
  0
LINE
  8
0
 10
60.0241
 20
-75.1759
 11
60.0241
 21
-73.8759
  0
LINE
  8
0
 10
60.0241
 20
-73.8759
 11
100.024
 21
-73.8759
  0
LINE
  8
0
 10
100.024
 20
-73.8759
 11
100.024
 21
-75.1759
  0
LINE
  8
0
 10
100.024
 20
-75.1759
 11
60.0241
 21
-75.1759
  0
LINE
  8
0
 10
8.02408
 20
-75.1759
 11
8.02408
 21
-73.8759
  0
LINE
  8
0
 10
8.02408
 20
-73.8759
 11
48.0241
 21
-73.8759
  0
LINE
  8
0
 10
48.0241
 20
-73.8759
 11
48.0241
 21
-75.1759
  0
LINE
  8
0
 10
48.0241
 20
-75.1759
 11
8.02408
 21
-75.1759
  0
LINE
  8
0
 10
60.0241
 20
-80.3759
 11
60.0241
 21
-79.0759
  0
LINE
  8
0
 10
60.0241
 20
-79.0759
 11
100.024
 21
-79.0759
  0
LINE
  8
0
 10
100.024
 20
-79.0759
 11
100.024
 21
-80.3759
  0
LINE
  8
0
 10
100.024
 20
-80.3759
 11
60.0241
 21
-80.3759
  0
LINE
  8
0
 10
8.02408
 20
-80.3759
 11
8.02408
 21
-79.0759
  0
LINE
  8
0
 10
8.02408
 20
-79.0759
 11
48.0241
 21
-79.0759
  0
LINE
  8
0
 10
48.0241
 20
-79.0759
 11
48.0241
 21
-80.3759
  0
LINE
  8
0
 10
48.0241
 20
-80.3759
 11
8.02408
 21
-80.3759
  0
LINE
  8
0
 10
-95.9759
 20
-80.3759
 11
-95.9759
 21
-79.0759
  0
LINE
  8
0
 10
-95.9759
 20
-79.0759
 11
-55.9759
 21
-79.0759
  0
LINE
  8
0
 10
-55.9759
 20
-79.0759
 11
-55.9759
 21
-80.3759
  0
LINE
  8
0
 10
-55.9759
 20
-80.3759
 11
-95.9759
 21
-80.3759
  0
LINE
  8
0
 10
-43.9759
 20
-80.3759
 11
-43.9759
 21
-79.0759
  0
LINE
  8
0
 10
-43.9759
 20
-79.0759
 11
-3.97591
 21
-79.0759
  0
LINE
  8
0
 10
-3.97591
 20
-79.0759
 11
-3.97591
 21
-80.3759
  0
LINE
  8
0
 10
-3.97591
 20
-80.3759
 11
-43.9759
 21
-80.3759
  0
LINE
  8
0
 10
8.02408
 20
-85.5759
 11
8.02408
 21
-84.2759
  0
LINE
  8
0
 10
8.02408
 20
-84.2759
 11
48.0241
 21
-84.2759
  0
LINE
  8
0
 10
48.0241
 20
-84.2759
 11
48.0241
 21
-85.5759
  0
LINE
  8
0
 10
48.0241
 20
-85.5759
 11
8.02408
 21
-85.5759
  0
LINE
  8
0
 10
-43.9759
 20
-85.5759
 11
-43.9759
 21
-84.2759
  0
LINE
  8
0
 10
-43.9759
 20
-84.2759
 11
-3.97591
 21
-84.2759
  0
LINE
  8
0
 10
-3.97591
 20
-84.2759
 11
-3.97591
 21
-85.5759
  0
LINE
  8
0
 10
-3.97591
 20
-85.5759
 11
-43.9759
 21
-85.5759
  0
LINE
  8
0
 10
-95.9759
 20
-85.5759
 11
-95.9759
 21
-84.2759
  0
LINE
  8
0
 10
-95.9759
 20
-84.2759
 11
-55.9759
 21
-84.2759
  0
LINE
  8
0
 10
-55.9759
 20
-84.2759
 11
-55.9759
 21
-85.5759
  0
LINE
  8
0
 10
-55.9759
 20
-85.5759
 11
-95.9759
 21
-85.5759
  0
LINE
  8
0
 10
60.0241
 20
-85.5759
 11
60.0241
 21
-84.2759
  0
LINE
  8
0
 10
60.0241
 20
-84.2759
 11
100.024
 21
-84.2759
  0
LINE
  8
0
 10
100.024
 20
-84.2759
 11
100.024
 21
-85.5759
  0
LINE
  8
0
 10
100.024
 20
-85.5759
 11
60.0241
 21
-85.5759
  0
LINE
  8
0
 10
8.02408
 20
-90.7759
 11
8.02408
 21
-89.4759
  0
LINE
  8
0
 10
8.02408
 20
-89.4759
 11
48.0241
 21
-89.4759
  0
LINE
  8
0
 10
48.0241
 20
-89.4759
 11
48.0241
 21
-90.7759
  0
LINE
  8
0
 10
48.0241
 20
-90.7759
 11
8.02408
 21
-90.7759
  0
LINE
  8
0
 10
-95.9759
 20
-90.7759
 11
-95.9759
 21
-89.4759
  0
LINE
  8
0
 10
-95.9759
 20
-89.4759
 11
-55.9759
 21
-89.4759
  0
LINE
  8
0
 10
-55.9759
 20
-89.4759
 11
-55.9759
 21
-90.7759
  0
LINE
  8
0
 10
-55.9759
 20
-90.7759
 11
-95.9759
 21
-90.7759
  0
LINE
  8
0
 10
-43.9759
 20
-90.7759
 11
-43.9759
 21
-89.4759
  0
LINE
  8
0
 10
-43.9759
 20
-89.4759
 11
-3.97591
 21
-89.4759
  0
LINE
  8
0
 10
-3.97591
 20
-89.4759
 11
-3.97591
 21
-90.7759
  0
LINE
  8
0
 10
-3.97591
 20
-90.7759
 11
-43.9759
 21
-90.7759
  0
LINE
  8
0
 10
60.0241
 20
-90.7759
 11
60.0241
 21
-89.4759
  0
LINE
  8
0
 10
60.0241
 20
-89.4759
 11
100.024
 21
-89.4759
  0
LINE
  8
0
 10
100.024
 20
-89.4759
 11
100.024
 21
-90.7759
  0
LINE
  8
0
 10
100.024
 20
-90.7759
 11
60.0241
 21
-90.7759
  0
LINE
  8
0
 10
-95.9759
 20
-95.9759
 11
-95.9759
 21
-94.6759
  0
LINE
  8
0
 10
-95.9759
 20
-94.6759
 11
-55.9759
 21
-94.6759
  0
LINE
  8
0
 10
-55.9759
 20
-94.6759
 11
-55.9759
 21
-95.9759
  0
LINE
  8
0
 10
-55.9759
 20
-95.9759
 11
-95.9759
 21
-95.9759
  0
LINE
  8
0
 10
60.0241
 20
-95.9759
 11
60.0241
 21
-94.6759
  0
LINE
  8
0
 10
60.0241
 20
-94.6759
 11
100.024
 21
-94.6759
  0
LINE
  8
0
 10
100.024
 20
-94.6759
 11
100.024
 21
-95.9759
  0
LINE
  8
0
 10
100.024
 20
-95.9759
 11
60.0241
 21
-95.9759
  0
LINE
  8
0
 10
8.02408
 20
-95.9759
 11
8.02408
 21
-94.6759
  0
LINE
  8
0
 10
8.02408
 20
-94.6759
 11
48.0241
 21
-94.6759
  0
LINE
  8
0
 10
48.0241
 20
-94.6759
 11
48.0241
 21
-95.9759
  0
LINE
  8
0
 10
48.0241
 20
-95.9759
 11
8.02408
 21
-95.9759
  0
LINE
  8
0
 10
-43.9759
 20
-95.9759
 11
-43.9759
 21
-94.6759
  0
LINE
  8
0
 10
-43.9759
 20
-94.6759
 11
-3.97591
 21
-94.6759
  0
LINE
  8
0
 10
-3.97591
 20
-94.6759
 11
-3.97591
 21
-95.9759
  0
LINE
  8
0
 10
-3.97591
 20
-95.9759
 11
-43.9759
 21
-95.9759
  0
LINE
  8
0
 10
-43.9759
 20
-101.176
 11
-43.9759
 21
-99.8759
  0
LINE
  8
0
 10
-43.9759
 20
-99.8759
 11
-3.97591
 21
-99.8759
  0
LINE
  8
0
 10
-3.97591
 20
-99.8759
 11
-3.97591
 21
-101.176
  0
LINE
  8
0
 10
-3.97591
 20
-101.176
 11
-43.9759
 21
-101.176
  0
LINE
  8
0
 10
-95.9759
 20
-101.176
 11
-95.9759
 21
-99.8759
  0
LINE
  8
0
 10
-95.9759
 20
-99.8759
 11
-55.9759
 21
-99.8759
  0
LINE
  8
0
 10
-55.9759
 20
-99.8759
 11
-55.9759
 21
-101.176
  0
LINE
  8
0
 10
-55.9759
 20
-101.176
 11
-95.9759
 21
-101.176
  0
LINE
  8
0
 10
8.02408
 20
-101.176
 11
8.02408
 21
-99.8759
  0
LINE
  8
0
 10
8.02408
 20
-99.8759
 11
48.0241
 21
-99.8759
  0
LINE
  8
0
 10
48.0241
 20
-99.8759
 11
48.0241
 21
-101.176
  0
LINE
  8
0
 10
48.0241
 20
-101.176
 11
8.02408
 21
-101.176
  0
LINE
  8
0
 10
60.0241
 20
-101.176
 11
60.0241
 21
-99.8759
  0
LINE
  8
0
 10
60.0241
 20
-99.8759
 11
100.024
 21
-99.8759
  0
LINE
  8
0
 10
100.024
 20
-99.8759
 11
100.024
 21
-101.176
  0
LINE
  8
0
 10
100.024
 20
-101.176
 11
60.0241
 21
-101.176
  0
LINE
  8
0
 10
60.0241
 20
-106.376
 11
60.0241
 21
-105.076
  0
LINE
  8
0
 10
60.0241
 20
-105.076
 11
100.024
 21
-105.076
  0
LINE
  8
0
 10
100.024
 20
-105.076
 11
100.024
 21
-106.376
  0
LINE
  8
0
 10
100.024
 20
-106.376
 11
60.0241
 21
-106.376
  0
LINE
  8
0
 10
-43.9759
 20
-106.376
 11
-43.9759
 21
-105.076
  0
LINE
  8
0
 10
-43.9759
 20
-105.076
 11
-3.97591
 21
-105.076
  0
LINE
  8
0
 10
-3.97591
 20
-105.076
 11
-3.97591
 21
-106.376
  0
LINE
  8
0
 10
-3.97591
 20
-106.376
 11
-43.9759
 21
-106.376
  0
LINE
  8
0
 10
-95.9759
 20
-106.376
 11
-95.9759
 21
-105.076
  0
LINE
  8
0
 10
-95.9759
 20
-105.076
 11
-55.9759
 21
-105.076
  0
LINE
  8
0
 10
-55.9759
 20
-105.076
 11
-55.9759
 21
-106.376
  0
LINE
  8
0
 10
-55.9759
 20
-106.376
 11
-95.9759
 21
-106.376
  0
LINE
  8
0
 10
8.02408
 20
-106.376
 11
8.02408
 21
-105.076
  0
LINE
  8
0
 10
8.02408
 20
-105.076
 11
48.0241
 21
-105.076
  0
LINE
  8
0
 10
48.0241
 20
-105.076
 11
48.0241
 21
-106.376
  0
LINE
  8
0
 10
48.0241
 20
-106.376
 11
8.02408
 21
-106.376
  0
LINE
  8
0
 10
-95.9759
 20
-111.576
 11
-95.9759
 21
-110.276
  0
LINE
  8
0
 10
-95.9759
 20
-110.276
 11
-55.9759
 21
-110.276
  0
LINE
  8
0
 10
-55.9759
 20
-110.276
 11
-55.9759
 21
-111.576
  0
LINE
  8
0
 10
-55.9759
 20
-111.576
 11
-95.9759
 21
-111.576
  0
LINE
  8
0
 10
-43.9759
 20
-111.576
 11
-43.9759
 21
-110.276
  0
LINE
  8
0
 10
-43.9759
 20
-110.276
 11
-3.97591
 21
-110.276
  0
LINE
  8
0
 10
-3.97591
 20
-110.276
 11
-3.97591
 21
-111.576
  0
LINE
  8
0
 10
-3.97591
 20
-111.576
 11
-43.9759
 21
-111.576
  0
LINE
  8
0
 10
60.0241
 20
-111.576
 11
60.0241
 21
-110.276
  0
LINE
  8
0
 10
60.0241
 20
-110.276
 11
100.024
 21
-110.276
  0
LINE
  8
0
 10
100.024
 20
-110.276
 11
100.024
 21
-111.576
  0
LINE
  8
0
 10
100.024
 20
-111.576
 11
60.0241
 21
-111.576
  0
LINE
  8
0
 10
8.02408
 20
-111.576
 11
8.02408
 21
-110.276
  0
LINE
  8
0
 10
8.02408
 20
-110.276
 11
48.0241
 21
-110.276
  0
LINE
  8
0
 10
48.0241
 20
-110.276
 11
48.0241
 21
-111.576
  0
LINE
  8
0
 10
48.0241
 20
-111.576
 11
8.02408
 21
-111.576
  0
LINE
  8
0
 10
-95.9759
 20
-116.776
 11
-95.9759
 21
-115.476
  0
LINE
  8
0
 10
-95.9759
 20
-115.476
 11
-55.9759
 21
-115.476
  0
LINE
  8
0
 10
-55.9759
 20
-115.476
 11
-55.9759
 21
-116.776
  0
LINE
  8
0
 10
-55.9759
 20
-116.776
 11
-95.9759
 21
-116.776
  0
LINE
  8
0
 10
8.02408
 20
-116.776
 11
8.02408
 21
-115.476
  0
LINE
  8
0
 10
8.02408
 20
-115.476
 11
48.0241
 21
-115.476
  0
LINE
  8
0
 10
48.0241
 20
-115.476
 11
48.0241
 21
-116.776
  0
LINE
  8
0
 10
48.0241
 20
-116.776
 11
8.02408
 21
-116.776
  0
LINE
  8
0
 10
-43.9759
 20
-116.776
 11
-43.9759
 21
-115.476
  0
LINE
  8
0
 10
-43.9759
 20
-115.476
 11
-3.97591
 21
-115.476
  0
LINE
  8
0
 10
-3.97591
 20
-115.476
 11
-3.97591
 21
-116.776
  0
LINE
  8
0
 10
-3.97591
 20
-116.776
 11
-43.9759
 21
-116.776
  0
LINE
  8
0
 10
60.0241
 20
-116.776
 11
60.0241
 21
-115.476
  0
LINE
  8
0
 10
60.0241
 20
-115.476
 11
100.024
 21
-115.476
  0
LINE
  8
0
 10
100.024
 20
-115.476
 11
100.024
 21
-116.776
  0
LINE
  8
0
 10
100.024
 20
-116.776
 11
60.0241
 21
-116.776
  0
LINE
  8
0
 10
-0.172668
 20
-124.72
 11
-0.344666
 21
-124.704
  0
LINE
  8
0
 10
-0.344666
 20
-124.704
 11
-0.515289
 21
-124.677
  0
LINE
  8
0
 10
-0.515289
 20
-124.677
 11
-0.683884
 21
-124.64
  0
LINE
  8
0
 10
-0.683884
 20
-124.64
 11
-0.849792
 21
-124.591
  0
LINE
  8
0
 10
-0.849792
 20
-124.591
 11
-1.01233
 21
-124.533
  0
LINE
  8
0
 10
-1.01233
 20
-124.533
 11
-1.17088
 21
-124.464
  0
LINE
  8
0
 10
-1.17088
 20
-124.464
 11
-1.32481
 21
-124.386
  0
LINE
  8
0
 10
-1.32481
 20
-124.386
 11
-1.47351
 21
-124.298
  0
LINE
  8
0
 10
-1.47351
 20
-124.298
 11
-1.61641
 21
-124.201
  0
LINE
  8
0
 10
-1.61641
 20
-124.201
 11
-1.75291
 21
-124.095
  0
LINE
  8
0
 10
-1.75291
 20
-124.095
 11
-1.88249
 21
-123.981
  0
LINE
  8
0
 10
-1.88249
 20
-123.981
 11
-2.00465
 21
-123.858
  0
LINE
  8
0
 10
-2.00465
 20
-123.858
 11
-2.1189
 21
-123.729
  0
LINE
  8
0
 10
-2.1189
 20
-123.729
 11
-2.22479
 21
-123.592
  0
LINE
  8
0
 10
-2.22479
 20
-123.592
 11
-2.3219
 21
-123.449
  0
LINE
  8
0
 10
-2.3219
 20
-123.449
 11
-2.40984
 21
-123.301
  0
LINE
  8
0
 10
-2.40984
 20
-123.301
 11
-2.48827
 21
-123.147
  0
LINE
  8
0
 10
-2.48827
 20
-123.147
 11
-2.55688
 21
-122.988
  0
LINE
  8
0
 10
-2.55688
 20
-122.988
 11
-2.6154
 21
-122.826
  0
LINE
  8
0
 10
-2.6154
 20
-122.826
 11
-2.66359
 21
-122.66
  0
LINE
  8
0
 10
-2.66359
 20
-122.66
 11
-2.70128
 21
-122.491
  0
LINE
  8
0
 10
-2.70128
 20
-122.491
 11
-2.7283
 21
-122.321
  0
LINE
  8
0
 10
-2.7283
 20
-122.321
 11
-2.74457
 21
-122.149
  0
LINE
  8
0
 10
-2.74457
 20
-122.149
 11
-2.75
 21
-121.976
  0
LINE
  8
0
 10
-2.75
 20
-121.976
 11
-2.74457
 21
-121.803
  0
LINE
  8
0
 10
-2.74457
 20
-121.803
 11
-2.7283
 21
-121.631
  0
LINE
  8
0
 10
-2.7283
 20
-121.631
 11
-2.70128
 21
-121.461
  0
LINE
  8
0
 10
-2.70128
 20
-121.461
 11
-2.66359
 21
-121.292
  0
LINE
  8
0
 10
-2.66359
 20
-121.292
 11
-2.6154
 21
-121.126
  0
LINE
  8
0
 10
-2.6154
 20
-121.126
 11
-2.55688
 21
-120.964
  0
LINE
  8
0
 10
-2.55688
 20
-120.964
 11
-2.48827
 21
-120.805
  0
LINE
  8
0
 10
-2.48827
 20
-120.805
 11
-2.40984
 21
-120.651
  0
LINE
  8
0
 10
-2.40984
 20
-120.651
 11
-2.3219
 21
-120.502
  0
LINE
  8
0
 10
-2.3219
 20
-120.502
 11
-2.22479
 21
-120.36
  0
LINE
  8
0
 10
-2.22479
 20
-120.36
 11
-2.1189
 21
-120.223
  0
LINE
  8
0
 10
-2.1189
 20
-120.223
 11
-2.00465
 21
-120.093
  0
LINE
  8
0
 10
-2.00465
 20
-120.093
 11
-1.88249
 21
-119.971
  0
LINE
  8
0
 10
-1.88249
 20
-119.971
 11
-1.75291
 21
-119.857
  0
LINE
  8
0
 10
-1.75291
 20
-119.857
 11
-1.61641
 21
-119.751
  0
LINE
  8
0
 10
-1.61641
 20
-119.751
 11
-1.47351
 21
-119.654
  0
LINE
  8
0
 10
-1.47351
 20
-119.654
 11
-1.32481
 21
-119.566
  0
LINE
  8
0
 10
-1.32481
 20
-119.566
 11
-1.17088
 21
-119.488
  0
LINE
  8
0
 10
-1.17088
 20
-119.488
 11
-1.01233
 21
-119.419
  0
LINE
  8
0
 10
-1.01233
 20
-119.419
 11
-0.849792
 21
-119.361
  0
LINE
  8
0
 10
-0.849792
 20
-119.361
 11
-0.683884
 21
-119.312
  0
LINE
  8
0
 10
-0.683884
 20
-119.312
 11
-0.515289
 21
-119.275
  0
LINE
  8
0
 10
-0.515289
 20
-119.275
 11
-0.344666
 21
-119.248
  0
LINE
  8
0
 10
-0.344666
 20
-119.248
 11
-0.172668
 21
-119.231
  0
LINE
  8
0
 10
-0.172668
 20
-119.231
 11
0
 21
-119.226
  0
LINE
  8
0
 10
0
 20
-119.226
 11
0.172668
 21
-119.231
  0
LINE
  8
0
 10
0.172668
 20
-119.231
 11
0.344666
 21
-119.248
  0
LINE
  8
0
 10
0.344666
 20
-119.248
 11
0.515289
 21
-119.275
  0
LINE
  8
0
 10
0.515289
 20
-119.275
 11
0.683884
 21
-119.312
  0
LINE
  8
0
 10
0.683884
 20
-119.312
 11
0.849792
 21
-119.361
  0
LINE
  8
0
 10
0.849792
 20
-119.361
 11
1.01233
 21
-119.419
  0
LINE
  8
0
 10
1.01233
 20
-119.419
 11
1.17088
 21
-119.488
  0
LINE
  8
0
 10
1.17088
 20
-119.488
 11
1.32481
 21
-119.566
  0
LINE
  8
0
 10
1.32481
 20
-119.566
 11
1.47351
 21
-119.654
  0
LINE
  8
0
 10
1.47351
 20
-119.654
 11
1.61641
 21
-119.751
  0
LINE
  8
0
 10
1.61641
 20
-119.751
 11
1.75291
 21
-119.857
  0
LINE
  8
0
 10
1.75291
 20
-119.857
 11
1.88249
 21
-119.971
  0
LINE
  8
0
 10
1.88249
 20
-119.971
 11
2.00465
 21
-120.093
  0
LINE
  8
0
 10
2.00465
 20
-120.093
 11
2.1189
 21
-120.223
  0
LINE
  8
0
 10
2.1189
 20
-120.223
 11
2.22479
 21
-120.36
  0
LINE
  8
0
 10
2.22479
 20
-120.36
 11
2.3219
 21
-120.502
  0
LINE
  8
0
 10
2.3219
 20
-120.502
 11
2.40984
 21
-120.651
  0
LINE
  8
0
 10
2.40984
 20
-120.651
 11
2.48827
 21
-120.805
  0
LINE
  8
0
 10
2.48827
 20
-120.805
 11
2.55688
 21
-120.964
  0
LINE
  8
0
 10
2.55688
 20
-120.964
 11
2.6154
 21
-121.126
  0
LINE
  8
0
 10
2.6154
 20
-121.126
 11
2.66359
 21
-121.292
  0
LINE
  8
0
 10
2.66359
 20
-121.292
 11
2.70128
 21
-121.461
  0
LINE
  8
0
 10
2.70128
 20
-121.461
 11
2.7283
 21
-121.631
  0
LINE
  8
0
 10
2.7283
 20
-121.631
 11
2.74457
 21
-121.803
  0
LINE
  8
0
 10
2.74457
 20
-121.803
 11
2.75
 21
-121.976
  0
LINE
  8
0
 10
2.75
 20
-121.976
 11
2.74457
 21
-122.149
  0
LINE
  8
0
 10
2.74457
 20
-122.149
 11
2.7283
 21
-122.321
  0
LINE
  8
0
 10
2.7283
 20
-122.321
 11
2.70128
 21
-122.491
  0
LINE
  8
0
 10
2.70128
 20
-122.491
 11
2.66359
 21
-122.66
  0
LINE
  8
0
 10
2.66359
 20
-122.66
 11
2.6154
 21
-122.826
  0
LINE
  8
0
 10
2.6154
 20
-122.826
 11
2.55688
 21
-122.988
  0
LINE
  8
0
 10
2.55688
 20
-122.988
 11
2.48827
 21
-123.147
  0
LINE
  8
0
 10
2.48827
 20
-123.147
 11
2.40984
 21
-123.301
  0
LINE
  8
0
 10
2.40984
 20
-123.301
 11
2.3219
 21
-123.449
  0
LINE
  8
0
 10
2.3219
 20
-123.449
 11
2.22479
 21
-123.592
  0
LINE
  8
0
 10
2.22479
 20
-123.592
 11
2.1189
 21
-123.729
  0
LINE
  8
0
 10
2.1189
 20
-123.729
 11
2.00465
 21
-123.858
  0
LINE
  8
0
 10
2.00465
 20
-123.858
 11
1.88249
 21
-123.981
  0
LINE
  8
0
 10
1.88249
 20
-123.981
 11
1.75291
 21
-124.095
  0
LINE
  8
0
 10
1.75291
 20
-124.095
 11
1.61641
 21
-124.201
  0
LINE
  8
0
 10
1.61641
 20
-124.201
 11
1.47351
 21
-124.298
  0
LINE
  8
0
 10
1.47351
 20
-124.298
 11
1.32481
 21
-124.386
  0
LINE
  8
0
 10
1.32481
 20
-124.386
 11
1.17088
 21
-124.464
  0
LINE
  8
0
 10
1.17088
 20
-124.464
 11
1.01233
 21
-124.533
  0
LINE
  8
0
 10
1.01233
 20
-124.533
 11
0.849792
 21
-124.591
  0
LINE
  8
0
 10
0.849792
 20
-124.591
 11
0.683884
 21
-124.64
  0
LINE
  8
0
 10
0.683884
 20
-124.64
 11
0.515289
 21
-124.677
  0
LINE
  8
0
 10
0.515289
 20
-124.677
 11
0.344666
 21
-124.704
  0
LINE
  8
0
 10
0.344666
 20
-124.704
 11
0.172668
 21
-124.72
  0
LINE
  8
0
 10
0.172668
 20
-124.72
 11
0
 21
-124.726
  0
LINE
  8
0
 10
0
 20
-124.726
 11
-0.172668
 21
-124.72
  0
LINE
  8
0
 10
-95.9759
 20
-121.976
 11
-95.9759
 21
-120.676
  0
LINE
  8
0
 10
-95.9759
 20
-120.676
 11
-55.9759
 21
-120.676
  0
LINE
  8
0
 10
-55.9759
 20
-120.676
 11
-55.9759
 21
-121.976
  0
LINE
  8
0
 10
-55.9759
 20
-121.976
 11
-95.9759
 21
-121.976
  0
LINE
  8
0
 10
60.0241
 20
-121.976
 11
60.0241
 21
-120.676
  0
LINE
  8
0
 10
60.0241
 20
-120.676
 11
100.024
 21
-120.676
  0
LINE
  8
0
 10
100.024
 20
-120.676
 11
100.024
 21
-121.976
  0
LINE
  8
0
 10
100.024
 20
-121.976
 11
60.0241
 21
-121.976
  0
LINE
  8
0
 10
-43.9759
 20
-121.976
 11
-43.9759
 21
-120.676
  0
LINE
  8
0
 10
-43.9759
 20
-120.676
 11
-3.97591
 21
-120.676
  0
LINE
  8
0
 10
-3.97591
 20
-120.676
 11
-3.97591
 21
-121.976
  0
LINE
  8
0
 10
-3.97591
 20
-121.976
 11
-43.9759
 21
-121.976
  0
LINE
  8
0
 10
8.02408
 20
-121.976
 11
8.02408
 21
-120.676
  0
LINE
  8
0
 10
8.02408
 20
-120.676
 11
48.0241
 21
-120.676
  0
LINE
  8
0
 10
48.0241
 20
-120.676
 11
48.0241
 21
-121.976
  0
LINE
  8
0
 10
48.0241
 20
-121.976
 11
8.02408
 21
-121.976
  0
LINE
  8
0
 10
-3.97591
 20
4.12407
 11
-3.97591
 21
2.82407
  0
LINE
  8
0
 10
-3.97591
 20
2.82407
 11
-43.9759
 21
2.82407
  0
LINE
  8
0
 10
-43.9759
 20
2.82407
 11
-43.9759
 21
4.12407
  0
LINE
  8
0
 10
-43.9759
 20
4.12407
 11
-3.97591
 21
4.12407
  0
LINE
  8
0
 10
-3.97591
 20
-1.07591
 11
-3.97591
 21
-2.37592
  0
LINE
  8
0
 10
-3.97591
 20
-2.37592
 11
-43.9759
 21
-2.37592
  0
LINE
  8
0
 10
-43.9759
 20
-2.37592
 11
-43.9759
 21
-1.07591
  0
LINE
  8
0
 10
-43.9759
 20
-1.07591
 11
-3.97591
 21
-1.07591
  0
ENDSEC
  0
SECTION
  2
OBJECTS
  0
DICTIONARY
  0
ENDSEC
  0
EOF
