  0
SECTION
  2
BLOCKS
  0
ENDSEC
  0
SECTION
  2
ENTITIES
  0
LINE
  8
0
 10
10.8627
 20
-172.659
 11
21.6826
 21
-171.636
  0
LINE
  8
0
 10
21.6826
 20
-171.636
 11
32.417
 21
-169.936
  0
LINE
  8
0
 10
32.417
 20
-169.936
 11
43.0233
 21
-167.565
  0
LINE
  8
0
 10
43.0233
 20
-167.565
 11
53.4599
 21
-164.533
  0
LINE
  8
0
 10
53.4599
 20
-164.533
 11
63.6855
 21
-160.851
  0
LINE
  8
0
 10
63.6855
 20
-160.851
 11
73.6598
 21
-156.535
  0
LINE
  8
0
 10
73.6598
 20
-156.535
 11
83.3434
 21
-151.601
  0
LINE
  8
0
 10
83.3434
 20
-151.601
 11
92.698
 21
-146.069
  0
LINE
  8
0
 10
92.698
 20
-146.069
 11
101.687
 21
-139.96
  0
LINE
  8
0
 10
101.687
 20
-139.96
 11
110.274
 21
-133.299
  0
LINE
  8
0
 10
110.274
 20
-133.299
 11
118.427
 21
-126.112
  0
LINE
  8
0
 10
118.427
 20
-126.112
 11
126.112
 21
-118.427
  0
LINE
  8
0
 10
126.112
 20
-118.427
 11
133.299
 21
-110.274
  0
LINE
  8
0
 10
133.299
 20
-110.274
 11
139.96
 21
-101.687
  0
LINE
  8
0
 10
139.96
 20
-101.687
 11
146.069
 21
-92.698
  0
LINE
  8
0
 10
146.069
 20
-92.698
 11
151.601
 21
-83.3434
  0
LINE
  8
0
 10
151.601
 20
-83.3434
 11
156.535
 21
-73.6598
  0
LINE
  8
0
 10
156.535
 20
-73.6598
 11
160.851
 21
-63.6855
  0
LINE
  8
0
 10
160.851
 20
-63.6855
 11
164.533
 21
-53.4599
  0
LINE
  8
0
 10
164.533
 20
-53.4599
 11
167.565
 21
-43.0233
  0
LINE
  8
0
 10
167.565
 20
-43.0233
 11
169.936
 21
-32.417
  0
LINE
  8
0
 10
169.936
 20
-32.417
 11
171.636
 21
-21.6826
  0
LINE
  8
0
 10
171.636
 20
-21.6826
 11
172.659
 21
-10.8627
  0
LINE
  8
0
 10
172.659
 20
-10.8627
 11
173
 21
0
  0
LINE
  8
0
 10
173
 20
0
 11
172.659
 21
10.8627
  0
LINE
  8
0
 10
172.659
 20
10.8627
 11
171.636
 21
21.6826
  0
LINE
  8
0
 10
171.636
 20
21.6826
 11
169.936
 21
32.417
  0
LINE
  8
0
 10
169.936
 20
32.417
 11
167.565
 21
43.0233
  0
LINE
  8
0
 10
167.565
 20
43.0233
 11
164.533
 21
53.4599
  0
LINE
  8
0
 10
164.533
 20
53.4599
 11
160.851
 21
63.6855
  0
LINE
  8
0
 10
160.851
 20
63.6855
 11
156.535
 21
73.6598
  0
LINE
  8
0
 10
156.535
 20
73.6598
 11
151.601
 21
83.3434
  0
LINE
  8
0
 10
151.601
 20
83.3434
 11
146.069
 21
92.698
  0
LINE
  8
0
 10
146.069
 20
92.698
 11
139.96
 21
101.687
  0
LINE
  8
0
 10
139.96
 20
101.687
 11
133.299
 21
110.274
  0
LINE
  8
0
 10
133.299
 20
110.274
 11
126.112
 21
118.427
  0
LINE
  8
0
 10
126.112
 20
118.427
 11
118.427
 21
126.112
  0
LINE
  8
0
 10
118.427
 20
126.112
 11
110.274
 21
133.299
  0
LINE
  8
0
 10
110.274
 20
133.299
 11
101.687
 21
139.96
  0
LINE
  8
0
 10
101.687
 20
139.96
 11
92.698
 21
146.069
  0
LINE
  8
0
 10
92.698
 20
146.069
 11
83.3434
 21
151.601
  0
LINE
  8
0
 10
83.3434
 20
151.601
 11
73.6598
 21
156.535
  0
LINE
  8
0
 10
73.6598
 20
156.535
 11
63.6855
 21
160.851
  0
LINE
  8
0
 10
63.6855
 20
160.851
 11
53.4599
 21
164.533
  0
LINE
  8
0
 10
53.4599
 20
164.533
 11
43.0233
 21
167.565
  0
LINE
  8
0
 10
43.0233
 20
167.565
 11
32.417
 21
169.936
  0
LINE
  8
0
 10
32.417
 20
169.936
 11
21.6826
 21
171.636
  0
LINE
  8
0
 10
21.6826
 20
171.636
 11
10.8627
 21
172.659
  0
LINE
  8
0
 10
10.8627
 20
172.659
 11
0
 21
173
  0
LINE
  8
0
 10
0
 20
173
 11
-10.8627
 21
172.659
  0
LINE
  8
0
 10
-10.8627
 20
172.659
 11
-21.6826
 21
171.636
  0
LINE
  8
0
 10
-21.6826
 20
171.636
 11
-32.417
 21
169.936
  0
LINE
  8
0
 10
-32.417
 20
169.936
 11
-43.0233
 21
167.565
  0
LINE
  8
0
 10
-43.0233
 20
167.565
 11
-53.4599
 21
164.533
  0
LINE
  8
0
 10
-53.4599
 20
164.533
 11
-63.6855
 21
160.851
  0
LINE
  8
0
 10
-63.6855
 20
160.851
 11
-73.6598
 21
156.535
  0
LINE
  8
0
 10
-73.6598
 20
156.535
 11
-83.3434
 21
151.601
  0
LINE
  8
0
 10
-83.3434
 20
151.601
 11
-92.698
 21
146.069
  0
LINE
  8
0
 10
-92.698
 20
146.069
 11
-101.687
 21
139.96
  0
LINE
  8
0
 10
-101.687
 20
139.96
 11
-110.274
 21
133.299
  0
LINE
  8
0
 10
-110.274
 20
133.299
 11
-118.427
 21
126.112
  0
LINE
  8
0
 10
-118.427
 20
126.112
 11
-126.112
 21
118.427
  0
LINE
  8
0
 10
-126.112
 20
118.427
 11
-133.299
 21
110.274
  0
LINE
  8
0
 10
-133.299
 20
110.274
 11
-139.96
 21
101.687
  0
LINE
  8
0
 10
-139.96
 20
101.687
 11
-146.069
 21
92.698
  0
LINE
  8
0
 10
-146.069
 20
92.698
 11
-151.601
 21
83.3434
  0
LINE
  8
0
 10
-151.601
 20
83.3434
 11
-156.535
 21
73.6598
  0
LINE
  8
0
 10
-156.535
 20
73.6598
 11
-160.851
 21
63.6855
  0
LINE
  8
0
 10
-160.851
 20
63.6855
 11
-164.533
 21
53.4599
  0
LINE
  8
0
 10
-164.533
 20
53.4599
 11
-167.565
 21
43.0233
  0
LINE
  8
0
 10
-167.565
 20
43.0233
 11
-169.936
 21
32.417
  0
LINE
  8
0
 10
-169.936
 20
32.417
 11
-171.636
 21
21.6826
  0
LINE
  8
0
 10
-171.636
 20
21.6826
 11
-172.659
 21
10.8627
  0
LINE
  8
0
 10
-172.659
 20
10.8627
 11
-173
 21
0
  0
LINE
  8
0
 10
-173
 20
0
 11
-172.659
 21
-10.8627
  0
LINE
  8
0
 10
-172.659
 20
-10.8627
 11
-171.636
 21
-21.6826
  0
LINE
  8
0
 10
-171.636
 20
-21.6826
 11
-169.936
 21
-32.417
  0
LINE
  8
0
 10
-169.936
 20
-32.417
 11
-167.565
 21
-43.0233
  0
LINE
  8
0
 10
-167.565
 20
-43.0233
 11
-164.533
 21
-53.4599
  0
LINE
  8
0
 10
-164.533
 20
-53.4599
 11
-160.851
 21
-63.6855
  0
LINE
  8
0
 10
-160.851
 20
-63.6855
 11
-156.535
 21
-73.6598
  0
LINE
  8
0
 10
-156.535
 20
-73.6598
 11
-151.601
 21
-83.3434
  0
LINE
  8
0
 10
-151.601
 20
-83.3434
 11
-146.069
 21
-92.698
  0
LINE
  8
0
 10
-146.069
 20
-92.698
 11
-139.96
 21
-101.687
  0
LINE
  8
0
 10
-139.96
 20
-101.687
 11
-133.299
 21
-110.274
  0
LINE
  8
0
 10
-133.299
 20
-110.274
 11
-126.112
 21
-118.427
  0
LINE
  8
0
 10
-126.112
 20
-118.427
 11
-118.427
 21
-126.112
  0
LINE
  8
0
 10
-118.427
 20
-126.112
 11
-110.274
 21
-133.299
  0
LINE
  8
0
 10
-110.274
 20
-133.299
 11
-101.687
 21
-139.96
  0
LINE
  8
0
 10
-101.687
 20
-139.96
 11
-92.698
 21
-146.069
  0
LINE
  8
0
 10
-92.698
 20
-146.069
 11
-83.3434
 21
-151.601
  0
LINE
  8
0
 10
-83.3434
 20
-151.601
 11
-73.6598
 21
-156.535
  0
LINE
  8
0
 10
-73.6598
 20
-156.535
 11
-63.6855
 21
-160.851
  0
LINE
  8
0
 10
-63.6855
 20
-160.851
 11
-53.4599
 21
-164.533
  0
LINE
  8
0
 10
-53.4599
 20
-164.533
 11
-43.0233
 21
-167.565
  0
LINE
  8
0
 10
-43.0233
 20
-167.565
 11
-32.417
 21
-169.936
  0
LINE
  8
0
 10
-32.417
 20
-169.936
 11
-21.6826
 21
-171.636
  0
LINE
  8
0
 10
-21.6826
 20
-171.636
 11
-10.8627
 21
-172.659
  0
LINE
  8
0
 10
-10.8627
 20
-172.659
 11
0
 21
-173
  0
LINE
  8
0
 10
0
 20
-173
 11
10.8627
 21
-172.659
  0
LINE
  8
0
 10
-36.2297
 20
148.6
 11
-30.4139
 21
149.9
  0
LINE
  8
0
 10
-30.4139
 20
149.9
 11
-9
 21
149.9
  0
LINE
  8
0
 10
-9
 20
149.9
 11
-9
 21
148.6
  0
LINE
  8
0
 10
-9
 20
148.6
 11
-36.2297
 21
148.6
  0
LINE
  8
0
 10
3
 20
148.6
 11
3
 21
149.9
  0
LINE
  8
0
 10
3
 20
149.9
 11
30.4139
 21
149.9
  0
LINE
  8
0
 10
30.4139
 20
149.9
 11
36.2297
 21
148.6
  0
LINE
  8
0
 10
36.2297
 20
148.6
 11
3
 21
148.6
  0
LINE
  8
0
 10
-49
 20
143.4
 11
-49
 21
144.7
  0
LINE
  8
0
 10
-49
 20
144.7
 11
-9
 21
144.7
  0
LINE
  8
0
 10
-9
 20
144.7
 11
-9
 21
143.4
  0
LINE
  8
0
 10
-9
 20
143.4
 11
-49
 21
143.4
  0
LINE
  8
0
 10
3
 20
143.4
 11
3
 21
144.7
  0
LINE
  8
0
 10
3
 20
144.7
 11
43
 21
144.7
  0
LINE
  8
0
 10
43
 20
144.7
 11
43
 21
143.4
  0
LINE
  8
0
 10
43
 20
143.4
 11
3
 21
143.4
  0
LINE
  8
0
 10
3
 20
138.2
 11
3
 21
139.5
  0
LINE
  8
0
 10
3
 20
139.5
 11
43
 21
139.5
  0
LINE
  8
0
 10
43
 20
139.5
 11
43
 21
138.2
  0
LINE
  8
0
 10
43
 20
138.2
 11
3
 21
138.2
  0
LINE
  8
0
 10
-49
 20
138.2
 11
-49
 21
139.5
  0
LINE
  8
0
 10
-49
 20
139.5
 11
-9
 21
139.5
  0
LINE
  8
0
 10
-9
 20
139.5
 11
-9
 21
138.2
  0
LINE
  8
0
 10
-9
 20
138.2
 11
-49
 21
138.2
  0
LINE
  8
0
 10
55
 20
138.2
 11
55
 21
139.5
  0
LINE
  8
0
 10
55
 20
139.5
 11
62.6913
 21
139.5
  0
LINE
  8
0
 10
62.6913
 20
139.5
 11
65.1442
 21
138.439
  0
LINE
  8
0
 10
65.1442
 20
138.439
 11
65.6124
 21
138.2
  0
LINE
  8
0
 10
65.6124
 20
138.2
 11
55
 21
138.2
  0
LINE
  8
0
 10
-65.6124
 20
138.2
 11
-65.1442
 21
138.439
  0
LINE
  8
0
 10
-65.1442
 20
138.439
 11
-62.6913
 21
139.5
  0
LINE
  8
0
 10
-62.6913
 20
139.5
 11
-61
 21
139.5
  0
LINE
  8
0
 10
-61
 20
139.5
 11
-61
 21
138.2
  0
LINE
  8
0
 10
-61
 20
138.2
 11
-65.6124
 21
138.2
  0
LINE
  8
0
 10
-75.5259
 20
133
 11
-73.7083
 21
134.075
  0
LINE
  8
0
 10
-73.7083
 20
134.075
 11
-73.2666
 21
134.3
  0
LINE
  8
0
 10
-73.2666
 20
134.3
 11
-61
 21
134.3
  0
LINE
  8
0
 10
-61
 20
134.3
 11
-61
 21
133
  0
LINE
  8
0
 10
-61
 20
133
 11
-75.5259
 21
133
  0
LINE
  8
0
 10
3
 20
133
 11
3
 21
134.3
  0
LINE
  8
0
 10
3
 20
134.3
 11
43
 21
134.3
  0
LINE
  8
0
 10
43
 20
134.3
 11
43
 21
133
  0
LINE
  8
0
 10
43
 20
133
 11
3
 21
133
  0
LINE
  8
0
 10
-49
 20
133
 11
-49
 21
134.3
  0
LINE
  8
0
 10
-49
 20
134.3
 11
-9
 21
134.3
  0
LINE
  8
0
 10
-9
 20
134.3
 11
-9
 21
133
  0
LINE
  8
0
 10
-9
 20
133
 11
-49
 21
133
  0
LINE
  8
0
 10
55
 20
133
 11
55
 21
134.3
  0
LINE
  8
0
 10
55
 20
134.3
 11
73.2666
 21
134.3
  0
LINE
  8
0
 10
73.2666
 20
134.3
 11
73.7083
 21
134.075
  0
LINE
  8
0
 10
73.7083
 20
134.075
 11
75.5259
 21
133
  0
LINE
  8
0
 10
75.5259
 20
133
 11
55
 21
133
  0
LINE
  8
0
 10
3
 20
127.8
 11
3
 21
129.1
  0
LINE
  8
0
 10
3
 20
129.1
 11
43
 21
129.1
  0
LINE
  8
0
 10
43
 20
129.1
 11
43
 21
127.8
  0
LINE
  8
0
 10
43
 20
127.8
 11
3
 21
127.8
  0
LINE
  8
0
 10
55
 20
127.8
 11
55
 21
129.1
  0
LINE
  8
0
 10
55
 20
129.1
 11
82.1024
 21
129.1
  0
LINE
  8
0
 10
82.1024
 20
129.1
 11
84.0153
 21
127.8
  0
LINE
  8
0
 10
84.0153
 20
127.8
 11
55
 21
127.8
  0
LINE
  8
0
 10
-84.0153
 20
127.8
 11
-82.1024
 21
129.1
  0
LINE
  8
0
 10
-82.1024
 20
129.1
 11
-61
 21
129.1
  0
LINE
  8
0
 10
-61
 20
129.1
 11
-61
 21
127.8
  0
LINE
  8
0
 10
-61
 20
127.8
 11
-84.0153
 21
127.8
  0
LINE
  8
0
 10
-49
 20
127.8
 11
-49
 21
129.1
  0
LINE
  8
0
 10
-49
 20
129.1
 11
-9
 21
129.1
  0
LINE
  8
0
 10
-9
 20
129.1
 11
-9
 21
127.8
  0
LINE
  8
0
 10
-9
 20
127.8
 11
-49
 21
127.8
  0
LINE
  8
0
 10
-0.172668
 20
119.585
 11
-0.344666
 21
119.601
  0
LINE
  8
0
 10
-0.344666
 20
119.601
 11
-0.515289
 21
119.628
  0
LINE
  8
0
 10
-0.515289
 20
119.628
 11
-0.683884
 21
119.666
  0
LINE
  8
0
 10
-0.683884
 20
119.666
 11
-0.849792
 21
119.714
  0
LINE
  8
0
 10
-0.849792
 20
119.714
 11
-1.01233
 21
119.773
  0
LINE
  8
0
 10
-1.01233
 20
119.773
 11
-1.17088
 21
119.841
  0
LINE
  8
0
 10
-1.17088
 20
119.841
 11
-1.32481
 21
119.92
  0
LINE
  8
0
 10
-1.32481
 20
119.92
 11
-1.47351
 21
120.008
  0
LINE
  8
0
 10
-1.47351
 20
120.008
 11
-1.61641
 21
120.105
  0
LINE
  8
0
 10
-1.61641
 20
120.105
 11
-1.75291
 21
120.211
  0
LINE
  8
0
 10
-1.75291
 20
120.211
 11
-1.88249
 21
120.325
  0
LINE
  8
0
 10
-1.88249
 20
120.325
 11
-2.00465
 21
120.447
  0
LINE
  8
0
 10
-2.00465
 20
120.447
 11
-2.1189
 21
120.577
  0
LINE
  8
0
 10
-2.1189
 20
120.577
 11
-2.22479
 21
120.713
  0
LINE
  8
0
 10
-2.22479
 20
120.713
 11
-2.3219
 21
120.856
  0
LINE
  8
0
 10
-2.3219
 20
120.856
 11
-2.40984
 21
121.005
  0
LINE
  8
0
 10
-2.40984
 20
121.005
 11
-2.48827
 21
121.159
  0
LINE
  8
0
 10
-2.48827
 20
121.159
 11
-2.55688
 21
121.317
  0
LINE
  8
0
 10
-2.55688
 20
121.317
 11
-2.6154
 21
121.48
  0
LINE
  8
0
 10
-2.6154
 20
121.48
 11
-2.66359
 21
121.646
  0
LINE
  8
0
 10
-2.66359
 20
121.646
 11
-2.70128
 21
121.814
  0
LINE
  8
0
 10
-2.70128
 20
121.814
 11
-2.7283
 21
121.985
  0
LINE
  8
0
 10
-2.7283
 20
121.985
 11
-2.74457
 21
122.157
  0
LINE
  8
0
 10
-2.74457
 20
122.157
 11
-2.75
 21
122.329
  0
LINE
  8
0
 10
-2.75
 20
122.329
 11
-2.74457
 21
122.502
  0
LINE
  8
0
 10
-2.74457
 20
122.502
 11
-2.7283
 21
122.674
  0
LINE
  8
0
 10
-2.7283
 20
122.674
 11
-2.70128
 21
122.845
  0
LINE
  8
0
 10
-2.70128
 20
122.845
 11
-2.66359
 21
123.013
  0
LINE
  8
0
 10
-2.66359
 20
123.013
 11
-2.6154
 21
123.179
  0
LINE
  8
0
 10
-2.6154
 20
123.179
 11
-2.55688
 21
123.342
  0
LINE
  8
0
 10
-2.55688
 20
123.342
 11
-2.48827
 21
123.5
  0
LINE
  8
0
 10
-2.48827
 20
123.5
 11
-2.40984
 21
123.654
  0
LINE
  8
0
 10
-2.40984
 20
123.654
 11
-2.3219
 21
123.803
  0
LINE
  8
0
 10
-2.3219
 20
123.803
 11
-2.22479
 21
123.946
  0
LINE
  8
0
 10
-2.22479
 20
123.946
 11
-2.1189
 21
124.082
  0
LINE
  8
0
 10
-2.1189
 20
124.082
 11
-2.00465
 21
124.212
  0
LINE
  8
0
 10
-2.00465
 20
124.212
 11
-1.88249
 21
124.334
  0
LINE
  8
0
 10
-1.88249
 20
124.334
 11
-1.75291
 21
124.448
  0
LINE
  8
0
 10
-1.75291
 20
124.448
 11
-1.61641
 21
124.554
  0
LINE
  8
0
 10
-1.61641
 20
124.554
 11
-1.47351
 21
124.651
  0
LINE
  8
0
 10
-1.47351
 20
124.651
 11
-1.32481
 21
124.739
  0
LINE
  8
0
 10
-1.32481
 20
124.739
 11
-1.17088
 21
124.818
  0
LINE
  8
0
 10
-1.17088
 20
124.818
 11
-1.01233
 21
124.886
  0
LINE
  8
0
 10
-1.01233
 20
124.886
 11
-0.849792
 21
124.945
  0
LINE
  8
0
 10
-0.849792
 20
124.945
 11
-0.683884
 21
124.993
  0
LINE
  8
0
 10
-0.683884
 20
124.993
 11
-0.515289
 21
125.031
  0
LINE
  8
0
 10
-0.515289
 20
125.031
 11
-0.344666
 21
125.058
  0
LINE
  8
0
 10
-0.344666
 20
125.058
 11
-0.172668
 21
125.074
  0
LINE
  8
0
 10
-0.172668
 20
125.074
 11
0
 21
125.079
  0
LINE
  8
0
 10
0
 20
125.079
 11
0.172668
 21
125.074
  0
LINE
  8
0
 10
0.172668
 20
125.074
 11
0.344666
 21
125.058
  0
LINE
  8
0
 10
0.344666
 20
125.058
 11
0.515289
 21
125.031
  0
LINE
  8
0
 10
0.515289
 20
125.031
 11
0.683884
 21
124.993
  0
LINE
  8
0
 10
0.683884
 20
124.993
 11
0.849792
 21
124.945
  0
LINE
  8
0
 10
0.849792
 20
124.945
 11
1.01233
 21
124.886
  0
LINE
  8
0
 10
1.01233
 20
124.886
 11
1.17088
 21
124.818
  0
LINE
  8
0
 10
1.17088
 20
124.818
 11
1.32481
 21
124.739
  0
LINE
  8
0
 10
1.32481
 20
124.739
 11
1.47351
 21
124.651
  0
LINE
  8
0
 10
1.47351
 20
124.651
 11
1.61641
 21
124.554
  0
LINE
  8
0
 10
1.61641
 20
124.554
 11
1.75291
 21
124.448
  0
LINE
  8
0
 10
1.75291
 20
124.448
 11
1.88249
 21
124.334
  0
LINE
  8
0
 10
1.88249
 20
124.334
 11
2.00465
 21
124.212
  0
LINE
  8
0
 10
2.00465
 20
124.212
 11
2.1189
 21
124.082
  0
LINE
  8
0
 10
2.1189
 20
124.082
 11
2.22479
 21
123.946
  0
LINE
  8
0
 10
2.22479
 20
123.946
 11
2.3219
 21
123.803
  0
LINE
  8
0
 10
2.3219
 20
123.803
 11
2.40984
 21
123.654
  0
LINE
  8
0
 10
2.40984
 20
123.654
 11
2.48827
 21
123.5
  0
LINE
  8
0
 10
2.48827
 20
123.5
 11
2.55688
 21
123.342
  0
LINE
  8
0
 10
2.55688
 20
123.342
 11
2.6154
 21
123.179
  0
LINE
  8
0
 10
2.6154
 20
123.179
 11
2.66359
 21
123.013
  0
LINE
  8
0
 10
2.66359
 20
123.013
 11
2.70128
 21
122.845
  0
LINE
  8
0
 10
2.70128
 20
122.845
 11
2.7283
 21
122.674
  0
LINE
  8
0
 10
2.7283
 20
122.674
 11
2.74457
 21
122.502
  0
LINE
  8
0
 10
2.74457
 20
122.502
 11
2.75
 21
122.329
  0
LINE
  8
0
 10
2.75
 20
122.329
 11
2.74457
 21
122.157
  0
LINE
  8
0
 10
2.74457
 20
122.157
 11
2.7283
 21
121.985
  0
LINE
  8
0
 10
2.7283
 20
121.985
 11
2.70128
 21
121.814
  0
LINE
  8
0
 10
2.70128
 20
121.814
 11
2.66359
 21
121.646
  0
LINE
  8
0
 10
2.66359
 20
121.646
 11
2.6154
 21
121.48
  0
LINE
  8
0
 10
2.6154
 20
121.48
 11
2.55688
 21
121.317
  0
LINE
  8
0
 10
2.55688
 20
121.317
 11
2.48827
 21
121.159
  0
LINE
  8
0
 10
2.48827
 20
121.159
 11
2.40984
 21
121.005
  0
LINE
  8
0
 10
2.40984
 20
121.005
 11
2.3219
 21
120.856
  0
LINE
  8
0
 10
2.3219
 20
120.856
 11
2.22479
 21
120.713
  0
LINE
  8
0
 10
2.22479
 20
120.713
 11
2.1189
 21
120.577
  0
LINE
  8
0
 10
2.1189
 20
120.577
 11
2.00465
 21
120.447
  0
LINE
  8
0
 10
2.00465
 20
120.447
 11
1.88249
 21
120.325
  0
LINE
  8
0
 10
1.88249
 20
120.325
 11
1.75291
 21
120.211
  0
LINE
  8
0
 10
1.75291
 20
120.211
 11
1.61641
 21
120.105
  0
LINE
  8
0
 10
1.61641
 20
120.105
 11
1.47351
 21
120.008
  0
LINE
  8
0
 10
1.47351
 20
120.008
 11
1.32481
 21
119.92
  0
LINE
  8
0
 10
1.32481
 20
119.92
 11
1.17088
 21
119.841
  0
LINE
  8
0
 10
1.17088
 20
119.841
 11
1.01233
 21
119.773
  0
LINE
  8
0
 10
1.01233
 20
119.773
 11
0.849792
 21
119.714
  0
LINE
  8
0
 10
0.849792
 20
119.714
 11
0.683884
 21
119.666
  0
LINE
  8
0
 10
0.683884
 20
119.666
 11
0.515289
 21
119.628
  0
LINE
  8
0
 10
0.515289
 20
119.628
 11
0.344666
 21
119.601
  0
LINE
  8
0
 10
0.344666
 20
119.601
 11
0.172668
 21
119.585
  0
LINE
  8
0
 10
0.172668
 20
119.585
 11
0
 21
119.579
  0
LINE
  8
0
 10
0
 20
119.579
 11
-0.172668
 21
119.585
  0
LINE
  8
0
 10
55
 20
122.6
 11
55
 21
123.9
  0
LINE
  8
0
 10
55
 20
123.9
 11
89.754
 21
123.9
  0
LINE
  8
0
 10
89.754
 20
123.9
 11
89.9311
 21
123.78
  0
LINE
  8
0
 10
89.9311
 20
123.78
 11
91.4519
 21
122.6
  0
LINE
  8
0
 10
91.4519
 20
122.6
 11
55
 21
122.6
  0
LINE
  8
0
 10
-91.4519
 20
122.6
 11
-89.9311
 21
123.78
  0
LINE
  8
0
 10
-89.9311
 20
123.78
 11
-89.754
 21
123.9
  0
LINE
  8
0
 10
-89.754
 20
123.9
 11
-61
 21
123.9
  0
LINE
  8
0
 10
-61
 20
123.9
 11
-61
 21
122.6
  0
LINE
  8
0
 10
-61
 20
122.6
 11
-91.4519
 21
122.6
  0
LINE
  8
0
 10
3
 20
122.6
 11
3
 21
123.9
  0
LINE
  8
0
 10
3
 20
123.9
 11
43
 21
123.9
  0
LINE
  8
0
 10
43
 20
123.9
 11
43
 21
122.6
  0
LINE
  8
0
 10
43
 20
122.6
 11
3
 21
122.6
  0
LINE
  8
0
 10
-49
 20
122.6
 11
-49
 21
123.9
  0
LINE
  8
0
 10
-49
 20
123.9
 11
-9
 21
123.9
  0
LINE
  8
0
 10
-9
 20
123.9
 11
-9
 21
122.6
  0
LINE
  8
0
 10
-9
 20
122.6
 11
-49
 21
122.6
  0
LINE
  8
0
 10
-49
 20
117.4
 11
-49
 21
118.7
  0
LINE
  8
0
 10
-49
 20
118.7
 11
-9
 21
118.7
  0
LINE
  8
0
 10
-9
 20
118.7
 11
-9
 21
117.4
  0
LINE
  8
0
 10
-9
 20
117.4
 11
-49
 21
117.4
  0
LINE
  8
0
 10
55
 20
117.4
 11
55
 21
118.7
  0
LINE
  8
0
 10
55
 20
118.7
 11
95
 21
118.7
  0
LINE
  8
0
 10
95
 20
118.7
 11
95
 21
117.4
  0
LINE
  8
0
 10
95
 20
117.4
 11
55
 21
117.4
  0
LINE
  8
0
 10
-98.08
 20
117.4
 11
-97.5259
 21
117.889
  0
LINE
  8
0
 10
-97.5259
 20
117.889
 11
-96.4797
 21
118.7
  0
LINE
  8
0
 10
-96.4797
 20
118.7
 11
-61
 21
118.7
  0
LINE
  8
0
 10
-61
 20
118.7
 11
-61
 21
117.4
  0
LINE
  8
0
 10
-61
 20
117.4
 11
-98.08
 21
117.4
  0
LINE
  8
0
 10
3
 20
117.4
 11
3
 21
118.7
  0
LINE
  8
0
 10
3
 20
118.7
 11
43
 21
118.7
  0
LINE
  8
0
 10
43
 20
118.7
 11
43
 21
117.4
  0
LINE
  8
0
 10
43
 20
117.4
 11
3
 21
117.4
  0
LINE
  8
0
 10
-49
 20
112.2
 11
-49
 21
113.5
  0
LINE
  8
0
 10
-49
 20
113.5
 11
-9
 21
113.5
  0
LINE
  8
0
 10
-9
 20
113.5
 11
-9
 21
112.2
  0
LINE
  8
0
 10
-9
 20
112.2
 11
-49
 21
112.2
  0
LINE
  8
0
 10
3
 20
112.2
 11
3
 21
113.5
  0
LINE
  8
0
 10
3
 20
113.5
 11
43
 21
113.5
  0
LINE
  8
0
 10
43
 20
113.5
 11
43
 21
112.2
  0
LINE
  8
0
 10
43
 20
112.2
 11
3
 21
112.2
  0
LINE
  8
0
 10
-101
 20
112.2
 11
-101
 21
113.5
  0
LINE
  8
0
 10
-101
 20
113.5
 11
-61
 21
113.5
  0
LINE
  8
0
 10
-61
 20
113.5
 11
-61
 21
112.2
  0
LINE
  8
0
 10
-61
 20
112.2
 11
-101
 21
112.2
  0
LINE
  8
0
 10
55
 20
112.2
 11
55
 21
113.5
  0
LINE
  8
0
 10
55
 20
113.5
 11
95
 21
113.5
  0
LINE
  8
0
 10
95
 20
113.5
 11
95
 21
112.2
  0
LINE
  8
0
 10
95
 20
112.2
 11
55
 21
112.2
  0
LINE
  8
0
 10
-49
 20
107
 11
-49
 21
108.3
  0
LINE
  8
0
 10
-49
 20
108.3
 11
-9
 21
108.3
  0
LINE
  8
0
 10
-9
 20
108.3
 11
-9
 21
107
  0
LINE
  8
0
 10
-9
 20
107
 11
-49
 21
107
  0
LINE
  8
0
 10
107
 20
107
 11
107
 21
108.3
  0
LINE
  8
0
 10
107
 20
108.3
 11
107.968
 21
108.3
  0
LINE
  8
0
 10
107.968
 20
108.3
 11
109.268
 21
107
  0
LINE
  8
0
 10
109.268
 20
107
 11
107
 21
107
  0
LINE
  8
0
 10
3
 20
107
 11
3
 21
108.3
  0
LINE
  8
0
 10
3
 20
108.3
 11
43
 21
108.3
  0
LINE
  8
0
 10
43
 20
108.3
 11
43
 21
107
  0
LINE
  8
0
 10
43
 20
107
 11
3
 21
107
  0
LINE
  8
0
 10
-101
 20
107
 11
-101
 21
108.3
  0
LINE
  8
0
 10
-101
 20
108.3
 11
-61
 21
108.3
  0
LINE
  8
0
 10
-61
 20
108.3
 11
-61
 21
107
  0
LINE
  8
0
 10
-61
 20
107
 11
-101
 21
107
  0
LINE
  8
0
 10
55
 20
107
 11
55
 21
108.3
  0
LINE
  8
0
 10
55
 20
108.3
 11
95
 21
108.3
  0
LINE
  8
0
 10
95
 20
108.3
 11
95
 21
107
  0
LINE
  8
0
 10
95
 20
107
 11
55
 21
107
  0
LINE
  8
0
 10
107
 20
101.8
 11
107
 21
103.1
  0
LINE
  8
0
 10
107
 20
103.1
 11
112.974
 21
103.1
  0
LINE
  8
0
 10
112.974
 20
103.1
 11
114.12
 21
101.8
  0
LINE
  8
0
 10
114.12
 20
101.8
 11
107
 21
101.8
  0
LINE
  8
0
 10
3
 20
101.8
 11
3
 21
103.1
  0
LINE
  8
0
 10
3
 20
103.1
 11
43
 21
103.1
  0
LINE
  8
0
 10
43
 20
103.1
 11
43
 21
101.8
  0
LINE
  8
0
 10
43
 20
101.8
 11
3
 21
101.8
  0
LINE
  8
0
 10
55
 20
101.8
 11
55
 21
103.1
  0
LINE
  8
0
 10
55
 20
103.1
 11
95
 21
103.1
  0
LINE
  8
0
 10
95
 20
103.1
 11
95
 21
101.8
  0
LINE
  8
0
 10
95
 20
101.8
 11
55
 21
101.8
  0
LINE
  8
0
 10
-49
 20
101.8
 11
-49
 21
103.1
  0
LINE
  8
0
 10
-49
 20
103.1
 11
-9
 21
103.1
  0
LINE
  8
0
 10
-9
 20
103.1
 11
-9
 21
101.8
  0
LINE
  8
0
 10
-9
 20
101.8
 11
-49
 21
101.8
  0
LINE
  8
0
 10
-101
 20
101.8
 11
-101
 21
103.1
  0
LINE
  8
0
 10
-101
 20
103.1
 11
-61
 21
103.1
  0
LINE
  8
0
 10
-61
 20
103.1
 11
-61
 21
101.8
  0
LINE
  8
0
 10
-61
 20
101.8
 11
-101
 21
101.8
  0
LINE
  8
0
 10
-114.12
 20
101.8
 11
-113
 21
103.071
  0
LINE
  8
0
 10
-113
 20
103.071
 11
-113
 21
101.8
  0
LINE
  8
0
 10
-113
 20
101.8
 11
-114.12
 21
101.8
  0
LINE
  8
0
 10
-118.607
 20
96.6
 11
-117.889
 21
97.5259
  0
LINE
  8
0
 10
-117.889
 20
97.5259
 11
-117.559
 21
97.9
  0
LINE
  8
0
 10
-117.559
 20
97.9
 11
-113
 21
97.9
  0
LINE
  8
0
 10
-113
 20
97.9
 11
-113
 21
96.6
  0
LINE
  8
0
 10
-113
 20
96.6
 11
-118.607
 21
96.6
  0
LINE
  8
0
 10
107
 20
96.6
 11
107
 21
97.9
  0
LINE
  8
0
 10
107
 20
97.9
 11
117.559
 21
97.9
  0
LINE
  8
0
 10
117.559
 20
97.9
 11
117.889
 21
97.5259
  0
LINE
  8
0
 10
117.889
 20
97.5259
 11
118.607
 21
96.6
  0
LINE
  8
0
 10
118.607
 20
96.6
 11
107
 21
96.6
  0
LINE
  8
0
 10
55
 20
96.6
 11
55
 21
97.9
  0
LINE
  8
0
 10
55
 20
97.9
 11
95
 21
97.9
  0
LINE
  8
0
 10
95
 20
97.9
 11
95
 21
96.6
  0
LINE
  8
0
 10
95
 20
96.6
 11
55
 21
96.6
  0
LINE
  8
0
 10
3
 20
96.6
 11
3
 21
97.9
  0
LINE
  8
0
 10
3
 20
97.9
 11
43
 21
97.9
  0
LINE
  8
0
 10
43
 20
97.9
 11
43
 21
96.6
  0
LINE
  8
0
 10
43
 20
96.6
 11
3
 21
96.6
  0
LINE
  8
0
 10
-49
 20
96.6
 11
-49
 21
97.9
  0
LINE
  8
0
 10
-49
 20
97.9
 11
-9
 21
97.9
  0
LINE
  8
0
 10
-9
 20
97.9
 11
-9
 21
96.6
  0
LINE
  8
0
 10
-9
 20
96.6
 11
-49
 21
96.6
  0
LINE
  8
0
 10
-101
 20
96.6
 11
-101
 21
97.9
  0
LINE
  8
0
 10
-101
 20
97.9
 11
-61
 21
97.9
  0
LINE
  8
0
 10
-61
 20
97.9
 11
-61
 21
96.6
  0
LINE
  8
0
 10
-61
 20
96.6
 11
-101
 21
96.6
  0
LINE
  8
0
 10
107
 20
91.4
 11
107
 21
92.7
  0
LINE
  8
0
 10
107
 20
92.7
 11
121.632
 21
92.7
  0
LINE
  8
0
 10
121.632
 20
92.7
 11
122.64
 21
91.4
  0
LINE
  8
0
 10
122.64
 20
91.4
 11
107
 21
91.4
  0
LINE
  8
0
 10
55
 20
91.4
 11
55
 21
92.7
  0
LINE
  8
0
 10
55
 20
92.7
 11
95
 21
92.7
  0
LINE
  8
0
 10
95
 20
92.7
 11
95
 21
91.4
  0
LINE
  8
0
 10
95
 20
91.4
 11
55
 21
91.4
  0
LINE
  8
0
 10
3
 20
91.4
 11
3
 21
92.7
  0
LINE
  8
0
 10
3
 20
92.7
 11
43
 21
92.7
  0
LINE
  8
0
 10
43
 20
92.7
 11
43
 21
91.4
  0
LINE
  8
0
 10
43
 20
91.4
 11
3
 21
91.4
  0
LINE
  8
0
 10
-49
 20
91.4
 11
-49
 21
92.7
  0
LINE
  8
0
 10
-49
 20
92.7
 11
-9
 21
92.7
  0
LINE
  8
0
 10
-9
 20
92.7
 11
-9
 21
91.4
  0
LINE
  8
0
 10
-9
 20
91.4
 11
-49
 21
91.4
  0
LINE
  8
0
 10
-101
 20
91.4
 11
-101
 21
92.7
  0
LINE
  8
0
 10
-101
 20
92.7
 11
-61
 21
92.7
  0
LINE
  8
0
 10
-61
 20
92.7
 11
-61
 21
91.4
  0
LINE
  8
0
 10
-61
 20
91.4
 11
-101
 21
91.4
  0
LINE
  8
0
 10
-122.64
 20
91.4
 11
-121.632
 21
92.7
  0
LINE
  8
0
 10
-121.632
 20
92.7
 11
-113
 21
92.7
  0
LINE
  8
0
 10
-113
 20
92.7
 11
-113
 21
91.4
  0
LINE
  8
0
 10
-113
 20
91.4
 11
-122.64
 21
91.4
  0
LINE
  8
0
 10
3
 20
86.2
 11
3
 21
87.5
  0
LINE
  8
0
 10
3
 20
87.5
 11
43
 21
87.5
  0
LINE
  8
0
 10
43
 20
87.5
 11
43
 21
86.2
  0
LINE
  8
0
 10
43
 20
86.2
 11
3
 21
86.2
  0
LINE
  8
0
 10
-126.315
 20
86.2
 11
-125.432
 21
87.5
  0
LINE
  8
0
 10
-125.432
 20
87.5
 11
-113
 21
87.5
  0
LINE
  8
0
 10
-113
 20
87.5
 11
-113
 21
86.2
  0
LINE
  8
0
 10
-113
 20
86.2
 11
-126.315
 21
86.2
  0
LINE
  8
0
 10
107
 20
86.2
 11
107
 21
87.5
  0
LINE
  8
0
 10
107
 20
87.5
 11
125.432
 21
87.5
  0
LINE
  8
0
 10
125.432
 20
87.5
 11
126.315
 21
86.2
  0
LINE
  8
0
 10
126.315
 20
86.2
 11
107
 21
86.2
  0
LINE
  8
0
 10
-101
 20
86.2
 11
-101
 21
87.5
  0
LINE
  8
0
 10
-101
 20
87.5
 11
-61
 21
87.5
  0
LINE
  8
0
 10
-61
 20
87.5
 11
-61
 21
86.2
  0
LINE
  8
0
 10
-61
 20
86.2
 11
-101
 21
86.2
  0
LINE
  8
0
 10
-49
 20
86.2
 11
-49
 21
87.5
  0
LINE
  8
0
 10
-49
 20
87.5
 11
-9
 21
87.5
  0
LINE
  8
0
 10
-9
 20
87.5
 11
-9
 21
86.2
  0
LINE
  8
0
 10
-9
 20
86.2
 11
-49
 21
86.2
  0
LINE
  8
0
 10
55
 20
86.2
 11
55
 21
87.5
  0
LINE
  8
0
 10
55
 20
87.5
 11
95
 21
87.5
  0
LINE
  8
0
 10
95
 20
87.5
 11
95
 21
86.2
  0
LINE
  8
0
 10
95
 20
86.2
 11
55
 21
86.2
  0
LINE
  8
0
 10
-129.763
 20
81
 11
-129.182
 21
81.9815
  0
LINE
  8
0
 10
-129.182
 20
81.9815
 11
-128.966
 21
82.3
  0
LINE
  8
0
 10
-128.966
 20
82.3
 11
-113
 21
82.3
  0
LINE
  8
0
 10
-113
 20
82.3
 11
-113
 21
81
  0
LINE
  8
0
 10
-113
 20
81
 11
-129.763
 21
81
  0
LINE
  8
0
 10
-49
 20
81
 11
-49
 21
82.3
  0
LINE
  8
0
 10
-49
 20
82.3
 11
-9
 21
82.3
  0
LINE
  8
0
 10
-9
 20
82.3
 11
-9
 21
81
  0
LINE
  8
0
 10
-9
 20
81
 11
-49
 21
81
  0
LINE
  8
0
 10
-101
 20
81
 11
-101
 21
82.3
  0
LINE
  8
0
 10
-101
 20
82.3
 11
-61
 21
82.3
  0
LINE
  8
0
 10
-61
 20
82.3
 11
-61
 21
81
  0
LINE
  8
0
 10
-61
 20
81
 11
-101
 21
81
  0
LINE
  8
0
 10
3
 20
81
 11
3
 21
82.3
  0
LINE
  8
0
 10
3
 20
82.3
 11
43
 21
82.3
  0
LINE
  8
0
 10
43
 20
82.3
 11
43
 21
81
  0
LINE
  8
0
 10
43
 20
81
 11
3
 21
81
  0
LINE
  8
0
 10
55
 20
81
 11
55
 21
82.3
  0
LINE
  8
0
 10
55
 20
82.3
 11
95
 21
82.3
  0
LINE
  8
0
 10
95
 20
82.3
 11
95
 21
81
  0
LINE
  8
0
 10
95
 20
81
 11
55
 21
81
  0
LINE
  8
0
 10
107
 20
81
 11
107
 21
82.3
  0
LINE
  8
0
 10
107
 20
82.3
 11
128.966
 21
82.3
  0
LINE
  8
0
 10
128.966
 20
82.3
 11
129.182
 21
81.9815
  0
LINE
  8
0
 10
129.182
 20
81.9815
 11
129.763
 21
81
  0
LINE
  8
0
 10
129.763
 20
81
 11
107
 21
81
  0
LINE
  8
0
 10
-101
 20
75.8
 11
-101
 21
77.1
  0
LINE
  8
0
 10
-101
 20
77.1
 11
-61
 21
77.1
  0
LINE
  8
0
 10
-61
 20
77.1
 11
-61
 21
75.8
  0
LINE
  8
0
 10
-61
 20
75.8
 11
-101
 21
75.8
  0
LINE
  8
0
 10
3
 20
75.8
 11
3
 21
77.1
  0
LINE
  8
0
 10
3
 20
77.1
 11
43
 21
77.1
  0
LINE
  8
0
 10
43
 20
77.1
 11
43
 21
75.8
  0
LINE
  8
0
 10
43
 20
75.8
 11
3
 21
75.8
  0
LINE
  8
0
 10
-49
 20
75.8
 11
-49
 21
77.1
  0
LINE
  8
0
 10
-49
 20
77.1
 11
-9
 21
77.1
  0
LINE
  8
0
 10
-9
 20
77.1
 11
-9
 21
75.8
  0
LINE
  8
0
 10
-9
 20
75.8
 11
-49
 21
75.8
  0
LINE
  8
0
 10
-132.838
 20
75.8
 11
-132.069
 21
77.1
  0
LINE
  8
0
 10
-132.069
 20
77.1
 11
-113
 21
77.1
  0
LINE
  8
0
 10
-113
 20
77.1
 11
-113
 21
75.8
  0
LINE
  8
0
 10
-113
 20
75.8
 11
-132.838
 21
75.8
  0
LINE
  8
0
 10
107
 20
75.8
 11
107
 21
77.1
  0
LINE
  8
0
 10
107
 20
77.1
 11
132.069
 21
77.1
  0
LINE
  8
0
 10
132.069
 20
77.1
 11
132.838
 21
75.8
  0
LINE
  8
0
 10
132.838
 20
75.8
 11
107
 21
75.8
  0
LINE
  8
0
 10
55
 20
75.8
 11
55
 21
77.1
  0
LINE
  8
0
 10
55
 20
77.1
 11
95
 21
77.1
  0
LINE
  8
0
 10
95
 20
77.1
 11
95
 21
75.8
  0
LINE
  8
0
 10
95
 20
75.8
 11
55
 21
75.8
  0
LINE
  8
0
 10
107
 20
70.6
 11
107
 21
71.9
  0
LINE
  8
0
 10
107
 20
71.9
 11
134.996
 21
71.9
  0
LINE
  8
0
 10
134.996
 20
71.9
 11
135.659
 21
70.6
  0
LINE
  8
0
 10
135.659
 20
70.6
 11
107
 21
70.6
  0
LINE
  8
0
 10
55
 20
70.6
 11
55
 21
71.9
  0
LINE
  8
0
 10
55
 20
71.9
 11
95
 21
71.9
  0
LINE
  8
0
 10
95
 20
71.9
 11
95
 21
70.6
  0
LINE
  8
0
 10
95
 20
70.6
 11
55
 21
70.6
  0
LINE
  8
0
 10
3
 20
70.6
 11
3
 21
71.9
  0
LINE
  8
0
 10
3
 20
71.9
 11
43
 21
71.9
  0
LINE
  8
0
 10
43
 20
71.9
 11
43
 21
70.6
  0
LINE
  8
0
 10
43
 20
70.6
 11
3
 21
70.6
  0
LINE
  8
0
 10
-49
 20
70.6
 11
-49
 21
71.9
  0
LINE
  8
0
 10
-49
 20
71.9
 11
-9
 21
71.9
  0
LINE
  8
0
 10
-9
 20
71.9
 11
-9
 21
70.6
  0
LINE
  8
0
 10
-9
 20
70.6
 11
-49
 21
70.6
  0
LINE
  8
0
 10
-135.659
 20
70.6
 11
-134.996
 21
71.9
  0
LINE
  8
0
 10
-134.996
 20
71.9
 11
-113
 21
71.9
  0
LINE
  8
0
 10
-113
 20
71.9
 11
-113
 21
70.6
  0
LINE
  8
0
 10
-113
 20
70.6
 11
-135.659
 21
70.6
  0
LINE
  8
0
 10
-101
 20
70.6
 11
-101
 21
71.9
  0
LINE
  8
0
 10
-101
 20
71.9
 11
-61
 21
71.9
  0
LINE
  8
0
 10
-61
 20
71.9
 11
-61
 21
70.6
  0
LINE
  8
0
 10
-61
 20
70.6
 11
-101
 21
70.6
  0
LINE
  8
0
 10
107
 20
65.4
 11
107
 21
66.7
  0
LINE
  8
0
 10
107
 20
66.7
 11
137.646
 21
66.7
  0
LINE
  8
0
 10
137.646
 20
66.7
 11
138.308
 21
65.4
  0
LINE
  8
0
 10
138.308
 20
65.4
 11
107
 21
65.4
  0
LINE
  8
0
 10
-138.308
 20
65.4
 11
-137.646
 21
66.7
  0
LINE
  8
0
 10
-137.646
 20
66.7
 11
-113
 21
66.7
  0
LINE
  8
0
 10
-113
 20
66.7
 11
-113
 21
65.4
  0
LINE
  8
0
 10
-113
 20
65.4
 11
-138.308
 21
65.4
  0
LINE
  8
0
 10
-101
 20
65.4
 11
-101
 21
66.7
  0
LINE
  8
0
 10
-101
 20
66.7
 11
-61
 21
66.7
  0
LINE
  8
0
 10
-61
 20
66.7
 11
-61
 21
65.4
  0
LINE
  8
0
 10
-61
 20
65.4
 11
-101
 21
65.4
  0
LINE
  8
0
 10
3
 20
65.4
 11
3
 21
66.7
  0
LINE
  8
0
 10
3
 20
66.7
 11
43
 21
66.7
  0
LINE
  8
0
 10
43
 20
66.7
 11
43
 21
65.4
  0
LINE
  8
0
 10
43
 20
65.4
 11
3
 21
65.4
  0
LINE
  8
0
 10
55
 20
65.4
 11
55
 21
66.7
  0
LINE
  8
0
 10
55
 20
66.7
 11
95
 21
66.7
  0
LINE
  8
0
 10
95
 20
66.7
 11
95
 21
65.4
  0
LINE
  8
0
 10
95
 20
65.4
 11
55
 21
65.4
  0
LINE
  8
0
 10
-49
 20
65.4
 11
-49
 21
66.7
  0
LINE
  8
0
 10
-49
 20
66.7
 11
-9
 21
66.7
  0
LINE
  8
0
 10
-9
 20
66.7
 11
-9
 21
65.4
  0
LINE
  8
0
 10
-9
 20
65.4
 11
-49
 21
65.4
  0
LINE
  8
0
 10
-49
 20
60.2
 11
-49
 21
61.5
  0
LINE
  8
0
 10
-49
 20
61.5
 11
-9
 21
61.5
  0
LINE
  8
0
 10
-9
 20
61.5
 11
-9
 21
60.2
  0
LINE
  8
0
 10
-9
 20
60.2
 11
-49
 21
60.2
  0
LINE
  8
0
 10
55
 20
60.2
 11
55
 21
61.5
  0
LINE
  8
0
 10
55
 20
61.5
 11
95
 21
61.5
  0
LINE
  8
0
 10
95
 20
61.5
 11
95
 21
60.2
  0
LINE
  8
0
 10
95
 20
60.2
 11
55
 21
60.2
  0
LINE
  8
0
 10
-101
 20
60.2
 11
-101
 21
61.5
  0
LINE
  8
0
 10
-101
 20
61.5
 11
-61
 21
61.5
  0
LINE
  8
0
 10
-61
 20
61.5
 11
-61
 21
60.2
  0
LINE
  8
0
 10
-61
 20
60.2
 11
-101
 21
60.2
  0
LINE
  8
0
 10
-140.578
 20
60.2
 11
-140.016
 21
61.5
  0
LINE
  8
0
 10
-140.016
 20
61.5
 11
-113
 21
61.5
  0
LINE
  8
0
 10
-113
 20
61.5
 11
-113
 21
60.2
  0
LINE
  8
0
 10
-113
 20
60.2
 11
-140.578
 21
60.2
  0
LINE
  8
0
 10
107
 20
60.2
 11
107
 21
61.5
  0
LINE
  8
0
 10
107
 20
61.5
 11
140.016
 21
61.5
  0
LINE
  8
0
 10
140.016
 20
61.5
 11
140.578
 21
60.2
  0
LINE
  8
0
 10
140.578
 20
60.2
 11
107
 21
60.2
  0
LINE
  8
0
 10
43
 20
60.2
 11
3
 21
60.2
  0
LINE
  8
0
 10
3
 20
60.2
 11
3
 21
61.5
  0
LINE
  8
0
 10
3
 20
61.5
 11
43
 21
61.5
  0
LINE
  8
0
 10
43
 20
61.5
 11
43
 21
60.2
  0
LINE
  8
0
 10
55
 20
55
 11
55
 21
56.3
  0
LINE
  8
0
 10
55
 20
56.3
 11
95
 21
56.3
  0
LINE
  8
0
 10
95
 20
56.3
 11
95
 21
55
  0
LINE
  8
0
 10
95
 20
55
 11
55
 21
55
  0
LINE
  8
0
 10
3
 20
55
 11
3
 21
56.3
  0
LINE
  8
0
 10
3
 20
56.3
 11
43
 21
56.3
  0
LINE
  8
0
 10
43
 20
56.3
 11
43
 21
55
  0
LINE
  8
0
 10
43
 20
55
 11
3
 21
55
  0
LINE
  8
0
 10
-101
 20
55
 11
-101
 21
56.3
  0
LINE
  8
0
 10
-101
 20
56.3
 11
-61
 21
56.3
  0
LINE
  8
0
 10
-61
 20
56.3
 11
-61
 21
55
  0
LINE
  8
0
 10
-61
 20
55
 11
-101
 21
55
  0
LINE
  8
0
 10
-142.732
 20
55
 11
-142.264
 21
56.3
  0
LINE
  8
0
 10
-142.264
 20
56.3
 11
-113
 21
56.3
  0
LINE
  8
0
 10
-113
 20
56.3
 11
-113
 21
55
  0
LINE
  8
0
 10
-113
 20
55
 11
-142.732
 21
55
  0
LINE
  8
0
 10
-49
 20
55
 11
-49
 21
56.3
  0
LINE
  8
0
 10
-49
 20
56.3
 11
-9
 21
56.3
  0
LINE
  8
0
 10
-9
 20
56.3
 11
-9
 21
55
  0
LINE
  8
0
 10
-9
 20
55
 11
-49
 21
55
  0
LINE
  8
0
 10
107
 20
55
 11
107
 21
56.3
  0
LINE
  8
0
 10
107
 20
56.3
 11
142.264
 21
56.3
  0
LINE
  8
0
 10
142.264
 20
56.3
 11
142.732
 21
55
  0
LINE
  8
0
 10
142.732
 20
55
 11
107
 21
55
  0
LINE
  8
0
 10
107
 20
49.8
 11
107
 21
51.1
  0
LINE
  8
0
 10
107
 20
51.1
 11
144.136
 21
51.1
  0
LINE
  8
0
 10
144.136
 20
51.1
 11
144.604
 21
49.8
  0
LINE
  8
0
 10
144.604
 20
49.8
 11
107
 21
49.8
  0
LINE
  8
0
 10
-49
 20
49.8
 11
-49
 21
51.1
  0
LINE
  8
0
 10
-49
 20
51.1
 11
-9
 21
51.1
  0
LINE
  8
0
 10
-9
 20
51.1
 11
-9
 21
49.8
  0
LINE
  8
0
 10
-9
 20
49.8
 11
-49
 21
49.8
  0
LINE
  8
0
 10
55
 20
49.8
 11
55
 21
51.1
  0
LINE
  8
0
 10
55
 20
51.1
 11
95
 21
51.1
  0
LINE
  8
0
 10
95
 20
51.1
 11
95
 21
49.8
  0
LINE
  8
0
 10
95
 20
49.8
 11
55
 21
49.8
  0
LINE
  8
0
 10
-101
 20
49.8
 11
-101
 21
51.1
  0
LINE
  8
0
 10
-101
 20
51.1
 11
-61
 21
51.1
  0
LINE
  8
0
 10
-61
 20
51.1
 11
-61
 21
49.8
  0
LINE
  8
0
 10
-61
 20
49.8
 11
-101
 21
49.8
  0
LINE
  8
0
 10
-144.604
 20
49.8
 11
-144.136
 21
51.1
  0
LINE
  8
0
 10
-144.136
 20
51.1
 11
-113
 21
51.1
  0
LINE
  8
0
 10
-113
 20
51.1
 11
-113
 21
49.8
  0
LINE
  8
0
 10
-113
 20
49.8
 11
-144.604
 21
49.8
  0
LINE
  8
0
 10
43
 20
49.8
 11
3
 21
49.8
  0
LINE
  8
0
 10
3
 20
49.8
 11
3
 21
51.1
  0
LINE
  8
0
 10
3
 20
51.1
 11
43
 21
51.1
  0
LINE
  8
0
 10
43
 20
51.1
 11
43
 21
49.8
  0
LINE
  8
0
 10
55
 20
44.6
 11
55
 21
45.9
  0
LINE
  8
0
 10
55
 20
45.9
 11
95
 21
45.9
  0
LINE
  8
0
 10
95
 20
45.9
 11
95
 21
44.6
  0
LINE
  8
0
 10
95
 20
44.6
 11
55
 21
44.6
  0
LINE
  8
0
 10
-146.29
 20
44.6
 11
-145.912
 21
45.9
  0
LINE
  8
0
 10
-145.912
 20
45.9
 11
-113
 21
45.9
  0
LINE
  8
0
 10
-113
 20
45.9
 11
-113
 21
44.6
  0
LINE
  8
0
 10
-113
 20
44.6
 11
-146.29
 21
44.6
  0
LINE
  8
0
 10
107
 20
44.6
 11
107
 21
45.9
  0
LINE
  8
0
 10
107
 20
45.9
 11
145.912
 21
45.9
  0
LINE
  8
0
 10
145.912
 20
45.9
 11
146.29
 21
44.6
  0
LINE
  8
0
 10
146.29
 20
44.6
 11
107
 21
44.6
  0
LINE
  8
0
 10
-49
 20
45.9
 11
-9
 21
45.9
  0
LINE
  8
0
 10
-9
 20
45.9
 11
-9
 21
44.6
  0
LINE
  8
0
 10
-9
 20
44.6
 11
-49
 21
44.6
  0
LINE
  8
0
 10
-49
 20
44.6
 11
-49
 21
45.9
  0
LINE
  8
0
 10
-101
 20
44.6
 11
-101
 21
45.9
  0
LINE
  8
0
 10
-101
 20
45.9
 11
-61
 21
45.9
  0
LINE
  8
0
 10
-61
 20
45.9
 11
-61
 21
44.6
  0
LINE
  8
0
 10
-61
 20
44.6
 11
-101
 21
44.6
  0
LINE
  8
0
 10
55
 20
39.4
 11
55
 21
40.7
  0
LINE
  8
0
 10
55
 20
40.7
 11
95
 21
40.7
  0
LINE
  8
0
 10
95
 20
40.7
 11
95
 21
39.4
  0
LINE
  8
0
 10
95
 20
39.4
 11
55
 21
39.4
  0
LINE
  8
0
 10
-49
 20
39.4
 11
-49
 21
40.7
  0
LINE
  8
0
 10
-49
 20
40.7
 11
-9
 21
40.7
  0
LINE
  8
0
 10
-9
 20
40.7
 11
-9
 21
39.4
  0
LINE
  8
0
 10
-9
 20
39.4
 11
-49
 21
39.4
  0
LINE
  8
0
 10
107
 20
39.4
 11
107
 21
40.7
  0
LINE
  8
0
 10
107
 20
40.7
 11
147
 21
40.7
  0
LINE
  8
0
 10
147
 20
40.7
 11
147
 21
39.4
  0
LINE
  8
0
 10
147
 20
39.4
 11
107
 21
39.4
  0
LINE
  8
0
 10
-147.801
 20
39.4
 11
-147.423
 21
40.7
  0
LINE
  8
0
 10
-147.423
 20
40.7
 11
-113
 21
40.7
  0
LINE
  8
0
 10
-113
 20
40.7
 11
-113
 21
39.4
  0
LINE
  8
0
 10
-113
 20
39.4
 11
-147.801
 21
39.4
  0
LINE
  8
0
 10
-101
 20
39.4
 11
-101
 21
40.7
  0
LINE
  8
0
 10
-101
 20
40.7
 11
-61
 21
40.7
  0
LINE
  8
0
 10
-61
 20
40.7
 11
-61
 21
39.4
  0
LINE
  8
0
 10
-61
 20
39.4
 11
-101
 21
39.4
  0
LINE
  8
0
 10
3
 20
39.4
 11
3
 21
40.7
  0
LINE
  8
0
 10
3
 20
40.7
 11
43
 21
40.7
  0
LINE
  8
0
 10
43
 20
40.7
 11
43
 21
39.4
  0
LINE
  8
0
 10
43
 20
39.4
 11
3
 21
39.4
  0
LINE
  8
0
 10
-149.054
 20
34.2
 11
-148.763
 21
35.5
  0
LINE
  8
0
 10
-148.763
 20
35.5
 11
-113
 21
35.5
  0
LINE
  8
0
 10
-113
 20
35.5
 11
-113
 21
34.2
  0
LINE
  8
0
 10
-113
 20
34.2
 11
-149.054
 21
34.2
  0
LINE
  8
0
 10
-49
 20
34.2
 11
-49
 21
35.5
  0
LINE
  8
0
 10
-49
 20
35.5
 11
-9
 21
35.5
  0
LINE
  8
0
 10
-9
 20
35.5
 11
-9
 21
34.2
  0
LINE
  8
0
 10
-9
 20
34.2
 11
-49
 21
34.2
  0
LINE
  8
0
 10
3
 20
34.2
 11
3
 21
35.5
  0
LINE
  8
0
 10
3
 20
35.5
 11
43
 21
35.5
  0
LINE
  8
0
 10
43
 20
35.5
 11
43
 21
34.2
  0
LINE
  8
0
 10
43
 20
34.2
 11
3
 21
34.2
  0
LINE
  8
0
 10
107
 20
34.2
 11
107
 21
35.5
  0
LINE
  8
0
 10
107
 20
35.5
 11
147
 21
35.5
  0
LINE
  8
0
 10
147
 20
35.5
 11
147
 21
34.2
  0
LINE
  8
0
 10
147
 20
34.2
 11
107
 21
34.2
  0
LINE
  8
0
 10
55
 20
34.2
 11
55
 21
35.5
  0
LINE
  8
0
 10
55
 20
35.5
 11
95
 21
35.5
  0
LINE
  8
0
 10
95
 20
35.5
 11
95
 21
34.2
  0
LINE
  8
0
 10
95
 20
34.2
 11
55
 21
34.2
  0
LINE
  8
0
 10
-101
 20
34.2
 11
-101
 21
35.5
  0
LINE
  8
0
 10
-101
 20
35.5
 11
-61
 21
35.5
  0
LINE
  8
0
 10
-61
 20
35.5
 11
-61
 21
34.2
  0
LINE
  8
0
 10
-61
 20
34.2
 11
-101
 21
34.2
  0
LINE
  8
0
 10
-49
 20
29
 11
-49
 21
30.3
  0
LINE
  8
0
 10
-49
 20
30.3
 11
-9
 21
30.3
  0
LINE
  8
0
 10
-9
 20
30.3
 11
-9
 21
29
  0
LINE
  8
0
 10
-9
 20
29
 11
-49
 21
29
  0
LINE
  8
0
 10
107
 20
29
 11
107
 21
30.3
  0
LINE
  8
0
 10
107
 20
30.3
 11
147
 21
30.3
  0
LINE
  8
0
 10
147
 20
30.3
 11
147
 21
29
  0
LINE
  8
0
 10
147
 20
29
 11
107
 21
29
  0
LINE
  8
0
 10
-150.216
 20
29
 11
-149.925
 21
30.3
  0
LINE
  8
0
 10
-149.925
 20
30.3
 11
-113
 21
30.3
  0
LINE
  8
0
 10
-113
 20
30.3
 11
-113
 21
29
  0
LINE
  8
0
 10
-113
 20
29
 11
-150.216
 21
29
  0
LINE
  8
0
 10
-101
 20
29
 11
-101
 21
30.3
  0
LINE
  8
0
 10
-101
 20
30.3
 11
-61
 21
30.3
  0
LINE
  8
0
 10
-61
 20
30.3
 11
-61
 21
29
  0
LINE
  8
0
 10
-61
 20
29
 11
-101
 21
29
  0
LINE
  8
0
 10
55
 20
29
 11
55
 21
30.3
  0
LINE
  8
0
 10
55
 20
30.3
 11
95
 21
30.3
  0
LINE
  8
0
 10
95
 20
30.3
 11
95
 21
29
  0
LINE
  8
0
 10
95
 20
29
 11
55
 21
29
  0
LINE
  8
0
 10
3
 20
29
 11
3
 21
30.3
  0
LINE
  8
0
 10
3
 20
30.3
 11
43
 21
30.3
  0
LINE
  8
0
 10
43
 20
30.3
 11
43
 21
29
  0
LINE
  8
0
 10
43
 20
29
 11
3
 21
29
  0
LINE
  8
0
 10
-101
 20
23.8
 11
-101
 21
25.1
  0
LINE
  8
0
 10
-101
 20
25.1
 11
-61
 21
25.1
  0
LINE
  8
0
 10
-61
 20
25.1
 11
-61
 21
23.8
  0
LINE
  8
0
 10
-61
 20
23.8
 11
-101
 21
23.8
  0
LINE
  8
0
 10
-151.061
 20
23.8
 11
-150.855
 21
25.1
  0
LINE
  8
0
 10
-150.855
 20
25.1
 11
-113
 21
25.1
  0
LINE
  8
0
 10
-113
 20
25.1
 11
-113
 21
23.8
  0
LINE
  8
0
 10
-113
 20
23.8
 11
-151.061
 21
23.8
  0
LINE
  8
0
 10
3
 20
23.8
 11
3
 21
25.1
  0
LINE
  8
0
 10
3
 20
25.1
 11
43
 21
25.1
  0
LINE
  8
0
 10
43
 20
25.1
 11
43
 21
23.8
  0
LINE
  8
0
 10
43
 20
23.8
 11
3
 21
23.8
  0
LINE
  8
0
 10
55
 20
23.8
 11
55
 21
25.1
  0
LINE
  8
0
 10
55
 20
25.1
 11
95
 21
25.1
  0
LINE
  8
0
 10
95
 20
25.1
 11
95
 21
23.8
  0
LINE
  8
0
 10
95
 20
23.8
 11
55
 21
23.8
  0
LINE
  8
0
 10
107
 20
23.8
 11
107
 21
25.1
  0
LINE
  8
0
 10
107
 20
25.1
 11
147
 21
25.1
  0
LINE
  8
0
 10
147
 20
25.1
 11
147
 21
23.8
  0
LINE
  8
0
 10
147
 20
23.8
 11
107
 21
23.8
  0
LINE
  8
0
 10
-49
 20
23.8
 11
-49
 21
25.1
  0
LINE
  8
0
 10
-49
 20
25.1
 11
-9
 21
25.1
  0
LINE
  8
0
 10
-9
 20
25.1
 11
-9
 21
23.8
  0
LINE
  8
0
 10
-9
 20
23.8
 11
-49
 21
23.8
  0
LINE
  8
0
 10
-101
 20
19.9
 11
-61
 21
19.9
  0
LINE
  8
0
 10
-61
 20
19.9
 11
-61
 21
18.6
  0
LINE
  8
0
 10
-61
 20
18.6
 11
-101
 21
18.6
  0
LINE
  8
0
 10
-101
 20
18.6
 11
-101
 21
19.9
  0
LINE
  8
0
 10
107
 20
18.6
 11
107
 21
19.9
  0
LINE
  8
0
 10
107
 20
19.9
 11
147
 21
19.9
  0
LINE
  8
0
 10
147
 20
19.9
 11
147
 21
18.6
  0
LINE
  8
0
 10
147
 20
18.6
 11
107
 21
18.6
  0
LINE
  8
0
 10
55
 20
18.6
 11
55
 21
19.9
  0
LINE
  8
0
 10
55
 20
19.9
 11
95
 21
19.9
  0
LINE
  8
0
 10
95
 20
19.9
 11
95
 21
18.6
  0
LINE
  8
0
 10
95
 20
18.6
 11
55
 21
18.6
  0
LINE
  8
0
 10
-151.848
 20
18.6
 11
-151.794
 21
19.176
  0
LINE
  8
0
 10
-151.794
 20
19.176
 11
-151.679
 21
19.9
  0
LINE
  8
0
 10
-151.679
 20
19.9
 11
-113
 21
19.9
  0
LINE
  8
0
 10
-113
 20
19.9
 11
-113
 21
18.6
  0
LINE
  8
0
 10
-113
 20
18.6
 11
-151.848
 21
18.6
  0
LINE
  8
0
 10
3
 20
18.6
 11
3
 21
19.9
  0
LINE
  8
0
 10
3
 20
19.9
 11
43
 21
19.9
  0
LINE
  8
0
 10
43
 20
19.9
 11
43
 21
18.6
  0
LINE
  8
0
 10
43
 20
18.6
 11
3
 21
18.6
  0
LINE
  8
0
 10
-152.217
 20
14.7
 11
-113
 21
14.7
  0
LINE
  8
0
 10
-113
 20
14.7
 11
-113
 21
13.4
  0
LINE
  8
0
 10
-113
 20
13.4
 11
-152.34
 21
13.4
  0
LINE
  8
0
 10
-152.34
 20
13.4
 11
-152.217
 21
14.7
  0
LINE
  8
0
 10
107
 20
13.4
 11
107
 21
14.7
  0
LINE
  8
0
 10
107
 20
14.7
 11
147
 21
14.7
  0
LINE
  8
0
 10
147
 20
14.7
 11
147
 21
13.4
  0
LINE
  8
0
 10
147
 20
13.4
 11
107
 21
13.4
  0
LINE
  8
0
 10
55
 20
13.4
 11
55
 21
14.7
  0
LINE
  8
0
 10
55
 20
14.7
 11
95
 21
14.7
  0
LINE
  8
0
 10
95
 20
14.7
 11
95
 21
13.4
  0
LINE
  8
0
 10
95
 20
13.4
 11
55
 21
13.4
  0
LINE
  8
0
 10
3
 20
13.4
 11
3
 21
14.7
  0
LINE
  8
0
 10
3
 20
14.7
 11
43
 21
14.7
  0
LINE
  8
0
 10
43
 20
14.7
 11
43
 21
13.4
  0
LINE
  8
0
 10
43
 20
13.4
 11
3
 21
13.4
  0
LINE
  8
0
 10
-152.742
 20
8.2
 11
-152.701
 21
9.5
  0
LINE
  8
0
 10
-152.701
 20
9.5
 11
-113
 21
9.5
  0
LINE
  8
0
 10
-113
 20
9.5
 11
-113
 21
8.2
  0
LINE
  8
0
 10
-113
 20
8.2
 11
-152.742
 21
8.2
  0
LINE
  8
0
 10
-49
 20
8.2
 11
-49
 21
9.5
  0
LINE
  8
0
 10
-49
 20
9.5
 11
-9
 21
9.5
  0
LINE
  8
0
 10
-9
 20
9.5
 11
-9
 21
8.2
  0
LINE
  8
0
 10
-9
 20
8.2
 11
-49
 21
8.2
  0
LINE
  8
0
 10
3
 20
8.2
 11
3
 21
9.5
  0
LINE
  8
0
 10
3
 20
9.5
 11
43
 21
9.5
  0
LINE
  8
0
 10
43
 20
9.5
 11
43
 21
8.2
  0
LINE
  8
0
 10
43
 20
8.2
 11
3
 21
8.2
  0
LINE
  8
0
 10
107
 20
8.2
 11
107
 21
9.5
  0
LINE
  8
0
 10
107
 20
9.5
 11
147
 21
9.5
  0
LINE
  8
0
 10
147
 20
9.5
 11
147
 21
8.2
  0
LINE
  8
0
 10
147
 20
8.2
 11
107
 21
8.2
  0
LINE
  8
0
 10
-101
 20
8.2
 11
-101
 21
9.5
  0
LINE
  8
0
 10
-101
 20
9.5
 11
-61
 21
9.5
  0
LINE
  8
0
 10
-61
 20
9.5
 11
-61
 21
8.2
  0
LINE
  8
0
 10
-61
 20
8.2
 11
-101
 21
8.2
  0
LINE
  8
0
 10
55
 20
8.2
 11
55
 21
9.5
  0
LINE
  8
0
 10
55
 20
9.5
 11
95
 21
9.5
  0
LINE
  8
0
 10
95
 20
9.5
 11
95
 21
8.2
  0
LINE
  8
0
 10
95
 20
8.2
 11
55
 21
8.2
  0
LINE
  8
0
 10
3
 20
3
 11
3
 21
4.29999
  0
LINE
  8
0
 10
3
 20
4.29999
 11
43
 21
4.29999
  0
LINE
  8
0
 10
43
 20
4.29999
 11
43
 21
3
  0
LINE
  8
0
 10
43
 20
3
 11
3
 21
3
  0
LINE
  8
0
 10
-152.906
 20
3
 11
-152.865
 21
4.29999
  0
LINE
  8
0
 10
-152.865
 20
4.29999
 11
-113
 21
4.29999
  0
LINE
  8
0
 10
-113
 20
4.29999
 11
-113
 21
3
  0
LINE
  8
0
 10
-113
 20
3
 11
-152.906
 21
3
  0
LINE
  8
0
 10
55
 20
3
 11
55
 21
4.29999
  0
LINE
  8
0
 10
55
 20
4.29999
 11
95
 21
4.29999
  0
LINE
  8
0
 10
95
 20
4.29999
 11
95
 21
3
  0
LINE
  8
0
 10
95
 20
3
 11
55
 21
3
  0
LINE
  8
0
 10
-101
 20
3
 11
-101
 21
4.29999
  0
LINE
  8
0
 10
-101
 20
4.29999
 11
-61
 21
4.29999
  0
LINE
  8
0
 10
-61
 20
4.29999
 11
-61
 21
3
  0
LINE
  8
0
 10
-61
 20
3
 11
-101
 21
3
  0
LINE
  8
0
 10
107
 20
3
 11
107
 21
4.29999
  0
LINE
  8
0
 10
107
 20
4.29999
 11
147
 21
4.29999
  0
LINE
  8
0
 10
147
 20
4.29999
 11
147
 21
3
  0
LINE
  8
0
 10
147
 20
3
 11
107
 21
3
  0
LINE
  8
0
 10
-49
 20
3
 11
-49
 21
4.29999
  0
LINE
  8
0
 10
-49
 20
4.29999
 11
-9
 21
4.29999
  0
LINE
  8
0
 10
-9
 20
4.29999
 11
-9
 21
3
  0
LINE
  8
0
 10
-9
 20
3
 11
-49
 21
3
  0
LINE
  8
0
 10
122.157
 20
-2.74457
 11
121.985
 21
-2.7283
  0
LINE
  8
0
 10
121.985
 20
-2.7283
 11
121.814
 21
-2.70128
  0
LINE
  8
0
 10
121.814
 20
-2.70128
 11
121.646
 21
-2.66359
  0
LINE
  8
0
 10
121.646
 20
-2.66359
 11
121.48
 21
-2.6154
  0
LINE
  8
0
 10
121.48
 20
-2.6154
 11
121.317
 21
-2.55688
  0
LINE
  8
0
 10
121.317
 20
-2.55688
 11
121.159
 21
-2.48827
  0
LINE
  8
0
 10
121.159
 20
-2.48827
 11
121.005
 21
-2.40984
  0
LINE
  8
0
 10
121.005
 20
-2.40984
 11
120.856
 21
-2.3219
  0
LINE
  8
0
 10
120.856
 20
-2.3219
 11
120.713
 21
-2.22479
  0
LINE
  8
0
 10
120.713
 20
-2.22479
 11
120.681
 21
-2.2
  0
LINE
  8
0
 10
120.681
 20
-2.2
 11
107
 21
-2.2
  0
LINE
  8
0
 10
107
 20
-2.2
 11
107
 21
-0.899994
  0
LINE
  8
0
 10
107
 20
-0.899994
 11
119.732
 21
-0.899994
  0
LINE
  8
0
 10
119.732
 20
-0.899994
 11
119.714
 21
-0.849792
  0
LINE
  8
0
 10
119.714
 20
-0.849792
 11
119.666
 21
-0.683884
  0
LINE
  8
0
 10
119.666
 20
-0.683884
 11
119.628
 21
-0.515289
  0
LINE
  8
0
 10
119.628
 20
-0.515289
 11
119.601
 21
-0.344666
  0
LINE
  8
0
 10
119.601
 20
-0.344666
 11
119.585
 21
-0.172668
  0
LINE
  8
0
 10
119.585
 20
-0.172668
 11
119.579
 21
0
  0
LINE
  8
0
 10
119.579
 20
0
 11
119.585
 21
0.172668
  0
LINE
  8
0
 10
119.585
 20
0.172668
 11
119.601
 21
0.344666
  0
LINE
  8
0
 10
119.601
 20
0.344666
 11
119.628
 21
0.515289
  0
LINE
  8
0
 10
119.628
 20
0.515289
 11
119.666
 21
0.683884
  0
LINE
  8
0
 10
119.666
 20
0.683884
 11
119.714
 21
0.849792
  0
LINE
  8
0
 10
119.714
 20
0.849792
 11
119.773
 21
1.01233
  0
LINE
  8
0
 10
119.773
 20
1.01233
 11
119.841
 21
1.17088
  0
LINE
  8
0
 10
119.841
 20
1.17088
 11
119.92
 21
1.32481
  0
LINE
  8
0
 10
119.92
 20
1.32481
 11
120.008
 21
1.47351
  0
LINE
  8
0
 10
120.008
 20
1.47351
 11
120.105
 21
1.61641
  0
LINE
  8
0
 10
120.105
 20
1.61641
 11
120.211
 21
1.75291
  0
LINE
  8
0
 10
120.211
 20
1.75291
 11
120.325
 21
1.88249
  0
LINE
  8
0
 10
120.325
 20
1.88249
 11
120.447
 21
2.00465
  0
LINE
  8
0
 10
120.447
 20
2.00465
 11
120.577
 21
2.1189
  0
LINE
  8
0
 10
120.577
 20
2.1189
 11
120.713
 21
2.22479
  0
LINE
  8
0
 10
120.713
 20
2.22479
 11
120.856
 21
2.3219
  0
LINE
  8
0
 10
120.856
 20
2.3219
 11
121.005
 21
2.40984
  0
LINE
  8
0
 10
121.005
 20
2.40984
 11
121.159
 21
2.48827
  0
LINE
  8
0
 10
121.159
 20
2.48827
 11
121.317
 21
2.55688
  0
LINE
  8
0
 10
121.317
 20
2.55688
 11
121.48
 21
2.6154
  0
LINE
  8
0
 10
121.48
 20
2.6154
 11
121.646
 21
2.66359
  0
LINE
  8
0
 10
121.646
 20
2.66359
 11
121.814
 21
2.70128
  0
LINE
  8
0
 10
121.814
 20
2.70128
 11
121.985
 21
2.7283
  0
LINE
  8
0
 10
121.985
 20
2.7283
 11
122.157
 21
2.74457
  0
LINE
  8
0
 10
122.157
 20
2.74457
 11
122.329
 21
2.75
  0
LINE
  8
0
 10
122.329
 20
2.75
 11
122.502
 21
2.74457
  0
LINE
  8
0
 10
122.502
 20
2.74457
 11
122.674
 21
2.7283
  0
LINE
  8
0
 10
122.674
 20
2.7283
 11
122.845
 21
2.70128
  0
LINE
  8
0
 10
122.845
 20
2.70128
 11
123.013
 21
2.66359
  0
LINE
  8
0
 10
123.013
 20
2.66359
 11
123.179
 21
2.6154
  0
LINE
  8
0
 10
123.179
 20
2.6154
 11
123.342
 21
2.55688
  0
LINE
  8
0
 10
123.342
 20
2.55688
 11
123.5
 21
2.48827
  0
LINE
  8
0
 10
123.5
 20
2.48827
 11
123.654
 21
2.40984
  0
LINE
  8
0
 10
123.654
 20
2.40984
 11
123.803
 21
2.3219
  0
LINE
  8
0
 10
123.803
 20
2.3219
 11
123.946
 21
2.22479
  0
LINE
  8
0
 10
123.946
 20
2.22479
 11
124.082
 21
2.1189
  0
LINE
  8
0
 10
124.082
 20
2.1189
 11
124.212
 21
2.00465
  0
LINE
  8
0
 10
124.212
 20
2.00465
 11
124.334
 21
1.88249
  0
LINE
  8
0
 10
124.334
 20
1.88249
 11
124.448
 21
1.75291
  0
LINE
  8
0
 10
124.448
 20
1.75291
 11
124.554
 21
1.61641
  0
LINE
  8
0
 10
124.554
 20
1.61641
 11
124.651
 21
1.47351
  0
LINE
  8
0
 10
124.651
 20
1.47351
 11
124.739
 21
1.32481
  0
LINE
  8
0
 10
124.739
 20
1.32481
 11
124.818
 21
1.17088
  0
LINE
  8
0
 10
124.818
 20
1.17088
 11
124.886
 21
1.01233
  0
LINE
  8
0
 10
124.886
 20
1.01233
 11
124.945
 21
0.849792
  0
LINE
  8
0
 10
124.945
 20
0.849792
 11
124.993
 21
0.683884
  0
LINE
  8
0
 10
124.993
 20
0.683884
 11
125.031
 21
0.515289
  0
LINE
  8
0
 10
125.031
 20
0.515289
 11
125.058
 21
0.344666
  0
LINE
  8
0
 10
125.058
 20
0.344666
 11
125.074
 21
0.172668
  0
LINE
  8
0
 10
125.074
 20
0.172668
 11
125.079
 21
0
  0
LINE
  8
0
 10
125.079
 20
0
 11
125.074
 21
-0.172668
  0
LINE
  8
0
 10
125.074
 20
-0.172668
 11
125.058
 21
-0.344666
  0
LINE
  8
0
 10
125.058
 20
-0.344666
 11
125.031
 21
-0.515289
  0
LINE
  8
0
 10
125.031
 20
-0.515289
 11
124.993
 21
-0.683884
  0
LINE
  8
0
 10
124.993
 20
-0.683884
 11
124.945
 21
-0.849792
  0
LINE
  8
0
 10
124.945
 20
-0.849792
 11
124.927
 21
-0.899994
  0
LINE
  8
0
 10
124.927
 20
-0.899994
 11
147
 21
-0.899994
  0
LINE
  8
0
 10
147
 20
-0.899994
 11
147
 21
-2.2
  0
LINE
  8
0
 10
147
 20
-2.2
 11
123.978
 21
-2.2
  0
LINE
  8
0
 10
123.978
 20
-2.2
 11
123.946
 21
-2.22479
  0
LINE
  8
0
 10
123.946
 20
-2.22479
 11
123.803
 21
-2.3219
  0
LINE
  8
0
 10
123.803
 20
-2.3219
 11
123.654
 21
-2.40984
  0
LINE
  8
0
 10
123.654
 20
-2.40984
 11
123.5
 21
-2.48827
  0
LINE
  8
0
 10
123.5
 20
-2.48827
 11
123.342
 21
-2.55688
  0
LINE
  8
0
 10
123.342
 20
-2.55688
 11
123.179
 21
-2.6154
  0
LINE
  8
0
 10
123.179
 20
-2.6154
 11
123.013
 21
-2.66359
  0
LINE
  8
0
 10
123.013
 20
-2.66359
 11
122.845
 21
-2.70128
  0
LINE
  8
0
 10
122.845
 20
-2.70128
 11
122.674
 21
-2.7283
  0
LINE
  8
0
 10
122.674
 20
-2.7283
 11
122.502
 21
-2.74457
  0
LINE
  8
0
 10
122.502
 20
-2.74457
 11
122.329
 21
-2.75
  0
LINE
  8
0
 10
122.329
 20
-2.75
 11
122.157
 21
-2.74457
  0
LINE
  8
0
 10
-0.172668
 20
-2.74457
 11
-0.344666
 21
-2.7283
  0
LINE
  8
0
 10
-0.344666
 20
-2.7283
 11
-0.515289
 21
-2.70128
  0
LINE
  8
0
 10
-0.515289
 20
-2.70128
 11
-0.683884
 21
-2.66359
  0
LINE
  8
0
 10
-0.683884
 20
-2.66359
 11
-0.849792
 21
-2.6154
  0
LINE
  8
0
 10
-0.849792
 20
-2.6154
 11
-1.01233
 21
-2.55688
  0
LINE
  8
0
 10
-1.01233
 20
-2.55688
 11
-1.17088
 21
-2.48827
  0
LINE
  8
0
 10
-1.17088
 20
-2.48827
 11
-1.32481
 21
-2.40984
  0
LINE
  8
0
 10
-1.32481
 20
-2.40984
 11
-1.47351
 21
-2.3219
  0
LINE
  8
0
 10
-1.47351
 20
-2.3219
 11
-1.61641
 21
-2.22479
  0
LINE
  8
0
 10
-1.61641
 20
-2.22479
 11
-1.75291
 21
-2.1189
  0
LINE
  8
0
 10
-1.75291
 20
-2.1189
 11
-1.88249
 21
-2.00465
  0
LINE
  8
0
 10
-1.88249
 20
-2.00465
 11
-2.00465
 21
-1.88249
  0
LINE
  8
0
 10
-2.00465
 20
-1.88249
 11
-2.1189
 21
-1.75291
  0
LINE
  8
0
 10
-2.1189
 20
-1.75291
 11
-2.22479
 21
-1.61641
  0
LINE
  8
0
 10
-2.22479
 20
-1.61641
 11
-2.3219
 21
-1.47351
  0
LINE
  8
0
 10
-2.3219
 20
-1.47351
 11
-2.40984
 21
-1.32481
  0
LINE
  8
0
 10
-2.40984
 20
-1.32481
 11
-2.48827
 21
-1.17088
  0
LINE
  8
0
 10
-2.48827
 20
-1.17088
 11
-2.55688
 21
-1.01233
  0
LINE
  8
0
 10
-2.55688
 20
-1.01233
 11
-2.6154
 21
-0.849792
  0
LINE
  8
0
 10
-2.6154
 20
-0.849792
 11
-2.66359
 21
-0.683884
  0
LINE
  8
0
 10
-2.66359
 20
-0.683884
 11
-2.70128
 21
-0.515289
  0
LINE
  8
0
 10
-2.70128
 20
-0.515289
 11
-2.7283
 21
-0.344666
  0
LINE
  8
0
 10
-2.7283
 20
-0.344666
 11
-2.74457
 21
-0.172668
  0
LINE
  8
0
 10
-2.74457
 20
-0.172668
 11
-2.75
 21
0
  0
LINE
  8
0
 10
-2.75
 20
0
 11
-2.74457
 21
0.172668
  0
LINE
  8
0
 10
-2.74457
 20
0.172668
 11
-2.7283
 21
0.344666
  0
LINE
  8
0
 10
-2.7283
 20
0.344666
 11
-2.70128
 21
0.515289
  0
LINE
  8
0
 10
-2.70128
 20
0.515289
 11
-2.66359
 21
0.683884
  0
LINE
  8
0
 10
-2.66359
 20
0.683884
 11
-2.6154
 21
0.849792
  0
LINE
  8
0
 10
-2.6154
 20
0.849792
 11
-2.55688
 21
1.01233
  0
LINE
  8
0
 10
-2.55688
 20
1.01233
 11
-2.48827
 21
1.17088
  0
LINE
  8
0
 10
-2.48827
 20
1.17088
 11
-2.40984
 21
1.32481
  0
LINE
  8
0
 10
-2.40984
 20
1.32481
 11
-2.3219
 21
1.47351
  0
LINE
  8
0
 10
-2.3219
 20
1.47351
 11
-2.22479
 21
1.61641
  0
LINE
  8
0
 10
-2.22479
 20
1.61641
 11
-2.1189
 21
1.75291
  0
LINE
  8
0
 10
-2.1189
 20
1.75291
 11
-2.00465
 21
1.88249
  0
LINE
  8
0
 10
-2.00465
 20
1.88249
 11
-1.88249
 21
2.00465
  0
LINE
  8
0
 10
-1.88249
 20
2.00465
 11
-1.75291
 21
2.1189
  0
LINE
  8
0
 10
-1.75291
 20
2.1189
 11
-1.61641
 21
2.22479
  0
LINE
  8
0
 10
-1.61641
 20
2.22479
 11
-1.47351
 21
2.3219
  0
LINE
  8
0
 10
-1.47351
 20
2.3219
 11
-1.32481
 21
2.40984
  0
LINE
  8
0
 10
-1.32481
 20
2.40984
 11
-1.17088
 21
2.48827
  0
LINE
  8
0
 10
-1.17088
 20
2.48827
 11
-1.01233
 21
2.55688
  0
LINE
  8
0
 10
-1.01233
 20
2.55688
 11
-0.849792
 21
2.6154
  0
LINE
  8
0
 10
-0.849792
 20
2.6154
 11
-0.683884
 21
2.66359
  0
LINE
  8
0
 10
-0.683884
 20
2.66359
 11
-0.515289
 21
2.70128
  0
LINE
  8
0
 10
-0.515289
 20
2.70128
 11
-0.344666
 21
2.7283
  0
LINE
  8
0
 10
-0.344666
 20
2.7283
 11
-0.172668
 21
2.74457
  0
LINE
  8
0
 10
-0.172668
 20
2.74457
 11
0
 21
2.75
  0
LINE
  8
0
 10
0
 20
2.75
 11
0.172668
 21
2.74457
  0
LINE
  8
0
 10
0.172668
 20
2.74457
 11
0.344666
 21
2.7283
  0
LINE
  8
0
 10
0.344666
 20
2.7283
 11
0.515289
 21
2.70128
  0
LINE
  8
0
 10
0.515289
 20
2.70128
 11
0.683884
 21
2.66359
  0
LINE
  8
0
 10
0.683884
 20
2.66359
 11
0.849792
 21
2.6154
  0
LINE
  8
0
 10
0.849792
 20
2.6154
 11
1.01233
 21
2.55688
  0
LINE
  8
0
 10
1.01233
 20
2.55688
 11
1.17088
 21
2.48827
  0
LINE
  8
0
 10
1.17088
 20
2.48827
 11
1.32481
 21
2.40984
  0
LINE
  8
0
 10
1.32481
 20
2.40984
 11
1.47351
 21
2.3219
  0
LINE
  8
0
 10
1.47351
 20
2.3219
 11
1.61641
 21
2.22479
  0
LINE
  8
0
 10
1.61641
 20
2.22479
 11
1.75291
 21
2.1189
  0
LINE
  8
0
 10
1.75291
 20
2.1189
 11
1.88249
 21
2.00465
  0
LINE
  8
0
 10
1.88249
 20
2.00465
 11
2.00465
 21
1.88249
  0
LINE
  8
0
 10
2.00465
 20
1.88249
 11
2.1189
 21
1.75291
  0
LINE
  8
0
 10
2.1189
 20
1.75291
 11
2.22479
 21
1.61641
  0
LINE
  8
0
 10
2.22479
 20
1.61641
 11
2.3219
 21
1.47351
  0
LINE
  8
0
 10
2.3219
 20
1.47351
 11
2.40984
 21
1.32481
  0
LINE
  8
0
 10
2.40984
 20
1.32481
 11
2.48827
 21
1.17088
  0
LINE
  8
0
 10
2.48827
 20
1.17088
 11
2.55688
 21
1.01233
  0
LINE
  8
0
 10
2.55688
 20
1.01233
 11
2.6154
 21
0.849792
  0
LINE
  8
0
 10
2.6154
 20
0.849792
 11
2.66359
 21
0.683884
  0
LINE
  8
0
 10
2.66359
 20
0.683884
 11
2.70128
 21
0.515289
  0
LINE
  8
0
 10
2.70128
 20
0.515289
 11
2.7283
 21
0.344666
  0
LINE
  8
0
 10
2.7283
 20
0.344666
 11
2.74457
 21
0.172668
  0
LINE
  8
0
 10
2.74457
 20
0.172668
 11
2.75
 21
0
  0
LINE
  8
0
 10
2.75
 20
0
 11
2.74457
 21
-0.172668
  0
LINE
  8
0
 10
2.74457
 20
-0.172668
 11
2.7283
 21
-0.344666
  0
LINE
  8
0
 10
2.7283
 20
-0.344666
 11
2.70128
 21
-0.515289
  0
LINE
  8
0
 10
2.70128
 20
-0.515289
 11
2.66359
 21
-0.683884
  0
LINE
  8
0
 10
2.66359
 20
-0.683884
 11
2.6154
 21
-0.849792
  0
LINE
  8
0
 10
2.6154
 20
-0.849792
 11
2.55688
 21
-1.01233
  0
LINE
  8
0
 10
2.55688
 20
-1.01233
 11
2.48827
 21
-1.17088
  0
LINE
  8
0
 10
2.48827
 20
-1.17088
 11
2.40984
 21
-1.32481
  0
LINE
  8
0
 10
2.40984
 20
-1.32481
 11
2.3219
 21
-1.47351
  0
LINE
  8
0
 10
2.3219
 20
-1.47351
 11
2.22479
 21
-1.61641
  0
LINE
  8
0
 10
2.22479
 20
-1.61641
 11
2.1189
 21
-1.75291
  0
LINE
  8
0
 10
2.1189
 20
-1.75291
 11
2.00465
 21
-1.88249
  0
LINE
  8
0
 10
2.00465
 20
-1.88249
 11
1.88249
 21
-2.00465
  0
LINE
  8
0
 10
1.88249
 20
-2.00465
 11
1.75291
 21
-2.1189
  0
LINE
  8
0
 10
1.75291
 20
-2.1189
 11
1.61641
 21
-2.22479
  0
LINE
  8
0
 10
1.61641
 20
-2.22479
 11
1.47351
 21
-2.3219
  0
LINE
  8
0
 10
1.47351
 20
-2.3219
 11
1.32481
 21
-2.40984
  0
LINE
  8
0
 10
1.32481
 20
-2.40984
 11
1.17088
 21
-2.48827
  0
LINE
  8
0
 10
1.17088
 20
-2.48827
 11
1.01233
 21
-2.55688
  0
LINE
  8
0
 10
1.01233
 20
-2.55688
 11
0.849792
 21
-2.6154
  0
LINE
  8
0
 10
0.849792
 20
-2.6154
 11
0.683884
 21
-2.66359
  0
LINE
  8
0
 10
0.683884
 20
-2.66359
 11
0.515289
 21
-2.70128
  0
LINE
  8
0
 10
0.515289
 20
-2.70128
 11
0.344666
 21
-2.7283
  0
LINE
  8
0
 10
0.344666
 20
-2.7283
 11
0.172668
 21
-2.74457
  0
LINE
  8
0
 10
0.172668
 20
-2.74457
 11
0
 21
-2.75
  0
LINE
  8
0
 10
0
 20
-2.75
 11
-0.172668
 21
-2.74457
  0
LINE
  8
0
 10
-122.502
 20
-2.74457
 11
-122.674
 21
-2.7283
  0
LINE
  8
0
 10
-122.674
 20
-2.7283
 11
-122.845
 21
-2.70128
  0
LINE
  8
0
 10
-122.845
 20
-2.70128
 11
-123.013
 21
-2.66359
  0
LINE
  8
0
 10
-123.013
 20
-2.66359
 11
-123.179
 21
-2.6154
  0
LINE
  8
0
 10
-123.179
 20
-2.6154
 11
-123.342
 21
-2.55688
  0
LINE
  8
0
 10
-123.342
 20
-2.55688
 11
-123.5
 21
-2.48827
  0
LINE
  8
0
 10
-123.5
 20
-2.48827
 11
-123.654
 21
-2.40984
  0
LINE
  8
0
 10
-123.654
 20
-2.40984
 11
-123.803
 21
-2.3219
  0
LINE
  8
0
 10
-123.803
 20
-2.3219
 11
-123.946
 21
-2.22479
  0
LINE
  8
0
 10
-123.946
 20
-2.22479
 11
-123.978
 21
-2.2
  0
LINE
  8
0
 10
-123.978
 20
-2.2
 11
-152.931
 21
-2.2
  0
LINE
  8
0
 10
-152.931
 20
-2.2
 11
-152.972
 21
-0.899994
  0
LINE
  8
0
 10
-152.972
 20
-0.899994
 11
-124.927
 21
-0.899994
  0
LINE
  8
0
 10
-124.927
 20
-0.899994
 11
-124.945
 21
-0.849792
  0
LINE
  8
0
 10
-124.945
 20
-0.849792
 11
-124.993
 21
-0.683884
  0
LINE
  8
0
 10
-124.993
 20
-0.683884
 11
-125.031
 21
-0.515289
  0
LINE
  8
0
 10
-125.031
 20
-0.515289
 11
-125.058
 21
-0.344666
  0
LINE
  8
0
 10
-125.058
 20
-0.344666
 11
-125.074
 21
-0.172668
  0
LINE
  8
0
 10
-125.074
 20
-0.172668
 11
-125.079
 21
0
  0
LINE
  8
0
 10
-125.079
 20
0
 11
-125.074
 21
0.172668
  0
LINE
  8
0
 10
-125.074
 20
0.172668
 11
-125.058
 21
0.344666
  0
LINE
  8
0
 10
-125.058
 20
0.344666
 11
-125.031
 21
0.515289
  0
LINE
  8
0
 10
-125.031
 20
0.515289
 11
-124.993
 21
0.683884
  0
LINE
  8
0
 10
-124.993
 20
0.683884
 11
-124.945
 21
0.849792
  0
LINE
  8
0
 10
-124.945
 20
0.849792
 11
-124.886
 21
1.01233
  0
LINE
  8
0
 10
-124.886
 20
1.01233
 11
-124.818
 21
1.17088
  0
LINE
  8
0
 10
-124.818
 20
1.17088
 11
-124.739
 21
1.32481
  0
LINE
  8
0
 10
-124.739
 20
1.32481
 11
-124.651
 21
1.47351
  0
LINE
  8
0
 10
-124.651
 20
1.47351
 11
-124.554
 21
1.61641
  0
LINE
  8
0
 10
-124.554
 20
1.61641
 11
-124.448
 21
1.75291
  0
LINE
  8
0
 10
-124.448
 20
1.75291
 11
-124.334
 21
1.88249
  0
LINE
  8
0
 10
-124.334
 20
1.88249
 11
-124.212
 21
2.00465
  0
LINE
  8
0
 10
-124.212
 20
2.00465
 11
-124.082
 21
2.1189
  0
LINE
  8
0
 10
-124.082
 20
2.1189
 11
-123.946
 21
2.22479
  0
LINE
  8
0
 10
-123.946
 20
2.22479
 11
-123.803
 21
2.3219
  0
LINE
  8
0
 10
-123.803
 20
2.3219
 11
-123.654
 21
2.40984
  0
LINE
  8
0
 10
-123.654
 20
2.40984
 11
-123.5
 21
2.48827
  0
LINE
  8
0
 10
-123.5
 20
2.48827
 11
-123.342
 21
2.55688
  0
LINE
  8
0
 10
-123.342
 20
2.55688
 11
-123.179
 21
2.6154
  0
LINE
  8
0
 10
-123.179
 20
2.6154
 11
-123.013
 21
2.66359
  0
LINE
  8
0
 10
-123.013
 20
2.66359
 11
-122.845
 21
2.70128
  0
LINE
  8
0
 10
-122.845
 20
2.70128
 11
-122.674
 21
2.7283
  0
LINE
  8
0
 10
-122.674
 20
2.7283
 11
-122.502
 21
2.74457
  0
LINE
  8
0
 10
-122.502
 20
2.74457
 11
-122.329
 21
2.75
  0
LINE
  8
0
 10
-122.329
 20
2.75
 11
-122.157
 21
2.74457
  0
LINE
  8
0
 10
-122.157
 20
2.74457
 11
-121.985
 21
2.7283
  0
LINE
  8
0
 10
-121.985
 20
2.7283
 11
-121.814
 21
2.70128
  0
LINE
  8
0
 10
-121.814
 20
2.70128
 11
-121.646
 21
2.66359
  0
LINE
  8
0
 10
-121.646
 20
2.66359
 11
-121.48
 21
2.6154
  0
LINE
  8
0
 10
-121.48
 20
2.6154
 11
-121.317
 21
2.55688
  0
LINE
  8
0
 10
-121.317
 20
2.55688
 11
-121.159
 21
2.48827
  0
LINE
  8
0
 10
-121.159
 20
2.48827
 11
-121.005
 21
2.40984
  0
LINE
  8
0
 10
-121.005
 20
2.40984
 11
-120.856
 21
2.3219
  0
LINE
  8
0
 10
-120.856
 20
2.3219
 11
-120.713
 21
2.22479
  0
LINE
  8
0
 10
-120.713
 20
2.22479
 11
-120.577
 21
2.1189
  0
LINE
  8
0
 10
-120.577
 20
2.1189
 11
-120.447
 21
2.00465
  0
LINE
  8
0
 10
-120.447
 20
2.00465
 11
-120.325
 21
1.88249
  0
LINE
  8
0
 10
-120.325
 20
1.88249
 11
-120.211
 21
1.75291
  0
LINE
  8
0
 10
-120.211
 20
1.75291
 11
-120.105
 21
1.61641
  0
LINE
  8
0
 10
-120.105
 20
1.61641
 11
-120.008
 21
1.47351
  0
LINE
  8
0
 10
-120.008
 20
1.47351
 11
-119.92
 21
1.32481
  0
LINE
  8
0
 10
-119.92
 20
1.32481
 11
-119.841
 21
1.17088
  0
LINE
  8
0
 10
-119.841
 20
1.17088
 11
-119.773
 21
1.01233
  0
LINE
  8
0
 10
-119.773
 20
1.01233
 11
-119.714
 21
0.849792
  0
LINE
  8
0
 10
-119.714
 20
0.849792
 11
-119.666
 21
0.683884
  0
LINE
  8
0
 10
-119.666
 20
0.683884
 11
-119.628
 21
0.515289
  0
LINE
  8
0
 10
-119.628
 20
0.515289
 11
-119.601
 21
0.344666
  0
LINE
  8
0
 10
-119.601
 20
0.344666
 11
-119.585
 21
0.172668
  0
LINE
  8
0
 10
-119.585
 20
0.172668
 11
-119.579
 21
0
  0
LINE
  8
0
 10
-119.579
 20
0
 11
-119.585
 21
-0.172668
  0
LINE
  8
0
 10
-119.585
 20
-0.172668
 11
-119.601
 21
-0.344666
  0
LINE
  8
0
 10
-119.601
 20
-0.344666
 11
-119.628
 21
-0.515289
  0
LINE
  8
0
 10
-119.628
 20
-0.515289
 11
-119.666
 21
-0.683884
  0
LINE
  8
0
 10
-119.666
 20
-0.683884
 11
-119.714
 21
-0.849792
  0
LINE
  8
0
 10
-119.714
 20
-0.849792
 11
-119.732
 21
-0.899994
  0
LINE
  8
0
 10
-119.732
 20
-0.899994
 11
-113
 21
-0.899994
  0
LINE
  8
0
 10
-113
 20
-0.899994
 11
-113
 21
-2.2
  0
LINE
  8
0
 10
-113
 20
-2.2
 11
-120.681
 21
-2.2
  0
LINE
  8
0
 10
-120.681
 20
-2.2
 11
-120.713
 21
-2.22479
  0
LINE
  8
0
 10
-120.713
 20
-2.22479
 11
-120.856
 21
-2.3219
  0
LINE
  8
0
 10
-120.856
 20
-2.3219
 11
-121.005
 21
-2.40984
  0
LINE
  8
0
 10
-121.005
 20
-2.40984
 11
-121.159
 21
-2.48827
  0
LINE
  8
0
 10
-121.159
 20
-2.48827
 11
-121.317
 21
-2.55688
  0
LINE
  8
0
 10
-121.317
 20
-2.55688
 11
-121.48
 21
-2.6154
  0
LINE
  8
0
 10
-121.48
 20
-2.6154
 11
-121.646
 21
-2.66359
  0
LINE
  8
0
 10
-121.646
 20
-2.66359
 11
-121.814
 21
-2.70128
  0
LINE
  8
0
 10
-121.814
 20
-2.70128
 11
-121.985
 21
-2.7283
  0
LINE
  8
0
 10
-121.985
 20
-2.7283
 11
-122.157
 21
-2.74457
  0
LINE
  8
0
 10
-122.157
 20
-2.74457
 11
-122.329
 21
-2.75
  0
LINE
  8
0
 10
-122.329
 20
-2.75
 11
-122.502
 21
-2.74457
  0
LINE
  8
0
 10
-101
 20
-2.2
 11
-101
 21
-0.899994
  0
LINE
  8
0
 10
-101
 20
-0.899994
 11
-61
 21
-0.899994
  0
LINE
  8
0
 10
-61
 20
-0.899994
 11
-61
 21
-2.2
  0
LINE
  8
0
 10
-61
 20
-2.2
 11
-101
 21
-2.2
  0
LINE
  8
0
 10
3
 20
-2.2
 11
3
 21
-0.899994
  0
LINE
  8
0
 10
3
 20
-0.899994
 11
43
 21
-0.899994
  0
LINE
  8
0
 10
43
 20
-0.899994
 11
43
 21
-2.2
  0
LINE
  8
0
 10
43
 20
-2.2
 11
3
 21
-2.2
  0
LINE
  8
0
 10
55
 20
-2.2
 11
55
 21
-0.899994
  0
LINE
  8
0
 10
55
 20
-0.899994
 11
95
 21
-0.899994
  0
LINE
  8
0
 10
95
 20
-0.899994
 11
95
 21
-2.2
  0
LINE
  8
0
 10
95
 20
-2.2
 11
55
 21
-2.2
  0
LINE
  8
0
 10
-49
 20
-2.2
 11
-49
 21
-0.899994
  0
LINE
  8
0
 10
-49
 20
-0.899994
 11
-9
 21
-0.899994
  0
LINE
  8
0
 10
-9
 20
-0.899994
 11
-9
 21
-2.2
  0
LINE
  8
0
 10
-9
 20
-2.2
 11
-49
 21
-2.2
  0
LINE
  8
0
 10
-49
 20
-7.39999
 11
-49
 21
-6.09999
  0
LINE
  8
0
 10
-49
 20
-6.09999
 11
-9
 21
-6.09999
  0
LINE
  8
0
 10
-9
 20
-6.09999
 11
-9
 21
-7.39999
  0
LINE
  8
0
 10
-9
 20
-7.39999
 11
-49
 21
-7.39999
  0
LINE
  8
0
 10
3
 20
-7.39999
 11
3
 21
-6.09999
  0
LINE
  8
0
 10
3
 20
-6.09999
 11
43
 21
-6.09999
  0
LINE
  8
0
 10
43
 20
-6.09999
 11
43
 21
-7.39999
  0
LINE
  8
0
 10
43
 20
-7.39999
 11
3
 21
-7.39999
  0
LINE
  8
0
 10
-101
 20
-7.39999
 11
-101
 21
-6.09999
  0
LINE
  8
0
 10
-101
 20
-6.09999
 11
-61
 21
-6.09999
  0
LINE
  8
0
 10
-61
 20
-6.09999
 11
-61
 21
-7.39999
  0
LINE
  8
0
 10
-61
 20
-7.39999
 11
-101
 21
-7.39999
  0
LINE
  8
0
 10
55
 20
-7.39999
 11
55
 21
-6.09999
  0
LINE
  8
0
 10
55
 20
-6.09999
 11
95
 21
-6.09999
  0
LINE
  8
0
 10
95
 20
-6.09999
 11
95
 21
-7.39999
  0
LINE
  8
0
 10
95
 20
-7.39999
 11
55
 21
-7.39999
  0
LINE
  8
0
 10
-152.767
 20
-7.39999
 11
-152.808
 21
-6.09999
  0
LINE
  8
0
 10
-152.808
 20
-6.09999
 11
-113
 21
-6.09999
  0
LINE
  8
0
 10
-113
 20
-6.09999
 11
-113
 21
-7.39999
  0
LINE
  8
0
 10
-113
 20
-7.39999
 11
-152.767
 21
-7.39999
  0
LINE
  8
0
 10
107
 20
-7.39999
 11
107
 21
-6.09999
  0
LINE
  8
0
 10
107
 20
-6.09999
 11
147
 21
-6.09999
  0
LINE
  8
0
 10
147
 20
-6.09999
 11
147
 21
-7.39999
  0
LINE
  8
0
 10
147
 20
-7.39999
 11
107
 21
-7.39999
  0
LINE
  8
0
 10
-49
 20
-12.6
 11
-49
 21
-11.3
  0
LINE
  8
0
 10
-49
 20
-11.3
 11
-9
 21
-11.3
  0
LINE
  8
0
 10
-9
 20
-11.3
 11
-9
 21
-12.6
  0
LINE
  8
0
 10
-9
 20
-12.6
 11
-49
 21
-12.6
  0
LINE
  8
0
 10
107
 20
-12.6
 11
107
 21
-11.3
  0
LINE
  8
0
 10
107
 20
-11.3
 11
147
 21
-11.3
  0
LINE
  8
0
 10
147
 20
-11.3
 11
147
 21
-12.6
  0
LINE
  8
0
 10
147
 20
-12.6
 11
107
 21
-12.6
  0
LINE
  8
0
 10
3
 20
-12.6
 11
3
 21
-11.3
  0
LINE
  8
0
 10
3
 20
-11.3
 11
43
 21
-11.3
  0
LINE
  8
0
 10
43
 20
-11.3
 11
43
 21
-12.6
  0
LINE
  8
0
 10
43
 20
-12.6
 11
3
 21
-12.6
  0
LINE
  8
0
 10
55
 20
-12.6
 11
55
 21
-11.3
  0
LINE
  8
0
 10
55
 20
-11.3
 11
95
 21
-11.3
  0
LINE
  8
0
 10
95
 20
-11.3
 11
95
 21
-12.6
  0
LINE
  8
0
 10
95
 20
-12.6
 11
55
 21
-12.6
  0
LINE
  8
0
 10
-152.415
 20
-12.6
 11
-152.538
 21
-11.3
  0
LINE
  8
0
 10
-152.538
 20
-11.3
 11
-113
 21
-11.3
  0
LINE
  8
0
 10
-113
 20
-11.3
 11
-113
 21
-12.6
  0
LINE
  8
0
 10
-113
 20
-12.6
 11
-152.415
 21
-12.6
  0
LINE
  8
0
 10
-101
 20
-12.6
 11
-101
 21
-11.3
  0
LINE
  8
0
 10
-101
 20
-11.3
 11
-61
 21
-11.3
  0
LINE
  8
0
 10
-61
 20
-11.3
 11
-61
 21
-12.6
  0
LINE
  8
0
 10
-61
 20
-12.6
 11
-101
 21
-12.6
  0
LINE
  8
0
 10
3
 20
-17.8
 11
3
 21
-16.5
  0
LINE
  8
0
 10
3
 20
-16.5
 11
43
 21
-16.5
  0
LINE
  8
0
 10
43
 20
-16.5
 11
43
 21
-17.8
  0
LINE
  8
0
 10
43
 20
-17.8
 11
3
 21
-17.8
  0
LINE
  8
0
 10
-49
 20
-17.8
 11
-49
 21
-16.5
  0
LINE
  8
0
 10
-49
 20
-16.5
 11
-9
 21
-16.5
  0
LINE
  8
0
 10
-9
 20
-16.5
 11
-9
 21
-17.8
  0
LINE
  8
0
 10
-9
 20
-17.8
 11
-49
 21
-17.8
  0
LINE
  8
0
 10
107
 20
-17.8
 11
107
 21
-16.5
  0
LINE
  8
0
 10
107
 20
-16.5
 11
147
 21
-16.5
  0
LINE
  8
0
 10
147
 20
-16.5
 11
147
 21
-17.8
  0
LINE
  8
0
 10
147
 20
-17.8
 11
107
 21
-17.8
  0
LINE
  8
0
 10
-101
 20
-17.8
 11
-101
 21
-16.5
  0
LINE
  8
0
 10
-101
 20
-16.5
 11
-61
 21
-16.5
  0
LINE
  8
0
 10
-61
 20
-16.5
 11
-61
 21
-17.8
  0
LINE
  8
0
 10
-61
 20
-17.8
 11
-101
 21
-17.8
  0
LINE
  8
0
 10
55
 20
-17.8
 11
55
 21
-16.5
  0
LINE
  8
0
 10
55
 20
-16.5
 11
95
 21
-16.5
  0
LINE
  8
0
 10
95
 20
-16.5
 11
95
 21
-17.8
  0
LINE
  8
0
 10
95
 20
-17.8
 11
55
 21
-17.8
  0
LINE
  8
0
 10
-151.924
 20
-17.8
 11
-152.047
 21
-16.5
  0
LINE
  8
0
 10
-152.047
 20
-16.5
 11
-113
 21
-16.5
  0
LINE
  8
0
 10
-113
 20
-16.5
 11
-113
 21
-17.8
  0
LINE
  8
0
 10
-113
 20
-17.8
 11
-151.924
 21
-17.8
  0
LINE
  8
0
 10
-49
 20
-23
 11
-49
 21
-21.7
  0
LINE
  8
0
 10
-49
 20
-21.7
 11
-9
 21
-21.7
  0
LINE
  8
0
 10
-9
 20
-21.7
 11
-9
 21
-23
  0
LINE
  8
0
 10
-9
 20
-23
 11
-49
 21
-23
  0
LINE
  8
0
 10
107
 20
-23
 11
107
 21
-21.7
  0
LINE
  8
0
 10
107
 20
-21.7
 11
147
 21
-21.7
  0
LINE
  8
0
 10
147
 20
-21.7
 11
147
 21
-23
  0
LINE
  8
0
 10
147
 20
-23
 11
107
 21
-23
  0
LINE
  8
0
 10
3
 20
-23
 11
3
 21
-21.7
  0
LINE
  8
0
 10
3
 20
-21.7
 11
43
 21
-21.7
  0
LINE
  8
0
 10
43
 20
-21.7
 11
43
 21
-23
  0
LINE
  8
0
 10
43
 20
-23
 11
3
 21
-23
  0
LINE
  8
0
 10
55
 20
-23
 11
55
 21
-21.7
  0
LINE
  8
0
 10
55
 20
-21.7
 11
95
 21
-21.7
  0
LINE
  8
0
 10
95
 20
-21.7
 11
95
 21
-23
  0
LINE
  8
0
 10
95
 20
-23
 11
55
 21
-23
  0
LINE
  8
0
 10
-101
 20
-23
 11
-101
 21
-21.7
  0
LINE
  8
0
 10
-101
 20
-21.7
 11
-61
 21
-21.7
  0
LINE
  8
0
 10
-61
 20
-21.7
 11
-61
 21
-23
  0
LINE
  8
0
 10
-61
 20
-23
 11
-101
 21
-23
  0
LINE
  8
0
 10
-151.188
 20
-23
 11
-151.394
 21
-21.7
  0
LINE
  8
0
 10
-151.394
 20
-21.7
 11
-113
 21
-21.7
  0
LINE
  8
0
 10
-113
 20
-21.7
 11
-113
 21
-23
  0
LINE
  8
0
 10
-113
 20
-23
 11
-151.188
 21
-23
  0
LINE
  8
0
 10
-101
 20
-28.2
 11
-101
 21
-26.9
  0
LINE
  8
0
 10
-101
 20
-26.9
 11
-61
 21
-26.9
  0
LINE
  8
0
 10
-61
 20
-26.9
 11
-61
 21
-28.2
  0
LINE
  8
0
 10
-61
 20
-28.2
 11
-101
 21
-28.2
  0
LINE
  8
0
 10
55
 20
-28.2
 11
55
 21
-26.9
  0
LINE
  8
0
 10
55
 20
-26.9
 11
95
 21
-26.9
  0
LINE
  8
0
 10
95
 20
-26.9
 11
95
 21
-28.2
  0
LINE
  8
0
 10
95
 20
-28.2
 11
55
 21
-28.2
  0
LINE
  8
0
 10
3
 20
-28.2
 11
3
 21
-26.9
  0
LINE
  8
0
 10
3
 20
-26.9
 11
43
 21
-26.9
  0
LINE
  8
0
 10
43
 20
-26.9
 11
43
 21
-28.2
  0
LINE
  8
0
 10
43
 20
-28.2
 11
3
 21
-28.2
  0
LINE
  8
0
 10
-150.364
 20
-28.2
 11
-150.57
 21
-26.9
  0
LINE
  8
0
 10
-150.57
 20
-26.9
 11
-113
 21
-26.9
  0
LINE
  8
0
 10
-113
 20
-26.9
 11
-113
 21
-28.2
  0
LINE
  8
0
 10
-113
 20
-28.2
 11
-150.364
 21
-28.2
  0
LINE
  8
0
 10
107
 20
-28.2
 11
107
 21
-26.9
  0
LINE
  8
0
 10
107
 20
-26.9
 11
147
 21
-26.9
  0
LINE
  8
0
 10
147
 20
-26.9
 11
147
 21
-28.2
  0
LINE
  8
0
 10
147
 20
-28.2
 11
107
 21
-28.2
  0
LINE
  8
0
 10
-49
 20
-28.2
 11
-49
 21
-26.9
  0
LINE
  8
0
 10
-49
 20
-26.9
 11
-9
 21
-26.9
  0
LINE
  8
0
 10
-9
 20
-26.9
 11
-9
 21
-28.2
  0
LINE
  8
0
 10
-9
 20
-28.2
 11
-49
 21
-28.2
  0
LINE
  8
0
 10
-49
 20
-33.4
 11
-49
 21
-32.1
  0
LINE
  8
0
 10
-49
 20
-32.1
 11
-9
 21
-32.1
  0
LINE
  8
0
 10
-9
 20
-32.1
 11
-9
 21
-33.4
  0
LINE
  8
0
 10
-9
 20
-33.4
 11
-49
 21
-33.4
  0
LINE
  8
0
 10
3
 20
-33.4
 11
3
 21
-32.1
  0
LINE
  8
0
 10
3
 20
-32.1
 11
43
 21
-32.1
  0
LINE
  8
0
 10
43
 20
-32.1
 11
43
 21
-33.4
  0
LINE
  8
0
 10
43
 20
-33.4
 11
3
 21
-33.4
  0
LINE
  8
0
 10
55
 20
-33.4
 11
55
 21
-32.1
  0
LINE
  8
0
 10
55
 20
-32.1
 11
95
 21
-32.1
  0
LINE
  8
0
 10
95
 20
-32.1
 11
95
 21
-33.4
  0
LINE
  8
0
 10
95
 20
-33.4
 11
55
 21
-33.4
  0
LINE
  8
0
 10
-101
 20
-33.4
 11
-101
 21
-32.1
  0
LINE
  8
0
 10
-101
 20
-32.1
 11
-61
 21
-32.1
  0
LINE
  8
0
 10
-61
 20
-32.1
 11
-61
 21
-33.4
  0
LINE
  8
0
 10
-61
 20
-33.4
 11
-101
 21
-33.4
  0
LINE
  8
0
 10
107
 20
-33.4
 11
107
 21
-32.1
  0
LINE
  8
0
 10
107
 20
-32.1
 11
147
 21
-32.1
  0
LINE
  8
0
 10
147
 20
-32.1
 11
147
 21
-33.4
  0
LINE
  8
0
 10
147
 20
-33.4
 11
107
 21
-33.4
  0
LINE
  8
0
 10
-149.233
 20
-33.4
 11
-149.523
 21
-32.1
  0
LINE
  8
0
 10
-149.523
 20
-32.1
 11
-113
 21
-32.1
  0
LINE
  8
0
 10
-113
 20
-32.1
 11
-113
 21
-33.4
  0
LINE
  8
0
 10
-113
 20
-33.4
 11
-149.233
 21
-33.4
  0
LINE
  8
0
 10
-148.033
 20
-38.6
 11
-148.193
 21
-38.0495
  0
LINE
  8
0
 10
-148.193
 20
-38.0495
 11
-148.361
 21
-37.3
  0
LINE
  8
0
 10
-148.361
 20
-37.3
 11
-113
 21
-37.3
  0
LINE
  8
0
 10
-113
 20
-37.3
 11
-113
 21
-38.6
  0
LINE
  8
0
 10
-113
 20
-38.6
 11
-148.033
 21
-38.6
  0
LINE
  8
0
 10
55
 20
-38.6
 11
55
 21
-37.3
  0
LINE
  8
0
 10
55
 20
-37.3
 11
95
 21
-37.3
  0
LINE
  8
0
 10
95
 20
-37.3
 11
95
 21
-38.6
  0
LINE
  8
0
 10
95
 20
-38.6
 11
55
 21
-38.6
  0
LINE
  8
0
 10
107
 20
-38.6
 11
107
 21
-37.3
  0
LINE
  8
0
 10
107
 20
-37.3
 11
147
 21
-37.3
  0
LINE
  8
0
 10
147
 20
-37.3
 11
147
 21
-38.6
  0
LINE
  8
0
 10
147
 20
-38.6
 11
107
 21
-38.6
  0
LINE
  8
0
 10
3
 20
-38.6
 11
3
 21
-37.3
  0
LINE
  8
0
 10
3
 20
-37.3
 11
43
 21
-37.3
  0
LINE
  8
0
 10
43
 20
-37.3
 11
43
 21
-38.6
  0
LINE
  8
0
 10
43
 20
-38.6
 11
3
 21
-38.6
  0
LINE
  8
0
 10
-49
 20
-38.6
 11
-49
 21
-37.3
  0
LINE
  8
0
 10
-49
 20
-37.3
 11
-9
 21
-37.3
  0
LINE
  8
0
 10
-9
 20
-37.3
 11
-9
 21
-38.6
  0
LINE
  8
0
 10
-9
 20
-38.6
 11
-49
 21
-38.6
  0
LINE
  8
0
 10
-101
 20
-38.6
 11
-101
 21
-37.3
  0
LINE
  8
0
 10
-101
 20
-37.3
 11
-61
 21
-37.3
  0
LINE
  8
0
 10
-61
 20
-37.3
 11
-61
 21
-38.6
  0
LINE
  8
0
 10
-61
 20
-38.6
 11
-101
 21
-38.6
  0
LINE
  8
0
 10
55
 20
-43.8
 11
55
 21
-42.5
  0
LINE
  8
0
 10
55
 20
-42.5
 11
95
 21
-42.5
  0
LINE
  8
0
 10
95
 20
-42.5
 11
95
 21
-43.8
  0
LINE
  8
0
 10
95
 20
-43.8
 11
55
 21
-43.8
  0
LINE
  8
0
 10
-146.523
 20
-43.8
 11
-146.9
 21
-42.5
  0
LINE
  8
0
 10
-146.9
 20
-42.5
 11
-113
 21
-42.5
  0
LINE
  8
0
 10
-113
 20
-42.5
 11
-113
 21
-43.8
  0
LINE
  8
0
 10
-113
 20
-43.8
 11
-146.523
 21
-43.8
  0
LINE
  8
0
 10
107
 20
-43.8
 11
107
 21
-42.5
  0
LINE
  8
0
 10
107
 20
-42.5
 11
146.9
 21
-42.5
  0
LINE
  8
0
 10
146.9
 20
-42.5
 11
146.523
 21
-43.8
  0
LINE
  8
0
 10
146.523
 20
-43.8
 11
107
 21
-43.8
  0
LINE
  8
0
 10
-49
 20
-42.5
 11
-9
 21
-42.5
  0
LINE
  8
0
 10
-9
 20
-42.5
 11
-9
 21
-43.8
  0
LINE
  8
0
 10
-9
 20
-43.8
 11
-49
 21
-43.8
  0
LINE
  8
0
 10
-49
 20
-43.8
 11
-49
 21
-42.5
  0
LINE
  8
0
 10
-101
 20
-43.8
 11
-101
 21
-42.5
  0
LINE
  8
0
 10
-101
 20
-42.5
 11
-61
 21
-42.5
  0
LINE
  8
0
 10
-61
 20
-42.5
 11
-61
 21
-43.8
  0
LINE
  8
0
 10
-61
 20
-43.8
 11
-101
 21
-43.8
  0
LINE
  8
0
 10
-144.892
 20
-49
 11
-145.36
 21
-47.7
  0
LINE
  8
0
 10
-145.36
 20
-47.7
 11
-113
 21
-47.7
  0
LINE
  8
0
 10
-113
 20
-47.7
 11
-113
 21
-49
  0
LINE
  8
0
 10
-113
 20
-49
 11
-144.892
 21
-49
  0
LINE
  8
0
 10
3
 20
-49
 11
3
 21
-47.7
  0
LINE
  8
0
 10
3
 20
-47.7
 11
43
 21
-47.7
  0
LINE
  8
0
 10
43
 20
-47.7
 11
43
 21
-49
  0
LINE
  8
0
 10
43
 20
-49
 11
3
 21
-49
  0
LINE
  8
0
 10
-101
 20
-49
 11
-101
 21
-47.7
  0
LINE
  8
0
 10
-101
 20
-47.7
 11
-61
 21
-47.7
  0
LINE
  8
0
 10
-61
 20
-47.7
 11
-61
 21
-49
  0
LINE
  8
0
 10
-61
 20
-49
 11
-101
 21
-49
  0
LINE
  8
0
 10
107
 20
-49
 11
107
 21
-47.7
  0
LINE
  8
0
 10
107
 20
-47.7
 11
145.36
 21
-47.7
  0
LINE
  8
0
 10
145.36
 20
-47.7
 11
144.892
 21
-49
  0
LINE
  8
0
 10
144.892
 20
-49
 11
107
 21
-49
  0
LINE
  8
0
 10
55
 20
-49
 11
55
 21
-47.7
  0
LINE
  8
0
 10
55
 20
-47.7
 11
95
 21
-47.7
  0
LINE
  8
0
 10
95
 20
-47.7
 11
95
 21
-49
  0
LINE
  8
0
 10
95
 20
-49
 11
55
 21
-49
  0
LINE
  8
0
 10
-49
 20
-49
 11
-49
 21
-47.7
  0
LINE
  8
0
 10
-49
 20
-47.7
 11
-9
 21
-47.7
  0
LINE
  8
0
 10
-9
 20
-47.7
 11
-9
 21
-49
  0
LINE
  8
0
 10
-9
 20
-49
 11
-49
 21
-49
  0
LINE
  8
0
 10
-101
 20
-54.2
 11
-101
 21
-52.9
  0
LINE
  8
0
 10
-101
 20
-52.9
 11
-61
 21
-52.9
  0
LINE
  8
0
 10
-61
 20
-52.9
 11
-61
 21
-54.2
  0
LINE
  8
0
 10
-61
 20
-54.2
 11
-101
 21
-54.2
  0
LINE
  8
0
 10
55
 20
-54.2
 11
55
 21
-52.9
  0
LINE
  8
0
 10
55
 20
-52.9
 11
95
 21
-52.9
  0
LINE
  8
0
 10
95
 20
-52.9
 11
95
 21
-54.2
  0
LINE
  8
0
 10
95
 20
-54.2
 11
55
 21
-54.2
  0
LINE
  8
0
 10
107
 20
-54.2
 11
107
 21
-52.9
  0
LINE
  8
0
 10
107
 20
-52.9
 11
143.488
 21
-52.9
  0
LINE
  8
0
 10
143.488
 20
-52.9
 11
143.02
 21
-54.2
  0
LINE
  8
0
 10
143.02
 20
-54.2
 11
107
 21
-54.2
  0
LINE
  8
0
 10
-143.02
 20
-54.2
 11
-143.488
 21
-52.9
  0
LINE
  8
0
 10
-143.488
 20
-52.9
 11
-113
 21
-52.9
  0
LINE
  8
0
 10
-113
 20
-52.9
 11
-113
 21
-54.2
  0
LINE
  8
0
 10
-113
 20
-54.2
 11
-143.02
 21
-54.2
  0
LINE
  8
0
 10
3
 20
-54.2
 11
3
 21
-52.9
  0
LINE
  8
0
 10
3
 20
-52.9
 11
43
 21
-52.9
  0
LINE
  8
0
 10
43
 20
-52.9
 11
43
 21
-54.2
  0
LINE
  8
0
 10
43
 20
-54.2
 11
3
 21
-54.2
  0
LINE
  8
0
 10
-49
 20
-54.2
 11
-49
 21
-52.9
  0
LINE
  8
0
 10
-49
 20
-52.9
 11
-9
 21
-52.9
  0
LINE
  8
0
 10
-9
 20
-52.9
 11
-9
 21
-54.2
  0
LINE
  8
0
 10
-9
 20
-54.2
 11
-49
 21
-54.2
  0
LINE
  8
0
 10
-101
 20
-59.4
 11
-101
 21
-58.1
  0
LINE
  8
0
 10
-101
 20
-58.1
 11
-61
 21
-58.1
  0
LINE
  8
0
 10
-61
 20
-58.1
 11
-61
 21
-59.4
  0
LINE
  8
0
 10
-61
 20
-59.4
 11
-101
 21
-59.4
  0
LINE
  8
0
 10
-49
 20
-59.4
 11
-49
 21
-58.1
  0
LINE
  8
0
 10
-49
 20
-58.1
 11
-9
 21
-58.1
  0
LINE
  8
0
 10
-9
 20
-58.1
 11
-9
 21
-59.4
  0
LINE
  8
0
 10
-9
 20
-59.4
 11
-49
 21
-59.4
  0
LINE
  8
0
 10
107
 20
-59.4
 11
107
 21
-58.1
  0
LINE
  8
0
 10
107
 20
-58.1
 11
141.487
 21
-58.1
  0
LINE
  8
0
 10
141.487
 20
-58.1
 11
140.924
 21
-59.4
  0
LINE
  8
0
 10
140.924
 20
-59.4
 11
107
 21
-59.4
  0
LINE
  8
0
 10
3
 20
-59.4
 11
3
 21
-58.1
  0
LINE
  8
0
 10
3
 20
-58.1
 11
43
 21
-58.1
  0
LINE
  8
0
 10
43
 20
-58.1
 11
43
 21
-59.4
  0
LINE
  8
0
 10
43
 20
-59.4
 11
3
 21
-59.4
  0
LINE
  8
0
 10
55
 20
-59.4
 11
55
 21
-58.1
  0
LINE
  8
0
 10
55
 20
-58.1
 11
95
 21
-58.1
  0
LINE
  8
0
 10
95
 20
-58.1
 11
95
 21
-59.4
  0
LINE
  8
0
 10
95
 20
-59.4
 11
55
 21
-59.4
  0
LINE
  8
0
 10
-140.924
 20
-59.4
 11
-141.487
 21
-58.1
  0
LINE
  8
0
 10
-141.487
 20
-58.1
 11
-113
 21
-58.1
  0
LINE
  8
0
 10
-113
 20
-58.1
 11
-113
 21
-59.4
  0
LINE
  8
0
 10
-113
 20
-59.4
 11
-140.924
 21
-59.4
  0
LINE
  8
0
 10
3
 20
-64.6
 11
3
 21
-63.3
  0
LINE
  8
0
 10
3
 20
-63.3
 11
43
 21
-63.3
  0
LINE
  8
0
 10
43
 20
-63.3
 11
43
 21
-64.6
  0
LINE
  8
0
 10
43
 20
-64.6
 11
3
 21
-64.6
  0
LINE
  8
0
 10
-49
 20
-64.6
 11
-49
 21
-63.3
  0
LINE
  8
0
 10
-49
 20
-63.3
 11
-9
 21
-63.3
  0
LINE
  8
0
 10
-9
 20
-63.3
 11
-9
 21
-64.6
  0
LINE
  8
0
 10
-9
 20
-64.6
 11
-49
 21
-64.6
  0
LINE
  8
0
 10
-138.674
 20
-64.6
 11
-139.237
 21
-63.3
  0
LINE
  8
0
 10
-139.237
 20
-63.3
 11
-113
 21
-63.3
  0
LINE
  8
0
 10
-113
 20
-63.3
 11
-113
 21
-64.6
  0
LINE
  8
0
 10
-113
 20
-64.6
 11
-138.674
 21
-64.6
  0
LINE
  8
0
 10
107
 20
-64.6
 11
107
 21
-63.3
  0
LINE
  8
0
 10
107
 20
-63.3
 11
139.237
 21
-63.3
  0
LINE
  8
0
 10
139.237
 20
-63.3
 11
138.674
 21
-64.6
  0
LINE
  8
0
 10
138.674
 20
-64.6
 11
107
 21
-64.6
  0
LINE
  8
0
 10
55
 20
-64.6
 11
55
 21
-63.3
  0
LINE
  8
0
 10
55
 20
-63.3
 11
95
 21
-63.3
  0
LINE
  8
0
 10
95
 20
-63.3
 11
95
 21
-64.6
  0
LINE
  8
0
 10
95
 20
-64.6
 11
55
 21
-64.6
  0
LINE
  8
0
 10
-101
 20
-64.6
 11
-101
 21
-63.3
  0
LINE
  8
0
 10
-101
 20
-63.3
 11
-61
 21
-63.3
  0
LINE
  8
0
 10
-61
 20
-63.3
 11
-61
 21
-64.6
  0
LINE
  8
0
 10
-61
 20
-64.6
 11
-101
 21
-64.6
  0
LINE
  8
0
 10
-101
 20
-69.8
 11
-101
 21
-68.5
  0
LINE
  8
0
 10
-101
 20
-68.5
 11
-61
 21
-68.5
  0
LINE
  8
0
 10
-61
 20
-68.5
 11
-61
 21
-69.8
  0
LINE
  8
0
 10
-61
 20
-69.8
 11
-101
 21
-69.8
  0
LINE
  8
0
 10
55
 20
-69.8
 11
55
 21
-68.5
  0
LINE
  8
0
 10
55
 20
-68.5
 11
95
 21
-68.5
  0
LINE
  8
0
 10
95
 20
-68.5
 11
95
 21
-69.8
  0
LINE
  8
0
 10
95
 20
-69.8
 11
55
 21
-69.8
  0
LINE
  8
0
 10
107
 20
-69.8
 11
107
 21
-68.5
  0
LINE
  8
0
 10
107
 20
-68.5
 11
136.729
 21
-68.5
  0
LINE
  8
0
 10
136.729
 20
-68.5
 11
136.066
 21
-69.8
  0
LINE
  8
0
 10
136.066
 20
-69.8
 11
107
 21
-69.8
  0
LINE
  8
0
 10
-136.066
 20
-69.8
 11
-136.729
 21
-68.5
  0
LINE
  8
0
 10
-136.729
 20
-68.5
 11
-113
 21
-68.5
  0
LINE
  8
0
 10
-113
 20
-68.5
 11
-113
 21
-69.8
  0
LINE
  8
0
 10
-113
 20
-69.8
 11
-136.066
 21
-69.8
  0
LINE
  8
0
 10
-49
 20
-69.8
 11
-49
 21
-68.5
  0
LINE
  8
0
 10
-49
 20
-68.5
 11
-9
 21
-68.5
  0
LINE
  8
0
 10
-9
 20
-68.5
 11
-9
 21
-69.8
  0
LINE
  8
0
 10
-9
 20
-69.8
 11
-49
 21
-69.8
  0
LINE
  8
0
 10
3
 20
-69.8
 11
3
 21
-68.5
  0
LINE
  8
0
 10
3
 20
-68.5
 11
43
 21
-68.5
  0
LINE
  8
0
 10
43
 20
-68.5
 11
43
 21
-69.8
  0
LINE
  8
0
 10
43
 20
-69.8
 11
3
 21
-69.8
  0
LINE
  8
0
 10
-101
 20
-75
 11
-101
 21
-73.7
  0
LINE
  8
0
 10
-101
 20
-73.7
 11
-61
 21
-73.7
  0
LINE
  8
0
 10
-61
 20
-73.7
 11
-61
 21
-75
  0
LINE
  8
0
 10
-61
 20
-75
 11
-101
 21
-75
  0
LINE
  8
0
 10
55
 20
-75
 11
55
 21
-73.7
  0
LINE
  8
0
 10
55
 20
-73.7
 11
95
 21
-73.7
  0
LINE
  8
0
 10
95
 20
-73.7
 11
95
 21
-75
  0
LINE
  8
0
 10
95
 20
-75
 11
55
 21
-75
  0
LINE
  8
0
 10
107
 20
-75
 11
107
 21
-73.7
  0
LINE
  8
0
 10
107
 20
-73.7
 11
134.079
 21
-73.7
  0
LINE
  8
0
 10
134.079
 20
-73.7
 11
134.075
 21
-73.7083
  0
LINE
  8
0
 10
134.075
 20
-73.7083
 11
133.311
 21
-75
  0
LINE
  8
0
 10
133.311
 20
-75
 11
107
 21
-75
  0
LINE
  8
0
 10
-133.311
 20
-75
 11
-134.075
 21
-73.7083
  0
LINE
  8
0
 10
-134.075
 20
-73.7083
 11
-134.079
 21
-73.7
  0
LINE
  8
0
 10
-134.079
 20
-73.7
 11
-113
 21
-73.7
  0
LINE
  8
0
 10
-113
 20
-73.7
 11
-113
 21
-75
  0
LINE
  8
0
 10
-113
 20
-75
 11
-133.311
 21
-75
  0
LINE
  8
0
 10
-49
 20
-75
 11
-49
 21
-73.7
  0
LINE
  8
0
 10
-49
 20
-73.7
 11
-9
 21
-73.7
  0
LINE
  8
0
 10
-9
 20
-73.7
 11
-9
 21
-75
  0
LINE
  8
0
 10
-9
 20
-75
 11
-49
 21
-75
  0
LINE
  8
0
 10
3
 20
-75
 11
3
 21
-73.7
  0
LINE
  8
0
 10
3
 20
-73.7
 11
43
 21
-73.7
  0
LINE
  8
0
 10
43
 20
-73.7
 11
43
 21
-75
  0
LINE
  8
0
 10
43
 20
-75
 11
3
 21
-75
  0
LINE
  8
0
 10
-49
 20
-80.2
 11
-49
 21
-78.9
  0
LINE
  8
0
 10
-49
 20
-78.9
 11
-9
 21
-78.9
  0
LINE
  8
0
 10
-9
 20
-78.9
 11
-9
 21
-80.2
  0
LINE
  8
0
 10
-9
 20
-80.2
 11
-49
 21
-80.2
  0
LINE
  8
0
 10
-130.236
 20
-80.2
 11
-131.005
 21
-78.9
  0
LINE
  8
0
 10
-131.005
 20
-78.9
 11
-113
 21
-78.9
  0
LINE
  8
0
 10
-113
 20
-78.9
 11
-113
 21
-80.2
  0
LINE
  8
0
 10
-113
 20
-80.2
 11
-130.236
 21
-80.2
  0
LINE
  8
0
 10
107
 20
-80.2
 11
107
 21
-78.9
  0
LINE
  8
0
 10
107
 20
-78.9
 11
131.005
 21
-78.9
  0
LINE
  8
0
 10
131.005
 20
-78.9
 11
130.236
 21
-80.2
  0
LINE
  8
0
 10
130.236
 20
-80.2
 11
107
 21
-80.2
  0
LINE
  8
0
 10
55
 20
-80.2
 11
55
 21
-78.9
  0
LINE
  8
0
 10
55
 20
-78.9
 11
95
 21
-78.9
  0
LINE
  8
0
 10
95
 20
-78.9
 11
95
 21
-80.2
  0
LINE
  8
0
 10
95
 20
-80.2
 11
55
 21
-80.2
  0
LINE
  8
0
 10
3
 20
-80.2
 11
3
 21
-78.9
  0
LINE
  8
0
 10
3
 20
-78.9
 11
43
 21
-78.9
  0
LINE
  8
0
 10
43
 20
-78.9
 11
43
 21
-80.2
  0
LINE
  8
0
 10
43
 20
-80.2
 11
3
 21
-80.2
  0
LINE
  8
0
 10
-101
 20
-80.2
 11
-101
 21
-78.9
  0
LINE
  8
0
 10
-101
 20
-78.9
 11
-61
 21
-78.9
  0
LINE
  8
0
 10
-61
 20
-78.9
 11
-61
 21
-80.2
  0
LINE
  8
0
 10
-61
 20
-80.2
 11
-101
 21
-80.2
  0
LINE
  8
0
 10
-49
 20
-85.4
 11
-49
 21
-84.1
  0
LINE
  8
0
 10
-49
 20
-84.1
 11
-9
 21
-84.1
  0
LINE
  8
0
 10
-9
 20
-84.1
 11
-9
 21
-85.4
  0
LINE
  8
0
 10
-9
 20
-85.4
 11
-49
 21
-85.4
  0
LINE
  8
0
 10
3
 20
-85.4
 11
3
 21
-84.1
  0
LINE
  8
0
 10
3
 20
-84.1
 11
43
 21
-84.1
  0
LINE
  8
0
 10
43
 20
-84.1
 11
43
 21
-85.4
  0
LINE
  8
0
 10
43
 20
-85.4
 11
3
 21
-85.4
  0
LINE
  8
0
 10
55
 20
-85.4
 11
55
 21
-84.1
  0
LINE
  8
0
 10
55
 20
-84.1
 11
95
 21
-84.1
  0
LINE
  8
0
 10
95
 20
-84.1
 11
95
 21
-85.4
  0
LINE
  8
0
 10
95
 20
-85.4
 11
55
 21
-85.4
  0
LINE
  8
0
 10
107
 20
-85.4
 11
107
 21
-84.1
  0
LINE
  8
0
 10
107
 20
-84.1
 11
127.742
 21
-84.1
  0
LINE
  8
0
 10
127.742
 20
-84.1
 11
126.859
 21
-85.4
  0
LINE
  8
0
 10
126.859
 20
-85.4
 11
107
 21
-85.4
  0
LINE
  8
0
 10
-126.859
 20
-85.4
 11
-127.742
 21
-84.1
  0
LINE
  8
0
 10
-127.742
 20
-84.1
 11
-113
 21
-84.1
  0
LINE
  8
0
 10
-113
 20
-84.1
 11
-113
 21
-85.4
  0
LINE
  8
0
 10
-113
 20
-85.4
 11
-126.859
 21
-85.4
  0
LINE
  8
0
 10
-101
 20
-85.4
 11
-101
 21
-84.1
  0
LINE
  8
0
 10
-101
 20
-84.1
 11
-61
 21
-84.1
  0
LINE
  8
0
 10
-61
 20
-84.1
 11
-61
 21
-85.4
  0
LINE
  8
0
 10
-61
 20
-85.4
 11
-101
 21
-85.4
  0
LINE
  8
0
 10
55
 20
-90.6
 11
55
 21
-89.3
  0
LINE
  8
0
 10
55
 20
-89.3
 11
95
 21
-89.3
  0
LINE
  8
0
 10
95
 20
-89.3
 11
95
 21
-90.6
  0
LINE
  8
0
 10
95
 20
-90.6
 11
55
 21
-90.6
  0
LINE
  8
0
 10
-101
 20
-90.6
 11
-101
 21
-89.3
  0
LINE
  8
0
 10
-101
 20
-89.3
 11
-61
 21
-89.3
  0
LINE
  8
0
 10
-61
 20
-89.3
 11
-61
 21
-90.6
  0
LINE
  8
0
 10
-61
 20
-90.6
 11
-101
 21
-90.6
  0
LINE
  8
0
 10
3
 20
-90.6
 11
3
 21
-89.3
  0
LINE
  8
0
 10
3
 20
-89.3
 11
43
 21
-89.3
  0
LINE
  8
0
 10
43
 20
-89.3
 11
43
 21
-90.6
  0
LINE
  8
0
 10
43
 20
-90.6
 11
3
 21
-90.6
  0
LINE
  8
0
 10
107
 20
-90.6
 11
107
 21
-89.3
  0
LINE
  8
0
 10
107
 20
-89.3
 11
124.209
 21
-89.3
  0
LINE
  8
0
 10
124.209
 20
-89.3
 11
123.78
 21
-89.9311
  0
LINE
  8
0
 10
123.78
 20
-89.9311
 11
123.261
 21
-90.6
  0
LINE
  8
0
 10
123.261
 20
-90.6
 11
107
 21
-90.6
  0
LINE
  8
0
 10
-49
 20
-90.6
 11
-49
 21
-89.3
  0
LINE
  8
0
 10
-49
 20
-89.3
 11
-9
 21
-89.3
  0
LINE
  8
0
 10
-9
 20
-89.3
 11
-9
 21
-90.6
  0
LINE
  8
0
 10
-9
 20
-90.6
 11
-49
 21
-90.6
  0
LINE
  8
0
 10
-123.261
 20
-90.6
 11
-123.78
 21
-89.9311
  0
LINE
  8
0
 10
-123.78
 20
-89.9311
 11
-124.209
 21
-89.3
  0
LINE
  8
0
 10
-124.209
 20
-89.3
 11
-113
 21
-89.3
  0
LINE
  8
0
 10
-113
 20
-89.3
 11
-113
 21
-90.6
  0
LINE
  8
0
 10
-113
 20
-90.6
 11
-123.261
 21
-90.6
  0
LINE
  8
0
 10
3
 20
-95.8
 11
3
 21
-94.5
  0
LINE
  8
0
 10
3
 20
-94.5
 11
43
 21
-94.5
  0
LINE
  8
0
 10
43
 20
-94.5
 11
43
 21
-95.8
  0
LINE
  8
0
 10
43
 20
-95.8
 11
3
 21
-95.8
  0
LINE
  8
0
 10
55
 20
-95.8
 11
55
 21
-94.5
  0
LINE
  8
0
 10
55
 20
-94.5
 11
95
 21
-94.5
  0
LINE
  8
0
 10
95
 20
-94.5
 11
95
 21
-95.8
  0
LINE
  8
0
 10
95
 20
-95.8
 11
55
 21
-95.8
  0
LINE
  8
0
 10
-119.227
 20
-95.8
 11
-120.236
 21
-94.5
  0
LINE
  8
0
 10
-120.236
 20
-94.5
 11
-113
 21
-94.5
  0
LINE
  8
0
 10
-113
 20
-94.5
 11
-113
 21
-95.8
  0
LINE
  8
0
 10
-113
 20
-95.8
 11
-119.227
 21
-95.8
  0
LINE
  8
0
 10
-101
 20
-95.8
 11
-101
 21
-94.5
  0
LINE
  8
0
 10
-101
 20
-94.5
 11
-61
 21
-94.5
  0
LINE
  8
0
 10
-61
 20
-94.5
 11
-61
 21
-95.8
  0
LINE
  8
0
 10
-61
 20
-95.8
 11
-101
 21
-95.8
  0
LINE
  8
0
 10
107
 20
-95.8
 11
107
 21
-94.5
  0
LINE
  8
0
 10
107
 20
-94.5
 11
120.236
 21
-94.5
  0
LINE
  8
0
 10
120.236
 20
-94.5
 11
119.227
 21
-95.8
  0
LINE
  8
0
 10
119.227
 20
-95.8
 11
107
 21
-95.8
  0
LINE
  8
0
 10
-49
 20
-95.8
 11
-49
 21
-94.5
  0
LINE
  8
0
 10
-49
 20
-94.5
 11
-9
 21
-94.5
  0
LINE
  8
0
 10
-9
 20
-94.5
 11
-9
 21
-95.8
  0
LINE
  8
0
 10
-9
 20
-95.8
 11
-49
 21
-95.8
  0
LINE
  8
0
 10
55
 20
-101
 11
55
 21
-99.7
  0
LINE
  8
0
 10
55
 20
-99.7
 11
95
 21
-99.7
  0
LINE
  8
0
 10
95
 20
-99.7
 11
95
 21
-101
  0
LINE
  8
0
 10
95
 20
-101
 11
55
 21
-101
  0
LINE
  8
0
 10
-114.826
 20
-101
 11
-115.972
 21
-99.7
  0
LINE
  8
0
 10
-115.972
 20
-99.7
 11
-113
 21
-99.7
  0
LINE
  8
0
 10
-113
 20
-99.7
 11
-113
 21
-101
  0
LINE
  8
0
 10
-113
 20
-101
 11
-114.826
 21
-101
  0
LINE
  8
0
 10
107
 20
-101
 11
107
 21
-99.7
  0
LINE
  8
0
 10
107
 20
-99.7
 11
115.972
 21
-99.7
  0
LINE
  8
0
 10
115.972
 20
-99.7
 11
114.826
 21
-101
  0
LINE
  8
0
 10
114.826
 20
-101
 11
107
 21
-101
  0
LINE
  8
0
 10
3
 20
-101
 11
3
 21
-99.7
  0
LINE
  8
0
 10
3
 20
-99.7
 11
43
 21
-99.7
  0
LINE
  8
0
 10
43
 20
-99.7
 11
43
 21
-101
  0
LINE
  8
0
 10
43
 20
-101
 11
3
 21
-101
  0
LINE
  8
0
 10
-49
 20
-101
 11
-49
 21
-99.7
  0
LINE
  8
0
 10
-49
 20
-99.7
 11
-9
 21
-99.7
  0
LINE
  8
0
 10
-9
 20
-99.7
 11
-9
 21
-101
  0
LINE
  8
0
 10
-9
 20
-101
 11
-49
 21
-101
  0
LINE
  8
0
 10
-101
 20
-101
 11
-101
 21
-99.7
  0
LINE
  8
0
 10
-101
 20
-99.7
 11
-61
 21
-99.7
  0
LINE
  8
0
 10
-61
 20
-99.7
 11
-61
 21
-101
  0
LINE
  8
0
 10
-61
 20
-101
 11
-101
 21
-101
  0
LINE
  8
0
 10
3
 20
-106.2
 11
3
 21
-104.9
  0
LINE
  8
0
 10
3
 20
-104.9
 11
43
 21
-104.9
  0
LINE
  8
0
 10
43
 20
-104.9
 11
43
 21
-106.2
  0
LINE
  8
0
 10
43
 20
-106.2
 11
3
 21
-106.2
  0
LINE
  8
0
 10
-49
 20
-106.2
 11
-49
 21
-104.9
  0
LINE
  8
0
 10
-49
 20
-104.9
 11
-9
 21
-104.9
  0
LINE
  8
0
 10
-9
 20
-104.9
 11
-9
 21
-106.2
  0
LINE
  8
0
 10
-9
 20
-106.2
 11
-49
 21
-106.2
  0
LINE
  8
0
 10
-101
 20
-106.2
 11
-101
 21
-104.9
  0
LINE
  8
0
 10
-101
 20
-104.9
 11
-61
 21
-104.9
  0
LINE
  8
0
 10
-61
 20
-104.9
 11
-61
 21
-106.2
  0
LINE
  8
0
 10
-61
 20
-106.2
 11
-101
 21
-106.2
  0
LINE
  8
0
 10
55
 20
-106.2
 11
55
 21
-104.9
  0
LINE
  8
0
 10
55
 20
-104.9
 11
95
 21
-104.9
  0
LINE
  8
0
 10
95
 20
-104.9
 11
95
 21
-106.2
  0
LINE
  8
0
 10
95
 20
-106.2
 11
55
 21
-106.2
  0
LINE
  8
0
 10
107
 20
-106.2
 11
107
 21
-104.9
  0
LINE
  8
0
 10
107
 20
-104.9
 11
111.368
 21
-104.9
  0
LINE
  8
0
 10
111.368
 20
-104.9
 11
110.068
 21
-106.2
  0
LINE
  8
0
 10
110.068
 20
-106.2
 11
107
 21
-106.2
  0
LINE
  8
0
 10
-49
 20
-111.4
 11
-49
 21
-110.1
  0
LINE
  8
0
 10
-49
 20
-110.1
 11
-9
 21
-110.1
  0
LINE
  8
0
 10
-9
 20
-110.1
 11
-9
 21
-111.4
  0
LINE
  8
0
 10
-9
 20
-111.4
 11
-49
 21
-111.4
  0
LINE
  8
0
 10
55
 20
-111.4
 11
55
 21
-110.1
  0
LINE
  8
0
 10
55
 20
-110.1
 11
95
 21
-110.1
  0
LINE
  8
0
 10
95
 20
-110.1
 11
95
 21
-111.4
  0
LINE
  8
0
 10
95
 20
-111.4
 11
55
 21
-111.4
  0
LINE
  8
0
 10
3
 20
-111.4
 11
3
 21
-110.1
  0
LINE
  8
0
 10
3
 20
-110.1
 11
43
 21
-110.1
  0
LINE
  8
0
 10
43
 20
-110.1
 11
43
 21
-111.4
  0
LINE
  8
0
 10
43
 20
-111.4
 11
3
 21
-111.4
  0
LINE
  8
0
 10
-101
 20
-111.4
 11
-101
 21
-110.1
  0
LINE
  8
0
 10
-101
 20
-110.1
 11
-61
 21
-110.1
  0
LINE
  8
0
 10
-61
 20
-110.1
 11
-61
 21
-111.4
  0
LINE
  8
0
 10
-61
 20
-111.4
 11
-101
 21
-111.4
  0
LINE
  8
0
 10
-98.9874
 20
-116.6
 11
-100.462
 21
-115.3
  0
LINE
  8
0
 10
-100.462
 20
-115.3
 11
-61
 21
-115.3
  0
LINE
  8
0
 10
-61
 20
-115.3
 11
-61
 21
-116.6
  0
LINE
  8
0
 10
-61
 20
-116.6
 11
-98.9874
 21
-116.6
  0
LINE
  8
0
 10
-49
 20
-116.6
 11
-49
 21
-115.3
  0
LINE
  8
0
 10
-49
 20
-115.3
 11
-9
 21
-115.3
  0
LINE
  8
0
 10
-9
 20
-115.3
 11
-9
 21
-116.6
  0
LINE
  8
0
 10
-9
 20
-116.6
 11
-49
 21
-116.6
  0
LINE
  8
0
 10
3
 20
-116.6
 11
3
 21
-115.3
  0
LINE
  8
0
 10
3
 20
-115.3
 11
43
 21
-115.3
  0
LINE
  8
0
 10
43
 20
-115.3
 11
43
 21
-116.6
  0
LINE
  8
0
 10
43
 20
-116.6
 11
3
 21
-116.6
  0
LINE
  8
0
 10
55
 20
-116.6
 11
55
 21
-115.3
  0
LINE
  8
0
 10
55
 20
-115.3
 11
95
 21
-115.3
  0
LINE
  8
0
 10
95
 20
-115.3
 11
95
 21
-116.6
  0
LINE
  8
0
 10
95
 20
-116.6
 11
55
 21
-116.6
  0
LINE
  8
0
 10
-0.172668
 20
-125.074
 11
-0.344666
 21
-125.058
  0
LINE
  8
0
 10
-0.344666
 20
-125.058
 11
-0.515289
 21
-125.031
  0
LINE
  8
0
 10
-0.515289
 20
-125.031
 11
-0.683884
 21
-124.993
  0
LINE
  8
0
 10
-0.683884
 20
-124.993
 11
-0.849792
 21
-124.945
  0
LINE
  8
0
 10
-0.849792
 20
-124.945
 11
-1.01233
 21
-124.886
  0
LINE
  8
0
 10
-1.01233
 20
-124.886
 11
-1.17088
 21
-124.818
  0
LINE
  8
0
 10
-1.17088
 20
-124.818
 11
-1.32481
 21
-124.739
  0
LINE
  8
0
 10
-1.32481
 20
-124.739
 11
-1.47351
 21
-124.651
  0
LINE
  8
0
 10
-1.47351
 20
-124.651
 11
-1.61641
 21
-124.554
  0
LINE
  8
0
 10
-1.61641
 20
-124.554
 11
-1.75291
 21
-124.448
  0
LINE
  8
0
 10
-1.75291
 20
-124.448
 11
-1.88249
 21
-124.334
  0
LINE
  8
0
 10
-1.88249
 20
-124.334
 11
-2.00465
 21
-124.212
  0
LINE
  8
0
 10
-2.00465
 20
-124.212
 11
-2.1189
 21
-124.082
  0
LINE
  8
0
 10
-2.1189
 20
-124.082
 11
-2.22479
 21
-123.946
  0
LINE
  8
0
 10
-2.22479
 20
-123.946
 11
-2.3219
 21
-123.803
  0
LINE
  8
0
 10
-2.3219
 20
-123.803
 11
-2.40984
 21
-123.654
  0
LINE
  8
0
 10
-2.40984
 20
-123.654
 11
-2.48827
 21
-123.5
  0
LINE
  8
0
 10
-2.48827
 20
-123.5
 11
-2.55688
 21
-123.342
  0
LINE
  8
0
 10
-2.55688
 20
-123.342
 11
-2.6154
 21
-123.179
  0
LINE
  8
0
 10
-2.6154
 20
-123.179
 11
-2.66359
 21
-123.013
  0
LINE
  8
0
 10
-2.66359
 20
-123.013
 11
-2.70128
 21
-122.845
  0
LINE
  8
0
 10
-2.70128
 20
-122.845
 11
-2.7283
 21
-122.674
  0
LINE
  8
0
 10
-2.7283
 20
-122.674
 11
-2.74457
 21
-122.502
  0
LINE
  8
0
 10
-2.74457
 20
-122.502
 11
-2.75
 21
-122.329
  0
LINE
  8
0
 10
-2.75
 20
-122.329
 11
-2.74457
 21
-122.157
  0
LINE
  8
0
 10
-2.74457
 20
-122.157
 11
-2.7283
 21
-121.985
  0
LINE
  8
0
 10
-2.7283
 20
-121.985
 11
-2.70128
 21
-121.814
  0
LINE
  8
0
 10
-2.70128
 20
-121.814
 11
-2.66359
 21
-121.646
  0
LINE
  8
0
 10
-2.66359
 20
-121.646
 11
-2.6154
 21
-121.48
  0
LINE
  8
0
 10
-2.6154
 20
-121.48
 11
-2.55688
 21
-121.317
  0
LINE
  8
0
 10
-2.55688
 20
-121.317
 11
-2.48827
 21
-121.159
  0
LINE
  8
0
 10
-2.48827
 20
-121.159
 11
-2.40984
 21
-121.005
  0
LINE
  8
0
 10
-2.40984
 20
-121.005
 11
-2.3219
 21
-120.856
  0
LINE
  8
0
 10
-2.3219
 20
-120.856
 11
-2.22479
 21
-120.713
  0
LINE
  8
0
 10
-2.22479
 20
-120.713
 11
-2.1189
 21
-120.577
  0
LINE
  8
0
 10
-2.1189
 20
-120.577
 11
-2.00465
 21
-120.447
  0
LINE
  8
0
 10
-2.00465
 20
-120.447
 11
-1.88249
 21
-120.325
  0
LINE
  8
0
 10
-1.88249
 20
-120.325
 11
-1.75291
 21
-120.211
  0
LINE
  8
0
 10
-1.75291
 20
-120.211
 11
-1.61641
 21
-120.105
  0
LINE
  8
0
 10
-1.61641
 20
-120.105
 11
-1.47351
 21
-120.008
  0
LINE
  8
0
 10
-1.47351
 20
-120.008
 11
-1.32481
 21
-119.92
  0
LINE
  8
0
 10
-1.32481
 20
-119.92
 11
-1.17088
 21
-119.841
  0
LINE
  8
0
 10
-1.17088
 20
-119.841
 11
-1.01233
 21
-119.773
  0
LINE
  8
0
 10
-1.01233
 20
-119.773
 11
-0.849792
 21
-119.714
  0
LINE
  8
0
 10
-0.849792
 20
-119.714
 11
-0.683884
 21
-119.666
  0
LINE
  8
0
 10
-0.683884
 20
-119.666
 11
-0.515289
 21
-119.628
  0
LINE
  8
0
 10
-0.515289
 20
-119.628
 11
-0.344666
 21
-119.601
  0
LINE
  8
0
 10
-0.344666
 20
-119.601
 11
-0.172668
 21
-119.585
  0
LINE
  8
0
 10
-0.172668
 20
-119.585
 11
0
 21
-119.579
  0
LINE
  8
0
 10
0
 20
-119.579
 11
0.172668
 21
-119.585
  0
LINE
  8
0
 10
0.172668
 20
-119.585
 11
0.344666
 21
-119.601
  0
LINE
  8
0
 10
0.344666
 20
-119.601
 11
0.515289
 21
-119.628
  0
LINE
  8
0
 10
0.515289
 20
-119.628
 11
0.683884
 21
-119.666
  0
LINE
  8
0
 10
0.683884
 20
-119.666
 11
0.849792
 21
-119.714
  0
LINE
  8
0
 10
0.849792
 20
-119.714
 11
1.01233
 21
-119.773
  0
LINE
  8
0
 10
1.01233
 20
-119.773
 11
1.17088
 21
-119.841
  0
LINE
  8
0
 10
1.17088
 20
-119.841
 11
1.32481
 21
-119.92
  0
LINE
  8
0
 10
1.32481
 20
-119.92
 11
1.47351
 21
-120.008
  0
LINE
  8
0
 10
1.47351
 20
-120.008
 11
1.61641
 21
-120.105
  0
LINE
  8
0
 10
1.61641
 20
-120.105
 11
1.75291
 21
-120.211
  0
LINE
  8
0
 10
1.75291
 20
-120.211
 11
1.88249
 21
-120.325
  0
LINE
  8
0
 10
1.88249
 20
-120.325
 11
2.00465
 21
-120.447
  0
LINE
  8
0
 10
2.00465
 20
-120.447
 11
2.1189
 21
-120.577
  0
LINE
  8
0
 10
2.1189
 20
-120.577
 11
2.22479
 21
-120.713
  0
LINE
  8
0
 10
2.22479
 20
-120.713
 11
2.3219
 21
-120.856
  0
LINE
  8
0
 10
2.3219
 20
-120.856
 11
2.40984
 21
-121.005
  0
LINE
  8
0
 10
2.40984
 20
-121.005
 11
2.48827
 21
-121.159
  0
LINE
  8
0
 10
2.48827
 20
-121.159
 11
2.55688
 21
-121.317
  0
LINE
  8
0
 10
2.55688
 20
-121.317
 11
2.6154
 21
-121.48
  0
LINE
  8
0
 10
2.6154
 20
-121.48
 11
2.66359
 21
-121.646
  0
LINE
  8
0
 10
2.66359
 20
-121.646
 11
2.70128
 21
-121.814
  0
LINE
  8
0
 10
2.70128
 20
-121.814
 11
2.7283
 21
-121.985
  0
LINE
  8
0
 10
2.7283
 20
-121.985
 11
2.74457
 21
-122.157
  0
LINE
  8
0
 10
2.74457
 20
-122.157
 11
2.75
 21
-122.329
  0
LINE
  8
0
 10
2.75
 20
-122.329
 11
2.74457
 21
-122.502
  0
LINE
  8
0
 10
2.74457
 20
-122.502
 11
2.7283
 21
-122.674
  0
LINE
  8
0
 10
2.7283
 20
-122.674
 11
2.70128
 21
-122.845
  0
LINE
  8
0
 10
2.70128
 20
-122.845
 11
2.66359
 21
-123.013
  0
LINE
  8
0
 10
2.66359
 20
-123.013
 11
2.6154
 21
-123.179
  0
LINE
  8
0
 10
2.6154
 20
-123.179
 11
2.55688
 21
-123.342
  0
LINE
  8
0
 10
2.55688
 20
-123.342
 11
2.48827
 21
-123.5
  0
LINE
  8
0
 10
2.48827
 20
-123.5
 11
2.40984
 21
-123.654
  0
LINE
  8
0
 10
2.40984
 20
-123.654
 11
2.3219
 21
-123.803
  0
LINE
  8
0
 10
2.3219
 20
-123.803
 11
2.22479
 21
-123.946
  0
LINE
  8
0
 10
2.22479
 20
-123.946
 11
2.1189
 21
-124.082
  0
LINE
  8
0
 10
2.1189
 20
-124.082
 11
2.00465
 21
-124.212
  0
LINE
  8
0
 10
2.00465
 20
-124.212
 11
1.88249
 21
-124.334
  0
LINE
  8
0
 10
1.88249
 20
-124.334
 11
1.75291
 21
-124.448
  0
LINE
  8
0
 10
1.75291
 20
-124.448
 11
1.61641
 21
-124.554
  0
LINE
  8
0
 10
1.61641
 20
-124.554
 11
1.47351
 21
-124.651
  0
LINE
  8
0
 10
1.47351
 20
-124.651
 11
1.32481
 21
-124.739
  0
LINE
  8
0
 10
1.32481
 20
-124.739
 11
1.17088
 21
-124.818
  0
LINE
  8
0
 10
1.17088
 20
-124.818
 11
1.01233
 21
-124.886
  0
LINE
  8
0
 10
1.01233
 20
-124.886
 11
0.849792
 21
-124.945
  0
LINE
  8
0
 10
0.849792
 20
-124.945
 11
0.683884
 21
-124.993
  0
LINE
  8
0
 10
0.683884
 20
-124.993
 11
0.515289
 21
-125.031
  0
LINE
  8
0
 10
0.515289
 20
-125.031
 11
0.344666
 21
-125.058
  0
LINE
  8
0
 10
0.344666
 20
-125.058
 11
0.172668
 21
-125.074
  0
LINE
  8
0
 10
0.172668
 20
-125.074
 11
0
 21
-125.079
  0
LINE
  8
0
 10
0
 20
-125.079
 11
-0.172668
 21
-125.074
  0
LINE
  8
0
 10
-49
 20
-121.8
 11
-49
 21
-120.5
  0
LINE
  8
0
 10
-49
 20
-120.5
 11
-9
 21
-120.5
  0
LINE
  8
0
 10
-9
 20
-120.5
 11
-9
 21
-121.8
  0
LINE
  8
0
 10
-9
 20
-121.8
 11
-49
 21
-121.8
  0
LINE
  8
0
 10
3
 20
-121.8
 11
3
 21
-120.5
  0
LINE
  8
0
 10
3
 20
-120.5
 11
43
 21
-120.5
  0
LINE
  8
0
 10
43
 20
-120.5
 11
43
 21
-121.8
  0
LINE
  8
0
 10
43
 20
-121.8
 11
3
 21
-121.8
  0
LINE
  8
0
 10
55
 20
-121.8
 11
55
 21
-120.5
  0
LINE
  8
0
 10
55
 20
-120.5
 11
94.1592
 21
-120.5
  0
LINE
  8
0
 10
94.1592
 20
-120.5
 11
92.4832
 21
-121.8
  0
LINE
  8
0
 10
92.4832
 20
-121.8
 11
55
 21
-121.8
  0
LINE
  8
0
 10
-92.4832
 20
-121.8
 11
-94.1592
 21
-120.5
  0
LINE
  8
0
 10
-94.1592
 20
-120.5
 11
-61
 21
-120.5
  0
LINE
  8
0
 10
-61
 20
-120.5
 11
-61
 21
-121.8
  0
LINE
  8
0
 10
-61
 20
-121.8
 11
-92.4832
 21
-121.8
  0
LINE
  8
0
 10
3
 20
-127
 11
3
 21
-125.7
  0
LINE
  8
0
 10
3
 20
-125.7
 11
43
 21
-125.7
  0
LINE
  8
0
 10
43
 20
-125.7
 11
43
 21
-127
  0
LINE
  8
0
 10
43
 20
-127
 11
3
 21
-127
  0
LINE
  8
0
 10
-49
 20
-127
 11
-49
 21
-125.7
  0
LINE
  8
0
 10
-49
 20
-125.7
 11
-9
 21
-125.7
  0
LINE
  8
0
 10
-9
 20
-125.7
 11
-9
 21
-127
  0
LINE
  8
0
 10
-9
 20
-127
 11
-49
 21
-127
  0
LINE
  8
0
 10
-85.1925
 20
-127
 11
-87.1053
 21
-125.7
  0
LINE
  8
0
 10
-87.1053
 20
-125.7
 11
-61
 21
-125.7
  0
LINE
  8
0
 10
-61
 20
-125.7
 11
-61
 21
-127
  0
LINE
  8
0
 10
-61
 20
-127
 11
-85.1925
 21
-127
  0
LINE
  8
0
 10
55
 20
-127
 11
55
 21
-125.7
  0
LINE
  8
0
 10
55
 20
-125.7
 11
87.1053
 21
-125.7
  0
LINE
  8
0
 10
87.1053
 20
-125.7
 11
85.1925
 21
-127
  0
LINE
  8
0
 10
85.1925
 20
-127
 11
55
 21
-127
  0
LINE
  8
0
 10
-49
 20
-132.2
 11
-49
 21
-130.9
  0
LINE
  8
0
 10
-49
 20
-130.9
 11
-9
 21
-130.9
  0
LINE
  8
0
 10
-9
 20
-130.9
 11
-9
 21
-132.2
  0
LINE
  8
0
 10
-9
 20
-132.2
 11
-49
 21
-132.2
  0
LINE
  8
0
 10
-76.8786
 20
-132.2
 11
-79.0768
 21
-130.9
  0
LINE
  8
0
 10
-79.0768
 20
-130.9
 11
-61
 21
-130.9
  0
LINE
  8
0
 10
-61
 20
-130.9
 11
-61
 21
-132.2
  0
LINE
  8
0
 10
-61
 20
-132.2
 11
-76.8786
 21
-132.2
  0
LINE
  8
0
 10
55
 20
-132.2
 11
55
 21
-130.9
  0
LINE
  8
0
 10
55
 20
-130.9
 11
79.0768
 21
-130.9
  0
LINE
  8
0
 10
79.0768
 20
-130.9
 11
76.8786
 21
-132.2
  0
LINE
  8
0
 10
76.8786
 20
-132.2
 11
55
 21
-132.2
  0
LINE
  8
0
 10
3
 20
-132.2
 11
3
 21
-130.9
  0
LINE
  8
0
 10
3
 20
-130.9
 11
43
 21
-130.9
  0
LINE
  8
0
 10
43
 20
-130.9
 11
43
 21
-132.2
  0
LINE
  8
0
 10
43
 20
-132.2
 11
3
 21
-132.2
  0
LINE
  8
0
 10
-67.1825
 20
-137.4
 11
-69.7339
 21
-136.1
  0
LINE
  8
0
 10
-69.7339
 20
-136.1
 11
-61
 21
-136.1
  0
LINE
  8
0
 10
-61
 20
-136.1
 11
-61
 21
-137.4
  0
LINE
  8
0
 10
-61
 20
-137.4
 11
-67.1825
 21
-137.4
  0
LINE
  8
0
 10
-49
 20
-137.4
 11
-49
 21
-136.1
  0
LINE
  8
0
 10
-49
 20
-136.1
 11
-9
 21
-136.1
  0
LINE
  8
0
 10
-9
 20
-136.1
 11
-9
 21
-137.4
  0
LINE
  8
0
 10
-9
 20
-137.4
 11
-49
 21
-137.4
  0
LINE
  8
0
 10
55
 20
-137.4
 11
55
 21
-136.1
  0
LINE
  8
0
 10
55
 20
-136.1
 11
69.7339
 21
-136.1
  0
LINE
  8
0
 10
69.7339
 20
-136.1
 11
67.1825
 21
-137.4
  0
LINE
  8
0
 10
67.1825
 20
-137.4
 11
55
 21
-137.4
  0
LINE
  8
0
 10
3
 20
-137.4
 11
3
 21
-136.1
  0
LINE
  8
0
 10
3
 20
-136.1
 11
43
 21
-136.1
  0
LINE
  8
0
 10
43
 20
-136.1
 11
43
 21
-137.4
  0
LINE
  8
0
 10
43
 20
-137.4
 11
3
 21
-137.4
  0
LINE
  8
0
 10
3
 20
-142.6
 11
3
 21
-141.3
  0
LINE
  8
0
 10
3
 20
-141.3
 11
43
 21
-141.3
  0
LINE
  8
0
 10
43
 20
-141.3
 11
43
 21
-142.6
  0
LINE
  8
0
 10
43
 20
-142.6
 11
3
 21
-142.6
  0
LINE
  8
0
 10
55
 20
-142.6
 11
55
 21
-141.3
  0
LINE
  8
0
 10
55
 20
-141.3
 11
58.5318
 21
-141.3
  0
LINE
  8
0
 10
58.5318
 20
-141.3
 11
56.323
 21
-142.256
  0
LINE
  8
0
 10
56.323
 20
-142.256
 11
55.367
 21
-142.6
  0
LINE
  8
0
 10
55.367
 20
-142.6
 11
55
 21
-142.6
  0
LINE
  8
0
 10
-49
 20
-142.6
 11
-49
 21
-141.3
  0
LINE
  8
0
 10
-49
 20
-141.3
 11
-9
 21
-141.3
  0
LINE
  8
0
 10
-9
 20
-141.3
 11
-9
 21
-142.6
  0
LINE
  8
0
 10
-9
 20
-142.6
 11
-49
 21
-142.6
  0
LINE
  8
0
 10
3
 20
-147.8
 11
3
 21
-146.5
  0
LINE
  8
0
 10
3
 20
-146.5
 11
43
 21
-146.5
  0
LINE
  8
0
 10
43
 20
-146.5
 11
43
 21
-146.755
  0
LINE
  8
0
 10
43
 20
-146.755
 11
39.403
 21
-147.8
  0
LINE
  8
0
 10
39.403
 20
-147.8
 11
3
 21
-147.8
  0
LINE
  8
0
 10
-39.403
 20
-147.8
 11
-43.8777
 21
-146.5
  0
LINE
  8
0
 10
-43.8777
 20
-146.5
 11
-9
 21
-146.5
  0
LINE
  8
0
 10
-9
 20
-146.5
 11
-9
 21
-147.8
  0
LINE
  8
0
 10
-9
 20
-147.8
 11
-39.403
 21
-147.8
  0
LINE
  8
0
 10
3
 20
-151.7
 11
19.7666
 21
-151.7
  0
LINE
  8
0
 10
19.7666
 20
-151.7
 11
19.176
 21
-151.794
  0
LINE
  8
0
 10
19.176
 20
-151.794
 11
9.60695
 21
-152.698
  0
LINE
  8
0
 10
9.60695
 20
-152.698
 11
3
 21
-152.906
  0
LINE
  8
0
 10
3
 20
-152.906
 11
3
 21
-151.7
  0
LINE
  8
0
 10
-9.60695
 20
-152.698
 11
-19.176
 21
-151.794
  0
LINE
  8
0
 10
-19.176
 20
-151.794
 11
-19.7666
 21
-151.7
  0
LINE
  8
0
 10
-19.7666
 20
-151.7
 11
-9
 21
-151.7
  0
LINE
  8
0
 10
-9
 20
-151.7
 11
-9
 21
-152.717
  0
LINE
  8
0
 10
-9
 20
-152.717
 11
-9.60695
 21
-152.698
  0
LINE
  8
0
 10
43
 20
45.9
 11
43
 21
44.6
  0
LINE
  8
0
 10
43
 20
44.6
 11
3
 21
44.6
  0
LINE
  8
0
 10
3
 20
44.6
 11
3
 21
45.9
  0
LINE
  8
0
 10
3
 20
45.9
 11
43
 21
45.9
  0
LINE
  8
0
 10
-9
 20
19.9
 11
-9
 21
18.6
  0
LINE
  8
0
 10
-9
 20
18.6
 11
-49
 21
18.6
  0
LINE
  8
0
 10
-49
 20
18.6
 11
-49
 21
19.9
  0
LINE
  8
0
 10
-49
 20
19.9
 11
-9
 21
19.9
  0
LINE
  8
0
 10
-9
 20
14.7
 11
-9
 21
13.4
  0
LINE
  8
0
 10
-9
 20
13.4
 11
-49
 21
13.4
  0
LINE
  8
0
 10
-49
 20
13.4
 11
-49
 21
14.7
  0
LINE
  8
0
 10
-49
 20
14.7
 11
-9
 21
14.7
  0
LINE
  8
0
 10
-101
 20
14.7
 11
-61
 21
14.7
  0
LINE
  8
0
 10
-61
 20
14.7
 11
-61
 21
13.4
  0
LINE
  8
0
 10
-61
 20
13.4
 11
-101
 21
13.4
  0
LINE
  8
0
 10
-101
 20
13.4
 11
-101
 21
14.7
  0
LINE
  8
0
 10
43
 20
-42.5
 11
43
 21
-43.8
  0
LINE
  8
0
 10
43
 20
-43.8
 11
3
 21
-43.8
  0
LINE
  8
0
 10
3
 20
-43.8
 11
3
 21
-42.5
  0
LINE
  8
0
 10
3
 20
-42.5
 11
43
 21
-42.5
  0
ENDSEC
  0
SECTION
  2
OBJECTS
  0
DICTIONARY
  0
ENDSEC
  0
EOF
