  0
SECTION
  2
BLOCKS
  0
ENDSEC
  0
SECTION
  2
ENTITIES
  0
LINE
  8
0
 10
10.8627
 20
-172.659
 11
21.6826
 21
-171.636
  0
LINE
  8
0
 10
21.6826
 20
-171.636
 11
32.417
 21
-169.936
  0
LINE
  8
0
 10
32.417
 20
-169.936
 11
43.0233
 21
-167.565
  0
LINE
  8
0
 10
43.0233
 20
-167.565
 11
53.4599
 21
-164.533
  0
LINE
  8
0
 10
53.4599
 20
-164.533
 11
63.6855
 21
-160.851
  0
LINE
  8
0
 10
63.6855
 20
-160.851
 11
73.6598
 21
-156.535
  0
LINE
  8
0
 10
73.6598
 20
-156.535
 11
83.3434
 21
-151.601
  0
LINE
  8
0
 10
83.3434
 20
-151.601
 11
92.698
 21
-146.069
  0
LINE
  8
0
 10
92.698
 20
-146.069
 11
101.687
 21
-139.96
  0
LINE
  8
0
 10
101.687
 20
-139.96
 11
110.274
 21
-133.299
  0
LINE
  8
0
 10
110.274
 20
-133.299
 11
118.427
 21
-126.112
  0
LINE
  8
0
 10
118.427
 20
-126.112
 11
126.112
 21
-118.427
  0
LINE
  8
0
 10
126.112
 20
-118.427
 11
133.299
 21
-110.274
  0
LINE
  8
0
 10
133.299
 20
-110.274
 11
139.96
 21
-101.687
  0
LINE
  8
0
 10
139.96
 20
-101.687
 11
146.069
 21
-92.698
  0
LINE
  8
0
 10
146.069
 20
-92.698
 11
151.601
 21
-83.3434
  0
LINE
  8
0
 10
151.601
 20
-83.3434
 11
156.535
 21
-73.6598
  0
LINE
  8
0
 10
156.535
 20
-73.6598
 11
160.851
 21
-63.6855
  0
LINE
  8
0
 10
160.851
 20
-63.6855
 11
164.533
 21
-53.4599
  0
LINE
  8
0
 10
164.533
 20
-53.4599
 11
167.565
 21
-43.0233
  0
LINE
  8
0
 10
167.565
 20
-43.0233
 11
169.936
 21
-32.417
  0
LINE
  8
0
 10
169.936
 20
-32.417
 11
171.636
 21
-21.6826
  0
LINE
  8
0
 10
171.636
 20
-21.6826
 11
172.659
 21
-10.8627
  0
LINE
  8
0
 10
172.659
 20
-10.8627
 11
173
 21
0
  0
LINE
  8
0
 10
173
 20
0
 11
172.659
 21
10.8627
  0
LINE
  8
0
 10
172.659
 20
10.8627
 11
171.636
 21
21.6826
  0
LINE
  8
0
 10
171.636
 20
21.6826
 11
169.936
 21
32.417
  0
LINE
  8
0
 10
169.936
 20
32.417
 11
167.565
 21
43.0233
  0
LINE
  8
0
 10
167.565
 20
43.0233
 11
164.533
 21
53.4599
  0
LINE
  8
0
 10
164.533
 20
53.4599
 11
160.851
 21
63.6855
  0
LINE
  8
0
 10
160.851
 20
63.6855
 11
156.535
 21
73.6598
  0
LINE
  8
0
 10
156.535
 20
73.6598
 11
151.601
 21
83.3434
  0
LINE
  8
0
 10
151.601
 20
83.3434
 11
146.069
 21
92.698
  0
LINE
  8
0
 10
146.069
 20
92.698
 11
139.96
 21
101.687
  0
LINE
  8
0
 10
139.96
 20
101.687
 11
133.299
 21
110.274
  0
LINE
  8
0
 10
133.299
 20
110.274
 11
126.112
 21
118.427
  0
LINE
  8
0
 10
126.112
 20
118.427
 11
118.427
 21
126.112
  0
LINE
  8
0
 10
118.427
 20
126.112
 11
110.274
 21
133.299
  0
LINE
  8
0
 10
110.274
 20
133.299
 11
101.687
 21
139.96
  0
LINE
  8
0
 10
101.687
 20
139.96
 11
92.698
 21
146.069
  0
LINE
  8
0
 10
92.698
 20
146.069
 11
83.3434
 21
151.601
  0
LINE
  8
0
 10
83.3434
 20
151.601
 11
73.6598
 21
156.535
  0
LINE
  8
0
 10
73.6598
 20
156.535
 11
63.6855
 21
160.851
  0
LINE
  8
0
 10
63.6855
 20
160.851
 11
53.4599
 21
164.533
  0
LINE
  8
0
 10
53.4599
 20
164.533
 11
43.0233
 21
167.565
  0
LINE
  8
0
 10
43.0233
 20
167.565
 11
32.417
 21
169.936
  0
LINE
  8
0
 10
32.417
 20
169.936
 11
21.6826
 21
171.636
  0
LINE
  8
0
 10
21.6826
 20
171.636
 11
10.8627
 21
172.659
  0
LINE
  8
0
 10
10.8627
 20
172.659
 11
0
 21
173
  0
LINE
  8
0
 10
0
 20
173
 11
-10.8627
 21
172.659
  0
LINE
  8
0
 10
-10.8627
 20
172.659
 11
-21.6826
 21
171.636
  0
LINE
  8
0
 10
-21.6826
 20
171.636
 11
-32.417
 21
169.936
  0
LINE
  8
0
 10
-32.417
 20
169.936
 11
-43.0233
 21
167.565
  0
LINE
  8
0
 10
-43.0233
 20
167.565
 11
-53.4599
 21
164.533
  0
LINE
  8
0
 10
-53.4599
 20
164.533
 11
-63.6855
 21
160.851
  0
LINE
  8
0
 10
-63.6855
 20
160.851
 11
-73.6598
 21
156.535
  0
LINE
  8
0
 10
-73.6598
 20
156.535
 11
-83.3434
 21
151.601
  0
LINE
  8
0
 10
-83.3434
 20
151.601
 11
-92.698
 21
146.069
  0
LINE
  8
0
 10
-92.698
 20
146.069
 11
-101.687
 21
139.96
  0
LINE
  8
0
 10
-101.687
 20
139.96
 11
-110.274
 21
133.299
  0
LINE
  8
0
 10
-110.274
 20
133.299
 11
-118.427
 21
126.112
  0
LINE
  8
0
 10
-118.427
 20
126.112
 11
-126.112
 21
118.427
  0
LINE
  8
0
 10
-126.112
 20
118.427
 11
-133.299
 21
110.274
  0
LINE
  8
0
 10
-133.299
 20
110.274
 11
-139.96
 21
101.687
  0
LINE
  8
0
 10
-139.96
 20
101.687
 11
-146.069
 21
92.698
  0
LINE
  8
0
 10
-146.069
 20
92.698
 11
-151.601
 21
83.3434
  0
LINE
  8
0
 10
-151.601
 20
83.3434
 11
-156.535
 21
73.6598
  0
LINE
  8
0
 10
-156.535
 20
73.6598
 11
-160.851
 21
63.6855
  0
LINE
  8
0
 10
-160.851
 20
63.6855
 11
-164.533
 21
53.4599
  0
LINE
  8
0
 10
-164.533
 20
53.4599
 11
-167.565
 21
43.0233
  0
LINE
  8
0
 10
-167.565
 20
43.0233
 11
-169.936
 21
32.417
  0
LINE
  8
0
 10
-169.936
 20
32.417
 11
-171.636
 21
21.6826
  0
LINE
  8
0
 10
-171.636
 20
21.6826
 11
-172.659
 21
10.8627
  0
LINE
  8
0
 10
-172.659
 20
10.8627
 11
-173
 21
0
  0
LINE
  8
0
 10
-173
 20
0
 11
-172.659
 21
-10.8627
  0
LINE
  8
0
 10
-172.659
 20
-10.8627
 11
-171.636
 21
-21.6826
  0
LINE
  8
0
 10
-171.636
 20
-21.6826
 11
-169.936
 21
-32.417
  0
LINE
  8
0
 10
-169.936
 20
-32.417
 11
-167.565
 21
-43.0233
  0
LINE
  8
0
 10
-167.565
 20
-43.0233
 11
-164.533
 21
-53.4599
  0
LINE
  8
0
 10
-164.533
 20
-53.4599
 11
-160.851
 21
-63.6855
  0
LINE
  8
0
 10
-160.851
 20
-63.6855
 11
-156.535
 21
-73.6598
  0
LINE
  8
0
 10
-156.535
 20
-73.6598
 11
-151.601
 21
-83.3434
  0
LINE
  8
0
 10
-151.601
 20
-83.3434
 11
-146.069
 21
-92.698
  0
LINE
  8
0
 10
-146.069
 20
-92.698
 11
-139.96
 21
-101.687
  0
LINE
  8
0
 10
-139.96
 20
-101.687
 11
-133.299
 21
-110.274
  0
LINE
  8
0
 10
-133.299
 20
-110.274
 11
-126.112
 21
-118.427
  0
LINE
  8
0
 10
-126.112
 20
-118.427
 11
-118.427
 21
-126.112
  0
LINE
  8
0
 10
-118.427
 20
-126.112
 11
-110.274
 21
-133.299
  0
LINE
  8
0
 10
-110.274
 20
-133.299
 11
-101.687
 21
-139.96
  0
LINE
  8
0
 10
-101.687
 20
-139.96
 11
-92.698
 21
-146.069
  0
LINE
  8
0
 10
-92.698
 20
-146.069
 11
-83.3434
 21
-151.601
  0
LINE
  8
0
 10
-83.3434
 20
-151.601
 11
-73.6598
 21
-156.535
  0
LINE
  8
0
 10
-73.6598
 20
-156.535
 11
-63.6855
 21
-160.851
  0
LINE
  8
0
 10
-63.6855
 20
-160.851
 11
-53.4599
 21
-164.533
  0
LINE
  8
0
 10
-53.4599
 20
-164.533
 11
-43.0233
 21
-167.565
  0
LINE
  8
0
 10
-43.0233
 20
-167.565
 11
-32.417
 21
-169.936
  0
LINE
  8
0
 10
-32.417
 20
-169.936
 11
-21.6826
 21
-171.636
  0
LINE
  8
0
 10
-21.6826
 20
-171.636
 11
-10.8627
 21
-172.659
  0
LINE
  8
0
 10
-10.8627
 20
-172.659
 11
0
 21
-173
  0
LINE
  8
0
 10
0
 20
-173
 11
10.8627
 21
-172.659
  0
LINE
  8
0
 10
-0.172668
 20
119.585
 11
-0.344666
 21
119.601
  0
LINE
  8
0
 10
-0.344666
 20
119.601
 11
-0.515289
 21
119.628
  0
LINE
  8
0
 10
-0.515289
 20
119.628
 11
-0.683884
 21
119.666
  0
LINE
  8
0
 10
-0.683884
 20
119.666
 11
-0.849792
 21
119.714
  0
LINE
  8
0
 10
-0.849792
 20
119.714
 11
-1.01233
 21
119.773
  0
LINE
  8
0
 10
-1.01233
 20
119.773
 11
-1.17088
 21
119.841
  0
LINE
  8
0
 10
-1.17088
 20
119.841
 11
-1.32481
 21
119.92
  0
LINE
  8
0
 10
-1.32481
 20
119.92
 11
-1.47351
 21
120.008
  0
LINE
  8
0
 10
-1.47351
 20
120.008
 11
-1.61641
 21
120.105
  0
LINE
  8
0
 10
-1.61641
 20
120.105
 11
-1.75291
 21
120.211
  0
LINE
  8
0
 10
-1.75291
 20
120.211
 11
-1.88249
 21
120.325
  0
LINE
  8
0
 10
-1.88249
 20
120.325
 11
-2.00465
 21
120.447
  0
LINE
  8
0
 10
-2.00465
 20
120.447
 11
-2.1189
 21
120.577
  0
LINE
  8
0
 10
-2.1189
 20
120.577
 11
-2.22479
 21
120.713
  0
LINE
  8
0
 10
-2.22479
 20
120.713
 11
-2.3219
 21
120.856
  0
LINE
  8
0
 10
-2.3219
 20
120.856
 11
-2.40984
 21
121.005
  0
LINE
  8
0
 10
-2.40984
 20
121.005
 11
-2.48827
 21
121.159
  0
LINE
  8
0
 10
-2.48827
 20
121.159
 11
-2.55688
 21
121.317
  0
LINE
  8
0
 10
-2.55688
 20
121.317
 11
-2.6154
 21
121.48
  0
LINE
  8
0
 10
-2.6154
 20
121.48
 11
-2.66359
 21
121.646
  0
LINE
  8
0
 10
-2.66359
 20
121.646
 11
-2.70128
 21
121.814
  0
LINE
  8
0
 10
-2.70128
 20
121.814
 11
-2.7283
 21
121.985
  0
LINE
  8
0
 10
-2.7283
 20
121.985
 11
-2.74457
 21
122.157
  0
LINE
  8
0
 10
-2.74457
 20
122.157
 11
-2.75
 21
122.329
  0
LINE
  8
0
 10
-2.75
 20
122.329
 11
-2.74457
 21
122.502
  0
LINE
  8
0
 10
-2.74457
 20
122.502
 11
-2.7283
 21
122.674
  0
LINE
  8
0
 10
-2.7283
 20
122.674
 11
-2.70128
 21
122.845
  0
LINE
  8
0
 10
-2.70128
 20
122.845
 11
-2.66359
 21
123.013
  0
LINE
  8
0
 10
-2.66359
 20
123.013
 11
-2.6154
 21
123.179
  0
LINE
  8
0
 10
-2.6154
 20
123.179
 11
-2.55688
 21
123.342
  0
LINE
  8
0
 10
-2.55688
 20
123.342
 11
-2.48827
 21
123.5
  0
LINE
  8
0
 10
-2.48827
 20
123.5
 11
-2.40984
 21
123.654
  0
LINE
  8
0
 10
-2.40984
 20
123.654
 11
-2.3219
 21
123.803
  0
LINE
  8
0
 10
-2.3219
 20
123.803
 11
-2.22479
 21
123.946
  0
LINE
  8
0
 10
-2.22479
 20
123.946
 11
-2.1189
 21
124.082
  0
LINE
  8
0
 10
-2.1189
 20
124.082
 11
-2.00465
 21
124.212
  0
LINE
  8
0
 10
-2.00465
 20
124.212
 11
-1.88249
 21
124.334
  0
LINE
  8
0
 10
-1.88249
 20
124.334
 11
-1.75291
 21
124.448
  0
LINE
  8
0
 10
-1.75291
 20
124.448
 11
-1.61641
 21
124.554
  0
LINE
  8
0
 10
-1.61641
 20
124.554
 11
-1.47351
 21
124.651
  0
LINE
  8
0
 10
-1.47351
 20
124.651
 11
-1.32481
 21
124.739
  0
LINE
  8
0
 10
-1.32481
 20
124.739
 11
-1.17088
 21
124.818
  0
LINE
  8
0
 10
-1.17088
 20
124.818
 11
-1.01233
 21
124.886
  0
LINE
  8
0
 10
-1.01233
 20
124.886
 11
-0.849792
 21
124.945
  0
LINE
  8
0
 10
-0.849792
 20
124.945
 11
-0.683884
 21
124.993
  0
LINE
  8
0
 10
-0.683884
 20
124.993
 11
-0.515289
 21
125.031
  0
LINE
  8
0
 10
-0.515289
 20
125.031
 11
-0.344666
 21
125.058
  0
LINE
  8
0
 10
-0.344666
 20
125.058
 11
-0.172668
 21
125.074
  0
LINE
  8
0
 10
-0.172668
 20
125.074
 11
0
 21
125.079
  0
LINE
  8
0
 10
0
 20
125.079
 11
0.172668
 21
125.074
  0
LINE
  8
0
 10
0.172668
 20
125.074
 11
0.344666
 21
125.058
  0
LINE
  8
0
 10
0.344666
 20
125.058
 11
0.515289
 21
125.031
  0
LINE
  8
0
 10
0.515289
 20
125.031
 11
0.683884
 21
124.993
  0
LINE
  8
0
 10
0.683884
 20
124.993
 11
0.849792
 21
124.945
  0
LINE
  8
0
 10
0.849792
 20
124.945
 11
1.01233
 21
124.886
  0
LINE
  8
0
 10
1.01233
 20
124.886
 11
1.17088
 21
124.818
  0
LINE
  8
0
 10
1.17088
 20
124.818
 11
1.32481
 21
124.739
  0
LINE
  8
0
 10
1.32481
 20
124.739
 11
1.47351
 21
124.651
  0
LINE
  8
0
 10
1.47351
 20
124.651
 11
1.61641
 21
124.554
  0
LINE
  8
0
 10
1.61641
 20
124.554
 11
1.75291
 21
124.448
  0
LINE
  8
0
 10
1.75291
 20
124.448
 11
1.88249
 21
124.334
  0
LINE
  8
0
 10
1.88249
 20
124.334
 11
2.00465
 21
124.212
  0
LINE
  8
0
 10
2.00465
 20
124.212
 11
2.1189
 21
124.082
  0
LINE
  8
0
 10
2.1189
 20
124.082
 11
2.22479
 21
123.946
  0
LINE
  8
0
 10
2.22479
 20
123.946
 11
2.3219
 21
123.803
  0
LINE
  8
0
 10
2.3219
 20
123.803
 11
2.40984
 21
123.654
  0
LINE
  8
0
 10
2.40984
 20
123.654
 11
2.48827
 21
123.5
  0
LINE
  8
0
 10
2.48827
 20
123.5
 11
2.55688
 21
123.342
  0
LINE
  8
0
 10
2.55688
 20
123.342
 11
2.6154
 21
123.179
  0
LINE
  8
0
 10
2.6154
 20
123.179
 11
2.66359
 21
123.013
  0
LINE
  8
0
 10
2.66359
 20
123.013
 11
2.70128
 21
122.845
  0
LINE
  8
0
 10
2.70128
 20
122.845
 11
2.7283
 21
122.674
  0
LINE
  8
0
 10
2.7283
 20
122.674
 11
2.74457
 21
122.502
  0
LINE
  8
0
 10
2.74457
 20
122.502
 11
2.75
 21
122.329
  0
LINE
  8
0
 10
2.75
 20
122.329
 11
2.74457
 21
122.157
  0
LINE
  8
0
 10
2.74457
 20
122.157
 11
2.7283
 21
121.985
  0
LINE
  8
0
 10
2.7283
 20
121.985
 11
2.70128
 21
121.814
  0
LINE
  8
0
 10
2.70128
 20
121.814
 11
2.66359
 21
121.646
  0
LINE
  8
0
 10
2.66359
 20
121.646
 11
2.6154
 21
121.48
  0
LINE
  8
0
 10
2.6154
 20
121.48
 11
2.55688
 21
121.317
  0
LINE
  8
0
 10
2.55688
 20
121.317
 11
2.48827
 21
121.159
  0
LINE
  8
0
 10
2.48827
 20
121.159
 11
2.40984
 21
121.005
  0
LINE
  8
0
 10
2.40984
 20
121.005
 11
2.3219
 21
120.856
  0
LINE
  8
0
 10
2.3219
 20
120.856
 11
2.22479
 21
120.713
  0
LINE
  8
0
 10
2.22479
 20
120.713
 11
2.1189
 21
120.577
  0
LINE
  8
0
 10
2.1189
 20
120.577
 11
2.00465
 21
120.447
  0
LINE
  8
0
 10
2.00465
 20
120.447
 11
1.88249
 21
120.325
  0
LINE
  8
0
 10
1.88249
 20
120.325
 11
1.75291
 21
120.211
  0
LINE
  8
0
 10
1.75291
 20
120.211
 11
1.61641
 21
120.105
  0
LINE
  8
0
 10
1.61641
 20
120.105
 11
1.47351
 21
120.008
  0
LINE
  8
0
 10
1.47351
 20
120.008
 11
1.32481
 21
119.92
  0
LINE
  8
0
 10
1.32481
 20
119.92
 11
1.17088
 21
119.841
  0
LINE
  8
0
 10
1.17088
 20
119.841
 11
1.01233
 21
119.773
  0
LINE
  8
0
 10
1.01233
 20
119.773
 11
0.849792
 21
119.714
  0
LINE
  8
0
 10
0.849792
 20
119.714
 11
0.683884
 21
119.666
  0
LINE
  8
0
 10
0.683884
 20
119.666
 11
0.515289
 21
119.628
  0
LINE
  8
0
 10
0.515289
 20
119.628
 11
0.344666
 21
119.601
  0
LINE
  8
0
 10
0.344666
 20
119.601
 11
0.172668
 21
119.585
  0
LINE
  8
0
 10
0.172668
 20
119.585
 11
0
 21
119.579
  0
LINE
  8
0
 10
0
 20
119.579
 11
-0.172668
 21
119.585
  0
LINE
  8
0
 10
-44.3295
 20
116.871
 11
-44.3295
 21
118.171
  0
LINE
  8
0
 10
-44.3295
 20
118.171
 11
-4.32947
 21
118.171
  0
LINE
  8
0
 10
-4.32947
 20
118.171
 11
-4.32947
 21
116.871
  0
LINE
  8
0
 10
-4.32947
 20
116.871
 11
-44.3295
 21
116.871
  0
LINE
  8
0
 10
59.6705
 20
116.871
 11
59.6705
 21
118.171
  0
LINE
  8
0
 10
59.6705
 20
118.171
 11
99.6705
 21
118.171
  0
LINE
  8
0
 10
99.6705
 20
118.171
 11
99.6705
 21
116.871
  0
LINE
  8
0
 10
99.6705
 20
116.871
 11
59.6705
 21
116.871
  0
LINE
  8
0
 10
-96.3295
 20
116.871
 11
-96.3295
 21
118.171
  0
LINE
  8
0
 10
-96.3295
 20
118.171
 11
-56.3295
 21
118.171
  0
LINE
  8
0
 10
-56.3295
 20
118.171
 11
-56.3295
 21
116.871
  0
LINE
  8
0
 10
-56.3295
 20
116.871
 11
-96.3295
 21
116.871
  0
LINE
  8
0
 10
7.67052
 20
116.871
 11
7.67052
 21
118.171
  0
LINE
  8
0
 10
7.67052
 20
118.171
 11
47.6705
 21
118.171
  0
LINE
  8
0
 10
47.6705
 20
118.171
 11
47.6705
 21
116.871
  0
LINE
  8
0
 10
47.6705
 20
116.871
 11
7.67052
 21
116.871
  0
LINE
  8
0
 10
-44.3295
 20
111.671
 11
-44.3295
 21
112.971
  0
LINE
  8
0
 10
-44.3295
 20
112.971
 11
-4.32947
 21
112.971
  0
LINE
  8
0
 10
-4.32947
 20
112.971
 11
-4.32947
 21
111.671
  0
LINE
  8
0
 10
-4.32947
 20
111.671
 11
-44.3295
 21
111.671
  0
LINE
  8
0
 10
-96.3295
 20
111.671
 11
-96.3295
 21
112.971
  0
LINE
  8
0
 10
-96.3295
 20
112.971
 11
-56.3295
 21
112.971
  0
LINE
  8
0
 10
-56.3295
 20
112.971
 11
-56.3295
 21
111.671
  0
LINE
  8
0
 10
-56.3295
 20
111.671
 11
-96.3295
 21
111.671
  0
LINE
  8
0
 10
7.67052
 20
111.671
 11
7.67052
 21
112.971
  0
LINE
  8
0
 10
7.67052
 20
112.971
 11
47.6705
 21
112.971
  0
LINE
  8
0
 10
47.6705
 20
112.971
 11
47.6705
 21
111.671
  0
LINE
  8
0
 10
47.6705
 20
111.671
 11
7.67052
 21
111.671
  0
LINE
  8
0
 10
59.6705
 20
111.671
 11
59.6705
 21
112.971
  0
LINE
  8
0
 10
59.6705
 20
112.971
 11
99.6705
 21
112.971
  0
LINE
  8
0
 10
99.6705
 20
112.971
 11
99.6705
 21
111.671
  0
LINE
  8
0
 10
99.6705
 20
111.671
 11
59.6705
 21
111.671
  0
LINE
  8
0
 10
-96.3295
 20
106.471
 11
-96.3295
 21
107.771
  0
LINE
  8
0
 10
-96.3295
 20
107.771
 11
-56.3295
 21
107.771
  0
LINE
  8
0
 10
-56.3295
 20
107.771
 11
-56.3295
 21
106.471
  0
LINE
  8
0
 10
-56.3295
 20
106.471
 11
-96.3295
 21
106.471
  0
LINE
  8
0
 10
-44.3295
 20
106.471
 11
-44.3295
 21
107.771
  0
LINE
  8
0
 10
-44.3295
 20
107.771
 11
-4.32947
 21
107.771
  0
LINE
  8
0
 10
-4.32947
 20
107.771
 11
-4.32947
 21
106.471
  0
LINE
  8
0
 10
-4.32947
 20
106.471
 11
-44.3295
 21
106.471
  0
LINE
  8
0
 10
7.67052
 20
106.471
 11
7.67052
 21
107.771
  0
LINE
  8
0
 10
7.67052
 20
107.771
 11
47.6705
 21
107.771
  0
LINE
  8
0
 10
47.6705
 20
107.771
 11
47.6705
 21
106.471
  0
LINE
  8
0
 10
47.6705
 20
106.471
 11
7.67052
 21
106.471
  0
LINE
  8
0
 10
59.6705
 20
106.471
 11
59.6705
 21
107.771
  0
LINE
  8
0
 10
59.6705
 20
107.771
 11
99.6705
 21
107.771
  0
LINE
  8
0
 10
99.6705
 20
107.771
 11
99.6705
 21
106.471
  0
LINE
  8
0
 10
99.6705
 20
106.471
 11
59.6705
 21
106.471
  0
LINE
  8
0
 10
7.67052
 20
101.271
 11
7.67052
 21
102.571
  0
LINE
  8
0
 10
7.67052
 20
102.571
 11
47.6705
 21
102.571
  0
LINE
  8
0
 10
47.6705
 20
102.571
 11
47.6705
 21
101.271
  0
LINE
  8
0
 10
47.6705
 20
101.271
 11
7.67052
 21
101.271
  0
LINE
  8
0
 10
-96.3295
 20
101.271
 11
-96.3295
 21
102.571
  0
LINE
  8
0
 10
-96.3295
 20
102.571
 11
-56.3295
 21
102.571
  0
LINE
  8
0
 10
-56.3295
 20
102.571
 11
-56.3295
 21
101.271
  0
LINE
  8
0
 10
-56.3295
 20
101.271
 11
-96.3295
 21
101.271
  0
LINE
  8
0
 10
-44.3295
 20
101.271
 11
-44.3295
 21
102.571
  0
LINE
  8
0
 10
-44.3295
 20
102.571
 11
-4.32947
 21
102.571
  0
LINE
  8
0
 10
-4.32947
 20
102.571
 11
-4.32947
 21
101.271
  0
LINE
  8
0
 10
-4.32947
 20
101.271
 11
-44.3295
 21
101.271
  0
LINE
  8
0
 10
59.6705
 20
101.271
 11
59.6705
 21
102.571
  0
LINE
  8
0
 10
59.6705
 20
102.571
 11
99.6705
 21
102.571
  0
LINE
  8
0
 10
99.6705
 20
102.571
 11
99.6705
 21
101.271
  0
LINE
  8
0
 10
99.6705
 20
101.271
 11
59.6705
 21
101.271
  0
LINE
  8
0
 10
59.6705
 20
96.0705
 11
59.6705
 21
97.3705
  0
LINE
  8
0
 10
59.6705
 20
97.3705
 11
99.6705
 21
97.3705
  0
LINE
  8
0
 10
99.6705
 20
97.3705
 11
99.6705
 21
96.0705
  0
LINE
  8
0
 10
99.6705
 20
96.0705
 11
59.6705
 21
96.0705
  0
LINE
  8
0
 10
-96.3295
 20
96.0705
 11
-96.3295
 21
97.3705
  0
LINE
  8
0
 10
-96.3295
 20
97.3705
 11
-56.3295
 21
97.3705
  0
LINE
  8
0
 10
-56.3295
 20
97.3705
 11
-56.3295
 21
96.0705
  0
LINE
  8
0
 10
-56.3295
 20
96.0705
 11
-96.3295
 21
96.0705
  0
LINE
  8
0
 10
-44.3295
 20
96.0705
 11
-44.3295
 21
97.3705
  0
LINE
  8
0
 10
-44.3295
 20
97.3705
 11
-4.32947
 21
97.3705
  0
LINE
  8
0
 10
-4.32947
 20
97.3705
 11
-4.32947
 21
96.0705
  0
LINE
  8
0
 10
-4.32947
 20
96.0705
 11
-44.3295
 21
96.0705
  0
LINE
  8
0
 10
7.67052
 20
96.0705
 11
7.67052
 21
97.3705
  0
LINE
  8
0
 10
7.67052
 20
97.3705
 11
47.6705
 21
97.3705
  0
LINE
  8
0
 10
47.6705
 20
97.3705
 11
47.6705
 21
96.0705
  0
LINE
  8
0
 10
47.6705
 20
96.0705
 11
7.67052
 21
96.0705
  0
LINE
  8
0
 10
-44.3295
 20
90.8705
 11
-44.3295
 21
92.1705
  0
LINE
  8
0
 10
-44.3295
 20
92.1705
 11
-4.32947
 21
92.1705
  0
LINE
  8
0
 10
-4.32947
 20
92.1705
 11
-4.32947
 21
90.8705
  0
LINE
  8
0
 10
-4.32947
 20
90.8705
 11
-44.3295
 21
90.8705
  0
LINE
  8
0
 10
-96.3295
 20
90.8705
 11
-96.3295
 21
92.1705
  0
LINE
  8
0
 10
-96.3295
 20
92.1705
 11
-56.3295
 21
92.1705
  0
LINE
  8
0
 10
-56.3295
 20
92.1705
 11
-56.3295
 21
90.8705
  0
LINE
  8
0
 10
-56.3295
 20
90.8705
 11
-96.3295
 21
90.8705
  0
LINE
  8
0
 10
7.67052
 20
90.8705
 11
7.67052
 21
92.1705
  0
LINE
  8
0
 10
7.67052
 20
92.1705
 11
47.6705
 21
92.1705
  0
LINE
  8
0
 10
47.6705
 20
92.1705
 11
47.6705
 21
90.8705
  0
LINE
  8
0
 10
47.6705
 20
90.8705
 11
7.67052
 21
90.8705
  0
LINE
  8
0
 10
59.6705
 20
90.8705
 11
59.6705
 21
92.1705
  0
LINE
  8
0
 10
59.6705
 20
92.1705
 11
99.6705
 21
92.1705
  0
LINE
  8
0
 10
99.6705
 20
92.1705
 11
99.6705
 21
90.8705
  0
LINE
  8
0
 10
99.6705
 20
90.8705
 11
59.6705
 21
90.8705
  0
LINE
  8
0
 10
-96.3295
 20
85.6705
 11
-96.3295
 21
86.9705
  0
LINE
  8
0
 10
-96.3295
 20
86.9705
 11
-56.3295
 21
86.9705
  0
LINE
  8
0
 10
-56.3295
 20
86.9705
 11
-56.3295
 21
85.6705
  0
LINE
  8
0
 10
-56.3295
 20
85.6705
 11
-96.3295
 21
85.6705
  0
LINE
  8
0
 10
-44.3295
 20
85.6705
 11
-44.3295
 21
86.9705
  0
LINE
  8
0
 10
-44.3295
 20
86.9705
 11
-4.32947
 21
86.9705
  0
LINE
  8
0
 10
-4.32947
 20
86.9705
 11
-4.32947
 21
85.6705
  0
LINE
  8
0
 10
-4.32947
 20
85.6705
 11
-44.3295
 21
85.6705
  0
LINE
  8
0
 10
7.67052
 20
85.6705
 11
7.67052
 21
86.9705
  0
LINE
  8
0
 10
7.67052
 20
86.9705
 11
47.6705
 21
86.9705
  0
LINE
  8
0
 10
47.6705
 20
86.9705
 11
47.6705
 21
85.6705
  0
LINE
  8
0
 10
47.6705
 20
85.6705
 11
7.67052
 21
85.6705
  0
LINE
  8
0
 10
59.6705
 20
85.6705
 11
59.6705
 21
86.9705
  0
LINE
  8
0
 10
59.6705
 20
86.9705
 11
99.6705
 21
86.9705
  0
LINE
  8
0
 10
99.6705
 20
86.9705
 11
99.6705
 21
85.6705
  0
LINE
  8
0
 10
99.6705
 20
85.6705
 11
59.6705
 21
85.6705
  0
LINE
  8
0
 10
-96.3295
 20
80.4705
 11
-96.3295
 21
81.7705
  0
LINE
  8
0
 10
-96.3295
 20
81.7705
 11
-56.3295
 21
81.7705
  0
LINE
  8
0
 10
-56.3295
 20
81.7705
 11
-56.3295
 21
80.4705
  0
LINE
  8
0
 10
-56.3295
 20
80.4705
 11
-96.3295
 21
80.4705
  0
LINE
  8
0
 10
-44.3295
 20
80.4705
 11
-44.3295
 21
81.7705
  0
LINE
  8
0
 10
-44.3295
 20
81.7705
 11
-4.32947
 21
81.7705
  0
LINE
  8
0
 10
-4.32947
 20
81.7705
 11
-4.32947
 21
80.4705
  0
LINE
  8
0
 10
-4.32947
 20
80.4705
 11
-44.3295
 21
80.4705
  0
LINE
  8
0
 10
7.67052
 20
80.4705
 11
7.67052
 21
81.7705
  0
LINE
  8
0
 10
7.67052
 20
81.7705
 11
47.6705
 21
81.7705
  0
LINE
  8
0
 10
47.6705
 20
81.7705
 11
47.6705
 21
80.4705
  0
LINE
  8
0
 10
47.6705
 20
80.4705
 11
7.67052
 21
80.4705
  0
LINE
  8
0
 10
59.6705
 20
80.4705
 11
59.6705
 21
81.7705
  0
LINE
  8
0
 10
59.6705
 20
81.7705
 11
99.6705
 21
81.7705
  0
LINE
  8
0
 10
99.6705
 20
81.7705
 11
99.6705
 21
80.4705
  0
LINE
  8
0
 10
99.6705
 20
80.4705
 11
59.6705
 21
80.4705
  0
LINE
  8
0
 10
-44.3295
 20
75.2705
 11
-44.3295
 21
76.5705
  0
LINE
  8
0
 10
-44.3295
 20
76.5705
 11
-4.32947
 21
76.5705
  0
LINE
  8
0
 10
-4.32947
 20
76.5705
 11
-4.32947
 21
75.2705
  0
LINE
  8
0
 10
-4.32947
 20
75.2705
 11
-44.3295
 21
75.2705
  0
LINE
  8
0
 10
7.67052
 20
75.2705
 11
7.67052
 21
76.5705
  0
LINE
  8
0
 10
7.67052
 20
76.5705
 11
47.6705
 21
76.5705
  0
LINE
  8
0
 10
47.6705
 20
76.5705
 11
47.6705
 21
75.2705
  0
LINE
  8
0
 10
47.6705
 20
75.2705
 11
7.67052
 21
75.2705
  0
LINE
  8
0
 10
59.6705
 20
75.2705
 11
59.6705
 21
76.5705
  0
LINE
  8
0
 10
59.6705
 20
76.5705
 11
99.6705
 21
76.5705
  0
LINE
  8
0
 10
99.6705
 20
76.5705
 11
99.6705
 21
75.2705
  0
LINE
  8
0
 10
99.6705
 20
75.2705
 11
59.6705
 21
75.2705
  0
LINE
  8
0
 10
-96.3295
 20
75.2705
 11
-96.3295
 21
76.5705
  0
LINE
  8
0
 10
-96.3295
 20
76.5705
 11
-56.3295
 21
76.5705
  0
LINE
  8
0
 10
-56.3295
 20
76.5705
 11
-56.3295
 21
75.2705
  0
LINE
  8
0
 10
-56.3295
 20
75.2705
 11
-96.3295
 21
75.2705
  0
LINE
  8
0
 10
7.67052
 20
70.0705
 11
7.67052
 21
71.3705
  0
LINE
  8
0
 10
7.67052
 20
71.3705
 11
47.6705
 21
71.3705
  0
LINE
  8
0
 10
47.6705
 20
71.3705
 11
47.6705
 21
70.0705
  0
LINE
  8
0
 10
47.6705
 20
70.0705
 11
7.67052
 21
70.0705
  0
LINE
  8
0
 10
-96.3295
 20
70.0705
 11
-96.3295
 21
71.3705
  0
LINE
  8
0
 10
-96.3295
 20
71.3705
 11
-56.3295
 21
71.3705
  0
LINE
  8
0
 10
-56.3295
 20
71.3705
 11
-56.3295
 21
70.0705
  0
LINE
  8
0
 10
-56.3295
 20
70.0705
 11
-96.3295
 21
70.0705
  0
LINE
  8
0
 10
-44.3295
 20
70.0705
 11
-44.3295
 21
71.3705
  0
LINE
  8
0
 10
-44.3295
 20
71.3705
 11
-4.32947
 21
71.3705
  0
LINE
  8
0
 10
-4.32947
 20
71.3705
 11
-4.32947
 21
70.0705
  0
LINE
  8
0
 10
-4.32947
 20
70.0705
 11
-44.3295
 21
70.0705
  0
LINE
  8
0
 10
59.6705
 20
70.0705
 11
59.6705
 21
71.3705
  0
LINE
  8
0
 10
59.6705
 20
71.3705
 11
99.6705
 21
71.3705
  0
LINE
  8
0
 10
99.6705
 20
71.3705
 11
99.6705
 21
70.0705
  0
LINE
  8
0
 10
99.6705
 20
70.0705
 11
59.6705
 21
70.0705
  0
LINE
  8
0
 10
-44.3295
 20
64.8705
 11
-44.3295
 21
66.1705
  0
LINE
  8
0
 10
-44.3295
 20
66.1705
 11
-4.32947
 21
66.1705
  0
LINE
  8
0
 10
-4.32947
 20
66.1705
 11
-4.32947
 21
64.8705
  0
LINE
  8
0
 10
-4.32947
 20
64.8705
 11
-44.3295
 21
64.8705
  0
LINE
  8
0
 10
-96.3295
 20
64.8705
 11
-96.3295
 21
66.1705
  0
LINE
  8
0
 10
-96.3295
 20
66.1705
 11
-56.3295
 21
66.1705
  0
LINE
  8
0
 10
-56.3295
 20
66.1705
 11
-56.3295
 21
64.8705
  0
LINE
  8
0
 10
-56.3295
 20
64.8705
 11
-96.3295
 21
64.8705
  0
LINE
  8
0
 10
7.67052
 20
64.8705
 11
7.67052
 21
66.1705
  0
LINE
  8
0
 10
7.67052
 20
66.1705
 11
47.6705
 21
66.1705
  0
LINE
  8
0
 10
47.6705
 20
66.1705
 11
47.6705
 21
64.8705
  0
LINE
  8
0
 10
47.6705
 20
64.8705
 11
7.67052
 21
64.8705
  0
LINE
  8
0
 10
59.6705
 20
64.8705
 11
59.6705
 21
66.1705
  0
LINE
  8
0
 10
59.6705
 20
66.1705
 11
99.6705
 21
66.1705
  0
LINE
  8
0
 10
99.6705
 20
66.1705
 11
99.6705
 21
64.8705
  0
LINE
  8
0
 10
99.6705
 20
64.8705
 11
59.6705
 21
64.8705
  0
LINE
  8
0
 10
59.6705
 20
59.6705
 11
59.6705
 21
60.9705
  0
LINE
  8
0
 10
59.6705
 20
60.9705
 11
99.6705
 21
60.9705
  0
LINE
  8
0
 10
99.6705
 20
60.9705
 11
99.6705
 21
59.6705
  0
LINE
  8
0
 10
99.6705
 20
59.6705
 11
59.6705
 21
59.6705
  0
LINE
  8
0
 10
-44.3295
 20
59.6705
 11
-44.3295
 21
60.9705
  0
LINE
  8
0
 10
-44.3295
 20
60.9705
 11
-4.32947
 21
60.9705
  0
LINE
  8
0
 10
-4.32947
 20
60.9705
 11
-4.32947
 21
59.6705
  0
LINE
  8
0
 10
-4.32947
 20
59.6705
 11
-44.3295
 21
59.6705
  0
LINE
  8
0
 10
-96.3295
 20
59.6705
 11
-96.3295
 21
60.9705
  0
LINE
  8
0
 10
-96.3295
 20
60.9705
 11
-56.3295
 21
60.9705
  0
LINE
  8
0
 10
-56.3295
 20
60.9705
 11
-56.3295
 21
59.6705
  0
LINE
  8
0
 10
-56.3295
 20
59.6705
 11
-96.3295
 21
59.6705
  0
LINE
  8
0
 10
47.6705
 20
59.6705
 11
7.67052
 21
59.6705
  0
LINE
  8
0
 10
7.67052
 20
59.6705
 11
7.67052
 21
60.9705
  0
LINE
  8
0
 10
7.67052
 20
60.9705
 11
47.6705
 21
60.9705
  0
LINE
  8
0
 10
47.6705
 20
60.9705
 11
47.6705
 21
59.6705
  0
LINE
  8
0
 10
-44.3295
 20
54.4705
 11
-44.3295
 21
55.7705
  0
LINE
  8
0
 10
-44.3295
 20
55.7705
 11
-4.32947
 21
55.7705
  0
LINE
  8
0
 10
-4.32947
 20
55.7705
 11
-4.32947
 21
54.4705
  0
LINE
  8
0
 10
-4.32947
 20
54.4705
 11
-44.3295
 21
54.4705
  0
LINE
  8
0
 10
-96.3295
 20
54.4705
 11
-96.3295
 21
55.7705
  0
LINE
  8
0
 10
-96.3295
 20
55.7705
 11
-56.3295
 21
55.7705
  0
LINE
  8
0
 10
-56.3295
 20
55.7705
 11
-56.3295
 21
54.4705
  0
LINE
  8
0
 10
-56.3295
 20
54.4705
 11
-96.3295
 21
54.4705
  0
LINE
  8
0
 10
7.67052
 20
54.4705
 11
7.67052
 21
55.7705
  0
LINE
  8
0
 10
7.67052
 20
55.7705
 11
47.6705
 21
55.7705
  0
LINE
  8
0
 10
47.6705
 20
55.7705
 11
47.6705
 21
54.4705
  0
LINE
  8
0
 10
47.6705
 20
54.4705
 11
7.67052
 21
54.4705
  0
LINE
  8
0
 10
59.6705
 20
54.4705
 11
59.6705
 21
55.7705
  0
LINE
  8
0
 10
59.6705
 20
55.7705
 11
99.6705
 21
55.7705
  0
LINE
  8
0
 10
99.6705
 20
55.7705
 11
99.6705
 21
54.4705
  0
LINE
  8
0
 10
99.6705
 20
54.4705
 11
59.6705
 21
54.4705
  0
LINE
  8
0
 10
-96.3295
 20
49.2705
 11
-96.3295
 21
50.5705
  0
LINE
  8
0
 10
-96.3295
 20
50.5705
 11
-56.3295
 21
50.5705
  0
LINE
  8
0
 10
-56.3295
 20
50.5705
 11
-56.3295
 21
49.2705
  0
LINE
  8
0
 10
-56.3295
 20
49.2705
 11
-96.3295
 21
49.2705
  0
LINE
  8
0
 10
-44.3295
 20
49.2705
 11
-44.3295
 21
50.5705
  0
LINE
  8
0
 10
-44.3295
 20
50.5705
 11
-4.32947
 21
50.5705
  0
LINE
  8
0
 10
-4.32947
 20
50.5705
 11
-4.32947
 21
49.2705
  0
LINE
  8
0
 10
-4.32947
 20
49.2705
 11
-44.3295
 21
49.2705
  0
LINE
  8
0
 10
59.6705
 20
49.2705
 11
59.6705
 21
50.5705
  0
LINE
  8
0
 10
59.6705
 20
50.5705
 11
99.6705
 21
50.5705
  0
LINE
  8
0
 10
99.6705
 20
50.5705
 11
99.6705
 21
49.2705
  0
LINE
  8
0
 10
99.6705
 20
49.2705
 11
59.6705
 21
49.2705
  0
LINE
  8
0
 10
7.67052
 20
49.2705
 11
7.67052
 21
50.5705
  0
LINE
  8
0
 10
7.67052
 20
50.5705
 11
47.6705
 21
50.5705
  0
LINE
  8
0
 10
47.6705
 20
50.5705
 11
47.6705
 21
49.2705
  0
LINE
  8
0
 10
47.6705
 20
49.2705
 11
7.67052
 21
49.2705
  0
LINE
  8
0
 10
-96.3295
 20
44.0705
 11
-96.3295
 21
45.3705
  0
LINE
  8
0
 10
-96.3295
 20
45.3705
 11
-56.3295
 21
45.3705
  0
LINE
  8
0
 10
-56.3295
 20
45.3705
 11
-56.3295
 21
44.0705
  0
LINE
  8
0
 10
-56.3295
 20
44.0705
 11
-96.3295
 21
44.0705
  0
LINE
  8
0
 10
-44.3295
 20
44.0705
 11
-44.3295
 21
45.3705
  0
LINE
  8
0
 10
-44.3295
 20
45.3705
 11
-4.32947
 21
45.3705
  0
LINE
  8
0
 10
-4.32947
 20
45.3705
 11
-4.32947
 21
44.0705
  0
LINE
  8
0
 10
-4.32947
 20
44.0705
 11
-44.3295
 21
44.0705
  0
LINE
  8
0
 10
59.6705
 20
44.0705
 11
59.6705
 21
45.3705
  0
LINE
  8
0
 10
59.6705
 20
45.3705
 11
99.6705
 21
45.3705
  0
LINE
  8
0
 10
99.6705
 20
45.3705
 11
99.6705
 21
44.0705
  0
LINE
  8
0
 10
99.6705
 20
44.0705
 11
59.6705
 21
44.0705
  0
LINE
  8
0
 10
7.67052
 20
44.0705
 11
7.67052
 21
45.3705
  0
LINE
  8
0
 10
7.67052
 20
45.3705
 11
47.6705
 21
45.3705
  0
LINE
  8
0
 10
47.6705
 20
45.3705
 11
47.6705
 21
44.0705
  0
LINE
  8
0
 10
47.6705
 20
44.0705
 11
7.67052
 21
44.0705
  0
LINE
  8
0
 10
7.67052
 20
38.8705
 11
7.67052
 21
40.1705
  0
LINE
  8
0
 10
7.67052
 20
40.1705
 11
47.6705
 21
40.1705
  0
LINE
  8
0
 10
47.6705
 20
40.1705
 11
47.6705
 21
38.8705
  0
LINE
  8
0
 10
47.6705
 20
38.8705
 11
7.67052
 21
38.8705
  0
LINE
  8
0
 10
59.6705
 20
38.8705
 11
59.6705
 21
40.1705
  0
LINE
  8
0
 10
59.6705
 20
40.1705
 11
99.6705
 21
40.1705
  0
LINE
  8
0
 10
99.6705
 20
40.1705
 11
99.6705
 21
38.8705
  0
LINE
  8
0
 10
99.6705
 20
38.8705
 11
59.6705
 21
38.8705
  0
LINE
  8
0
 10
-44.3295
 20
38.8705
 11
-44.3295
 21
40.1705
  0
LINE
  8
0
 10
-44.3295
 20
40.1705
 11
-4.32947
 21
40.1705
  0
LINE
  8
0
 10
-4.32947
 20
40.1705
 11
-4.32947
 21
38.8705
  0
LINE
  8
0
 10
-4.32947
 20
38.8705
 11
-44.3295
 21
38.8705
  0
LINE
  8
0
 10
-96.3295
 20
38.8705
 11
-96.3295
 21
40.1705
  0
LINE
  8
0
 10
-96.3295
 20
40.1705
 11
-56.3295
 21
40.1705
  0
LINE
  8
0
 10
-56.3295
 20
40.1705
 11
-56.3295
 21
38.8705
  0
LINE
  8
0
 10
-56.3295
 20
38.8705
 11
-96.3295
 21
38.8705
  0
LINE
  8
0
 10
-96.3295
 20
33.6705
 11
-96.3295
 21
34.9705
  0
LINE
  8
0
 10
-96.3295
 20
34.9705
 11
-56.3295
 21
34.9705
  0
LINE
  8
0
 10
-56.3295
 20
34.9705
 11
-56.3295
 21
33.6705
  0
LINE
  8
0
 10
-56.3295
 20
33.6705
 11
-96.3295
 21
33.6705
  0
LINE
  8
0
 10
7.67052
 20
33.6705
 11
7.67052
 21
34.9705
  0
LINE
  8
0
 10
7.67052
 20
34.9705
 11
47.6705
 21
34.9705
  0
LINE
  8
0
 10
47.6705
 20
34.9705
 11
47.6705
 21
33.6705
  0
LINE
  8
0
 10
47.6705
 20
33.6705
 11
7.67052
 21
33.6705
  0
LINE
  8
0
 10
-44.3295
 20
33.6705
 11
-44.3295
 21
34.9705
  0
LINE
  8
0
 10
-44.3295
 20
34.9705
 11
-4.32947
 21
34.9705
  0
LINE
  8
0
 10
-4.32947
 20
34.9705
 11
-4.32947
 21
33.6705
  0
LINE
  8
0
 10
-4.32947
 20
33.6705
 11
-44.3295
 21
33.6705
  0
LINE
  8
0
 10
59.6705
 20
33.6705
 11
59.6705
 21
34.9705
  0
LINE
  8
0
 10
59.6705
 20
34.9705
 11
99.6705
 21
34.9705
  0
LINE
  8
0
 10
99.6705
 20
34.9705
 11
99.6705
 21
33.6705
  0
LINE
  8
0
 10
99.6705
 20
33.6705
 11
59.6705
 21
33.6705
  0
LINE
  8
0
 10
-96.3295
 20
28.4705
 11
-96.3295
 21
29.7705
  0
LINE
  8
0
 10
-96.3295
 20
29.7705
 11
-56.3295
 21
29.7705
  0
LINE
  8
0
 10
-56.3295
 20
29.7705
 11
-56.3295
 21
28.4705
  0
LINE
  8
0
 10
-56.3295
 20
28.4705
 11
-96.3295
 21
28.4705
  0
LINE
  8
0
 10
-44.3295
 20
28.4705
 11
-44.3295
 21
29.7705
  0
LINE
  8
0
 10
-44.3295
 20
29.7705
 11
-4.32947
 21
29.7705
  0
LINE
  8
0
 10
-4.32947
 20
29.7705
 11
-4.32947
 21
28.4705
  0
LINE
  8
0
 10
-4.32947
 20
28.4705
 11
-44.3295
 21
28.4705
  0
LINE
  8
0
 10
59.6705
 20
28.4705
 11
59.6705
 21
29.7705
  0
LINE
  8
0
 10
59.6705
 20
29.7705
 11
99.6705
 21
29.7705
  0
LINE
  8
0
 10
99.6705
 20
29.7705
 11
99.6705
 21
28.4705
  0
LINE
  8
0
 10
99.6705
 20
28.4705
 11
59.6705
 21
28.4705
  0
LINE
  8
0
 10
7.67052
 20
28.4705
 11
7.67052
 21
29.7705
  0
LINE
  8
0
 10
7.67052
 20
29.7705
 11
47.6705
 21
29.7705
  0
LINE
  8
0
 10
47.6705
 20
29.7705
 11
47.6705
 21
28.4705
  0
LINE
  8
0
 10
47.6705
 20
28.4705
 11
7.67052
 21
28.4705
  0
LINE
  8
0
 10
-44.3295
 20
23.2705
 11
-44.3295
 21
24.5705
  0
LINE
  8
0
 10
-44.3295
 20
24.5705
 11
-4.32947
 21
24.5705
  0
LINE
  8
0
 10
-4.32947
 20
24.5705
 11
-4.32947
 21
23.2705
  0
LINE
  8
0
 10
-4.32947
 20
23.2705
 11
-44.3295
 21
23.2705
  0
LINE
  8
0
 10
7.67052
 20
23.2705
 11
7.67052
 21
24.5705
  0
LINE
  8
0
 10
7.67052
 20
24.5705
 11
47.6705
 21
24.5705
  0
LINE
  8
0
 10
47.6705
 20
24.5705
 11
47.6705
 21
23.2705
  0
LINE
  8
0
 10
47.6705
 20
23.2705
 11
7.67052
 21
23.2705
  0
LINE
  8
0
 10
-96.3295
 20
23.2705
 11
-96.3295
 21
24.5705
  0
LINE
  8
0
 10
-96.3295
 20
24.5705
 11
-56.3295
 21
24.5705
  0
LINE
  8
0
 10
-56.3295
 20
24.5705
 11
-56.3295
 21
23.2705
  0
LINE
  8
0
 10
-56.3295
 20
23.2705
 11
-96.3295
 21
23.2705
  0
LINE
  8
0
 10
99.6705
 20
23.2705
 11
59.6705
 21
23.2705
  0
LINE
  8
0
 10
59.6705
 20
23.2705
 11
59.6705
 21
24.5705
  0
LINE
  8
0
 10
59.6705
 20
24.5705
 11
99.6705
 21
24.5705
  0
LINE
  8
0
 10
99.6705
 20
24.5705
 11
99.6705
 21
23.2705
  0
LINE
  8
0
 10
59.6705
 20
18.0705
 11
59.6705
 21
19.3705
  0
LINE
  8
0
 10
59.6705
 20
19.3705
 11
99.6705
 21
19.3705
  0
LINE
  8
0
 10
99.6705
 20
19.3705
 11
99.6705
 21
18.0705
  0
LINE
  8
0
 10
99.6705
 20
18.0705
 11
59.6705
 21
18.0705
  0
LINE
  8
0
 10
-44.3295
 20
18.0705
 11
-44.3295
 21
19.3705
  0
LINE
  8
0
 10
-44.3295
 20
19.3705
 11
-4.32947
 21
19.3705
  0
LINE
  8
0
 10
-4.32947
 20
19.3705
 11
-4.32947
 21
18.0705
  0
LINE
  8
0
 10
-4.32947
 20
18.0705
 11
-44.3295
 21
18.0705
  0
LINE
  8
0
 10
-96.3295
 20
18.0705
 11
-96.3295
 21
19.3705
  0
LINE
  8
0
 10
-96.3295
 20
19.3705
 11
-56.3295
 21
19.3705
  0
LINE
  8
0
 10
-56.3295
 20
19.3705
 11
-56.3295
 21
18.0705
  0
LINE
  8
0
 10
-56.3295
 20
18.0705
 11
-96.3295
 21
18.0705
  0
LINE
  8
0
 10
7.67052
 20
18.0705
 11
7.67052
 21
19.3705
  0
LINE
  8
0
 10
7.67052
 20
19.3705
 11
47.6705
 21
19.3705
  0
LINE
  8
0
 10
47.6705
 20
19.3705
 11
47.6705
 21
18.0705
  0
LINE
  8
0
 10
47.6705
 20
18.0705
 11
7.67052
 21
18.0705
  0
LINE
  8
0
 10
59.6705
 20
12.8705
 11
59.6705
 21
14.1705
  0
LINE
  8
0
 10
59.6705
 20
14.1705
 11
99.6705
 21
14.1705
  0
LINE
  8
0
 10
99.6705
 20
14.1705
 11
99.6705
 21
12.8705
  0
LINE
  8
0
 10
99.6705
 20
12.8705
 11
59.6705
 21
12.8705
  0
LINE
  8
0
 10
-44.3295
 20
12.8705
 11
-44.3295
 21
14.1705
  0
LINE
  8
0
 10
-44.3295
 20
14.1705
 11
-4.32947
 21
14.1705
  0
LINE
  8
0
 10
-4.32947
 20
14.1705
 11
-4.32947
 21
12.8705
  0
LINE
  8
0
 10
-4.32947
 20
12.8705
 11
-44.3295
 21
12.8705
  0
LINE
  8
0
 10
7.67052
 20
12.8705
 11
7.67052
 21
14.1705
  0
LINE
  8
0
 10
7.67052
 20
14.1705
 11
47.6705
 21
14.1705
  0
LINE
  8
0
 10
47.6705
 20
14.1705
 11
47.6705
 21
12.8705
  0
LINE
  8
0
 10
47.6705
 20
12.8705
 11
7.67052
 21
12.8705
  0
LINE
  8
0
 10
-96.3295
 20
12.8705
 11
-96.3295
 21
14.1705
  0
LINE
  8
0
 10
-96.3295
 20
14.1705
 11
-56.3295
 21
14.1705
  0
LINE
  8
0
 10
-56.3295
 20
14.1705
 11
-56.3295
 21
12.8705
  0
LINE
  8
0
 10
-56.3295
 20
12.8705
 11
-96.3295
 21
12.8705
  0
LINE
  8
0
 10
-44.3295
 20
7.67052
 11
-44.3295
 21
8.97052
  0
LINE
  8
0
 10
-44.3295
 20
8.97052
 11
-4.32947
 21
8.97052
  0
LINE
  8
0
 10
-4.32947
 20
8.97052
 11
-4.32947
 21
7.67052
  0
LINE
  8
0
 10
-4.32947
 20
7.67052
 11
-44.3295
 21
7.67052
  0
LINE
  8
0
 10
59.6705
 20
7.67052
 11
59.6705
 21
8.97052
  0
LINE
  8
0
 10
59.6705
 20
8.97052
 11
99.6705
 21
8.97052
  0
LINE
  8
0
 10
99.6705
 20
8.97052
 11
99.6705
 21
7.67052
  0
LINE
  8
0
 10
99.6705
 20
7.67052
 11
59.6705
 21
7.67052
  0
LINE
  8
0
 10
-96.3295
 20
7.67052
 11
-96.3295
 21
8.97052
  0
LINE
  8
0
 10
-96.3295
 20
8.97052
 11
-56.3295
 21
8.97052
  0
LINE
  8
0
 10
-56.3295
 20
8.97052
 11
-56.3295
 21
7.67052
  0
LINE
  8
0
 10
-56.3295
 20
7.67052
 11
-96.3295
 21
7.67052
  0
LINE
  8
0
 10
7.67052
 20
7.67052
 11
7.67052
 21
8.97052
  0
LINE
  8
0
 10
7.67052
 20
8.97052
 11
47.6705
 21
8.97052
  0
LINE
  8
0
 10
47.6705
 20
8.97052
 11
47.6705
 21
7.67052
  0
LINE
  8
0
 10
47.6705
 20
7.67052
 11
7.67052
 21
7.67052
  0
LINE
  8
0
 10
-96.3295
 20
2.47052
 11
-96.3295
 21
3.77052
  0
LINE
  8
0
 10
-96.3295
 20
3.77052
 11
-56.3295
 21
3.77052
  0
LINE
  8
0
 10
-56.3295
 20
3.77052
 11
-56.3295
 21
2.47052
  0
LINE
  8
0
 10
-56.3295
 20
2.47052
 11
-96.3295
 21
2.47052
  0
LINE
  8
0
 10
7.67052
 20
3.77052
 11
47.6705
 21
3.77052
  0
LINE
  8
0
 10
47.6705
 20
3.77052
 11
47.6705
 21
2.47052
  0
LINE
  8
0
 10
47.6705
 20
2.47052
 11
7.67052
 21
2.47052
  0
LINE
  8
0
 10
7.67052
 20
2.47052
 11
7.67052
 21
3.77052
  0
LINE
  8
0
 10
-4.32947
 20
2.47052
 11
-44.3295
 21
2.47052
  0
LINE
  8
0
 10
-44.3295
 20
2.47052
 11
-44.3295
 21
3.77052
  0
LINE
  8
0
 10
-44.3295
 20
3.77052
 11
-4.32947
 21
3.77052
  0
LINE
  8
0
 10
-4.32947
 20
3.77052
 11
-4.32947
 21
2.47052
  0
LINE
  8
0
 10
-122.502
 20
-2.74457
 11
-122.674
 21
-2.7283
  0
LINE
  8
0
 10
-122.674
 20
-2.7283
 11
-122.845
 21
-2.70128
  0
LINE
  8
0
 10
-122.845
 20
-2.70128
 11
-123.013
 21
-2.66359
  0
LINE
  8
0
 10
-123.013
 20
-2.66359
 11
-123.179
 21
-2.6154
  0
LINE
  8
0
 10
-123.179
 20
-2.6154
 11
-123.342
 21
-2.55688
  0
LINE
  8
0
 10
-123.342
 20
-2.55688
 11
-123.5
 21
-2.48827
  0
LINE
  8
0
 10
-123.5
 20
-2.48827
 11
-123.654
 21
-2.40984
  0
LINE
  8
0
 10
-123.654
 20
-2.40984
 11
-123.803
 21
-2.3219
  0
LINE
  8
0
 10
-123.803
 20
-2.3219
 11
-123.946
 21
-2.22479
  0
LINE
  8
0
 10
-123.946
 20
-2.22479
 11
-124.082
 21
-2.1189
  0
LINE
  8
0
 10
-124.082
 20
-2.1189
 11
-124.212
 21
-2.00465
  0
LINE
  8
0
 10
-124.212
 20
-2.00465
 11
-124.334
 21
-1.88249
  0
LINE
  8
0
 10
-124.334
 20
-1.88249
 11
-124.448
 21
-1.75291
  0
LINE
  8
0
 10
-124.448
 20
-1.75291
 11
-124.554
 21
-1.61641
  0
LINE
  8
0
 10
-124.554
 20
-1.61641
 11
-124.651
 21
-1.47351
  0
LINE
  8
0
 10
-124.651
 20
-1.47351
 11
-124.739
 21
-1.32481
  0
LINE
  8
0
 10
-124.739
 20
-1.32481
 11
-124.818
 21
-1.17088
  0
LINE
  8
0
 10
-124.818
 20
-1.17088
 11
-124.886
 21
-1.01233
  0
LINE
  8
0
 10
-124.886
 20
-1.01233
 11
-124.945
 21
-0.849792
  0
LINE
  8
0
 10
-124.945
 20
-0.849792
 11
-124.993
 21
-0.683884
  0
LINE
  8
0
 10
-124.993
 20
-0.683884
 11
-125.031
 21
-0.515289
  0
LINE
  8
0
 10
-125.031
 20
-0.515289
 11
-125.058
 21
-0.344666
  0
LINE
  8
0
 10
-125.058
 20
-0.344666
 11
-125.074
 21
-0.172668
  0
LINE
  8
0
 10
-125.074
 20
-0.172668
 11
-125.079
 21
0
  0
LINE
  8
0
 10
-125.079
 20
0
 11
-125.074
 21
0.172668
  0
LINE
  8
0
 10
-125.074
 20
0.172668
 11
-125.058
 21
0.344666
  0
LINE
  8
0
 10
-125.058
 20
0.344666
 11
-125.031
 21
0.515289
  0
LINE
  8
0
 10
-125.031
 20
0.515289
 11
-124.993
 21
0.683884
  0
LINE
  8
0
 10
-124.993
 20
0.683884
 11
-124.945
 21
0.849792
  0
LINE
  8
0
 10
-124.945
 20
0.849792
 11
-124.886
 21
1.01233
  0
LINE
  8
0
 10
-124.886
 20
1.01233
 11
-124.818
 21
1.17088
  0
LINE
  8
0
 10
-124.818
 20
1.17088
 11
-124.739
 21
1.32481
  0
LINE
  8
0
 10
-124.739
 20
1.32481
 11
-124.651
 21
1.47351
  0
LINE
  8
0
 10
-124.651
 20
1.47351
 11
-124.554
 21
1.61641
  0
LINE
  8
0
 10
-124.554
 20
1.61641
 11
-124.448
 21
1.75291
  0
LINE
  8
0
 10
-124.448
 20
1.75291
 11
-124.334
 21
1.88249
  0
LINE
  8
0
 10
-124.334
 20
1.88249
 11
-124.212
 21
2.00465
  0
LINE
  8
0
 10
-124.212
 20
2.00465
 11
-124.082
 21
2.1189
  0
LINE
  8
0
 10
-124.082
 20
2.1189
 11
-123.946
 21
2.22479
  0
LINE
  8
0
 10
-123.946
 20
2.22479
 11
-123.803
 21
2.3219
  0
LINE
  8
0
 10
-123.803
 20
2.3219
 11
-123.654
 21
2.40984
  0
LINE
  8
0
 10
-123.654
 20
2.40984
 11
-123.5
 21
2.48827
  0
LINE
  8
0
 10
-123.5
 20
2.48827
 11
-123.342
 21
2.55688
  0
LINE
  8
0
 10
-123.342
 20
2.55688
 11
-123.179
 21
2.6154
  0
LINE
  8
0
 10
-123.179
 20
2.6154
 11
-123.013
 21
2.66359
  0
LINE
  8
0
 10
-123.013
 20
2.66359
 11
-122.845
 21
2.70128
  0
LINE
  8
0
 10
-122.845
 20
2.70128
 11
-122.674
 21
2.7283
  0
LINE
  8
0
 10
-122.674
 20
2.7283
 11
-122.502
 21
2.74457
  0
LINE
  8
0
 10
-122.502
 20
2.74457
 11
-122.329
 21
2.75
  0
LINE
  8
0
 10
-122.329
 20
2.75
 11
-122.157
 21
2.74457
  0
LINE
  8
0
 10
-122.157
 20
2.74457
 11
-121.985
 21
2.7283
  0
LINE
  8
0
 10
-121.985
 20
2.7283
 11
-121.814
 21
2.70128
  0
LINE
  8
0
 10
-121.814
 20
2.70128
 11
-121.646
 21
2.66359
  0
LINE
  8
0
 10
-121.646
 20
2.66359
 11
-121.48
 21
2.6154
  0
LINE
  8
0
 10
-121.48
 20
2.6154
 11
-121.317
 21
2.55688
  0
LINE
  8
0
 10
-121.317
 20
2.55688
 11
-121.159
 21
2.48827
  0
LINE
  8
0
 10
-121.159
 20
2.48827
 11
-121.005
 21
2.40984
  0
LINE
  8
0
 10
-121.005
 20
2.40984
 11
-120.856
 21
2.3219
  0
LINE
  8
0
 10
-120.856
 20
2.3219
 11
-120.713
 21
2.22479
  0
LINE
  8
0
 10
-120.713
 20
2.22479
 11
-120.577
 21
2.1189
  0
LINE
  8
0
 10
-120.577
 20
2.1189
 11
-120.447
 21
2.00465
  0
LINE
  8
0
 10
-120.447
 20
2.00465
 11
-120.325
 21
1.88249
  0
LINE
  8
0
 10
-120.325
 20
1.88249
 11
-120.211
 21
1.75291
  0
LINE
  8
0
 10
-120.211
 20
1.75291
 11
-120.105
 21
1.61641
  0
LINE
  8
0
 10
-120.105
 20
1.61641
 11
-120.008
 21
1.47351
  0
LINE
  8
0
 10
-120.008
 20
1.47351
 11
-119.92
 21
1.32481
  0
LINE
  8
0
 10
-119.92
 20
1.32481
 11
-119.841
 21
1.17088
  0
LINE
  8
0
 10
-119.841
 20
1.17088
 11
-119.773
 21
1.01233
  0
LINE
  8
0
 10
-119.773
 20
1.01233
 11
-119.714
 21
0.849792
  0
LINE
  8
0
 10
-119.714
 20
0.849792
 11
-119.666
 21
0.683884
  0
LINE
  8
0
 10
-119.666
 20
0.683884
 11
-119.628
 21
0.515289
  0
LINE
  8
0
 10
-119.628
 20
0.515289
 11
-119.601
 21
0.344666
  0
LINE
  8
0
 10
-119.601
 20
0.344666
 11
-119.585
 21
0.172668
  0
LINE
  8
0
 10
-119.585
 20
0.172668
 11
-119.579
 21
0
  0
LINE
  8
0
 10
-119.579
 20
0
 11
-119.585
 21
-0.172668
  0
LINE
  8
0
 10
-119.585
 20
-0.172668
 11
-119.601
 21
-0.344666
  0
LINE
  8
0
 10
-119.601
 20
-0.344666
 11
-119.628
 21
-0.515289
  0
LINE
  8
0
 10
-119.628
 20
-0.515289
 11
-119.666
 21
-0.683884
  0
LINE
  8
0
 10
-119.666
 20
-0.683884
 11
-119.714
 21
-0.849792
  0
LINE
  8
0
 10
-119.714
 20
-0.849792
 11
-119.773
 21
-1.01233
  0
LINE
  8
0
 10
-119.773
 20
-1.01233
 11
-119.841
 21
-1.17088
  0
LINE
  8
0
 10
-119.841
 20
-1.17088
 11
-119.92
 21
-1.32481
  0
LINE
  8
0
 10
-119.92
 20
-1.32481
 11
-120.008
 21
-1.47351
  0
LINE
  8
0
 10
-120.008
 20
-1.47351
 11
-120.105
 21
-1.61641
  0
LINE
  8
0
 10
-120.105
 20
-1.61641
 11
-120.211
 21
-1.75291
  0
LINE
  8
0
 10
-120.211
 20
-1.75291
 11
-120.325
 21
-1.88249
  0
LINE
  8
0
 10
-120.325
 20
-1.88249
 11
-120.447
 21
-2.00465
  0
LINE
  8
0
 10
-120.447
 20
-2.00465
 11
-120.577
 21
-2.1189
  0
LINE
  8
0
 10
-120.577
 20
-2.1189
 11
-120.713
 21
-2.22479
  0
LINE
  8
0
 10
-120.713
 20
-2.22479
 11
-120.856
 21
-2.3219
  0
LINE
  8
0
 10
-120.856
 20
-2.3219
 11
-121.005
 21
-2.40984
  0
LINE
  8
0
 10
-121.005
 20
-2.40984
 11
-121.159
 21
-2.48827
  0
LINE
  8
0
 10
-121.159
 20
-2.48827
 11
-121.317
 21
-2.55688
  0
LINE
  8
0
 10
-121.317
 20
-2.55688
 11
-121.48
 21
-2.6154
  0
LINE
  8
0
 10
-121.48
 20
-2.6154
 11
-121.646
 21
-2.66359
  0
LINE
  8
0
 10
-121.646
 20
-2.66359
 11
-121.814
 21
-2.70128
  0
LINE
  8
0
 10
-121.814
 20
-2.70128
 11
-121.985
 21
-2.7283
  0
LINE
  8
0
 10
-121.985
 20
-2.7283
 11
-122.157
 21
-2.74457
  0
LINE
  8
0
 10
-122.157
 20
-2.74457
 11
-122.329
 21
-2.75
  0
LINE
  8
0
 10
-122.329
 20
-2.75
 11
-122.502
 21
-2.74457
  0
LINE
  8
0
 10
122.157
 20
-2.74457
 11
121.985
 21
-2.7283
  0
LINE
  8
0
 10
121.985
 20
-2.7283
 11
121.814
 21
-2.70128
  0
LINE
  8
0
 10
121.814
 20
-2.70128
 11
121.646
 21
-2.66359
  0
LINE
  8
0
 10
121.646
 20
-2.66359
 11
121.48
 21
-2.6154
  0
LINE
  8
0
 10
121.48
 20
-2.6154
 11
121.317
 21
-2.55688
  0
LINE
  8
0
 10
121.317
 20
-2.55688
 11
121.159
 21
-2.48827
  0
LINE
  8
0
 10
121.159
 20
-2.48827
 11
121.005
 21
-2.40984
  0
LINE
  8
0
 10
121.005
 20
-2.40984
 11
120.856
 21
-2.3219
  0
LINE
  8
0
 10
120.856
 20
-2.3219
 11
120.713
 21
-2.22479
  0
LINE
  8
0
 10
120.713
 20
-2.22479
 11
120.577
 21
-2.1189
  0
LINE
  8
0
 10
120.577
 20
-2.1189
 11
120.447
 21
-2.00465
  0
LINE
  8
0
 10
120.447
 20
-2.00465
 11
120.325
 21
-1.88249
  0
LINE
  8
0
 10
120.325
 20
-1.88249
 11
120.211
 21
-1.75291
  0
LINE
  8
0
 10
120.211
 20
-1.75291
 11
120.105
 21
-1.61641
  0
LINE
  8
0
 10
120.105
 20
-1.61641
 11
120.008
 21
-1.47351
  0
LINE
  8
0
 10
120.008
 20
-1.47351
 11
119.92
 21
-1.32481
  0
LINE
  8
0
 10
119.92
 20
-1.32481
 11
119.841
 21
-1.17088
  0
LINE
  8
0
 10
119.841
 20
-1.17088
 11
119.773
 21
-1.01233
  0
LINE
  8
0
 10
119.773
 20
-1.01233
 11
119.714
 21
-0.849792
  0
LINE
  8
0
 10
119.714
 20
-0.849792
 11
119.666
 21
-0.683884
  0
LINE
  8
0
 10
119.666
 20
-0.683884
 11
119.628
 21
-0.515289
  0
LINE
  8
0
 10
119.628
 20
-0.515289
 11
119.601
 21
-0.344666
  0
LINE
  8
0
 10
119.601
 20
-0.344666
 11
119.585
 21
-0.172668
  0
LINE
  8
0
 10
119.585
 20
-0.172668
 11
119.579
 21
0
  0
LINE
  8
0
 10
119.579
 20
0
 11
119.585
 21
0.172668
  0
LINE
  8
0
 10
119.585
 20
0.172668
 11
119.601
 21
0.344666
  0
LINE
  8
0
 10
119.601
 20
0.344666
 11
119.628
 21
0.515289
  0
LINE
  8
0
 10
119.628
 20
0.515289
 11
119.666
 21
0.683884
  0
LINE
  8
0
 10
119.666
 20
0.683884
 11
119.714
 21
0.849792
  0
LINE
  8
0
 10
119.714
 20
0.849792
 11
119.773
 21
1.01233
  0
LINE
  8
0
 10
119.773
 20
1.01233
 11
119.841
 21
1.17088
  0
LINE
  8
0
 10
119.841
 20
1.17088
 11
119.92
 21
1.32481
  0
LINE
  8
0
 10
119.92
 20
1.32481
 11
120.008
 21
1.47351
  0
LINE
  8
0
 10
120.008
 20
1.47351
 11
120.105
 21
1.61641
  0
LINE
  8
0
 10
120.105
 20
1.61641
 11
120.211
 21
1.75291
  0
LINE
  8
0
 10
120.211
 20
1.75291
 11
120.325
 21
1.88249
  0
LINE
  8
0
 10
120.325
 20
1.88249
 11
120.447
 21
2.00465
  0
LINE
  8
0
 10
120.447
 20
2.00465
 11
120.577
 21
2.1189
  0
LINE
  8
0
 10
120.577
 20
2.1189
 11
120.713
 21
2.22479
  0
LINE
  8
0
 10
120.713
 20
2.22479
 11
120.856
 21
2.3219
  0
LINE
  8
0
 10
120.856
 20
2.3219
 11
121.005
 21
2.40984
  0
LINE
  8
0
 10
121.005
 20
2.40984
 11
121.159
 21
2.48827
  0
LINE
  8
0
 10
121.159
 20
2.48827
 11
121.317
 21
2.55688
  0
LINE
  8
0
 10
121.317
 20
2.55688
 11
121.48
 21
2.6154
  0
LINE
  8
0
 10
121.48
 20
2.6154
 11
121.646
 21
2.66359
  0
LINE
  8
0
 10
121.646
 20
2.66359
 11
121.814
 21
2.70128
  0
LINE
  8
0
 10
121.814
 20
2.70128
 11
121.985
 21
2.7283
  0
LINE
  8
0
 10
121.985
 20
2.7283
 11
122.157
 21
2.74457
  0
LINE
  8
0
 10
122.157
 20
2.74457
 11
122.329
 21
2.75
  0
LINE
  8
0
 10
122.329
 20
2.75
 11
122.502
 21
2.74457
  0
LINE
  8
0
 10
122.502
 20
2.74457
 11
122.674
 21
2.7283
  0
LINE
  8
0
 10
122.674
 20
2.7283
 11
122.845
 21
2.70128
  0
LINE
  8
0
 10
122.845
 20
2.70128
 11
123.013
 21
2.66359
  0
LINE
  8
0
 10
123.013
 20
2.66359
 11
123.179
 21
2.6154
  0
LINE
  8
0
 10
123.179
 20
2.6154
 11
123.342
 21
2.55688
  0
LINE
  8
0
 10
123.342
 20
2.55688
 11
123.5
 21
2.48827
  0
LINE
  8
0
 10
123.5
 20
2.48827
 11
123.654
 21
2.40984
  0
LINE
  8
0
 10
123.654
 20
2.40984
 11
123.803
 21
2.3219
  0
LINE
  8
0
 10
123.803
 20
2.3219
 11
123.946
 21
2.22479
  0
LINE
  8
0
 10
123.946
 20
2.22479
 11
124.082
 21
2.1189
  0
LINE
  8
0
 10
124.082
 20
2.1189
 11
124.212
 21
2.00465
  0
LINE
  8
0
 10
124.212
 20
2.00465
 11
124.334
 21
1.88249
  0
LINE
  8
0
 10
124.334
 20
1.88249
 11
124.448
 21
1.75291
  0
LINE
  8
0
 10
124.448
 20
1.75291
 11
124.554
 21
1.61641
  0
LINE
  8
0
 10
124.554
 20
1.61641
 11
124.651
 21
1.47351
  0
LINE
  8
0
 10
124.651
 20
1.47351
 11
124.739
 21
1.32481
  0
LINE
  8
0
 10
124.739
 20
1.32481
 11
124.818
 21
1.17088
  0
LINE
  8
0
 10
124.818
 20
1.17088
 11
124.886
 21
1.01233
  0
LINE
  8
0
 10
124.886
 20
1.01233
 11
124.945
 21
0.849792
  0
LINE
  8
0
 10
124.945
 20
0.849792
 11
124.993
 21
0.683884
  0
LINE
  8
0
 10
124.993
 20
0.683884
 11
125.031
 21
0.515289
  0
LINE
  8
0
 10
125.031
 20
0.515289
 11
125.058
 21
0.344666
  0
LINE
  8
0
 10
125.058
 20
0.344666
 11
125.074
 21
0.172668
  0
LINE
  8
0
 10
125.074
 20
0.172668
 11
125.079
 21
0
  0
LINE
  8
0
 10
125.079
 20
0
 11
125.074
 21
-0.172668
  0
LINE
  8
0
 10
125.074
 20
-0.172668
 11
125.058
 21
-0.344666
  0
LINE
  8
0
 10
125.058
 20
-0.344666
 11
125.031
 21
-0.515289
  0
LINE
  8
0
 10
125.031
 20
-0.515289
 11
124.993
 21
-0.683884
  0
LINE
  8
0
 10
124.993
 20
-0.683884
 11
124.945
 21
-0.849792
  0
LINE
  8
0
 10
124.945
 20
-0.849792
 11
124.886
 21
-1.01233
  0
LINE
  8
0
 10
124.886
 20
-1.01233
 11
124.818
 21
-1.17088
  0
LINE
  8
0
 10
124.818
 20
-1.17088
 11
124.739
 21
-1.32481
  0
LINE
  8
0
 10
124.739
 20
-1.32481
 11
124.651
 21
-1.47351
  0
LINE
  8
0
 10
124.651
 20
-1.47351
 11
124.554
 21
-1.61641
  0
LINE
  8
0
 10
124.554
 20
-1.61641
 11
124.448
 21
-1.75291
  0
LINE
  8
0
 10
124.448
 20
-1.75291
 11
124.334
 21
-1.88249
  0
LINE
  8
0
 10
124.334
 20
-1.88249
 11
124.212
 21
-2.00465
  0
LINE
  8
0
 10
124.212
 20
-2.00465
 11
124.082
 21
-2.1189
  0
LINE
  8
0
 10
124.082
 20
-2.1189
 11
123.946
 21
-2.22479
  0
LINE
  8
0
 10
123.946
 20
-2.22479
 11
123.803
 21
-2.3219
  0
LINE
  8
0
 10
123.803
 20
-2.3219
 11
123.654
 21
-2.40984
  0
LINE
  8
0
 10
123.654
 20
-2.40984
 11
123.5
 21
-2.48827
  0
LINE
  8
0
 10
123.5
 20
-2.48827
 11
123.342
 21
-2.55688
  0
LINE
  8
0
 10
123.342
 20
-2.55688
 11
123.179
 21
-2.6154
  0
LINE
  8
0
 10
123.179
 20
-2.6154
 11
123.013
 21
-2.66359
  0
LINE
  8
0
 10
123.013
 20
-2.66359
 11
122.845
 21
-2.70128
  0
LINE
  8
0
 10
122.845
 20
-2.70128
 11
122.674
 21
-2.7283
  0
LINE
  8
0
 10
122.674
 20
-2.7283
 11
122.502
 21
-2.74457
  0
LINE
  8
0
 10
122.502
 20
-2.74457
 11
122.329
 21
-2.75
  0
LINE
  8
0
 10
122.329
 20
-2.75
 11
122.157
 21
-2.74457
  0
LINE
  8
0
 10
-0.172668
 20
-2.74457
 11
-0.344666
 21
-2.7283
  0
LINE
  8
0
 10
-0.344666
 20
-2.7283
 11
-0.515289
 21
-2.70128
  0
LINE
  8
0
 10
-0.515289
 20
-2.70128
 11
-0.683884
 21
-2.66359
  0
LINE
  8
0
 10
-0.683884
 20
-2.66359
 11
-0.849792
 21
-2.6154
  0
LINE
  8
0
 10
-0.849792
 20
-2.6154
 11
-1.01233
 21
-2.55688
  0
LINE
  8
0
 10
-1.01233
 20
-2.55688
 11
-1.17088
 21
-2.48827
  0
LINE
  8
0
 10
-1.17088
 20
-2.48827
 11
-1.32481
 21
-2.40984
  0
LINE
  8
0
 10
-1.32481
 20
-2.40984
 11
-1.47351
 21
-2.3219
  0
LINE
  8
0
 10
-1.47351
 20
-2.3219
 11
-1.61641
 21
-2.22479
  0
LINE
  8
0
 10
-1.61641
 20
-2.22479
 11
-1.75291
 21
-2.1189
  0
LINE
  8
0
 10
-1.75291
 20
-2.1189
 11
-1.88249
 21
-2.00465
  0
LINE
  8
0
 10
-1.88249
 20
-2.00465
 11
-2.00465
 21
-1.88249
  0
LINE
  8
0
 10
-2.00465
 20
-1.88249
 11
-2.1189
 21
-1.75291
  0
LINE
  8
0
 10
-2.1189
 20
-1.75291
 11
-2.22479
 21
-1.61641
  0
LINE
  8
0
 10
-2.22479
 20
-1.61641
 11
-2.3219
 21
-1.47351
  0
LINE
  8
0
 10
-2.3219
 20
-1.47351
 11
-2.40984
 21
-1.32481
  0
LINE
  8
0
 10
-2.40984
 20
-1.32481
 11
-2.48827
 21
-1.17088
  0
LINE
  8
0
 10
-2.48827
 20
-1.17088
 11
-2.55688
 21
-1.01233
  0
LINE
  8
0
 10
-2.55688
 20
-1.01233
 11
-2.6154
 21
-0.849792
  0
LINE
  8
0
 10
-2.6154
 20
-0.849792
 11
-2.66359
 21
-0.683884
  0
LINE
  8
0
 10
-2.66359
 20
-0.683884
 11
-2.70128
 21
-0.515289
  0
LINE
  8
0
 10
-2.70128
 20
-0.515289
 11
-2.7283
 21
-0.344666
  0
LINE
  8
0
 10
-2.7283
 20
-0.344666
 11
-2.74457
 21
-0.172668
  0
LINE
  8
0
 10
-2.74457
 20
-0.172668
 11
-2.75
 21
0
  0
LINE
  8
0
 10
-2.75
 20
0
 11
-2.74457
 21
0.172668
  0
LINE
  8
0
 10
-2.74457
 20
0.172668
 11
-2.7283
 21
0.344666
  0
LINE
  8
0
 10
-2.7283
 20
0.344666
 11
-2.70128
 21
0.515289
  0
LINE
  8
0
 10
-2.70128
 20
0.515289
 11
-2.66359
 21
0.683884
  0
LINE
  8
0
 10
-2.66359
 20
0.683884
 11
-2.6154
 21
0.849792
  0
LINE
  8
0
 10
-2.6154
 20
0.849792
 11
-2.55688
 21
1.01233
  0
LINE
  8
0
 10
-2.55688
 20
1.01233
 11
-2.48827
 21
1.17088
  0
LINE
  8
0
 10
-2.48827
 20
1.17088
 11
-2.40984
 21
1.32481
  0
LINE
  8
0
 10
-2.40984
 20
1.32481
 11
-2.3219
 21
1.47351
  0
LINE
  8
0
 10
-2.3219
 20
1.47351
 11
-2.22479
 21
1.61641
  0
LINE
  8
0
 10
-2.22479
 20
1.61641
 11
-2.1189
 21
1.75291
  0
LINE
  8
0
 10
-2.1189
 20
1.75291
 11
-2.00465
 21
1.88249
  0
LINE
  8
0
 10
-2.00465
 20
1.88249
 11
-1.88249
 21
2.00465
  0
LINE
  8
0
 10
-1.88249
 20
2.00465
 11
-1.75291
 21
2.1189
  0
LINE
  8
0
 10
-1.75291
 20
2.1189
 11
-1.61641
 21
2.22479
  0
LINE
  8
0
 10
-1.61641
 20
2.22479
 11
-1.47351
 21
2.3219
  0
LINE
  8
0
 10
-1.47351
 20
2.3219
 11
-1.32481
 21
2.40984
  0
LINE
  8
0
 10
-1.32481
 20
2.40984
 11
-1.17088
 21
2.48827
  0
LINE
  8
0
 10
-1.17088
 20
2.48827
 11
-1.01233
 21
2.55688
  0
LINE
  8
0
 10
-1.01233
 20
2.55688
 11
-0.849792
 21
2.6154
  0
LINE
  8
0
 10
-0.849792
 20
2.6154
 11
-0.683884
 21
2.66359
  0
LINE
  8
0
 10
-0.683884
 20
2.66359
 11
-0.515289
 21
2.70128
  0
LINE
  8
0
 10
-0.515289
 20
2.70128
 11
-0.344666
 21
2.7283
  0
LINE
  8
0
 10
-0.344666
 20
2.7283
 11
-0.172668
 21
2.74457
  0
LINE
  8
0
 10
-0.172668
 20
2.74457
 11
0
 21
2.75
  0
LINE
  8
0
 10
0
 20
2.75
 11
0.172668
 21
2.74457
  0
LINE
  8
0
 10
0.172668
 20
2.74457
 11
0.344666
 21
2.7283
  0
LINE
  8
0
 10
0.344666
 20
2.7283
 11
0.515289
 21
2.70128
  0
LINE
  8
0
 10
0.515289
 20
2.70128
 11
0.683884
 21
2.66359
  0
LINE
  8
0
 10
0.683884
 20
2.66359
 11
0.849792
 21
2.6154
  0
LINE
  8
0
 10
0.849792
 20
2.6154
 11
1.01233
 21
2.55688
  0
LINE
  8
0
 10
1.01233
 20
2.55688
 11
1.17088
 21
2.48827
  0
LINE
  8
0
 10
1.17088
 20
2.48827
 11
1.32481
 21
2.40984
  0
LINE
  8
0
 10
1.32481
 20
2.40984
 11
1.47351
 21
2.3219
  0
LINE
  8
0
 10
1.47351
 20
2.3219
 11
1.61641
 21
2.22479
  0
LINE
  8
0
 10
1.61641
 20
2.22479
 11
1.75291
 21
2.1189
  0
LINE
  8
0
 10
1.75291
 20
2.1189
 11
1.88249
 21
2.00465
  0
LINE
  8
0
 10
1.88249
 20
2.00465
 11
2.00465
 21
1.88249
  0
LINE
  8
0
 10
2.00465
 20
1.88249
 11
2.1189
 21
1.75291
  0
LINE
  8
0
 10
2.1189
 20
1.75291
 11
2.22479
 21
1.61641
  0
LINE
  8
0
 10
2.22479
 20
1.61641
 11
2.3219
 21
1.47351
  0
LINE
  8
0
 10
2.3219
 20
1.47351
 11
2.40984
 21
1.32481
  0
LINE
  8
0
 10
2.40984
 20
1.32481
 11
2.48827
 21
1.17088
  0
LINE
  8
0
 10
2.48827
 20
1.17088
 11
2.55688
 21
1.01233
  0
LINE
  8
0
 10
2.55688
 20
1.01233
 11
2.6154
 21
0.849792
  0
LINE
  8
0
 10
2.6154
 20
0.849792
 11
2.66359
 21
0.683884
  0
LINE
  8
0
 10
2.66359
 20
0.683884
 11
2.70128
 21
0.515289
  0
LINE
  8
0
 10
2.70128
 20
0.515289
 11
2.7283
 21
0.344666
  0
LINE
  8
0
 10
2.7283
 20
0.344666
 11
2.74457
 21
0.172668
  0
LINE
  8
0
 10
2.74457
 20
0.172668
 11
2.75
 21
0
  0
LINE
  8
0
 10
2.75
 20
0
 11
2.74457
 21
-0.172668
  0
LINE
  8
0
 10
2.74457
 20
-0.172668
 11
2.7283
 21
-0.344666
  0
LINE
  8
0
 10
2.7283
 20
-0.344666
 11
2.70128
 21
-0.515289
  0
LINE
  8
0
 10
2.70128
 20
-0.515289
 11
2.66359
 21
-0.683884
  0
LINE
  8
0
 10
2.66359
 20
-0.683884
 11
2.6154
 21
-0.849792
  0
LINE
  8
0
 10
2.6154
 20
-0.849792
 11
2.55688
 21
-1.01233
  0
LINE
  8
0
 10
2.55688
 20
-1.01233
 11
2.48827
 21
-1.17088
  0
LINE
  8
0
 10
2.48827
 20
-1.17088
 11
2.40984
 21
-1.32481
  0
LINE
  8
0
 10
2.40984
 20
-1.32481
 11
2.3219
 21
-1.47351
  0
LINE
  8
0
 10
2.3219
 20
-1.47351
 11
2.22479
 21
-1.61641
  0
LINE
  8
0
 10
2.22479
 20
-1.61641
 11
2.1189
 21
-1.75291
  0
LINE
  8
0
 10
2.1189
 20
-1.75291
 11
2.00465
 21
-1.88249
  0
LINE
  8
0
 10
2.00465
 20
-1.88249
 11
1.88249
 21
-2.00465
  0
LINE
  8
0
 10
1.88249
 20
-2.00465
 11
1.75291
 21
-2.1189
  0
LINE
  8
0
 10
1.75291
 20
-2.1189
 11
1.61641
 21
-2.22479
  0
LINE
  8
0
 10
1.61641
 20
-2.22479
 11
1.47351
 21
-2.3219
  0
LINE
  8
0
 10
1.47351
 20
-2.3219
 11
1.32481
 21
-2.40984
  0
LINE
  8
0
 10
1.32481
 20
-2.40984
 11
1.17088
 21
-2.48827
  0
LINE
  8
0
 10
1.17088
 20
-2.48827
 11
1.01233
 21
-2.55688
  0
LINE
  8
0
 10
1.01233
 20
-2.55688
 11
0.849792
 21
-2.6154
  0
LINE
  8
0
 10
0.849792
 20
-2.6154
 11
0.683884
 21
-2.66359
  0
LINE
  8
0
 10
0.683884
 20
-2.66359
 11
0.515289
 21
-2.70128
  0
LINE
  8
0
 10
0.515289
 20
-2.70128
 11
0.344666
 21
-2.7283
  0
LINE
  8
0
 10
0.344666
 20
-2.7283
 11
0.172668
 21
-2.74457
  0
LINE
  8
0
 10
0.172668
 20
-2.74457
 11
0
 21
-2.75
  0
LINE
  8
0
 10
0
 20
-2.75
 11
-0.172668
 21
-2.74457
  0
LINE
  8
0
 10
7.67052
 20
-2.72946
 11
7.67052
 21
-1.42946
  0
LINE
  8
0
 10
7.67052
 20
-1.42946
 11
47.6705
 21
-1.42946
  0
LINE
  8
0
 10
47.6705
 20
-1.42946
 11
47.6705
 21
-2.72946
  0
LINE
  8
0
 10
47.6705
 20
-2.72946
 11
7.67052
 21
-2.72946
  0
LINE
  8
0
 10
-96.3295
 20
-2.72946
 11
-96.3295
 21
-1.42946
  0
LINE
  8
0
 10
-96.3295
 20
-1.42946
 11
-56.3295
 21
-1.42946
  0
LINE
  8
0
 10
-56.3295
 20
-1.42946
 11
-56.3295
 21
-2.72946
  0
LINE
  8
0
 10
-56.3295
 20
-2.72946
 11
-96.3295
 21
-2.72946
  0
LINE
  8
0
 10
-44.3295
 20
-2.72946
 11
-44.3295
 21
-1.42946
  0
LINE
  8
0
 10
-44.3295
 20
-1.42946
 11
-4.32947
 21
-1.42946
  0
LINE
  8
0
 10
-4.32947
 20
-1.42946
 11
-4.32947
 21
-2.72946
  0
LINE
  8
0
 10
-4.32947
 20
-2.72946
 11
-44.3295
 21
-2.72946
  0
LINE
  8
0
 10
59.6705
 20
-2.72946
 11
59.6705
 21
-1.42946
  0
LINE
  8
0
 10
59.6705
 20
-1.42946
 11
99.6705
 21
-1.42946
  0
LINE
  8
0
 10
99.6705
 20
-1.42946
 11
99.6705
 21
-2.72946
  0
LINE
  8
0
 10
99.6705
 20
-2.72946
 11
59.6705
 21
-2.72946
  0
LINE
  8
0
 10
-96.3295
 20
-7.92946
 11
-96.3295
 21
-6.62947
  0
LINE
  8
0
 10
-96.3295
 20
-6.62947
 11
-56.3295
 21
-6.62947
  0
LINE
  8
0
 10
-56.3295
 20
-6.62947
 11
-56.3295
 21
-7.92946
  0
LINE
  8
0
 10
-56.3295
 20
-7.92946
 11
-96.3295
 21
-7.92946
  0
LINE
  8
0
 10
7.67052
 20
-7.92946
 11
7.67052
 21
-6.62947
  0
LINE
  8
0
 10
7.67052
 20
-6.62947
 11
47.6705
 21
-6.62947
  0
LINE
  8
0
 10
47.6705
 20
-6.62947
 11
47.6705
 21
-7.92946
  0
LINE
  8
0
 10
47.6705
 20
-7.92946
 11
7.67052
 21
-7.92946
  0
LINE
  8
0
 10
-44.3295
 20
-7.92946
 11
-44.3295
 21
-6.62947
  0
LINE
  8
0
 10
-44.3295
 20
-6.62947
 11
-4.32947
 21
-6.62947
  0
LINE
  8
0
 10
-4.32947
 20
-6.62947
 11
-4.32947
 21
-7.92946
  0
LINE
  8
0
 10
-4.32947
 20
-7.92946
 11
-44.3295
 21
-7.92946
  0
LINE
  8
0
 10
59.6705
 20
-7.92946
 11
59.6705
 21
-6.62947
  0
LINE
  8
0
 10
59.6705
 20
-6.62947
 11
99.6705
 21
-6.62947
  0
LINE
  8
0
 10
99.6705
 20
-6.62947
 11
99.6705
 21
-7.92946
  0
LINE
  8
0
 10
99.6705
 20
-7.92946
 11
59.6705
 21
-7.92946
  0
LINE
  8
0
 10
-44.3295
 20
-13.1295
 11
-44.3295
 21
-11.8295
  0
LINE
  8
0
 10
-44.3295
 20
-11.8295
 11
-4.32947
 21
-11.8295
  0
LINE
  8
0
 10
-4.32947
 20
-11.8295
 11
-4.32947
 21
-13.1295
  0
LINE
  8
0
 10
-4.32947
 20
-13.1295
 11
-44.3295
 21
-13.1295
  0
LINE
  8
0
 10
59.6705
 20
-13.1295
 11
59.6705
 21
-11.8295
  0
LINE
  8
0
 10
59.6705
 20
-11.8295
 11
99.6705
 21
-11.8295
  0
LINE
  8
0
 10
99.6705
 20
-11.8295
 11
99.6705
 21
-13.1295
  0
LINE
  8
0
 10
99.6705
 20
-13.1295
 11
59.6705
 21
-13.1295
  0
LINE
  8
0
 10
-96.3295
 20
-13.1295
 11
-96.3295
 21
-11.8295
  0
LINE
  8
0
 10
-96.3295
 20
-11.8295
 11
-56.3295
 21
-11.8295
  0
LINE
  8
0
 10
-56.3295
 20
-11.8295
 11
-56.3295
 21
-13.1295
  0
LINE
  8
0
 10
-56.3295
 20
-13.1295
 11
-96.3295
 21
-13.1295
  0
LINE
  8
0
 10
7.67052
 20
-13.1295
 11
7.67052
 21
-11.8295
  0
LINE
  8
0
 10
7.67052
 20
-11.8295
 11
47.6705
 21
-11.8295
  0
LINE
  8
0
 10
47.6705
 20
-11.8295
 11
47.6705
 21
-13.1295
  0
LINE
  8
0
 10
47.6705
 20
-13.1295
 11
7.67052
 21
-13.1295
  0
LINE
  8
0
 10
-96.3295
 20
-18.3295
 11
-96.3295
 21
-17.0295
  0
LINE
  8
0
 10
-96.3295
 20
-17.0295
 11
-56.3295
 21
-17.0295
  0
LINE
  8
0
 10
-56.3295
 20
-17.0295
 11
-56.3295
 21
-18.3295
  0
LINE
  8
0
 10
-56.3295
 20
-18.3295
 11
-96.3295
 21
-18.3295
  0
LINE
  8
0
 10
7.67052
 20
-18.3295
 11
7.67052
 21
-17.0295
  0
LINE
  8
0
 10
7.67052
 20
-17.0295
 11
47.6705
 21
-17.0295
  0
LINE
  8
0
 10
47.6705
 20
-17.0295
 11
47.6705
 21
-18.3295
  0
LINE
  8
0
 10
47.6705
 20
-18.3295
 11
7.67052
 21
-18.3295
  0
LINE
  8
0
 10
59.6705
 20
-18.3295
 11
59.6705
 21
-17.0295
  0
LINE
  8
0
 10
59.6705
 20
-17.0295
 11
99.6705
 21
-17.0295
  0
LINE
  8
0
 10
99.6705
 20
-17.0295
 11
99.6705
 21
-18.3295
  0
LINE
  8
0
 10
99.6705
 20
-18.3295
 11
59.6705
 21
-18.3295
  0
LINE
  8
0
 10
-44.3295
 20
-18.3295
 11
-44.3295
 21
-17.0295
  0
LINE
  8
0
 10
-44.3295
 20
-17.0295
 11
-4.32947
 21
-17.0295
  0
LINE
  8
0
 10
-4.32947
 20
-17.0295
 11
-4.32947
 21
-18.3295
  0
LINE
  8
0
 10
-4.32947
 20
-18.3295
 11
-44.3295
 21
-18.3295
  0
LINE
  8
0
 10
-96.3295
 20
-23.5295
 11
-96.3295
 21
-22.2295
  0
LINE
  8
0
 10
-96.3295
 20
-22.2295
 11
-56.3295
 21
-22.2295
  0
LINE
  8
0
 10
-56.3295
 20
-22.2295
 11
-56.3295
 21
-23.5295
  0
LINE
  8
0
 10
-56.3295
 20
-23.5295
 11
-96.3295
 21
-23.5295
  0
LINE
  8
0
 10
59.6705
 20
-23.5295
 11
59.6705
 21
-22.2295
  0
LINE
  8
0
 10
59.6705
 20
-22.2295
 11
99.6705
 21
-22.2295
  0
LINE
  8
0
 10
99.6705
 20
-22.2295
 11
99.6705
 21
-23.5295
  0
LINE
  8
0
 10
99.6705
 20
-23.5295
 11
59.6705
 21
-23.5295
  0
LINE
  8
0
 10
7.67052
 20
-23.5295
 11
7.67052
 21
-22.2295
  0
LINE
  8
0
 10
7.67052
 20
-22.2295
 11
47.6705
 21
-22.2295
  0
LINE
  8
0
 10
47.6705
 20
-22.2295
 11
47.6705
 21
-23.5295
  0
LINE
  8
0
 10
47.6705
 20
-23.5295
 11
7.67052
 21
-23.5295
  0
LINE
  8
0
 10
-4.32947
 20
-23.5295
 11
-44.3295
 21
-23.5295
  0
LINE
  8
0
 10
-44.3295
 20
-23.5295
 11
-44.3295
 21
-22.2295
  0
LINE
  8
0
 10
-44.3295
 20
-22.2295
 11
-4.32947
 21
-22.2295
  0
LINE
  8
0
 10
-4.32947
 20
-22.2295
 11
-4.32947
 21
-23.5295
  0
LINE
  8
0
 10
-44.3295
 20
-28.7295
 11
-44.3295
 21
-27.4295
  0
LINE
  8
0
 10
-44.3295
 20
-27.4295
 11
-4.32947
 21
-27.4295
  0
LINE
  8
0
 10
-4.32947
 20
-27.4295
 11
-4.32947
 21
-28.7295
  0
LINE
  8
0
 10
-4.32947
 20
-28.7295
 11
-44.3295
 21
-28.7295
  0
LINE
  8
0
 10
-96.3295
 20
-28.7295
 11
-96.3295
 21
-27.4295
  0
LINE
  8
0
 10
-96.3295
 20
-27.4295
 11
-56.3295
 21
-27.4295
  0
LINE
  8
0
 10
-56.3295
 20
-27.4295
 11
-56.3295
 21
-28.7295
  0
LINE
  8
0
 10
-56.3295
 20
-28.7295
 11
-96.3295
 21
-28.7295
  0
LINE
  8
0
 10
7.67052
 20
-28.7295
 11
7.67052
 21
-27.4295
  0
LINE
  8
0
 10
7.67052
 20
-27.4295
 11
47.6705
 21
-27.4295
  0
LINE
  8
0
 10
47.6705
 20
-27.4295
 11
47.6705
 21
-28.7295
  0
LINE
  8
0
 10
47.6705
 20
-28.7295
 11
7.67052
 21
-28.7295
  0
LINE
  8
0
 10
59.6705
 20
-28.7295
 11
59.6705
 21
-27.4295
  0
LINE
  8
0
 10
59.6705
 20
-27.4295
 11
99.6705
 21
-27.4295
  0
LINE
  8
0
 10
99.6705
 20
-27.4295
 11
99.6705
 21
-28.7295
  0
LINE
  8
0
 10
99.6705
 20
-28.7295
 11
59.6705
 21
-28.7295
  0
LINE
  8
0
 10
7.67052
 20
-33.9295
 11
7.67052
 21
-32.6295
  0
LINE
  8
0
 10
7.67052
 20
-32.6295
 11
47.6705
 21
-32.6295
  0
LINE
  8
0
 10
47.6705
 20
-32.6295
 11
47.6705
 21
-33.9295
  0
LINE
  8
0
 10
47.6705
 20
-33.9295
 11
7.67052
 21
-33.9295
  0
LINE
  8
0
 10
-96.3295
 20
-33.9295
 11
-96.3295
 21
-32.6295
  0
LINE
  8
0
 10
-96.3295
 20
-32.6295
 11
-56.3295
 21
-32.6295
  0
LINE
  8
0
 10
-56.3295
 20
-32.6295
 11
-56.3295
 21
-33.9295
  0
LINE
  8
0
 10
-56.3295
 20
-33.9295
 11
-96.3295
 21
-33.9295
  0
LINE
  8
0
 10
-44.3295
 20
-33.9295
 11
-44.3295
 21
-32.6295
  0
LINE
  8
0
 10
-44.3295
 20
-32.6295
 11
-4.32947
 21
-32.6295
  0
LINE
  8
0
 10
-4.32947
 20
-32.6295
 11
-4.32947
 21
-33.9295
  0
LINE
  8
0
 10
-4.32947
 20
-33.9295
 11
-44.3295
 21
-33.9295
  0
LINE
  8
0
 10
59.6705
 20
-33.9295
 11
59.6705
 21
-32.6295
  0
LINE
  8
0
 10
59.6705
 20
-32.6295
 11
99.6705
 21
-32.6295
  0
LINE
  8
0
 10
99.6705
 20
-32.6295
 11
99.6705
 21
-33.9295
  0
LINE
  8
0
 10
99.6705
 20
-33.9295
 11
59.6705
 21
-33.9295
  0
LINE
  8
0
 10
-44.3295
 20
-39.1295
 11
-44.3295
 21
-37.8295
  0
LINE
  8
0
 10
-44.3295
 20
-37.8295
 11
-4.32947
 21
-37.8295
  0
LINE
  8
0
 10
-4.32947
 20
-37.8295
 11
-4.32947
 21
-39.1295
  0
LINE
  8
0
 10
-4.32947
 20
-39.1295
 11
-44.3295
 21
-39.1295
  0
LINE
  8
0
 10
-96.3295
 20
-39.1295
 11
-96.3295
 21
-37.8295
  0
LINE
  8
0
 10
-96.3295
 20
-37.8295
 11
-56.3295
 21
-37.8295
  0
LINE
  8
0
 10
-56.3295
 20
-37.8295
 11
-56.3295
 21
-39.1295
  0
LINE
  8
0
 10
-56.3295
 20
-39.1295
 11
-96.3295
 21
-39.1295
  0
LINE
  8
0
 10
7.67052
 20
-39.1295
 11
7.67052
 21
-37.8295
  0
LINE
  8
0
 10
7.67052
 20
-37.8295
 11
47.6705
 21
-37.8295
  0
LINE
  8
0
 10
47.6705
 20
-37.8295
 11
47.6705
 21
-39.1295
  0
LINE
  8
0
 10
47.6705
 20
-39.1295
 11
7.67052
 21
-39.1295
  0
LINE
  8
0
 10
59.6705
 20
-39.1295
 11
59.6705
 21
-37.8295
  0
LINE
  8
0
 10
59.6705
 20
-37.8295
 11
99.6705
 21
-37.8295
  0
LINE
  8
0
 10
99.6705
 20
-37.8295
 11
99.6705
 21
-39.1295
  0
LINE
  8
0
 10
99.6705
 20
-39.1295
 11
59.6705
 21
-39.1295
  0
LINE
  8
0
 10
7.67052
 20
-44.3295
 11
7.67052
 21
-43.0295
  0
LINE
  8
0
 10
7.67052
 20
-43.0295
 11
47.6705
 21
-43.0295
  0
LINE
  8
0
 10
47.6705
 20
-43.0295
 11
47.6705
 21
-44.3295
  0
LINE
  8
0
 10
47.6705
 20
-44.3295
 11
7.67052
 21
-44.3295
  0
LINE
  8
0
 10
-44.3295
 20
-44.3295
 11
-44.3295
 21
-43.0295
  0
LINE
  8
0
 10
-44.3295
 20
-43.0295
 11
-4.32947
 21
-43.0295
  0
LINE
  8
0
 10
-4.32947
 20
-43.0295
 11
-4.32947
 21
-44.3295
  0
LINE
  8
0
 10
-4.32947
 20
-44.3295
 11
-44.3295
 21
-44.3295
  0
LINE
  8
0
 10
59.6705
 20
-44.3295
 11
59.6705
 21
-43.0295
  0
LINE
  8
0
 10
59.6705
 20
-43.0295
 11
99.6705
 21
-43.0295
  0
LINE
  8
0
 10
99.6705
 20
-43.0295
 11
99.6705
 21
-44.3295
  0
LINE
  8
0
 10
99.6705
 20
-44.3295
 11
59.6705
 21
-44.3295
  0
LINE
  8
0
 10
-96.3295
 20
-44.3295
 11
-96.3295
 21
-43.0295
  0
LINE
  8
0
 10
-96.3295
 20
-43.0295
 11
-56.3295
 21
-43.0295
  0
LINE
  8
0
 10
-56.3295
 20
-43.0295
 11
-56.3295
 21
-44.3295
  0
LINE
  8
0
 10
-56.3295
 20
-44.3295
 11
-96.3295
 21
-44.3295
  0
LINE
  8
0
 10
7.67052
 20
-49.5295
 11
7.67052
 21
-48.2295
  0
LINE
  8
0
 10
7.67052
 20
-48.2295
 11
47.6705
 21
-48.2295
  0
LINE
  8
0
 10
47.6705
 20
-48.2295
 11
47.6705
 21
-49.5295
  0
LINE
  8
0
 10
47.6705
 20
-49.5295
 11
7.67052
 21
-49.5295
  0
LINE
  8
0
 10
59.6705
 20
-49.5295
 11
59.6705
 21
-48.2295
  0
LINE
  8
0
 10
59.6705
 20
-48.2295
 11
99.6705
 21
-48.2295
  0
LINE
  8
0
 10
99.6705
 20
-48.2295
 11
99.6705
 21
-49.5295
  0
LINE
  8
0
 10
99.6705
 20
-49.5295
 11
59.6705
 21
-49.5295
  0
LINE
  8
0
 10
-96.3295
 20
-49.5295
 11
-96.3295
 21
-48.2295
  0
LINE
  8
0
 10
-96.3295
 20
-48.2295
 11
-56.3295
 21
-48.2295
  0
LINE
  8
0
 10
-56.3295
 20
-48.2295
 11
-56.3295
 21
-49.5295
  0
LINE
  8
0
 10
-56.3295
 20
-49.5295
 11
-96.3295
 21
-49.5295
  0
LINE
  8
0
 10
-44.3295
 20
-49.5295
 11
-44.3295
 21
-48.2295
  0
LINE
  8
0
 10
-44.3295
 20
-48.2295
 11
-4.32947
 21
-48.2295
  0
LINE
  8
0
 10
-4.32947
 20
-48.2295
 11
-4.32947
 21
-49.5295
  0
LINE
  8
0
 10
-4.32947
 20
-49.5295
 11
-44.3295
 21
-49.5295
  0
LINE
  8
0
 10
7.67052
 20
-54.7295
 11
7.67052
 21
-53.4295
  0
LINE
  8
0
 10
7.67052
 20
-53.4295
 11
47.6705
 21
-53.4295
  0
LINE
  8
0
 10
47.6705
 20
-53.4295
 11
47.6705
 21
-54.7295
  0
LINE
  8
0
 10
47.6705
 20
-54.7295
 11
7.67052
 21
-54.7295
  0
LINE
  8
0
 10
-96.3295
 20
-54.7295
 11
-96.3295
 21
-53.4295
  0
LINE
  8
0
 10
-96.3295
 20
-53.4295
 11
-56.3295
 21
-53.4295
  0
LINE
  8
0
 10
-56.3295
 20
-53.4295
 11
-56.3295
 21
-54.7295
  0
LINE
  8
0
 10
-56.3295
 20
-54.7295
 11
-96.3295
 21
-54.7295
  0
LINE
  8
0
 10
-44.3295
 20
-54.7295
 11
-44.3295
 21
-53.4295
  0
LINE
  8
0
 10
-44.3295
 20
-53.4295
 11
-4.32947
 21
-53.4295
  0
LINE
  8
0
 10
-4.32947
 20
-53.4295
 11
-4.32947
 21
-54.7295
  0
LINE
  8
0
 10
-4.32947
 20
-54.7295
 11
-44.3295
 21
-54.7295
  0
LINE
  8
0
 10
59.6705
 20
-54.7295
 11
59.6705
 21
-53.4295
  0
LINE
  8
0
 10
59.6705
 20
-53.4295
 11
99.6705
 21
-53.4295
  0
LINE
  8
0
 10
99.6705
 20
-53.4295
 11
99.6705
 21
-54.7295
  0
LINE
  8
0
 10
99.6705
 20
-54.7295
 11
59.6705
 21
-54.7295
  0
LINE
  8
0
 10
-44.3295
 20
-59.9295
 11
-44.3295
 21
-58.6295
  0
LINE
  8
0
 10
-44.3295
 20
-58.6295
 11
-4.32947
 21
-58.6295
  0
LINE
  8
0
 10
-4.32947
 20
-58.6295
 11
-4.32947
 21
-59.9295
  0
LINE
  8
0
 10
-4.32947
 20
-59.9295
 11
-44.3295
 21
-59.9295
  0
LINE
  8
0
 10
7.67052
 20
-59.9295
 11
7.67052
 21
-58.6295
  0
LINE
  8
0
 10
7.67052
 20
-58.6295
 11
47.6705
 21
-58.6295
  0
LINE
  8
0
 10
47.6705
 20
-58.6295
 11
47.6705
 21
-59.9295
  0
LINE
  8
0
 10
47.6705
 20
-59.9295
 11
7.67052
 21
-59.9295
  0
LINE
  8
0
 10
-96.3295
 20
-59.9295
 11
-96.3295
 21
-58.6295
  0
LINE
  8
0
 10
-96.3295
 20
-58.6295
 11
-56.3295
 21
-58.6295
  0
LINE
  8
0
 10
-56.3295
 20
-58.6295
 11
-56.3295
 21
-59.9295
  0
LINE
  8
0
 10
-56.3295
 20
-59.9295
 11
-96.3295
 21
-59.9295
  0
LINE
  8
0
 10
59.6705
 20
-59.9295
 11
59.6705
 21
-58.6295
  0
LINE
  8
0
 10
59.6705
 20
-58.6295
 11
99.6705
 21
-58.6295
  0
LINE
  8
0
 10
99.6705
 20
-58.6295
 11
99.6705
 21
-59.9295
  0
LINE
  8
0
 10
99.6705
 20
-59.9295
 11
59.6705
 21
-59.9295
  0
LINE
  8
0
 10
-96.3295
 20
-65.1295
 11
-96.3295
 21
-63.8295
  0
LINE
  8
0
 10
-96.3295
 20
-63.8295
 11
-56.3295
 21
-63.8295
  0
LINE
  8
0
 10
-56.3295
 20
-63.8295
 11
-56.3295
 21
-65.1295
  0
LINE
  8
0
 10
-56.3295
 20
-65.1295
 11
-96.3295
 21
-65.1295
  0
LINE
  8
0
 10
59.6705
 20
-65.1295
 11
59.6705
 21
-63.8295
  0
LINE
  8
0
 10
59.6705
 20
-63.8295
 11
99.6705
 21
-63.8295
  0
LINE
  8
0
 10
99.6705
 20
-63.8295
 11
99.6705
 21
-65.1295
  0
LINE
  8
0
 10
99.6705
 20
-65.1295
 11
59.6705
 21
-65.1295
  0
LINE
  8
0
 10
-44.3295
 20
-65.1295
 11
-44.3295
 21
-63.8295
  0
LINE
  8
0
 10
-44.3295
 20
-63.8295
 11
-4.32947
 21
-63.8295
  0
LINE
  8
0
 10
-4.32947
 20
-63.8295
 11
-4.32947
 21
-65.1295
  0
LINE
  8
0
 10
-4.32947
 20
-65.1295
 11
-44.3295
 21
-65.1295
  0
LINE
  8
0
 10
47.6705
 20
-65.1295
 11
7.67052
 21
-65.1295
  0
LINE
  8
0
 10
7.67052
 20
-65.1295
 11
7.67052
 21
-63.8295
  0
LINE
  8
0
 10
7.67052
 20
-63.8295
 11
47.6705
 21
-63.8295
  0
LINE
  8
0
 10
47.6705
 20
-63.8295
 11
47.6705
 21
-65.1295
  0
LINE
  8
0
 10
-96.3295
 20
-70.3295
 11
-96.3295
 21
-69.0295
  0
LINE
  8
0
 10
-96.3295
 20
-69.0295
 11
-56.3295
 21
-69.0295
  0
LINE
  8
0
 10
-56.3295
 20
-69.0295
 11
-56.3295
 21
-70.3295
  0
LINE
  8
0
 10
-56.3295
 20
-70.3295
 11
-96.3295
 21
-70.3295
  0
LINE
  8
0
 10
59.6705
 20
-70.3295
 11
59.6705
 21
-69.0295
  0
LINE
  8
0
 10
59.6705
 20
-69.0295
 11
99.6705
 21
-69.0295
  0
LINE
  8
0
 10
99.6705
 20
-69.0295
 11
99.6705
 21
-70.3295
  0
LINE
  8
0
 10
99.6705
 20
-70.3295
 11
59.6705
 21
-70.3295
  0
LINE
  8
0
 10
7.67052
 20
-70.3295
 11
7.67052
 21
-69.0295
  0
LINE
  8
0
 10
7.67052
 20
-69.0295
 11
47.6705
 21
-69.0295
  0
LINE
  8
0
 10
47.6705
 20
-69.0295
 11
47.6705
 21
-70.3295
  0
LINE
  8
0
 10
47.6705
 20
-70.3295
 11
7.67052
 21
-70.3295
  0
LINE
  8
0
 10
-44.3295
 20
-70.3295
 11
-44.3295
 21
-69.0295
  0
LINE
  8
0
 10
-44.3295
 20
-69.0295
 11
-4.32947
 21
-69.0295
  0
LINE
  8
0
 10
-4.32947
 20
-69.0295
 11
-4.32947
 21
-70.3295
  0
LINE
  8
0
 10
-4.32947
 20
-70.3295
 11
-44.3295
 21
-70.3295
  0
LINE
  8
0
 10
59.6705
 20
-75.5295
 11
59.6705
 21
-74.2295
  0
LINE
  8
0
 10
59.6705
 20
-74.2295
 11
99.6705
 21
-74.2295
  0
LINE
  8
0
 10
99.6705
 20
-74.2295
 11
99.6705
 21
-75.5295
  0
LINE
  8
0
 10
99.6705
 20
-75.5295
 11
59.6705
 21
-75.5295
  0
LINE
  8
0
 10
-44.3295
 20
-75.5295
 11
-44.3295
 21
-74.2295
  0
LINE
  8
0
 10
-44.3295
 20
-74.2295
 11
-4.32947
 21
-74.2295
  0
LINE
  8
0
 10
-4.32947
 20
-74.2295
 11
-4.32947
 21
-75.5295
  0
LINE
  8
0
 10
-4.32947
 20
-75.5295
 11
-44.3295
 21
-75.5295
  0
LINE
  8
0
 10
-96.3295
 20
-75.5295
 11
-96.3295
 21
-74.2295
  0
LINE
  8
0
 10
-96.3295
 20
-74.2295
 11
-56.3295
 21
-74.2295
  0
LINE
  8
0
 10
-56.3295
 20
-74.2295
 11
-56.3295
 21
-75.5295
  0
LINE
  8
0
 10
-56.3295
 20
-75.5295
 11
-96.3295
 21
-75.5295
  0
LINE
  8
0
 10
7.67052
 20
-75.5295
 11
7.67052
 21
-74.2295
  0
LINE
  8
0
 10
7.67052
 20
-74.2295
 11
47.6705
 21
-74.2295
  0
LINE
  8
0
 10
47.6705
 20
-74.2295
 11
47.6705
 21
-75.5295
  0
LINE
  8
0
 10
47.6705
 20
-75.5295
 11
7.67052
 21
-75.5295
  0
LINE
  8
0
 10
7.67052
 20
-80.7295
 11
7.67052
 21
-79.4295
  0
LINE
  8
0
 10
7.67052
 20
-79.4295
 11
47.6705
 21
-79.4295
  0
LINE
  8
0
 10
47.6705
 20
-79.4295
 11
47.6705
 21
-80.7295
  0
LINE
  8
0
 10
47.6705
 20
-80.7295
 11
7.67052
 21
-80.7295
  0
LINE
  8
0
 10
-44.3295
 20
-80.7295
 11
-44.3295
 21
-79.4295
  0
LINE
  8
0
 10
-44.3295
 20
-79.4295
 11
-4.32947
 21
-79.4295
  0
LINE
  8
0
 10
-4.32947
 20
-79.4295
 11
-4.32947
 21
-80.7295
  0
LINE
  8
0
 10
-4.32947
 20
-80.7295
 11
-44.3295
 21
-80.7295
  0
LINE
  8
0
 10
-96.3295
 20
-80.7295
 11
-96.3295
 21
-79.4295
  0
LINE
  8
0
 10
-96.3295
 20
-79.4295
 11
-56.3295
 21
-79.4295
  0
LINE
  8
0
 10
-56.3295
 20
-79.4295
 11
-56.3295
 21
-80.7295
  0
LINE
  8
0
 10
-56.3295
 20
-80.7295
 11
-96.3295
 21
-80.7295
  0
LINE
  8
0
 10
59.6705
 20
-80.7295
 11
59.6705
 21
-79.4295
  0
LINE
  8
0
 10
59.6705
 20
-79.4295
 11
99.6705
 21
-79.4295
  0
LINE
  8
0
 10
99.6705
 20
-79.4295
 11
99.6705
 21
-80.7295
  0
LINE
  8
0
 10
99.6705
 20
-80.7295
 11
59.6705
 21
-80.7295
  0
LINE
  8
0
 10
-44.3295
 20
-85.9295
 11
-44.3295
 21
-84.6295
  0
LINE
  8
0
 10
-44.3295
 20
-84.6295
 11
-4.32947
 21
-84.6295
  0
LINE
  8
0
 10
-4.32947
 20
-84.6295
 11
-4.32947
 21
-85.9295
  0
LINE
  8
0
 10
-4.32947
 20
-85.9295
 11
-44.3295
 21
-85.9295
  0
LINE
  8
0
 10
59.6705
 20
-85.9295
 11
59.6705
 21
-84.6295
  0
LINE
  8
0
 10
59.6705
 20
-84.6295
 11
99.6705
 21
-84.6295
  0
LINE
  8
0
 10
99.6705
 20
-84.6295
 11
99.6705
 21
-85.9295
  0
LINE
  8
0
 10
99.6705
 20
-85.9295
 11
59.6705
 21
-85.9295
  0
LINE
  8
0
 10
-96.3295
 20
-85.9295
 11
-96.3295
 21
-84.6295
  0
LINE
  8
0
 10
-96.3295
 20
-84.6295
 11
-56.3295
 21
-84.6295
  0
LINE
  8
0
 10
-56.3295
 20
-84.6295
 11
-56.3295
 21
-85.9295
  0
LINE
  8
0
 10
-56.3295
 20
-85.9295
 11
-96.3295
 21
-85.9295
  0
LINE
  8
0
 10
7.67052
 20
-85.9295
 11
7.67052
 21
-84.6295
  0
LINE
  8
0
 10
7.67052
 20
-84.6295
 11
47.6705
 21
-84.6295
  0
LINE
  8
0
 10
47.6705
 20
-84.6295
 11
47.6705
 21
-85.9295
  0
LINE
  8
0
 10
47.6705
 20
-85.9295
 11
7.67052
 21
-85.9295
  0
LINE
  8
0
 10
-44.3295
 20
-91.1295
 11
-44.3295
 21
-89.8295
  0
LINE
  8
0
 10
-44.3295
 20
-89.8295
 11
-4.32947
 21
-89.8295
  0
LINE
  8
0
 10
-4.32947
 20
-89.8295
 11
-4.32947
 21
-91.1295
  0
LINE
  8
0
 10
-4.32947
 20
-91.1295
 11
-44.3295
 21
-91.1295
  0
LINE
  8
0
 10
7.67052
 20
-91.1295
 11
7.67052
 21
-89.8295
  0
LINE
  8
0
 10
7.67052
 20
-89.8295
 11
47.6705
 21
-89.8295
  0
LINE
  8
0
 10
47.6705
 20
-89.8295
 11
47.6705
 21
-91.1295
  0
LINE
  8
0
 10
47.6705
 20
-91.1295
 11
7.67052
 21
-91.1295
  0
LINE
  8
0
 10
-96.3295
 20
-91.1295
 11
-96.3295
 21
-89.8295
  0
LINE
  8
0
 10
-96.3295
 20
-89.8295
 11
-56.3295
 21
-89.8295
  0
LINE
  8
0
 10
-56.3295
 20
-89.8295
 11
-56.3295
 21
-91.1295
  0
LINE
  8
0
 10
-56.3295
 20
-91.1295
 11
-96.3295
 21
-91.1295
  0
LINE
  8
0
 10
59.6705
 20
-91.1295
 11
59.6705
 21
-89.8295
  0
LINE
  8
0
 10
59.6705
 20
-89.8295
 11
99.6705
 21
-89.8295
  0
LINE
  8
0
 10
99.6705
 20
-89.8295
 11
99.6705
 21
-91.1295
  0
LINE
  8
0
 10
99.6705
 20
-91.1295
 11
59.6705
 21
-91.1295
  0
LINE
  8
0
 10
-96.3295
 20
-96.3295
 11
-96.3295
 21
-95.0295
  0
LINE
  8
0
 10
-96.3295
 20
-95.0295
 11
-56.3295
 21
-95.0295
  0
LINE
  8
0
 10
-56.3295
 20
-95.0295
 11
-56.3295
 21
-96.3295
  0
LINE
  8
0
 10
-56.3295
 20
-96.3295
 11
-96.3295
 21
-96.3295
  0
LINE
  8
0
 10
7.67052
 20
-96.3295
 11
7.67052
 21
-95.0295
  0
LINE
  8
0
 10
7.67052
 20
-95.0295
 11
47.6705
 21
-95.0295
  0
LINE
  8
0
 10
47.6705
 20
-95.0295
 11
47.6705
 21
-96.3295
  0
LINE
  8
0
 10
47.6705
 20
-96.3295
 11
7.67052
 21
-96.3295
  0
LINE
  8
0
 10
59.6705
 20
-96.3295
 11
59.6705
 21
-95.0295
  0
LINE
  8
0
 10
59.6705
 20
-95.0295
 11
99.6705
 21
-95.0295
  0
LINE
  8
0
 10
99.6705
 20
-95.0295
 11
99.6705
 21
-96.3295
  0
LINE
  8
0
 10
99.6705
 20
-96.3295
 11
59.6705
 21
-96.3295
  0
LINE
  8
0
 10
-44.3295
 20
-96.3295
 11
-44.3295
 21
-95.0295
  0
LINE
  8
0
 10
-44.3295
 20
-95.0295
 11
-4.32947
 21
-95.0295
  0
LINE
  8
0
 10
-4.32947
 20
-95.0295
 11
-4.32947
 21
-96.3295
  0
LINE
  8
0
 10
-4.32947
 20
-96.3295
 11
-44.3295
 21
-96.3295
  0
LINE
  8
0
 10
59.6705
 20
-101.529
 11
59.6705
 21
-100.229
  0
LINE
  8
0
 10
59.6705
 20
-100.229
 11
99.6705
 21
-100.229
  0
LINE
  8
0
 10
99.6705
 20
-100.229
 11
99.6705
 21
-101.529
  0
LINE
  8
0
 10
99.6705
 20
-101.529
 11
59.6705
 21
-101.529
  0
LINE
  8
0
 10
7.67052
 20
-101.529
 11
7.67052
 21
-100.229
  0
LINE
  8
0
 10
7.67052
 20
-100.229
 11
47.6705
 21
-100.229
  0
LINE
  8
0
 10
47.6705
 20
-100.229
 11
47.6705
 21
-101.529
  0
LINE
  8
0
 10
47.6705
 20
-101.529
 11
7.67052
 21
-101.529
  0
LINE
  8
0
 10
-44.3295
 20
-101.529
 11
-44.3295
 21
-100.229
  0
LINE
  8
0
 10
-44.3295
 20
-100.229
 11
-4.32947
 21
-100.229
  0
LINE
  8
0
 10
-4.32947
 20
-100.229
 11
-4.32947
 21
-101.529
  0
LINE
  8
0
 10
-4.32947
 20
-101.529
 11
-44.3295
 21
-101.529
  0
LINE
  8
0
 10
-96.3295
 20
-101.529
 11
-96.3295
 21
-100.229
  0
LINE
  8
0
 10
-96.3295
 20
-100.229
 11
-56.3295
 21
-100.229
  0
LINE
  8
0
 10
-56.3295
 20
-100.229
 11
-56.3295
 21
-101.529
  0
LINE
  8
0
 10
-56.3295
 20
-101.529
 11
-96.3295
 21
-101.529
  0
LINE
  8
0
 10
-44.3295
 20
-106.729
 11
-44.3295
 21
-105.429
  0
LINE
  8
0
 10
-44.3295
 20
-105.429
 11
-4.32947
 21
-105.429
  0
LINE
  8
0
 10
-4.32947
 20
-105.429
 11
-4.32947
 21
-106.729
  0
LINE
  8
0
 10
-4.32947
 20
-106.729
 11
-44.3295
 21
-106.729
  0
LINE
  8
0
 10
7.67052
 20
-106.729
 11
7.67052
 21
-105.429
  0
LINE
  8
0
 10
7.67052
 20
-105.429
 11
47.6705
 21
-105.429
  0
LINE
  8
0
 10
47.6705
 20
-105.429
 11
47.6705
 21
-106.729
  0
LINE
  8
0
 10
47.6705
 20
-106.729
 11
7.67052
 21
-106.729
  0
LINE
  8
0
 10
-96.3295
 20
-106.729
 11
-96.3295
 21
-105.429
  0
LINE
  8
0
 10
-96.3295
 20
-105.429
 11
-56.3295
 21
-105.429
  0
LINE
  8
0
 10
-56.3295
 20
-105.429
 11
-56.3295
 21
-106.729
  0
LINE
  8
0
 10
-56.3295
 20
-106.729
 11
-96.3295
 21
-106.729
  0
LINE
  8
0
 10
59.6705
 20
-106.729
 11
59.6705
 21
-105.429
  0
LINE
  8
0
 10
59.6705
 20
-105.429
 11
99.6705
 21
-105.429
  0
LINE
  8
0
 10
99.6705
 20
-105.429
 11
99.6705
 21
-106.729
  0
LINE
  8
0
 10
99.6705
 20
-106.729
 11
59.6705
 21
-106.729
  0
LINE
  8
0
 10
59.6705
 20
-111.929
 11
59.6705
 21
-110.629
  0
LINE
  8
0
 10
59.6705
 20
-110.629
 11
99.6705
 21
-110.629
  0
LINE
  8
0
 10
99.6705
 20
-110.629
 11
99.6705
 21
-111.929
  0
LINE
  8
0
 10
99.6705
 20
-111.929
 11
59.6705
 21
-111.929
  0
LINE
  8
0
 10
-96.3295
 20
-111.929
 11
-96.3295
 21
-110.629
  0
LINE
  8
0
 10
-96.3295
 20
-110.629
 11
-56.3295
 21
-110.629
  0
LINE
  8
0
 10
-56.3295
 20
-110.629
 11
-56.3295
 21
-111.929
  0
LINE
  8
0
 10
-56.3295
 20
-111.929
 11
-96.3295
 21
-111.929
  0
LINE
  8
0
 10
-44.3295
 20
-111.929
 11
-44.3295
 21
-110.629
  0
LINE
  8
0
 10
-44.3295
 20
-110.629
 11
-4.32947
 21
-110.629
  0
LINE
  8
0
 10
-4.32947
 20
-110.629
 11
-4.32947
 21
-111.929
  0
LINE
  8
0
 10
-4.32947
 20
-111.929
 11
-44.3295
 21
-111.929
  0
LINE
  8
0
 10
7.67052
 20
-111.929
 11
7.67052
 21
-110.629
  0
LINE
  8
0
 10
7.67052
 20
-110.629
 11
47.6705
 21
-110.629
  0
LINE
  8
0
 10
47.6705
 20
-110.629
 11
47.6705
 21
-111.929
  0
LINE
  8
0
 10
47.6705
 20
-111.929
 11
7.67052
 21
-111.929
  0
LINE
  8
0
 10
-44.3295
 20
-117.129
 11
-44.3295
 21
-115.829
  0
LINE
  8
0
 10
-44.3295
 20
-115.829
 11
-4.32947
 21
-115.829
  0
LINE
  8
0
 10
-4.32947
 20
-115.829
 11
-4.32947
 21
-117.129
  0
LINE
  8
0
 10
-4.32947
 20
-117.129
 11
-44.3295
 21
-117.129
  0
LINE
  8
0
 10
59.6705
 20
-117.129
 11
59.6705
 21
-115.829
  0
LINE
  8
0
 10
59.6705
 20
-115.829
 11
99.6705
 21
-115.829
  0
LINE
  8
0
 10
99.6705
 20
-115.829
 11
99.6705
 21
-117.129
  0
LINE
  8
0
 10
99.6705
 20
-117.129
 11
59.6705
 21
-117.129
  0
LINE
  8
0
 10
7.67052
 20
-117.129
 11
7.67052
 21
-115.829
  0
LINE
  8
0
 10
7.67052
 20
-115.829
 11
47.6705
 21
-115.829
  0
LINE
  8
0
 10
47.6705
 20
-115.829
 11
47.6705
 21
-117.129
  0
LINE
  8
0
 10
47.6705
 20
-117.129
 11
7.67052
 21
-117.129
  0
LINE
  8
0
 10
-96.3295
 20
-117.129
 11
-96.3295
 21
-115.829
  0
LINE
  8
0
 10
-96.3295
 20
-115.829
 11
-56.3295
 21
-115.829
  0
LINE
  8
0
 10
-56.3295
 20
-115.829
 11
-56.3295
 21
-117.129
  0
LINE
  8
0
 10
-56.3295
 20
-117.129
 11
-96.3295
 21
-117.129
  0
LINE
  8
0
 10
-0.172668
 20
-125.074
 11
-0.344666
 21
-125.058
  0
LINE
  8
0
 10
-0.344666
 20
-125.058
 11
-0.515289
 21
-125.031
  0
LINE
  8
0
 10
-0.515289
 20
-125.031
 11
-0.683884
 21
-124.993
  0
LINE
  8
0
 10
-0.683884
 20
-124.993
 11
-0.849792
 21
-124.945
  0
LINE
  8
0
 10
-0.849792
 20
-124.945
 11
-1.01233
 21
-124.886
  0
LINE
  8
0
 10
-1.01233
 20
-124.886
 11
-1.17088
 21
-124.818
  0
LINE
  8
0
 10
-1.17088
 20
-124.818
 11
-1.32481
 21
-124.739
  0
LINE
  8
0
 10
-1.32481
 20
-124.739
 11
-1.47351
 21
-124.651
  0
LINE
  8
0
 10
-1.47351
 20
-124.651
 11
-1.61641
 21
-124.554
  0
LINE
  8
0
 10
-1.61641
 20
-124.554
 11
-1.75291
 21
-124.448
  0
LINE
  8
0
 10
-1.75291
 20
-124.448
 11
-1.88249
 21
-124.334
  0
LINE
  8
0
 10
-1.88249
 20
-124.334
 11
-2.00465
 21
-124.212
  0
LINE
  8
0
 10
-2.00465
 20
-124.212
 11
-2.1189
 21
-124.082
  0
LINE
  8
0
 10
-2.1189
 20
-124.082
 11
-2.22479
 21
-123.946
  0
LINE
  8
0
 10
-2.22479
 20
-123.946
 11
-2.3219
 21
-123.803
  0
LINE
  8
0
 10
-2.3219
 20
-123.803
 11
-2.40984
 21
-123.654
  0
LINE
  8
0
 10
-2.40984
 20
-123.654
 11
-2.48827
 21
-123.5
  0
LINE
  8
0
 10
-2.48827
 20
-123.5
 11
-2.55688
 21
-123.342
  0
LINE
  8
0
 10
-2.55688
 20
-123.342
 11
-2.6154
 21
-123.179
  0
LINE
  8
0
 10
-2.6154
 20
-123.179
 11
-2.66359
 21
-123.013
  0
LINE
  8
0
 10
-2.66359
 20
-123.013
 11
-2.70128
 21
-122.845
  0
LINE
  8
0
 10
-2.70128
 20
-122.845
 11
-2.7283
 21
-122.674
  0
LINE
  8
0
 10
-2.7283
 20
-122.674
 11
-2.74457
 21
-122.502
  0
LINE
  8
0
 10
-2.74457
 20
-122.502
 11
-2.75
 21
-122.329
  0
LINE
  8
0
 10
-2.75
 20
-122.329
 11
-2.74457
 21
-122.157
  0
LINE
  8
0
 10
-2.74457
 20
-122.157
 11
-2.7283
 21
-121.985
  0
LINE
  8
0
 10
-2.7283
 20
-121.985
 11
-2.70128
 21
-121.814
  0
LINE
  8
0
 10
-2.70128
 20
-121.814
 11
-2.66359
 21
-121.646
  0
LINE
  8
0
 10
-2.66359
 20
-121.646
 11
-2.6154
 21
-121.48
  0
LINE
  8
0
 10
-2.6154
 20
-121.48
 11
-2.55688
 21
-121.317
  0
LINE
  8
0
 10
-2.55688
 20
-121.317
 11
-2.48827
 21
-121.159
  0
LINE
  8
0
 10
-2.48827
 20
-121.159
 11
-2.40984
 21
-121.005
  0
LINE
  8
0
 10
-2.40984
 20
-121.005
 11
-2.3219
 21
-120.856
  0
LINE
  8
0
 10
-2.3219
 20
-120.856
 11
-2.22479
 21
-120.713
  0
LINE
  8
0
 10
-2.22479
 20
-120.713
 11
-2.1189
 21
-120.577
  0
LINE
  8
0
 10
-2.1189
 20
-120.577
 11
-2.00465
 21
-120.447
  0
LINE
  8
0
 10
-2.00465
 20
-120.447
 11
-1.88249
 21
-120.325
  0
LINE
  8
0
 10
-1.88249
 20
-120.325
 11
-1.75291
 21
-120.211
  0
LINE
  8
0
 10
-1.75291
 20
-120.211
 11
-1.61641
 21
-120.105
  0
LINE
  8
0
 10
-1.61641
 20
-120.105
 11
-1.47351
 21
-120.008
  0
LINE
  8
0
 10
-1.47351
 20
-120.008
 11
-1.32481
 21
-119.92
  0
LINE
  8
0
 10
-1.32481
 20
-119.92
 11
-1.17088
 21
-119.841
  0
LINE
  8
0
 10
-1.17088
 20
-119.841
 11
-1.01233
 21
-119.773
  0
LINE
  8
0
 10
-1.01233
 20
-119.773
 11
-0.849792
 21
-119.714
  0
LINE
  8
0
 10
-0.849792
 20
-119.714
 11
-0.683884
 21
-119.666
  0
LINE
  8
0
 10
-0.683884
 20
-119.666
 11
-0.515289
 21
-119.628
  0
LINE
  8
0
 10
-0.515289
 20
-119.628
 11
-0.344666
 21
-119.601
  0
LINE
  8
0
 10
-0.344666
 20
-119.601
 11
-0.172668
 21
-119.585
  0
LINE
  8
0
 10
-0.172668
 20
-119.585
 11
0
 21
-119.579
  0
LINE
  8
0
 10
0
 20
-119.579
 11
0.172668
 21
-119.585
  0
LINE
  8
0
 10
0.172668
 20
-119.585
 11
0.344666
 21
-119.601
  0
LINE
  8
0
 10
0.344666
 20
-119.601
 11
0.515289
 21
-119.628
  0
LINE
  8
0
 10
0.515289
 20
-119.628
 11
0.683884
 21
-119.666
  0
LINE
  8
0
 10
0.683884
 20
-119.666
 11
0.849792
 21
-119.714
  0
LINE
  8
0
 10
0.849792
 20
-119.714
 11
1.01233
 21
-119.773
  0
LINE
  8
0
 10
1.01233
 20
-119.773
 11
1.17088
 21
-119.841
  0
LINE
  8
0
 10
1.17088
 20
-119.841
 11
1.32481
 21
-119.92
  0
LINE
  8
0
 10
1.32481
 20
-119.92
 11
1.47351
 21
-120.008
  0
LINE
  8
0
 10
1.47351
 20
-120.008
 11
1.61641
 21
-120.105
  0
LINE
  8
0
 10
1.61641
 20
-120.105
 11
1.75291
 21
-120.211
  0
LINE
  8
0
 10
1.75291
 20
-120.211
 11
1.88249
 21
-120.325
  0
LINE
  8
0
 10
1.88249
 20
-120.325
 11
2.00465
 21
-120.447
  0
LINE
  8
0
 10
2.00465
 20
-120.447
 11
2.1189
 21
-120.577
  0
LINE
  8
0
 10
2.1189
 20
-120.577
 11
2.22479
 21
-120.713
  0
LINE
  8
0
 10
2.22479
 20
-120.713
 11
2.3219
 21
-120.856
  0
LINE
  8
0
 10
2.3219
 20
-120.856
 11
2.40984
 21
-121.005
  0
LINE
  8
0
 10
2.40984
 20
-121.005
 11
2.48827
 21
-121.159
  0
LINE
  8
0
 10
2.48827
 20
-121.159
 11
2.55688
 21
-121.317
  0
LINE
  8
0
 10
2.55688
 20
-121.317
 11
2.6154
 21
-121.48
  0
LINE
  8
0
 10
2.6154
 20
-121.48
 11
2.66359
 21
-121.646
  0
LINE
  8
0
 10
2.66359
 20
-121.646
 11
2.70128
 21
-121.814
  0
LINE
  8
0
 10
2.70128
 20
-121.814
 11
2.7283
 21
-121.985
  0
LINE
  8
0
 10
2.7283
 20
-121.985
 11
2.74457
 21
-122.157
  0
LINE
  8
0
 10
2.74457
 20
-122.157
 11
2.75
 21
-122.329
  0
LINE
  8
0
 10
2.75
 20
-122.329
 11
2.74457
 21
-122.502
  0
LINE
  8
0
 10
2.74457
 20
-122.502
 11
2.7283
 21
-122.674
  0
LINE
  8
0
 10
2.7283
 20
-122.674
 11
2.70128
 21
-122.845
  0
LINE
  8
0
 10
2.70128
 20
-122.845
 11
2.66359
 21
-123.013
  0
LINE
  8
0
 10
2.66359
 20
-123.013
 11
2.6154
 21
-123.179
  0
LINE
  8
0
 10
2.6154
 20
-123.179
 11
2.55688
 21
-123.342
  0
LINE
  8
0
 10
2.55688
 20
-123.342
 11
2.48827
 21
-123.5
  0
LINE
  8
0
 10
2.48827
 20
-123.5
 11
2.40984
 21
-123.654
  0
LINE
  8
0
 10
2.40984
 20
-123.654
 11
2.3219
 21
-123.803
  0
LINE
  8
0
 10
2.3219
 20
-123.803
 11
2.22479
 21
-123.946
  0
LINE
  8
0
 10
2.22479
 20
-123.946
 11
2.1189
 21
-124.082
  0
LINE
  8
0
 10
2.1189
 20
-124.082
 11
2.00465
 21
-124.212
  0
LINE
  8
0
 10
2.00465
 20
-124.212
 11
1.88249
 21
-124.334
  0
LINE
  8
0
 10
1.88249
 20
-124.334
 11
1.75291
 21
-124.448
  0
LINE
  8
0
 10
1.75291
 20
-124.448
 11
1.61641
 21
-124.554
  0
LINE
  8
0
 10
1.61641
 20
-124.554
 11
1.47351
 21
-124.651
  0
LINE
  8
0
 10
1.47351
 20
-124.651
 11
1.32481
 21
-124.739
  0
LINE
  8
0
 10
1.32481
 20
-124.739
 11
1.17088
 21
-124.818
  0
LINE
  8
0
 10
1.17088
 20
-124.818
 11
1.01233
 21
-124.886
  0
LINE
  8
0
 10
1.01233
 20
-124.886
 11
0.849792
 21
-124.945
  0
LINE
  8
0
 10
0.849792
 20
-124.945
 11
0.683884
 21
-124.993
  0
LINE
  8
0
 10
0.683884
 20
-124.993
 11
0.515289
 21
-125.031
  0
LINE
  8
0
 10
0.515289
 20
-125.031
 11
0.344666
 21
-125.058
  0
LINE
  8
0
 10
0.344666
 20
-125.058
 11
0.172668
 21
-125.074
  0
LINE
  8
0
 10
0.172668
 20
-125.074
 11
0
 21
-125.079
  0
LINE
  8
0
 10
0
 20
-125.079
 11
-0.172668
 21
-125.074
  0
LINE
  8
0
 10
7.67052
 20
-122.329
 11
7.67052
 21
-121.029
  0
LINE
  8
0
 10
7.67052
 20
-121.029
 11
47.6705
 21
-121.029
  0
LINE
  8
0
 10
47.6705
 20
-121.029
 11
47.6705
 21
-122.329
  0
LINE
  8
0
 10
47.6705
 20
-122.329
 11
7.67052
 21
-122.329
  0
LINE
  8
0
 10
59.6705
 20
-122.329
 11
59.6705
 21
-121.029
  0
LINE
  8
0
 10
59.6705
 20
-121.029
 11
99.6705
 21
-121.029
  0
LINE
  8
0
 10
99.6705
 20
-121.029
 11
99.6705
 21
-122.329
  0
LINE
  8
0
 10
99.6705
 20
-122.329
 11
59.6705
 21
-122.329
  0
LINE
  8
0
 10
-44.3295
 20
-122.329
 11
-44.3295
 21
-121.029
  0
LINE
  8
0
 10
-44.3295
 20
-121.029
 11
-4.32947
 21
-121.029
  0
LINE
  8
0
 10
-4.32947
 20
-121.029
 11
-4.32947
 21
-122.329
  0
LINE
  8
0
 10
-4.32947
 20
-122.329
 11
-44.3295
 21
-122.329
  0
LINE
  8
0
 10
-96.3295
 20
-122.329
 11
-96.3295
 21
-121.029
  0
LINE
  8
0
 10
-96.3295
 20
-121.029
 11
-56.3295
 21
-121.029
  0
LINE
  8
0
 10
-56.3295
 20
-121.029
 11
-56.3295
 21
-122.329
  0
LINE
  8
0
 10
-56.3295
 20
-122.329
 11
-96.3295
 21
-122.329
  0
LINE
  8
0
 10
99.6705
 20
2.47052
 11
59.6705
 21
2.47052
  0
LINE
  8
0
 10
59.6705
 20
2.47052
 11
59.6705
 21
3.77052
  0
LINE
  8
0
 10
59.6705
 20
3.77052
 11
99.6705
 21
3.77052
  0
LINE
  8
0
 10
99.6705
 20
3.77052
 11
99.6705
 21
2.47052
  0
ENDSEC
  0
SECTION
  2
OBJECTS
  0
DICTIONARY
  0
ENDSEC
  0
EOF
